<svg width="22" height="24" viewBox="0 0 22 24" fill="none" xmlns="http://www.w3.org/2000/svg">
<path d="M2.7178 20.8251C2.7178 21.636 3.37747 22.2957 4.18836 22.2957C4.99925 22.2957 5.65897 21.636 5.65897 20.8251C5.65897 20.0142 4.99925 19.3545 4.18836 19.3545C3.37747 19.3545 2.7178 20.0143 2.7178 20.8251ZM4.95448 20.8251C4.95448 21.2475 4.6108 21.5912 4.18841 21.5912C3.76597 21.5912 3.42233 21.2475 3.42233 20.8251C3.42233 20.4027 3.76597 20.059 4.18841 20.059C4.6108 20.059 4.95448 20.4027 4.95448 20.8251Z" fill="white"/>
<path d="M21.7562 1.73096L21.5068 1.11947C21.284 0.573051 20.6582 0.309754 20.1118 0.532504L17.698 1.51664H17.5485C17.3148 1.1416 16.9914 0.830529 16.6076 0.611396C16.2239 0.392264 15.7916 0.271939 15.3498 0.261238L7.77509 0.0765039C7.57967 0.0706914 7.41908 0.225613 7.41435 0.420051C7.41207 0.513445 7.44698 0.60392 7.51141 0.671573C7.57584 0.739226 7.6645 0.778516 7.75789 0.780801L15.3327 0.965535C15.825 0.97756 16.2949 1.17428 16.649 1.51664H2.69145L2.71325 1.49447C3.22475 0.975145 3.93622 0.687848 4.6647 0.705285L6.34878 0.746348C6.54383 0.751551 6.7048 0.597285 6.70953 0.402801C6.71427 0.208316 6.56047 0.0467851 6.36599 0.0420507L4.68191 0.000988241C3.75908 -0.0215586 2.85894 0.342613 2.21136 1.00004L1.70258 1.5166H1.23486C0.644751 1.5166 0.164658 1.99669 0.164658 2.5868V3.24722C0.164658 3.83733 0.644751 4.31743 1.23486 4.31743H1.52675L2.70402 18.0198C1.69944 18.5535 1.01352 19.6105 1.01352 20.8251C1.01352 22.5758 2.43777 24 4.18836 24H8.51896C8.61139 23.9984 8.69952 23.9607 8.76435 23.8948C8.82919 23.8289 8.86552 23.7401 8.86552 23.6477C8.86552 23.5552 8.82919 23.4665 8.76435 23.4006C8.69952 23.3347 8.61139 23.2969 8.51896 23.2954H6.17952C6.90078 22.713 7.36325 21.8222 7.36325 20.8251C7.36325 19.0744 5.939 17.6502 4.18836 17.6502C3.91203 17.6502 3.64391 17.6858 3.38816 17.7525L2.23386 4.31747L12.8482 4.31733C12.9416 4.31733 13.0312 4.28022 13.0973 4.21416C13.1633 4.14809 13.2005 4.05849 13.2005 3.96507C13.2005 3.87164 13.1633 3.78204 13.0973 3.71598C13.0312 3.64991 12.9416 3.6128 12.8482 3.6128L1.23481 3.61294C1.03316 3.61294 0.869095 3.44888 0.869095 3.24722V2.58685C0.869095 2.38519 1.03316 2.22113 1.23481 2.22113H17.767C17.8126 2.22113 17.8577 2.21227 17.9 2.19507L20.3777 1.18486C20.5645 1.10879 20.7784 1.19869 20.8544 1.38544L21.1038 1.99693C21.1799 2.18363 21.09 2.39752 20.9032 2.47364L18.5935 3.41518C18.2735 3.54597 17.931 3.6131 17.5853 3.6128L14.2572 3.61285C14.1637 3.61285 14.0741 3.64996 14.0081 3.71602C13.942 3.78209 13.9049 3.87169 13.9049 3.96511C13.9049 4.05854 13.942 4.14814 14.0081 4.2142C14.0741 4.28027 14.1637 4.31738 14.2572 4.31738H16.9321L15.3478 22.7587C15.3215 23.0648 15.0699 23.2957 14.7627 23.2957H9.92797C9.83554 23.2972 9.7474 23.3349 9.68257 23.4008C9.61774 23.4667 9.5814 23.5555 9.5814 23.6479C9.5814 23.7404 9.61774 23.8291 9.68257 23.895C9.7474 23.9609 9.83554 23.9987 9.92797 24.0002H14.7627C15.4385 24.0002 15.9918 23.4924 16.0497 22.819L17.6394 4.31597C18.0594 4.30932 18.4697 4.22644 18.8595 4.06754L21.1693 3.12596C21.7156 2.90321 21.9789 2.27738 21.7562 1.73096ZM6.65877 20.8252C6.65877 22.1873 5.55055 23.2955 4.18836 23.2955C2.82617 23.2955 1.718 22.1873 1.718 20.8252C1.718 19.8145 2.32831 18.9442 3.19949 18.562C3.21256 18.5571 3.22536 18.5516 3.2376 18.5453C3.53871 18.4192 3.86193 18.3545 4.18836 18.3548C5.55055 18.3548 6.65877 19.463 6.65877 20.8252Z" fill="white"/>
<path d="M14.8341 13.9125C14.8268 13.8904 14.8244 13.873 14.7966 13.8214L12.9824 10.746C12.9349 10.6656 12.8574 10.6073 12.767 10.5839C12.6766 10.5606 12.5806 10.5741 12.5001 10.6215L11.0207 11.4932C10.9809 11.5167 10.946 11.5478 10.9182 11.5848C10.8904 11.6218 10.8701 11.6638 10.8585 11.7086C10.8469 11.7534 10.8443 11.8001 10.8508 11.8459C10.8572 11.8917 10.8726 11.9358 10.8961 11.9757L11.8806 13.6446L11.6925 13.6443L11.6926 13.5561C11.7017 13.2555 11.2958 13.0789 11.0778 13.3208L9.91799 14.6175C9.86036 14.6819 9.82843 14.7653 9.82829 14.8518C9.82816 14.9382 9.85981 15.0217 9.91724 15.0863L11.0735 16.3876C11.2299 16.5835 11.6656 16.5247 11.6891 16.1541L11.6892 16.066L13.5111 16.0684H13.5116C13.5736 16.0684 13.6346 16.052 13.6883 16.0209C13.742 15.9897 13.7865 15.945 13.8173 15.8911L14.7988 14.1753C14.8286 14.0869 14.864 14.0914 14.8341 13.9125ZM11.682 11.9212L12.5545 11.4072L13.8759 13.6473L12.6993 13.6457L11.682 11.9212ZM13.3075 15.3636L11.338 15.3609H11.3375C11.271 15.3609 11.2066 15.3797 11.1511 15.4142L10.6525 14.8531L11.1523 14.2943C11.2083 14.3295 11.2731 14.3483 11.3393 14.3483L13.8863 14.3518L13.3075 15.3636ZM9.47249 13.7425C9.42557 13.696 9.33121 13.6423 9.2233 13.6393L7.28572 13.6399L7.38144 13.4781L7.45733 13.5229C7.67704 13.6582 8.06001 13.4665 7.97226 13.1128L7.44412 11.4551C7.41792 11.3727 7.36231 11.3029 7.2879 11.2589C7.21349 11.2148 7.12549 11.1997 7.04066 11.2165L5.33249 11.5517C5.07838 11.5969 4.92008 11.995 5.22102 12.2006L5.29691 12.2455L4.36958 13.8137C4.33795 13.8672 4.32103 13.9281 4.32055 13.9903C4.32007 14.0524 4.33605 14.1136 4.36686 14.1676L5.3466 15.8844C5.40351 15.9724 5.48685 16.0562 5.65265 16.0621L9.22326 16.0608C9.31665 16.0608 9.4062 16.0237 9.47223 15.9577C9.53827 15.8916 9.57537 15.8021 9.57538 15.7087L9.57566 13.9915C9.57568 13.9453 9.56657 13.8995 9.54887 13.8568C9.53117 13.814 9.50521 13.7752 9.47249 13.7425ZM6.08263 12.3009C6.11635 12.2441 6.13331 12.1789 6.13157 12.1129L6.86816 11.9683L7.09579 12.6827C7.03702 12.7131 6.98798 12.7594 6.95427 12.8163L5.65794 15.0087L5.08016 13.9962L6.08263 12.3009ZM8.87099 15.3565L6.27022 15.3574L6.86915 14.3446L8.87118 14.3439L8.87099 15.3565ZM12.227 8.68642C12.1719 8.64099 12.1044 8.61335 12.0332 8.60718C11.9621 8.601 11.8908 8.61657 11.8287 8.65183L11.7521 8.69537L10.8518 7.11147C10.8211 7.05744 10.7766 7.0125 10.7229 6.98121C10.6692 6.94992 10.6082 6.93339 10.546 6.9333L8.5693 6.93053C8.49819 6.92748 8.3264 6.98725 8.26307 7.10786L6.49011 10.2072C6.44374 10.2882 6.43145 10.3844 6.45596 10.4745C6.48047 10.5646 6.53976 10.6413 6.6208 10.6877L8.11087 11.5411C8.20405 11.6068 8.46079 11.6193 8.59171 11.4103L9.55382 9.7285L9.64672 9.89195L9.57008 9.9355C9.508 9.97075 9.4581 10.024 9.42699 10.0883C9.39588 10.1526 9.38503 10.2248 9.39588 10.2953C9.40674 10.3659 9.43878 10.4315 9.48776 10.4834C9.53674 10.5354 9.60035 10.5712 9.67016 10.5862L11.3712 10.9514C11.5075 10.978 11.68 10.9235 11.7788 10.7199L12.3365 9.07084C12.3593 9.00322 12.3611 8.93025 12.3416 8.8616C12.322 8.79294 12.2821 8.73185 12.227 8.68642ZM8.15516 10.7547L7.27644 10.2515L8.56785 7.99398L9.14929 9.01694L8.15516 10.7547ZM11.212 10.1968L10.4789 10.0394C10.4818 9.97332 10.4659 9.90775 10.4332 9.85023L9.17469 7.63595L10.3404 7.63759L11.3136 9.3498C11.3463 9.40722 11.3944 9.45431 11.4525 9.48569L11.212 10.1968Z" fill="white"/>
</svg>
