<svg width="24" height="24" viewBox="0 0 24 24" fill="none" xmlns="http://www.w3.org/2000/svg">
<g clip-path="url(#clip0_1290_6739)">
<path d="M3.71783 20.8251C3.71783 21.636 4.37751 22.2957 5.1884 22.2957C5.99929 22.2957 6.65901 21.636 6.65901 20.8251C6.65901 20.0142 5.99929 19.3545 5.1884 19.3545C4.37751 19.3545 3.71783 20.0143 3.71783 20.8251ZM5.95452 20.8251C5.95452 21.2475 5.61083 21.5912 5.18844 21.5912C4.76601 21.5912 4.42237 21.2475 4.42237 20.8251C4.42237 20.4027 4.76601 20.059 5.18844 20.059C5.61083 20.059 5.95452 20.4027 5.95452 20.8251Z" fill="#212121"/>
<path d="M22.7562 1.73096L22.5069 1.11947C22.2841 0.573051 21.6582 0.309754 21.1118 0.532504L18.698 1.51664H18.5485C18.3148 1.1416 17.9914 0.830529 17.6077 0.611396C17.2239 0.392264 16.7916 0.271939 16.3498 0.261238L8.77511 0.0765039C8.57969 0.0706914 8.4191 0.225613 8.41436 0.420051C8.41208 0.513445 8.447 0.60392 8.51142 0.671573C8.57585 0.739226 8.66451 0.778516 8.75791 0.780801L16.3327 0.965535C16.8251 0.97756 17.2949 1.17428 17.649 1.51664H3.69147L3.71327 1.49447C4.22477 0.975145 4.93624 0.687848 5.66472 0.705285L7.3488 0.746348C7.54385 0.751551 7.70481 0.597285 7.70955 0.402801C7.71428 0.208316 7.56049 0.0467851 7.366 0.0420507L5.68192 0.000988241C4.75909 -0.0215586 3.85895 0.342613 3.21138 1.00004L2.70259 1.5166H2.23488C1.64477 1.5166 1.16467 1.99669 1.16467 2.5868V3.24722C1.16467 3.83733 1.64477 4.31743 2.23488 4.31743H2.52677L3.70403 18.0198C2.69945 18.5535 2.01353 19.6105 2.01353 20.8251C2.01353 22.5758 3.43778 24 5.18838 24H9.51897C9.6114 23.9984 9.69954 23.9607 9.76437 23.8948C9.8292 23.8289 9.86554 23.7401 9.86554 23.6477C9.86554 23.5552 9.8292 23.4665 9.76437 23.4006C9.69954 23.3347 9.6114 23.2969 9.51897 23.2954H7.17953C7.9008 22.713 8.36327 21.8222 8.36327 20.8251C8.36327 19.0744 6.93902 17.6502 5.18838 17.6502C4.91205 17.6502 4.64392 17.6858 4.38817 17.7525L3.23388 4.31747L13.8482 4.31733C13.9416 4.31733 14.0312 4.28022 14.0973 4.21416C14.1634 4.14809 14.2005 4.05849 14.2005 3.96507C14.2005 3.87164 14.1634 3.78204 14.0973 3.71598C14.0312 3.64991 13.9416 3.6128 13.8482 3.6128L2.23483 3.61294C2.03317 3.61294 1.86911 3.44888 1.86911 3.24722V2.58685C1.86911 2.38519 2.03317 2.22113 2.23483 2.22113H18.767C18.8126 2.22113 18.8577 2.21227 18.9 2.19507L21.3777 1.18486C21.5645 1.10879 21.7784 1.19869 21.8545 1.38544L22.1038 1.99693C22.1799 2.18363 22.09 2.39752 21.9033 2.47364L19.5935 3.41518C19.2735 3.54597 18.931 3.6131 18.5853 3.6128L15.2572 3.61285C15.1637 3.61285 15.0741 3.64996 15.0081 3.71602C14.942 3.78209 14.9049 3.87169 14.9049 3.96511C14.9049 4.05854 14.942 4.14814 15.0081 4.2142C15.0741 4.28027 15.1637 4.31738 15.2572 4.31738H17.9321L16.3478 22.7587C16.3215 23.0648 16.0699 23.2957 15.7627 23.2957H10.928C10.8356 23.2972 10.7474 23.3349 10.6826 23.4008C10.6178 23.4667 10.5814 23.5555 10.5814 23.6479C10.5814 23.7404 10.6178 23.8291 10.6826 23.895C10.7474 23.9609 10.8356 23.9987 10.928 24.0002H15.7627C16.4386 24.0002 16.9918 23.4924 17.0497 22.819L18.6394 4.31597C19.0594 4.30932 19.4697 4.22644 19.8595 4.06754L22.1693 3.12596C22.7156 2.90321 22.9789 2.27738 22.7562 1.73096ZM7.65878 20.8252C7.65878 22.1873 6.55056 23.2955 5.18838 23.2955C3.82619 23.2955 2.71802 22.1873 2.71802 20.8252C2.71802 19.8145 3.32833 18.9442 4.1995 18.562C4.21258 18.5571 4.22538 18.5516 4.23761 18.5453C4.53872 18.4192 4.86194 18.3545 5.18838 18.3548C6.55056 18.3548 7.65878 19.463 7.65878 20.8252Z" fill="#212121"/>
<path d="M15.8341 13.9125C15.8268 13.8904 15.8245 13.873 15.7966 13.8214L13.9824 10.746C13.9349 10.6656 13.8574 10.6073 13.767 10.5839C13.6766 10.5606 13.5806 10.5741 13.5001 10.6215L12.0207 11.4932C11.9809 11.5167 11.946 11.5478 11.9182 11.5848C11.8904 11.6218 11.8701 11.6638 11.8585 11.7086C11.8469 11.7534 11.8443 11.8001 11.8508 11.8459C11.8572 11.8917 11.8726 11.9358 11.8961 11.9757L12.8806 13.6446L12.6925 13.6443L12.6926 13.5561C12.7017 13.2555 12.2958 13.0789 12.0778 13.3208L10.918 14.6175C10.8604 14.6819 10.8284 14.7653 10.8283 14.8518C10.8282 14.9382 10.8598 15.0217 10.9173 15.0863L12.0735 16.3876C12.2299 16.5835 12.6656 16.5247 12.6891 16.1541L12.6892 16.066L14.5111 16.0684H14.5116C14.5736 16.0684 14.6346 16.052 14.6883 16.0209C14.742 15.9897 14.7865 15.945 14.8173 15.8911L15.7988 14.1753C15.8286 14.0869 15.864 14.0914 15.8341 13.9125ZM12.6821 11.9212L13.5545 11.4072L14.8759 13.6473L13.6993 13.6457L12.6821 11.9212ZM14.3075 15.3636L12.338 15.3609H12.3375C12.2711 15.3609 12.2066 15.3797 12.1511 15.4142L11.6525 14.8531L12.1523 14.2943C12.2083 14.3295 12.2731 14.3483 12.3393 14.3483L14.8863 14.3518L14.3075 15.3636ZM10.4725 13.7425C10.4256 13.696 10.3312 13.6423 10.2233 13.6393L8.28574 13.6399L8.38146 13.4781L8.45735 13.5229C8.67705 13.6582 9.06002 13.4665 8.97227 13.1128L8.44413 11.4551C8.41793 11.3727 8.36233 11.3029 8.28792 11.2589C8.21351 11.2148 8.1255 11.1997 8.04068 11.2165L6.33251 11.5517C6.0784 11.5969 5.9201 11.995 6.22104 12.2006L6.29693 12.2455L5.3696 13.8137C5.33796 13.8672 5.32104 13.9281 5.32057 13.9903C5.32009 14.0524 5.33607 14.1136 5.36688 14.1676L6.34661 15.8844C6.40352 15.9724 6.48686 16.0562 6.65266 16.0621L10.2233 16.0608C10.3167 16.0608 10.4062 16.0237 10.4722 15.9577C10.5383 15.8916 10.5754 15.8021 10.5754 15.7087L10.5757 13.9915C10.5757 13.9453 10.5666 13.8995 10.5489 13.8568C10.5312 13.814 10.5052 13.7752 10.4725 13.7425ZM7.08265 12.3009C7.11636 12.2441 7.13333 12.1789 7.13158 12.1129L7.86818 11.9683L8.0958 12.6827C8.03703 12.7131 7.98799 12.7594 7.95429 12.8163L6.65796 15.0087L6.08018 13.9962L7.08265 12.3009ZM9.87101 15.3565L7.27024 15.3574L7.86916 14.3446L9.87119 14.3439L9.87101 15.3565ZM13.227 8.68642C13.1719 8.64099 13.1044 8.61335 13.0333 8.60718C12.9621 8.601 12.8908 8.61657 12.8287 8.65183L12.7521 8.69537L11.8518 7.11147C11.8211 7.05744 11.7766 7.0125 11.7229 6.98121C11.6692 6.94992 11.6082 6.93339 11.546 6.9333L9.56932 6.93053C9.49821 6.92748 9.32641 6.98725 9.26308 7.10786L7.49013 10.2072C7.44375 10.2882 7.43147 10.3844 7.45597 10.4745C7.48048 10.5646 7.53977 10.6413 7.62082 10.6877L9.11088 11.5411C9.20407 11.6068 9.4608 11.6193 9.59172 11.4103L10.5538 9.7285L10.6467 9.89195L10.5701 9.9355C10.508 9.97075 10.4581 10.024 10.427 10.0883C10.3959 10.1526 10.385 10.2248 10.3959 10.2953C10.4068 10.3659 10.4388 10.4315 10.4878 10.4834C10.5368 10.5354 10.6004 10.5712 10.6702 10.5862L12.3712 10.9514C12.5075 10.978 12.68 10.9235 12.7788 10.7199L13.3365 9.07084C13.3593 9.00322 13.3611 8.93025 13.3416 8.8616C13.322 8.79294 13.2821 8.73185 13.227 8.68642ZM9.15518 10.7547L8.27646 10.2515L9.56786 7.99398L10.1493 9.01694L9.15518 10.7547ZM12.212 10.1968L11.479 10.0394C11.4818 9.97332 11.466 9.90775 11.4333 9.85023L10.1747 7.63595L11.3404 7.63759L12.3137 9.3498C12.3463 9.40722 12.3944 9.45431 12.4526 9.48569L12.212 10.1968Z" fill="#212121"/>
</g>
<defs>
<clipPath id="clip0_1290_6739">
<rect width="24" height="24" fill="white"/>
</clipPath>
</defs>
</svg>
