<svg width="20" height="20" viewBox="0 0 20 20" fill="none" xmlns="http://www.w3.org/2000/svg">
<path d="M2.8125 10.625H3.45902L3.98047 17.9238C4.00989 18.3175 4.18671 18.6856 4.47563 18.9546C4.76455 19.2236 5.1443 19.3737 5.53906 19.375H13.8359C14.2307 19.3737 14.6104 19.2236 14.8994 18.9546C15.1883 18.6856 15.3651 18.3175 15.3945 17.9238L15.916 10.625H16.5625C16.6454 10.625 16.7249 10.5921 16.7835 10.5335C16.8421 10.4749 16.875 10.3954 16.875 10.3125V9.0625C16.8747 8.81395 16.7758 8.57566 16.6001 8.39991C16.4243 8.22415 16.1861 8.12529 15.9375 8.125H15.3104L17.4811 2.49008C17.4958 2.45178 17.5029 2.41096 17.5018 2.36993C17.5008 2.3289 17.4917 2.28848 17.4751 2.25097C17.4584 2.21346 17.4345 2.1796 17.4048 2.15131C17.3751 2.12303 17.3401 2.10088 17.3018 2.08613L15.2408 1.29234C15.1635 1.26256 15.0775 1.26472 15.0017 1.29835C14.926 1.33197 14.8667 1.39431 14.8369 1.47164L13.4375 5.10445V0.9375C13.4375 0.85462 13.4046 0.775134 13.346 0.716529C13.2874 0.657924 13.2079 0.625 13.125 0.625H11.25C11.1671 0.625 11.0876 0.657924 11.029 0.716529C10.9704 0.775134 10.9375 0.85462 10.9375 0.9375V3.4375H8.125V0.9375C8.125 0.85462 8.09208 0.775134 8.03347 0.716529C7.97487 0.657924 7.89538 0.625 7.8125 0.625H5.9375C5.85462 0.625 5.77513 0.657924 5.71653 0.716529C5.65792 0.775134 5.625 0.85462 5.625 0.9375V3.125H5C4.91712 3.125 4.83763 3.15792 4.77903 3.21653C4.72042 3.27513 4.6875 3.35462 4.6875 3.4375V4.50586C4.40908 4.62766 4.17215 4.8279 4.00566 5.08214C3.83918 5.33638 3.75034 5.6336 3.75 5.9375V8.125H3.4375C3.18895 8.12529 2.95066 8.22415 2.77491 8.39991C2.59915 8.57566 2.50029 8.81395 2.5 9.0625V10.3125C2.5 10.3954 2.53292 10.4749 2.59153 10.5335C2.65013 10.5921 2.72962 10.625 2.8125 10.625ZM14.7713 17.8793C14.7536 18.1155 14.6475 18.3364 14.4741 18.4978C14.3007 18.6592 14.0728 18.7493 13.8359 18.75H5.53906C5.30221 18.7492 5.07436 18.6591 4.90101 18.4977C4.72766 18.3363 4.62157 18.1155 4.60391 17.8793L4.08563 10.625H15.2894L14.7713 17.8793ZM15.3078 1.98789L16.7855 2.55703L14.6406 8.125H12.9436L15.3078 1.98789ZM6.25 1.25H7.5V3.75C7.5 3.83288 7.53292 3.91237 7.59153 3.97097C7.65013 4.02958 7.72962 4.0625 7.8125 4.0625H11.25C11.3329 4.0625 11.4124 4.02958 11.471 3.97097C11.5296 3.91237 11.5625 3.83288 11.5625 3.75V1.25H12.8125V6.72656L12.2738 8.125H11.875V7.1875C11.8747 6.93895 11.7759 6.70065 11.6001 6.5249C11.4243 6.34914 11.1861 6.25028 10.9375 6.25V5C10.9375 4.91712 10.9046 4.83763 10.846 4.77903C10.7874 4.72042 10.7079 4.6875 10.625 4.6875H9.375C9.29212 4.6875 9.21263 4.72042 9.15403 4.77903C9.09542 4.83763 9.0625 4.91712 9.0625 5V6.25C8.81395 6.25028 8.57565 6.34914 8.3999 6.5249C8.22414 6.70065 8.12528 6.93895 8.125 7.1875V8.125H7.5V5.9375C7.49966 5.6336 7.41082 5.33638 7.24434 5.08214C7.07785 4.8279 6.84092 4.62766 6.5625 4.50586V3.4375C6.5625 3.35462 6.52958 3.27513 6.47097 3.21653C6.41237 3.15792 6.33288 3.125 6.25 3.125V1.25ZM10.625 6.875H10.9375C11.0204 6.87509 11.0998 6.90805 11.1584 6.96663C11.217 7.02522 11.2499 7.10465 11.25 7.1875V8.125H8.75V7.1875C8.75009 7.10465 8.78305 7.02522 8.84163 6.96663C8.90022 6.90805 8.97965 6.87509 9.0625 6.875H9.375C9.45788 6.875 9.53737 6.84208 9.59597 6.78347C9.65458 6.72487 9.6875 6.64538 9.6875 6.5625V5.3125H10.3125V6.5625C10.3125 6.64538 10.3454 6.72487 10.404 6.78347C10.4626 6.84208 10.5421 6.875 10.625 6.875ZM6.875 6.25V6.875H4.375V6.25H6.875ZM5.3125 3.75H5.9375V4.375H5.3125V3.75ZM5.3125 5H5.9375C6.13129 5.00025 6.32027 5.06045 6.47849 5.17235C6.63671 5.28425 6.75644 5.44236 6.82125 5.625H4.42875C4.49356 5.44236 4.61329 5.28425 4.77151 5.17235C4.92973 5.06045 5.11871 5.00025 5.3125 5ZM4.375 7.5H6.875V8.125H4.375V7.5ZM3.125 9.0625C3.12509 8.97965 3.15805 8.90022 3.21663 8.84163C3.27522 8.78305 3.35465 8.75009 3.4375 8.75H15.9375C16.0204 8.75009 16.0998 8.78305 16.1584 8.84163C16.217 8.90022 16.2499 8.97965 16.25 9.0625V10H3.125V9.0625Z" fill="#212121"/>
<path d="M6.87499 17.1875H8.43749C8.52037 17.1875 8.59986 17.1546 8.65846 17.096C8.71707 17.0374 8.74999 16.9579 8.74999 16.875C8.74999 16.7921 8.71707 16.7126 8.65846 16.654C8.59986 16.5954 8.52037 16.5625 8.43749 16.5625H7.41624L8.17464 15.2489L8.20816 15.3739C8.21878 15.4135 8.2371 15.4507 8.26208 15.4833C8.28707 15.5158 8.31822 15.5431 8.35376 15.5637C8.3893 15.5842 8.42853 15.5975 8.46922 15.6029C8.50991 15.6082 8.55125 15.6055 8.59089 15.5949C8.63053 15.5843 8.66769 15.5659 8.70025 15.541C8.73281 15.516 8.76013 15.4848 8.78065 15.4493C8.80117 15.4137 8.81448 15.3745 8.81984 15.3338C8.8252 15.2931 8.82249 15.2518 8.81187 15.2121L8.58312 14.3584C8.5725 14.3187 8.55417 14.2815 8.52918 14.249C8.50419 14.2164 8.47304 14.1891 8.43749 14.1686C8.40194 14.148 8.36269 14.1347 8.322 14.1294C8.2813 14.124 8.23995 14.1267 8.2003 14.1374L7.34652 14.3662C7.26646 14.3876 7.1982 14.44 7.15676 14.5118C7.11532 14.5836 7.10409 14.6688 7.12554 14.7489C7.14699 14.829 7.19936 14.8972 7.27114 14.9387C7.34292 14.9801 7.42822 14.9913 7.50827 14.9699L7.63327 14.9364L6.60437 16.7188C6.57694 16.7663 6.5625 16.8201 6.5625 16.875C6.5625 16.9299 6.57694 16.9837 6.60437 17.0312C6.63179 17.0788 6.67124 17.1182 6.71875 17.1456C6.76625 17.1731 6.82014 17.1875 6.87499 17.1875ZM8.74999 13.4988C8.82177 13.5402 8.90706 13.5515 8.98712 13.53C9.06717 13.5086 9.13543 13.4562 9.17687 13.3844L9.68749 12.5L10.4459 13.8136L10.3209 13.7801C10.2813 13.7695 10.2399 13.7667 10.1992 13.7721C10.1585 13.7775 10.1193 13.7908 10.0838 13.8113C10.0482 13.8318 10.0171 13.8591 9.99208 13.8917C9.9671 13.9243 9.94878 13.9614 9.93816 14.0011C9.92753 14.0407 9.92483 14.082 9.93018 14.1227C9.93554 14.1634 9.94886 14.2026 9.96938 14.2382C9.9899 14.2737 10.0172 14.3049 10.0498 14.3299C10.0823 14.3548 10.1195 14.3732 10.1591 14.3838L11.0129 14.6126C11.0526 14.6232 11.0939 14.626 11.1346 14.6206C11.1753 14.6153 11.2146 14.602 11.2502 14.5815C11.2857 14.561 11.3169 14.5336 11.3419 14.501C11.3668 14.4685 11.3851 14.4313 11.3957 14.3916L11.6245 13.5378C11.6351 13.4982 11.6378 13.4568 11.6325 13.4161C11.6271 13.3755 11.6138 13.3362 11.5933 13.3007C11.5727 13.2651 11.5454 13.234 11.5129 13.209C11.4803 13.184 11.4431 13.1657 11.4035 13.1551C11.3639 13.1445 11.3225 13.1417 11.2818 13.1471C11.2411 13.1525 11.2019 13.1658 11.1664 13.1863C11.1308 13.2068 11.0997 13.2341 11.0747 13.2667C11.0497 13.2993 11.0314 13.3364 11.0208 13.3761L10.9873 13.5011C10.5726 12.783 9.96382 11.7286 9.95839 11.7189C9.93096 11.6713 9.89148 11.6318 9.84392 11.6044C9.79636 11.5769 9.74241 11.5625 9.68749 11.5625C9.63264 11.5625 9.57875 11.5769 9.53125 11.6044C9.48374 11.6318 9.44429 11.6712 9.41687 11.7188L8.63562 13.0719C8.59418 13.1437 8.58295 13.229 8.6044 13.309C8.62585 13.3891 8.67822 13.4573 8.74999 13.4988ZM11.4481 15.6781L11.9587 16.5625H10.4419L10.5335 16.471C10.5921 16.4124 10.625 16.3329 10.625 16.25C10.625 16.1671 10.5921 16.0876 10.5335 16.029C10.4749 15.9704 10.3954 15.9375 10.3125 15.9375C10.2296 15.9375 10.1501 15.9704 10.0915 16.029L9.46652 16.654C9.4375 16.683 9.41448 16.7175 9.39877 16.7554C9.38306 16.7933 9.37498 16.834 9.37498 16.875C9.37498 16.916 9.38306 16.9567 9.39877 16.9946C9.41448 17.0325 9.4375 17.067 9.46652 17.096L10.0915 17.721C10.1501 17.7796 10.2296 17.8125 10.3125 17.8125C10.3954 17.8125 10.4749 17.7796 10.5335 17.721C10.5921 17.6624 10.625 17.5829 10.625 17.5C10.625 17.4171 10.5921 17.3376 10.5335 17.279L10.4419 17.1875H12.5C12.5548 17.1875 12.6087 17.1731 12.6562 17.1456C12.7037 17.1182 12.7432 17.0788 12.7706 17.0312C12.798 16.9837 12.8125 16.9299 12.8125 16.875C12.8125 16.8201 12.798 16.7663 12.7706 16.7188L11.9894 15.3656C11.969 15.3298 11.9417 15.2983 11.9092 15.2731C11.8766 15.2478 11.8394 15.2293 11.7996 15.2185C11.7598 15.2077 11.7183 15.2048 11.6774 15.2101C11.6366 15.2155 11.5971 15.2288 11.5615 15.2494C11.5258 15.27 11.4945 15.2975 11.4695 15.3302C11.4444 15.363 11.4261 15.4003 11.4156 15.4402C11.4051 15.48 11.4025 15.5215 11.4081 15.5624C11.4137 15.6032 11.4273 15.6425 11.4481 15.6781Z" fill="#212121"/>
</svg>
