<svg width="20" height="20" viewBox="0 0 20 20" fill="none" xmlns="http://www.w3.org/2000/svg">
<path d="M10 10.5537C10.3446 10.5537 10.625 10.8341 10.625 11.1787C10.625 11.2616 10.6579 11.3411 10.7165 11.3997C10.7751 11.4583 10.8546 11.4912 10.9375 11.4912C11.0204 11.4912 11.0999 11.4583 11.1585 11.3997C11.2171 11.3411 11.25 11.2616 11.25 11.1787C11.25 10.5973 10.851 10.1074 10.3125 9.96828V9.61621C10.3125 9.53333 10.2796 9.45384 10.221 9.39524C10.1624 9.33663 10.0829 9.30371 10 9.30371C9.91712 9.30371 9.83763 9.33663 9.77903 9.39524C9.72042 9.45384 9.6875 9.53333 9.6875 9.61621V9.96828C9.14898 10.1074 8.75 10.5973 8.75 11.1787C8.75 11.868 9.31074 12.4287 10 12.4287C10.3446 12.4287 10.625 12.7091 10.625 13.0537C10.625 13.3983 10.3446 13.6787 10 13.6787C9.65539 13.6787 9.375 13.3983 9.375 13.0537C9.375 12.9708 9.34208 12.8913 9.28347 12.8327C9.22487 12.7741 9.14538 12.7412 9.0625 12.7412C8.97962 12.7412 8.90013 12.7741 8.84153 12.8327C8.78292 12.8913 8.75 12.9708 8.75 13.0537C8.75 13.6351 9.14898 14.125 9.6875 14.2641V14.6162C9.6875 14.6991 9.72042 14.7786 9.77903 14.8372C9.83763 14.8958 9.91712 14.9287 10 14.9287C10.0829 14.9287 10.1624 14.8958 10.221 14.8372C10.2796 14.7786 10.3125 14.6991 10.3125 14.6162V14.2641C10.851 14.125 11.25 13.6351 11.25 13.0537C11.25 12.3645 10.6893 11.8037 10 11.8037C9.65539 11.8037 9.375 11.5233 9.375 11.1787C9.375 10.8341 9.65539 10.5537 10 10.5537Z" fill="#212121"/>
<path d="M10 8.05371C7.75992 8.05371 5.9375 9.87613 5.9375 12.1162C5.9375 14.3563 7.75992 16.1787 10 16.1787C12.2401 16.1787 14.0625 14.3563 14.0625 12.1162C14.0625 9.87613 12.2401 8.05371 10 8.05371ZM10 15.5537C8.10457 15.5537 6.5625 14.0116 6.5625 12.1162C6.5625 10.2208 8.10457 8.67871 10 8.67871C11.8954 8.67871 13.4375 10.2208 13.4375 12.1162C13.4375 14.0116 11.8954 15.5537 10 15.5537Z" fill="#212121"/>
<path d="M19.0259 6.80344L18.8261 5.20527C18.7614 4.6877 18.2875 4.32125 17.7662 4.39309L17.3138 4.45777L17.02 3.2825C16.9898 3.16138 16.9357 3.04752 16.8609 2.94761C16.786 2.84769 16.692 2.76373 16.5843 2.70066C16.4766 2.63759 16.3573 2.59668 16.2336 2.58033C16.1098 2.56399 15.984 2.57253 15.8636 2.60547L0.890195 6.80465C0.395156 6.82938 0 7.23988 0 7.74094V16.4909C0 17.0079 0.420586 17.4284 0.9375 17.4284H19.0625C19.5794 17.4284 20 17.0079 20 16.4909V7.74094C20 7.2568 19.6252 6.80344 19.0259 6.80344ZM17.8531 5.01199C17.8941 5.00633 17.9358 5.00886 17.9758 5.01944C18.0158 5.03003 18.0533 5.04845 18.0861 5.07365C18.119 5.09884 18.1464 5.13031 18.167 5.16621C18.1876 5.20212 18.2008 5.24175 18.2059 5.28281L18.396 6.80348H5.32898L17.8531 5.01199ZM16.0293 3.20813C16.0694 3.19731 16.1112 3.1946 16.1524 3.20014C16.1935 3.20569 16.2331 3.21938 16.2689 3.24042C16.3047 3.26146 16.336 3.28943 16.3608 3.32268C16.3857 3.35594 16.4037 3.39382 16.4137 3.4341L16.6919 4.54676L5.59707 6.13375L16.0293 3.20813ZM19.375 16.4909C19.375 16.6632 19.2348 16.8034 19.0625 16.8034H0.9375C0.765195 16.8034 0.625 16.6632 0.625 16.4909V7.74094C0.625 7.56887 0.764844 7.42883 0.936836 7.42848C1.03582 7.42828 -0.621562 7.42844 19.0625 7.42844C19.2348 7.42844 19.375 7.56863 19.375 7.74094V16.4909Z" fill="#212121"/>
<path d="M18.4375 8.99121C18.0929 8.99121 17.8125 8.71082 17.8125 8.36621C17.8125 8.28333 17.7796 8.20384 17.721 8.14524C17.6624 8.08663 17.5829 8.05371 17.5 8.05371H13.4375C13.3546 8.05371 13.2751 8.08663 13.2165 8.14524C13.1579 8.20384 13.125 8.28333 13.125 8.36621C13.125 8.44909 13.1579 8.52858 13.2165 8.58718C13.2751 8.64579 13.3546 8.67871 13.4375 8.67871H17.2271C17.3404 9.11734 17.6864 9.46336 18.125 9.57664V14.6557C17.6864 14.769 17.3404 15.1151 17.2271 15.5537H13.4375C13.3546 15.5537 13.2751 15.5866 13.2165 15.6452C13.1579 15.7038 13.125 15.7833 13.125 15.8662C13.125 15.9491 13.1579 16.0285 13.2165 16.0871C13.2751 16.1457 13.3546 16.1787 13.4375 16.1787H17.5C17.5829 16.1787 17.6624 16.1457 17.721 16.0871C17.7796 16.0285 17.8125 15.9491 17.8125 15.8662C17.8125 15.5216 18.0929 15.2412 18.4375 15.2412C18.5204 15.2412 18.5999 15.2082 18.6585 15.1496C18.7171 15.091 18.75 15.0116 18.75 14.9287V9.30367C18.75 9.2208 18.7171 9.14132 18.6585 9.08273C18.5999 9.02413 18.5204 8.99121 18.4375 8.99121ZM6.5625 15.5537H2.77293C2.65965 15.1151 2.31359 14.7691 1.875 14.6558V9.57664C2.31363 9.46336 2.65965 9.1173 2.77293 8.67871H6.5625C6.64538 8.67871 6.72487 8.64579 6.78347 8.58718C6.84208 8.52858 6.875 8.44909 6.875 8.36621C6.875 8.28333 6.84208 8.20384 6.78347 8.14524C6.72487 8.08663 6.64538 8.05371 6.5625 8.05371H2.5C2.41712 8.05371 2.33763 8.08663 2.27903 8.14524C2.22042 8.20384 2.1875 8.28333 2.1875 8.36621C2.1875 8.71082 1.90711 8.99121 1.5625 8.99121C1.47962 8.99121 1.40013 9.02413 1.34153 9.08274C1.28292 9.14134 1.25 9.22083 1.25 9.30371V14.9287C1.25 15.0116 1.28292 15.0911 1.34153 15.1497C1.40013 15.2083 1.47962 15.2412 1.5625 15.2412C1.90711 15.2412 2.1875 15.5216 2.1875 15.8662C2.1875 15.9491 2.22042 16.0286 2.27903 16.0872C2.33763 16.1458 2.41712 16.1787 2.5 16.1787H6.5625C6.64538 16.1787 6.72487 16.1458 6.78347 16.0872C6.84208 16.0286 6.875 15.9491 6.875 15.8662C6.875 15.7833 6.84208 15.7038 6.78347 15.6452C6.72487 15.5866 6.64538 15.5537 6.5625 15.5537Z" fill="#212121"/>
<path d="M2.8125 12.1162C2.8125 12.6331 3.23309 13.0537 3.75 13.0537C4.26691 13.0537 4.6875 12.6331 4.6875 12.1162C4.6875 11.5993 4.26691 11.1787 3.75 11.1787C3.23309 11.1787 2.8125 11.5993 2.8125 12.1162ZM4.0625 12.1162C4.0625 12.2885 3.9223 12.4287 3.75 12.4287C3.5777 12.4287 3.4375 12.2885 3.4375 12.1162C3.4375 11.9439 3.5777 11.8037 3.75 11.8037C3.9223 11.8037 4.0625 11.9439 4.0625 12.1162ZM17.1875 12.1162C17.1875 11.5993 16.7669 11.1787 16.25 11.1787C15.7331 11.1787 15.3125 11.5993 15.3125 12.1162C15.3125 12.6331 15.7331 13.0537 16.25 13.0537C16.7669 13.0537 17.1875 12.6332 17.1875 12.1162ZM15.9375 12.1162C15.9375 11.9439 16.0777 11.8037 16.25 11.8037C16.4223 11.8037 16.5625 11.9439 16.5625 12.1162C16.5625 12.2885 16.4223 12.4287 16.25 12.4287C16.0777 12.4287 15.9375 12.2885 15.9375 12.1162Z" fill="#212121"/>
</svg>
