<svg width="71" height="70" viewBox="0 0 71 70" fill="none" xmlns="http://www.w3.org/2000/svg">
<path d="M55.7876 47.1353L54.8669 47.8677L6.47064 69.3855C3.74021 70.2135 0.0996407 66.3707 0.798122 63.6955L22.7791 14.0254V16.7005C23.5093 26.1377 44.5696 47.2096 54.1473 47.4219C54.7293 47.4325 55.2267 47.1247 55.7982 47.1459L55.7876 47.1353ZM14.3233 42.3477C10.9578 43.0271 11.6457 48.3985 15.2546 48.1438C19.2655 47.8571 18.6306 41.4772 14.3233 42.3477Z" fill="#29B473"/>
<path d="M35.0872 9.93838L34.7062 10.5753C35.9339 11.7112 37.5425 11.3821 39.0982 12.0403C44.0934 14.1315 42.9716 20.2142 37.86 20.883C36.9922 20.9998 33.9866 20.5964 33.6903 21.2864C33.2881 22.2312 35.5846 22.3586 36.1561 22.6346C38.0505 23.5475 37.6801 26.2757 35.0872 26.2757C31.1398 26.2757 27.5944 21.7959 30.8858 18.4733C33.013 16.3289 35.5106 17.1251 38.0928 16.8173C38.5056 14.9914 35.1613 15.3629 33.6797 14.6623C28.9279 12.4118 30.3566 6.31847 35.8386 5.87262C36.4842 5.81954 39.331 6.30786 39.5215 5.47984C39.8496 4.06797 35.2354 5.02337 35.8069 2.0404C36.3572 -0.772717 40.6857 0.883308 42.0615 2.16779C44.1887 4.16351 43.9664 7.41187 41.4688 8.97236C41.0984 9.2059 39.4475 9.93838 39.13 9.93838H35.0661H35.0872Z" fill="#29B473"/>
<path d="M60.8993 53.7912L60.9734 54.5343C61.4814 55.2031 63.6615 54.322 64.5293 54.2583C70.7415 53.8337 72.5089 60.2243 67.1751 63.0268C66.0109 63.6425 64.561 63.8017 63.6615 64.842C63.6721 66.1477 68.2439 64.0459 68.4662 66.6467C68.6673 68.8759 66.6565 69.343 64.7939 69.3218C59.206 69.2369 58.0313 63.0055 62.8783 60.5003C63.2593 60.2986 67.0586 59.1839 66.4448 58.3453C65.2278 57.7509 64.1695 58.4621 62.9842 58.5682C56.3698 59.1733 54.5389 52.6554 60.0844 49.7998C60.4019 49.6406 64.5399 48.4198 63.2276 47.6448C62.3068 47.2308 61.439 47.8253 60.5606 47.7616C57.9361 47.5599 57.7032 43.9931 61.5131 43.6003C64.9738 43.2394 68.3815 45.7022 67.0692 49.4283C66.1273 52.0821 63.1429 52.7509 60.8781 53.7912H60.8993Z" fill="#29B473"/>
<path d="M10.1325 30.0018C9.89972 29.747 9.66689 28.8872 9.68806 28.505C9.76214 26.9658 10.9051 23.9934 11.2543 22.2206C12.0057 18.4839 13.7202 9.48195 11.8047 6.28667C11.2543 5.36312 10.0796 4.92788 9.15891 5.58604C7.50795 6.77499 9.37056 10.9894 6.57664 11.4246C2.89374 11.9978 4.51295 5.15081 5.89932 3.33555C7.51853 1.21244 10.503 0.787814 12.8418 1.93429C18.2286 4.57757 16.4295 15.8937 15.5828 20.6814C15.2971 22.3055 13.8578 29.418 12.863 30.1823C12.1433 30.7343 10.7252 30.6281 10.1325 29.9912V30.0018Z" fill="#29B473"/>
<path d="M62.3386 28.6111C63.8732 28.5262 68.2863 28.4838 69.4822 29.195C71.3342 30.299 70.477 32.8467 68.371 32.8786C66.2649 32.9104 63.8097 32.4434 61.492 32.6026C55.8301 32.9954 50.3163 35.5537 45.6386 38.6322C43.9982 38.9825 43.0457 37.6344 43.3526 36.0633C43.5325 35.1609 45.882 33.834 46.7286 33.3351C51.2582 30.6812 57.0894 28.9084 62.3386 28.6111Z" fill="#29B473"/>
<path d="M3.39111 30.6387C8.98954 29.471 10.0584 38.1014 4.54466 38.4199C-0.260045 38.6959 -0.958527 31.5516 3.39111 30.6387Z" fill="#29B473"/>
<path d="M53.9464 3.37799C60.2222 2.22089 60.4656 11.8386 54.1581 10.9363C49.9037 10.3312 50.2 4.068 53.9464 3.37799Z" fill="#29B473"/>
<path d="M49.11 15.0869C53.7348 14.0148 54.2427 20.469 50.2635 20.8406C46.697 21.1697 46.0832 15.7876 49.11 15.0869Z" fill="#29B473"/>
<path d="M48.3372 62.8463C45.7973 65.5533 41.617 61.8272 43.85 58.9823C46.3688 55.7657 51.0148 60.0013 48.3372 62.8463Z" fill="#29B473"/>
<path d="M55.6078 21.7323C57.9043 19.1315 62.5714 22.3798 60.1056 25.607C57.6397 28.8341 53.0573 24.6197 55.6078 21.7323Z" fill="#29B473"/>
<path d="M65.8734 39.4178C63.5134 42.1035 59.0156 38.5579 61.3756 35.5431C63.7356 32.5283 68.4768 36.456 65.8734 39.4178Z" fill="#29B473"/>
<path d="M63.09 13.0488C67.2174 12.3694 67.7254 18.4839 64.0108 18.8449C60.2961 19.2058 59.6717 13.6114 63.09 13.0488Z" fill="#29B473"/>
<path d="M14.3233 42.3477C18.62 41.4772 19.2655 47.8571 15.2546 48.1438C11.6563 48.3985 10.9578 43.0377 14.3233 42.3477Z" fill="#29B473"/>
</svg>
