<svg width="22" height="23" viewBox="0 0 22 23" fill="none" xmlns="http://www.w3.org/2000/svg">
<path d="M15.9059 20.6059C12.8706 23.6412 7.29413 22.9353 3.41177 19.0882C-0.435287 15.2059 -1.10588 9.59412 1.92942 6.59412L2.88236 5.64117L16.8941 19.6176L15.9059 20.6059Z" fill="#CC104A"/>
<path d="M16.8235 19.6883C13.7883 22.7236 8.21178 22.0177 4.32943 18.1706C0.447074 14.2883 -0.223514 8.7118 2.81178 5.67651C5.84707 2.64121 11.4235 3.3471 15.2706 7.19415C16.4353 8.35886 17.3177 9.70004 17.8824 11.0412C18.0588 11.5 18.2353 11.9236 18.3412 12.3824C19.1177 15.1353 18.6235 17.8883 16.8235 19.6883Z" fill="#F34B58"/>
<path d="M14.353 8.14705C17.353 11.1471 17.8824 15.4882 15.553 17.8529C13.2235 20.2176 8.84707 19.6529 5.84707 16.6529C2.84707 13.6529 2.31766 9.31176 4.64707 6.94705C6.97648 4.58235 11.353 5.14705 14.353 8.14705Z" fill="white"/>
<path d="M13.4353 9.06473C15.6235 11.253 16.0118 14.4294 14.3177 16.1236C12.6235 17.8177 9.44706 17.4647 7.25883 15.2412C5.07059 13.053 4.68236 9.8765 6.37647 8.18238C8.07059 6.48826 11.2471 6.8765 13.4353 9.06473Z" fill="#F34B58"/>
<path d="M12.4471 10.053C13.8588 11.4647 14.1059 13.4765 13.0118 14.5706C11.9176 15.6647 9.90588 15.4177 8.49412 14.0059C7.08235 12.5941 6.83529 10.5824 7.92941 9.48825C9.02353 8.39413 11.0706 8.64119 12.4471 10.053Z" fill="white"/>
<path d="M11.5294 10.9706C12.2 11.6412 12.3412 12.6294 11.8118 13.1942C11.2471 13.7236 10.2588 13.6177 9.58825 12.9118C8.91766 12.2412 8.77648 11.253 9.3059 10.7236C9.83531 10.1942 10.8235 10.3 11.5294 10.9706Z" fill="#F34B58"/>
<path d="M18.3765 12.4177L10.7177 12.4529C9.83531 12.4529 9.80002 11.1118 10.7177 11.1118L17.9177 11.0765C18.0941 11.5353 18.2353 11.9588 18.3765 12.4177Z" fill="#1D2943" fill-opacity="0.125"/>
<path d="M5.14118 17.3588C4.22354 16.6882 3.48236 15.7706 2.95295 14.7824C2.42354 13.7588 2.10589 12.6294 2.14118 11.5C2.45883 12.5941 2.84707 13.6176 3.37648 14.5706C3.8706 15.5235 4.4706 16.4412 5.14118 17.3588Z" fill="white"/>
<path d="M20.2118 2.28824C20.4941 2.57059 20.4941 2.99412 20.2118 3.24118L11.1765 12.2412C10.9294 12.4882 10.5059 12.4882 10.2235 12.2412C9.97647 11.9941 9.97647 11.5706 10.2235 11.2882L19.2588 2.28824C19.5412 2.00589 19.9647 2.00589 20.2118 2.28824Z" fill="#1D2943"/>
<path d="M20.0706 3.34708L21.6588 3.80591C21.9412 3.87649 22.0471 4.22944 21.8353 4.4412L21.4118 4.86473C21.2353 5.0412 20.953 5.11179 20.7059 5.0412L20.1765 4.90002L20.2824 5.00591C20.5647 5.28826 20.5647 5.74708 20.2824 6.02944L19.4 6.91179C19.2235 7.08826 18.9412 7.15885 18.6941 7.08826L16.8588 6.55885L20.0706 3.34708ZM19.153 2.39414L18.6941 0.805906C18.6235 0.523553 18.2706 0.417671 18.0588 0.629436L16.7883 1.90002C16.6118 2.07649 16.5412 2.35885 16.6118 2.60591L16.753 3.13532L16.4 2.78238C16.2588 2.6412 16.0118 2.6412 15.8706 2.78238L15.5883 3.10002C15.4118 3.27649 15.3412 3.55885 15.4118 3.80591L15.9412 5.60591L19.153 2.39414Z" fill="#FFD06C"/>
<path d="M16.7177 5.42945C17.0353 5.00592 17.4235 4.58239 17.8118 4.19415C18.0235 4.01768 18.6588 3.38239 18.4118 3.62945L19.0471 3.10004L18.5177 3.73533C18.3412 3.9471 18.1294 4.12357 17.9529 4.33533C17.5647 4.72357 17.1765 5.07651 16.7177 5.42945Z" fill="white"/>
</svg>
