<svg width="49" height="48" viewBox="0 0 49 48" fill="none" xmlns="http://www.w3.org/2000/svg">
<path d="M43.8059 10.8281C44.3234 10.8281 44.7434 11.2481 44.7434 11.7656C44.7434 12.2831 44.3234 12.7031 43.8059 12.7031C43.2884 12.7031 42.8684 12.2831 42.8684 11.7656C42.8684 11.2481 43.2884 10.8281 43.8059 10.8281ZM43.8059 35.2031C44.3234 35.2031 44.7434 35.6231 44.7434 36.1406C44.7434 36.6581 44.3234 37.0781 43.8059 37.0781C43.2884 37.0781 42.8684 36.6581 42.8684 36.1406C42.8684 35.6231 43.2884 35.2031 43.8059 35.2031Z" fill="#85E29A"/>
<path d="M39.1184 40.8281C40.1543 40.8281 40.9934 41.6672 40.9934 42.7031C40.9934 43.7391 40.1543 44.5781 39.1184 44.5781C38.0825 44.5781 37.2434 43.7391 37.2434 42.7031C37.2434 41.6672 38.0825 40.8281 39.1184 40.8281Z" fill="#28A745"/>
<path d="M37.2434 2.39062C37.7609 2.39062 38.1809 2.81063 38.1809 3.32812C38.1809 3.84563 37.7609 4.26562 37.2434 4.26562C36.7259 4.26562 36.3059 3.84563 36.3059 3.32812C36.3059 2.81063 36.7259 2.39062 37.2434 2.39062Z" fill="#85E29A"/>
<path d="M24.1184 5.20312C13.7628 5.20312 5.36841 13.5975 5.36841 23.9531C5.36841 34.3088 13.7628 42.7031 24.1184 42.7031C34.474 42.7031 42.8684 34.3088 42.8684 23.9531C42.8684 13.5975 34.474 5.20312 24.1184 5.20312Z" fill="#28A745"/>
<path d="M24.1184 38.0156C16.3522 38.0156 10.0559 31.7194 10.0559 23.9531C10.0559 16.1869 16.3522 9.89062 24.1184 9.89062C31.8847 9.89062 38.1809 16.1869 38.1809 23.9531C38.1809 31.7194 31.8847 38.0156 24.1184 38.0156Z" fill="white"/>
<path d="M31.0886 19.5211C31.8209 20.2532 31.8209 21.4401 31.0886 22.1723L24.4596 28.8023L21.8083 31.4536L19.1561 28.8023L17.1677 26.8129C16.8022 26.4473 16.6184 25.9673 16.6184 25.4873C16.6184 25.0073 16.8022 24.5273 17.1677 24.1616C17.9 23.4294 19.0868 23.4294 19.8189 24.1616L21.8083 26.15L28.4375 19.5211C28.804 19.1554 29.2831 18.9717 29.7631 18.9717C30.2431 18.9717 30.7222 19.1554 31.0886 19.5211Z" fill="#28A745"/>
<path d="M10.0559 42.7031C10.5734 42.7031 10.9934 43.1231 10.9934 43.6406C10.9934 44.1581 10.5734 44.5781 10.0559 44.5781C9.53831 44.5781 9.11841 44.1581 9.11841 43.6406C9.11841 43.1231 9.53831 42.7031 10.0559 42.7031Z" fill="#85E29A"/>
<path d="M7.71216 4.26562C9.00685 4.26562 10.0559 5.31469 10.0559 6.60938C10.0559 7.90406 9.00685 8.95312 7.71216 8.95312C6.41738 8.95312 5.36841 7.90406 5.36841 6.60938C5.36841 5.31469 6.41738 4.26562 7.71216 4.26562Z" fill="#28A745"/>
<path d="M4.43091 11.7656C4.94841 11.7656 5.36841 12.1856 5.36841 12.7031C5.36841 13.2206 4.94841 13.6406 4.43091 13.6406C3.91331 13.6406 3.49341 13.2206 3.49341 12.7031C3.49341 12.1856 3.91331 11.7656 4.43091 11.7656ZM4.43091 35.2031C4.94841 35.2031 5.36841 35.6231 5.36841 36.1406C5.36841 36.6581 4.94841 37.0781 4.43091 37.0781C3.91331 37.0781 3.49341 36.6581 3.49341 36.1406C3.49341 35.6231 3.91331 35.2031 4.43091 35.2031Z" fill="#85E29A"/>
<path d="M35.3684 23.9531C35.3684 23.4353 34.9486 23.0156 34.4309 23.0156C33.9132 23.0156 33.4934 23.4353 33.4934 23.9531C33.4934 29.1226 29.2879 33.3281 24.1184 33.3281C23.6006 33.3281 23.1809 33.7479 23.1809 34.2656V37.9837C23.4908 38.0042 23.8033 38.0156 24.1184 38.0156C24.4335 38.0156 24.7459 38.0042 25.0559 37.9837V35.1644C30.8221 34.6864 35.3684 29.8406 35.3684 23.9531ZM12.8684 23.9531C12.8684 24.4708 13.2881 24.8906 13.8059 24.8906C14.3236 24.8906 14.7434 24.4708 14.7434 23.9531C14.7434 18.7838 18.9489 14.5781 24.1184 14.5781C24.6361 14.5781 25.0559 14.1584 25.0559 13.6406V9.9225C24.7459 9.90206 24.4335 9.89062 24.1184 9.89062C23.8033 9.89062 23.4908 9.90206 23.1809 9.9225V12.7418C17.4147 13.2199 12.8684 18.0656 12.8684 23.9531Z" fill="#28A745" fill-opacity="0.1"/>
</svg>
