<svg width="24" height="24" viewBox="0 0 24 24" fill="none" xmlns="http://www.w3.org/2000/svg">
<g clip-path="url(#clip0_1290_7115)">
<path d="M22.8 12.0001H22.4V3.6001C22.3987 2.4961 21.504 1.6014 20.4 1.6001H3.6C2.496 1.6014 1.6013 2.4961 1.6 3.6001V9.6001H1.2C0.53725 9.6001 0 10.1373 0 10.8001V21.2001C0 21.8629 0.53725 22.4001 1.2 22.4001H16.4C16.5061 22.4001 16.6078 22.358 16.6828 22.2829C16.7579 22.2079 16.8 22.1062 16.8 22.0001C16.7987 20.8961 15.904 20.0014 14.8 20.0001H13.6V17.6001H18.4V21.2001C18.4 21.8629 18.9373 22.4001 19.6 22.4001H22.8C23.4627 22.4001 24 21.8629 24 21.2001V13.2001C24 12.5373 23.4627 12.0001 22.8 12.0001ZM8.8 21.2001C8.8 21.3062 8.75786 21.4079 8.68284 21.4829C8.60783 21.558 8.50609 21.6001 8.4 21.6001H1.2C1.09391 21.6001 0.992172 21.558 0.917157 21.4829C0.842143 21.4079 0.8 21.3062 0.8 21.2001V20.8001H8.8V21.2001ZM8.8 20.0001H0.8V10.8001C0.8 10.694 0.842143 10.5923 0.917157 10.5173C0.992172 10.4422 1.09391 10.4001 1.2 10.4001H8.4C8.50609 10.4001 8.60783 10.4422 8.68284 10.5173C8.75786 10.5923 8.8 10.694 8.8 10.8001V20.0001ZM14.8 20.8001C15.0481 20.8004 15.2901 20.8774 15.4927 21.0207C15.6952 21.1639 15.8486 21.3663 15.9316 21.6001H9.5264C9.57378 21.472 9.59868 21.3367 9.6 21.2001V20.8001H14.8ZM9.6 20.0001V17.6001H10.4V20.0001H9.6ZM11.2 20.0001V17.6001H12.8V20.0001H11.2ZM18.4 16.8001H9.6V14.4001H18.4V16.8001ZM18.4 13.2001V13.6001H9.6V10.8001C9.59863 10.6103 9.55172 10.4236 9.4632 10.2557C9.4692 10.2501 9.4772 10.2485 9.4828 10.2425L13.4428 6.2825C13.5157 6.20706 13.556 6.10602 13.5551 6.00114C13.5542 5.89626 13.5121 5.79593 13.4379 5.72177C13.3638 5.64761 13.2634 5.60554 13.1586 5.60463C13.0537 5.60372 12.9526 5.64403 12.8772 5.7169L8.9172 9.6769C8.9076 9.6869 8.9036 9.6997 8.8952 9.7101C8.74001 9.63811 8.57107 9.60059 8.4 9.6001H2.4V3.6001C2.4 2.93735 2.93725 2.4001 3.6 2.4001H20.4C21.0627 2.4001 21.6 2.93735 21.6 3.6001V12.0001H19.6C18.9373 12.0001 18.4 12.5373 18.4 13.2001ZM23.2 21.2001C23.2 21.3062 23.1579 21.4079 23.0828 21.4829C23.0078 21.558 22.9061 21.6001 22.8 21.6001H19.6C19.4939 21.6001 19.3922 21.558 19.3172 21.4829C19.2421 21.4079 19.2 21.3062 19.2 21.2001V20.8001H23.2V21.2001ZM23.2 20.0001H19.2V13.2001C19.2 13.094 19.2421 12.9923 19.3172 12.9173C19.3922 12.8422 19.4939 12.8001 19.6 12.8001H22.8C22.9061 12.8001 23.0078 12.8422 23.0828 12.9173C23.1579 12.9923 23.2 13.094 23.2 13.2001V20.0001Z" fill="white"/>
<path d="M4.77964 14.469C4.70463 14.394 4.60291 14.3519 4.49684 14.3519C4.39078 14.3519 4.28905 14.394 4.21404 14.469L2.51724 16.1658C2.44094 16.2395 2.39704 16.3405 2.3952 16.4466C2.39336 16.5526 2.43374 16.6551 2.50744 16.7314C2.54475 16.77 2.58944 16.8007 2.63887 16.8217C2.6883 16.8427 2.74145 16.8535 2.79514 16.8535C2.84884 16.8535 2.90198 16.8427 2.95141 16.8217C3.00084 16.8007 3.04554 16.77 3.08284 16.7314L4.77964 15.0346C4.85104 14.9108 4.70754 14.6756 4.77964 14.469ZM7.16984 14.469C7.09526 14.397 6.99563 14.3567 6.89194 14.3567C6.78826 14.3567 6.68862 14.397 6.61404 14.469L4.91724 16.1658C4.84094 16.2395 4.79704 16.3405 4.7952 16.4466C4.79336 16.5526 4.83374 16.6551 4.90744 16.7314C4.94475 16.77 4.98944 16.8007 5.03887 16.8217C5.0883 16.8427 5.14145 16.8535 5.19514 16.8535C5.24884 16.8535 5.30198 16.8427 5.35141 16.8217C5.40084 16.8007 5.44554 16.77 5.48284 16.7314L7.17964 15.0346C7.25335 14.9583 7.29372 14.8558 7.29188 14.7498C7.29004 14.6437 7.24614 14.5427 7.16984 14.469ZM15.873 5.7174C15.7985 5.64537 15.6988 5.60512 15.5951 5.60512C15.4915 5.60512 15.3918 5.64537 15.3172 5.7174L11.3572 9.6774C11.319 9.71429 11.2886 9.75843 11.2676 9.80723C11.2466 9.85604 11.2356 9.90852 11.2351 9.96164C11.2347 10.0147 11.2448 10.0674 11.2649 10.1166C11.285 10.1657 11.3147 10.2104 11.3523 10.248C11.3898 10.2855 11.4345 10.3152 11.4837 10.3353C11.5328 10.3554 11.5855 10.3656 11.6386 10.3651C11.6917 10.3646 11.7442 10.3536 11.793 10.3326C11.8418 10.3117 11.8859 10.2812 11.9228 10.243L15.8828 6.283C15.9565 6.20669 15.9969 6.10424 15.9951 5.99817C15.9932 5.8921 15.9493 5.7911 15.873 5.7174ZM22.0386 15.5518C21.9641 15.4798 21.8644 15.4395 21.7607 15.4395C21.6571 15.4395 21.5574 15.4798 21.4828 15.5518L20.3516 16.683C20.2753 16.7567 20.2314 16.8577 20.2296 16.9638C20.2278 17.0698 20.2681 17.1723 20.3418 17.2486C20.3791 17.2872 20.4238 17.3179 20.4733 17.3389C20.5227 17.3599 20.5758 17.3707 20.6295 17.3707C20.6832 17.3707 20.7364 17.3599 20.7858 17.3389C20.8352 17.3179 20.8799 17.2872 20.9172 17.2486L22.0484 16.1174C22.1221 16.0411 22.1625 15.9386 22.1607 15.8326C22.1588 15.7265 22.1149 15.6255 22.0386 15.5518ZM12.008 15.2002H12.004C11.898 15.2007 11.7964 15.2434 11.7218 15.3188C11.6471 15.3942 11.6055 15.4961 11.606 15.6022C11.6066 15.7083 11.6492 15.8098 11.7246 15.8845C11.8 15.9591 11.902 16.0007 12.008 16.0002C12.1141 16.0002 12.2159 15.9581 12.2909 15.883C12.3659 15.808 12.408 15.7063 12.408 15.6002C12.408 15.4941 12.3659 15.3924 12.2909 15.3174C12.2159 15.2423 12.1141 15.2002 12.008 15.2002ZM12.8 3.2002H11.2C11.094 3.2002 10.9922 3.24234 10.9172 3.31735C10.8422 3.39237 10.8 3.49411 10.8 3.6002C10.8 3.70628 10.8422 3.80802 10.9172 3.88304C10.9922 3.95805 11.094 4.0002 11.2 4.0002H12.8C12.9061 4.0002 13.0079 3.95805 13.0829 3.88304C13.1579 3.80802 13.2 3.70628 13.2 3.6002C13.2 3.49411 13.1579 3.39237 13.0829 3.31735C13.0079 3.24234 12.9061 3.2002 12.8 3.2002Z" fill="white"/>
</g>
<defs>
<clipPath id="clip0_1290_7115">
<rect width="24" height="24" fill="white"/>
</clipPath>
</defs>
</svg>
