<svg width="20" height="20" viewBox="0 0 20 20" fill="none" xmlns="http://www.w3.org/2000/svg">
<path d="M18.25 5.75302H14.9613C14.9978 5.72208 15.0353 5.69208 15.0709 5.65927C15.3557 5.40631 15.5851 5.09732 15.745 4.75163C15.9049 4.40594 15.9917 4.03098 16 3.65021C16.0123 3.23365 15.9394 2.81897 15.7856 2.43163C15.6319 2.04429 15.4006 1.69246 15.106 1.39774C14.8113 1.10301 14.4596 0.87162 14.0723 0.717762C13.685 0.563904 13.2703 0.490827 12.8538 0.503018C12.4728 0.511223 12.0977 0.597972 11.7518 0.757837C11.406 0.917701 11.0968 1.14724 10.8438 1.43208C10.4936 1.83792 10.2089 2.29593 10 2.78958C9.7911 2.29593 9.50642 1.83792 9.15625 1.43208C8.90318 1.14724 8.59405 0.917701 8.24818 0.757837C7.90232 0.597972 7.52718 0.511223 7.14625 0.503018C6.72969 0.490827 6.31503 0.563904 5.92774 0.717762C5.54044 0.87162 5.18868 1.10301 4.89405 1.39774C4.59941 1.69246 4.36812 2.04429 4.21438 2.43163C4.06064 2.81897 3.98768 3.23365 4 3.65021C4.00833 4.03098 4.09514 4.40594 4.255 4.75163C4.41486 5.09732 4.64434 5.40631 4.92906 5.65927C4.96469 5.69021 5.00219 5.72021 5.03875 5.75302H1.75C1.35218 5.75302 0.970644 5.91105 0.68934 6.19236C0.408035 6.47366 0.25 6.85519 0.25 7.25302V10.253C0.25 10.6508 0.408035 11.0324 0.68934 11.3137C0.970644 11.595 1.35218 11.753 1.75 11.753V17.753C1.75 18.1508 1.90804 18.5324 2.18934 18.8137C2.47064 19.095 2.85218 19.253 3.25 19.253H16.75C17.1478 19.253 17.5294 19.095 17.8107 18.8137C18.092 18.5324 18.25 18.1508 18.25 17.753V11.753C18.6478 11.753 19.0294 11.595 19.3107 11.3137C19.592 11.0324 19.75 10.6508 19.75 10.253V7.25302C19.75 6.85519 19.592 6.47366 19.3107 6.19236C19.0294 5.91105 18.6478 5.75302 18.25 5.75302ZM11.9688 2.42583C12.0875 2.29469 12.2321 2.18952 12.3934 2.11692C12.5547 2.04432 12.7293 2.00586 12.9062 2.00396H12.9522C13.1595 2.00525 13.3645 2.04792 13.5552 2.12946C13.7458 2.211 13.9183 2.32977 14.0624 2.47881C14.2066 2.62786 14.3195 2.80417 14.3947 2.99743C14.4698 3.19068 14.5056 3.39699 14.5 3.60427C14.4981 3.78117 14.4596 3.95577 14.387 4.1171C14.3144 4.27844 14.2093 4.42302 14.0781 4.54177C13.1884 5.32927 11.7119 5.60677 10.7969 5.70427C10.9094 4.71146 11.2188 3.26864 11.9688 2.42583ZM5.96031 2.45958C6.25088 2.16904 6.64441 2.00496 7.05531 2.00302H7.10125C7.27815 2.00493 7.45275 2.04339 7.61409 2.11599C7.77542 2.18859 7.92 2.29376 8.03875 2.42489C8.82531 3.31364 9.10281 4.78739 9.20031 5.69864C8.28906 5.60489 6.81531 5.32364 5.92656 4.53708C5.79543 4.41833 5.69026 4.27375 5.61766 4.11242C5.54506 3.95108 5.5066 3.77648 5.50469 3.59958C5.49887 3.38886 5.53593 3.17916 5.61361 2.9832C5.69128 2.78723 5.80796 2.60909 5.95656 2.45958H5.96031ZM1.75 7.25302H9.25V10.253H1.75V7.25302ZM3.25 11.753H9.25V17.753H3.25V11.753ZM16.75 17.753H10.75V11.753H16.75V17.753ZM18.25 10.253H10.75V7.25302H18.25V10.253Z" fill="#212121"/>
</svg>
