<svg width="18" height="24" viewBox="0 0 18 24" fill="none" xmlns="http://www.w3.org/2000/svg">
<path d="M4.2668 16.6455L3.31533 16.6919L1.47062 21.9919C1.41183 22.1607 1.54862 22.3333 1.72641 22.3147L4.31218 22.0439C4.34785 22.0402 4.38391 22.0444 4.41778 22.0561C4.45166 22.0679 4.48252 22.087 4.50816 22.1121L6.36699 23.9299C6.49477 24.0549 6.70918 24.0045 6.76791 23.8357L8.62468 18.5011L8.07718 17.9697L4.2668 16.6455Z" fill="#FF4755"/>
<path d="M8.62477 18.502L8.99996 17.4241L3.68949 15.6182L3.31543 16.6929C4.8234 17.7689 6.64927 18.4276 8.62477 18.502Z" fill="#FC2B3A"/>
<path d="M13.7328 16.6455L14.6843 16.6919L16.529 21.9919C16.5878 22.1607 16.451 22.3333 16.2732 22.3147L13.6875 22.0439C13.6518 22.0402 13.6157 22.0444 13.5819 22.0561C13.548 22.0679 13.5172 22.087 13.4915 22.1121L11.6327 23.9299C11.5049 24.0549 11.2905 24.0045 11.2318 23.8357L9.375 18.5011L9.9225 17.9697L13.7328 16.6455Z" fill="#FF4755"/>
<path d="M9.37519 18.502L9 17.4241L14.3105 15.6182L14.6845 16.6929C13.1766 17.7689 11.3507 18.4276 9.37519 18.502Z" fill="#FC2B3A"/>
<path d="M8.99993 16.8804C0.288116 16.8804 0.291772 8.41814 0.298991 8.27269C0.527694 3.66534 4.33577 0 8.99993 0C13.6641 0 17.4722 3.66534 17.7009 8.27273C17.7081 8.41819 17.7117 16.8804 8.99993 16.8804Z" fill="#FFE27A"/>
<path d="M8.9999 16.5452C4.33574 16.5452 0.527805 12.8799 0.299055 8.27246C0.29177 8.41871 0.288112 8.56511 0.288086 8.71154C0.288086 13.5229 4.18851 17.4234 8.9999 17.4234C13.8113 17.4234 17.7117 13.5229 17.7117 8.71154C17.7117 8.56426 17.708 8.41791 17.7007 8.27246C17.472 12.8799 13.6641 16.5452 8.9999 16.5452Z" fill="#F9CF58"/>
<path d="M8.99974 15.0054C2.15051 15.0054 2.14132 8.27033 2.15051 8.12511C2.37696 4.53936 5.3569 1.70117 8.99974 1.70117C12.6426 1.70117 15.6225 4.53936 15.849 8.12511C15.8582 8.27028 15.849 15.0054 8.99974 15.0054Z" fill="#FFBA57"/>
<path d="M8.99978 14.6964C5.35698 14.6964 2.37756 11.8582 2.15111 8.27246C2.14169 8.41863 2.13689 8.56506 2.13672 8.71154C2.13672 12.5019 5.20942 15.5746 8.99978 15.5746C12.7901 15.5746 15.8628 12.5019 15.8628 8.71154C15.8628 8.56398 15.8576 8.41768 15.8485 8.27246C15.622 11.8582 12.6426 14.6964 8.99978 14.6964Z" fill="#FFAC3E"/>
<path d="M9.39137 12.788C8.91488 12.788 8.52859 12.4018 8.52859 11.9252V7.09003C8.52859 7.09003 8.01235 7.60777 7.39468 7.29712C6.91309 7.05492 6.91309 6.43153 6.91309 6.43153L7.97682 4.63594C8.05318 4.50705 8.16178 4.40026 8.29194 4.32608C8.42209 4.25191 8.56932 4.21289 8.71913 4.21289H9.39137C9.86785 4.21289 10.2541 4.59914 10.2541 5.07567V11.9252C10.2541 12.4018 9.86785 12.788 9.39137 12.788Z" fill="#FFE27A"/>
<path d="M8.40995 6.41224C8.18097 6.79882 7.69408 6.96644 7.288 6.77402C7.13139 6.70044 7.00061 6.58135 6.91272 6.4323C6.67314 6.83758 6.80284 7.35897 7.20175 7.6053C7.61312 7.85936 8.16283 7.70768 8.4092 7.29166L8.52855 7.09014V6.44463C8.52855 6.37985 8.443 6.35646 8.40995 6.41224ZM9.39128 12.3318C8.9148 12.3318 8.5285 11.9456 8.5285 11.4691V12.3473C8.5285 12.8238 8.9148 13.2101 9.39128 13.2101C9.86776 13.2101 10.2541 12.8238 10.2541 12.3473V11.4691C10.2541 11.9456 9.86776 12.3318 9.39128 12.3318Z" fill="#F9CF58"/>
</svg>
