<svg width="24" height="24" viewBox="0 0 24 24" fill="none" xmlns="http://www.w3.org/2000/svg">
<g clip-path="url(#clip0_1012_1504)">
<path d="M9.59127 20.5672C9.53871 20.6933 9.45 20.801 9.33631 20.8768C9.22262 20.9526 9.08904 20.9931 8.95241 20.9931H8.94931L3.89174 20.97C3.7707 20.9695 3.65192 20.9373 3.54721 20.8766C3.44251 20.8159 3.35556 20.7287 3.29502 20.6239L2.87408 19.8952L2.27164 18.852C2.26944 18.8484 2.26761 18.8447 2.26578 18.8414C2.20578 18.7374 2.17385 18.6195 2.17311 18.4994C2.17237 18.3794 2.20285 18.2612 2.26156 18.1564L3.34611 16.2222C3.47042 16.0016 3.70625 15.8672 3.9582 15.8687L5.12497 15.8824L8.9345 15.9267C9.07076 15.9283 9.20352 15.9701 9.31615 16.0468C9.42878 16.1235 9.51626 16.2317 9.56764 16.3579C9.61909 16.4841 9.63214 16.6226 9.60513 16.7561C9.57813 16.8896 9.51228 17.0121 9.41586 17.1083L8.07791 18.4468L9.44225 19.8111C9.53924 19.9082 9.60519 20.0319 9.63173 20.1665C9.65827 20.3011 9.64416 20.4406 9.59127 20.5672Z" fill="#00AF5B"/>
<path d="M23.9072 15.0774L23.4729 15.8304L22.8779 16.8605C22.8178 16.9645 22.7317 17.051 22.628 17.1117C22.5244 17.1723 22.4068 17.205 22.2867 17.2066L20.0695 17.2339H20.0609C19.938 17.2338 19.8174 17.2011 19.7114 17.1391C19.6054 17.077 19.5178 16.9879 19.4576 16.8809L18.8921 15.8751L17.0193 12.5423C16.9526 12.4235 16.9224 12.2877 16.9326 12.1518C16.9428 12.0159 16.9928 11.886 17.0764 11.7784C17.1599 11.6708 17.2733 11.5903 17.4024 11.5469C17.5315 11.5034 17.6705 11.4991 17.8021 11.5343L19.6306 12.024L20.1301 10.1603C20.1655 10.0278 20.2395 9.90884 20.3428 9.81853C20.446 9.72821 20.5738 9.67065 20.7098 9.65316C20.8458 9.63561 20.984 9.65881 21.1068 9.71982C21.2296 9.78084 21.3316 9.87692 21.3997 9.99591L23.9087 14.3881C23.9688 14.4931 24.0003 14.612 24 14.733C23.9997 14.8539 23.9678 14.9727 23.9072 15.0774Z" fill="#00994C"/>
<path d="M11.4516 0.338761C11.3902 0.235602 11.3031 0.150158 11.1987 0.0908045C11.0944 0.0314508 10.9764 0.000223508 10.8564 0.000183105H8.79773C8.55145 0.000183105 8.32383 0.130917 8.1997 0.343496L5.65106 4.71225C5.58194 4.83078 5.54958 4.96717 5.5581 5.10412C5.56661 5.24107 5.61561 5.3724 5.69887 5.48146C5.78211 5.59051 5.89588 5.67235 6.02574 5.71658C6.15559 5.76082 6.29566 5.76546 6.42816 5.7299L8.292 5.2304L8.7818 7.05871C8.85394 7.32787 9.08025 7.52746 9.35601 7.56553C9.49102 7.5841 9.6285 7.56241 9.75123 7.50319C9.87396 7.44398 9.97649 7.34985 10.046 7.23262L12.5843 2.952C12.6478 2.84502 12.6812 2.72294 12.6812 2.59858C12.6812 2.47421 12.6476 2.35215 12.5842 2.24521L11.4516 0.338761Z" fill="#00AF5B"/>
<path d="M8.9253 12.7324C8.81664 12.8159 8.68564 12.8653 8.54889 12.8742C8.41215 12.8832 8.27583 12.8514 8.1572 12.7828L7.17976 12.2188L5.12495 15.8824L2.87401 19.8952L2.27162 18.852C2.26942 18.8483 2.26759 18.8447 2.26576 18.8414L0.0928267 15.0774C0.0320171 14.9722 0 14.8529 0 14.7314C0 14.6099 0.0320171 14.4905 0.0928267 14.3853L2.80337 9.69173L1.81844 9.12323C1.69988 9.05475 1.6043 8.95264 1.54377 8.82983C1.48325 8.70702 1.4605 8.56902 1.4784 8.43328C1.49629 8.29753 1.55402 8.17012 1.6443 8.06717C1.73457 7.96421 1.85334 7.89032 1.98559 7.85484L6.98495 6.51562C7.35372 6.41672 7.73345 6.63558 7.83273 7.00472L9.17214 12.0042C9.20762 12.1364 9.20311 12.2761 9.15917 12.4058C9.11523 12.5354 9.03384 12.6491 8.9253 12.7324ZM23.4729 15.8304L22.8779 16.8605L20.705 20.6239C20.6443 20.7291 20.5569 20.8165 20.4516 20.8772C20.3464 20.938 20.227 20.9699 20.1055 20.97H20.1052L14.6856 20.969V22.1067C14.6856 22.2436 14.645 22.3775 14.5689 22.4913C14.4928 22.6052 14.3847 22.694 14.2583 22.7465C14.1317 22.7988 13.9925 22.8125 13.8581 22.7857C13.7238 22.7589 13.6005 22.6929 13.5037 22.596L9.84414 18.9364C9.57367 18.666 9.57367 18.2276 9.84414 17.9575L13.5037 14.2976C13.6005 14.2008 13.7239 14.1349 13.8582 14.1082C13.9925 14.0814 14.1317 14.0951 14.2583 14.1475C14.3848 14.1999 14.4929 14.2887 14.5689 14.4026C14.645 14.5164 14.6856 14.6503 14.6856 14.7872V15.9161L18.8921 15.8751L23.4729 15.8304ZM20.5108 5.25056L19.1713 10.2499C19.0884 10.5592 18.8086 10.7632 18.503 10.7632C18.4424 10.763 18.3821 10.755 18.3235 10.7395L13.3242 9.3997C13.192 9.3643 13.0732 9.29046 12.9828 9.18753C12.8925 9.0846 12.8348 8.95721 12.8169 8.82145C12.7991 8.68569 12.822 8.54771 12.8825 8.4249C12.943 8.3021 13.0386 8.19996 13.1571 8.13136L14.1347 7.56684L11.3668 2.90719L9.63976 0H15.2022C15.4495 0 15.6784 0.132 15.8022 0.346078L17.077 2.55562L18.511 5.04051L19.4958 4.47178C19.6144 4.40322 19.7507 4.37138 19.8873 4.38029C20.024 4.3892 20.155 4.43846 20.2637 4.52184C20.3723 4.60522 20.4538 4.71896 20.4978 4.84867C20.5418 4.97839 20.5463 5.11828 20.5108 5.25056Z" fill="#54E360"/>
<path d="M18.8921 15.8751L14.6856 15.9161V14.7872C14.6856 14.6503 14.645 14.5164 14.5689 14.4026C14.4929 14.2887 14.3848 14.1999 14.2582 14.1475C14.1317 14.0951 13.9925 14.0814 13.8582 14.1082C13.7239 14.1349 13.6005 14.2008 13.5037 14.2976L12 15.8015V21.0922L13.5037 22.596C13.6005 22.6929 13.7238 22.7589 13.8581 22.7856C13.9924 22.8124 14.1317 22.7988 14.2582 22.7464C14.3847 22.6939 14.4928 22.6052 14.5689 22.4913C14.6449 22.3774 14.6856 22.2436 14.6856 22.1067V20.969L20.1052 20.97H20.1055C20.227 20.9699 20.3464 20.938 20.4516 20.8772C20.5568 20.8165 20.6442 20.7291 20.705 20.6239L22.8779 16.8605L23.4728 15.8304L18.8921 15.8751ZM20.2639 4.52217C20.1553 4.43866 20.0243 4.38928 19.8875 4.38031C19.7508 4.37134 19.6144 4.40318 19.4958 4.47178L18.5108 5.04052L17.0769 2.55562L15.8022 0.346078C15.7413 0.240859 15.6538 0.153499 15.5485 0.092757C15.4432 0.0320154 15.3237 2.72044e-05 15.2022 0L12 0V3.97322L14.1347 7.56684L13.1571 8.13136C13.0386 8.19996 12.943 8.3021 12.8825 8.4249C12.8219 8.54771 12.7991 8.68569 12.8168 8.82145C12.8348 8.95721 12.8925 9.08461 12.9828 9.18753C13.0731 9.29046 13.1919 9.3643 13.3242 9.3997L18.3235 10.7395C18.3821 10.755 18.4424 10.763 18.503 10.7631C18.8086 10.7631 19.0884 10.5592 19.1713 10.2499L20.5108 5.25056C20.5463 5.11834 20.5418 4.97856 20.4978 4.8489C20.4539 4.71924 20.3725 4.60557 20.2639 4.52217Z" fill="#43C949"/>
</g>
<defs>
<clipPath id="clip0_1012_1504">
<rect width="24" height="24" fill="white"/>
</clipPath>
</defs>
</svg>
