<svg width="24" height="24" viewBox="0 0 24 24" fill="none" xmlns="http://www.w3.org/2000/svg">
<path d="M23.6 0H13.2C13.094 0 12.9922 0.0421427 12.9172 0.117157C12.8422 0.192172 12.8 0.293913 12.8 0.4V22.8C12.8 22.9061 12.8422 23.0078 12.9172 23.0828C12.9922 23.1579 13.094 23.2 13.2 23.2H13.6V24H14.4V23.2H22.4V24H23.2V23.2H23.6C23.7061 23.2 23.8079 23.1579 23.8829 23.0828C23.9579 23.0078 24 22.9061 24 22.8V0.4C24 0.293913 23.9579 0.192172 23.8829 0.117157C23.8079 0.0421427 23.7061 0 23.6 0ZM23.2 22.4H13.6V8.4H23.2V22.4ZM23.2 7.6H13.6V0.8H23.2V7.6Z" fill="white"/>
<path d="M14.8 2.80005H15.6V6.80005H14.8V2.80005ZM14.8 9.20005H15.6V14.8H14.8V9.20005ZM0.4 23.2H0.8V24H1.6V23.2H10.4V24H11.2V23.2H11.6C11.7061 23.2 11.8078 23.1579 11.8828 23.0829C11.9579 23.0079 12 22.9061 12 22.8V8.80005C12 8.69396 11.9579 8.59222 11.8828 8.51721C11.8078 8.44219 11.7061 8.40005 11.6 8.40005H0.4C0.293913 8.40005 0.192172 8.44219 0.117157 8.51721C0.0421427 8.59222 0 8.69396 0 8.80005L0 22.8C0 22.9061 0.0421427 23.0079 0.117157 23.0829C0.192172 23.1579 0.293913 23.2 0.4 23.2ZM0.8 9.20005H11.2V11.6H0.8V9.20005ZM0.8 12.4H11.2V22.4H0.8V12.4Z" fill="white"/>
<path d="M6 12.8C3.5699 12.8 1.6 14.7699 1.6 17.2C1.6 19.6301 3.5699 21.6 6 21.6C8.4301 21.6 10.4 19.6301 10.4 17.2C10.397 14.7711 8.4289 12.8029 6 12.8ZM6 20.8C4.41895 20.8025 3.0211 19.7733 2.5545 18.2625C2.0879 16.752 2.6615 15.1135 3.96855 14.2238C5.27555 13.3343 7.01015 13.4017 8.24435 14.39L7.676 14.96C6.5209 14.0838 4.8885 14.2319 3.90975 15.3018C2.93125 16.3715 2.92875 18.0106 3.9041 19.0833C4.8795 20.1561 6.51135 20.309 7.6691 19.4363L8.24435 20.0115C7.60806 20.5226 6.81615 20.8008 6 20.8ZM6.9172 18.6828L7.09845 18.864C6.2633 19.419 5.1463 19.2699 4.48615 18.5152C3.8258 17.7605 3.82655 16.6336 4.48765 15.8797C5.14875 15.1258 6.266 14.978 7.1004 15.534L6.9172 15.7172C6.84218 15.7922 6.80003 15.8939 6.8 16V18.4C6.8 18.5061 6.8422 18.6078 6.9172 18.6828ZM8.80995 19.4428L7.6 18.2343V16.1656L8.81 14.9556C9.8633 16.2663 9.8633 18.1335 8.81 19.4443L8.80995 19.4428ZM1.6 10H2.4V10.8H1.6V10ZM3.2 10H4V10.8H3.2V10ZM4.8 10H5.6V10.8H4.8V10ZM8 10H10.4V10.8H8V10ZM0.4 7.6H11.6C11.7061 7.6 11.8078 7.55786 11.8828 7.48284C11.9579 7.40783 12 7.30609 12 7.2V0.4C12 0.293913 11.9579 0.192172 11.8828 0.117157C11.8078 0.0421427 11.7061 0 11.6 0L0.4 0C0.293913 0 0.192172 0.0421427 0.117157 0.117157C0.0421427 0.192172 0 0.293913 0 0.4L0 7.2C0 7.30609 0.0421427 7.40783 0.117157 7.48284C0.192172 7.55786 0.293913 7.6 0.4 7.6ZM8.8 0.8H11.2V6.8H8.8V0.8ZM0.8 0.8H8V6.8H0.8V0.8Z" fill="white"/>
<path d="M9.6001 1.6001H10.4001V2.4001H9.6001V1.6001ZM9.6001 3.2001H10.4001V4.0001H9.6001V3.2001ZM6.8001 1.6001H2.0001C1.89401 1.6001 1.79227 1.64224 1.71726 1.71726C1.64224 1.79227 1.6001 1.89401 1.6001 2.0001V5.6001C1.6001 5.70618 1.64224 5.80793 1.71726 5.88294C1.79227 5.95796 1.89401 6.0001 2.0001 6.0001H6.8001C6.90618 6.0001 7.00793 5.95796 7.08294 5.88294C7.15796 5.80793 7.2001 5.70618 7.2001 5.6001V2.0001C7.2001 1.89401 7.15796 1.79227 7.08294 1.71726C7.00793 1.64224 6.90618 1.6001 6.8001 1.6001ZM6.4001 5.2001H2.4001V2.4001H6.4001V5.2001ZM10.0001 5.0001C9.66865 5.0001 9.4001 5.26865 9.4001 5.6001C9.4001 5.93155 9.66865 6.2001 10.0001 6.2001C10.3315 6.2001 10.6001 5.93155 10.6001 5.6001C10.6001 5.26865 10.3315 5.0001 10.0001 5.0001ZM10.0001 5.8001C9.8896 5.8001 9.8001 5.7106 9.8001 5.6001C9.8001 5.4896 9.8896 5.4001 10.0001 5.4001C10.1106 5.4001 10.2001 5.4896 10.2001 5.6001C10.2001 5.7106 10.1106 5.8001 10.0001 5.8001Z" fill="white"/>
</svg>
