<svg width="31" height="33" viewBox="0 0 31 33" fill="none" xmlns="http://www.w3.org/2000/svg">
<path d="M4.99909 32.5C2.62188 32.1585 0.756196 30.2655 0.56955 27.8437C0.74292 24.2753 0.34776 20.5018 0.56955 16.9569C0.703092 14.8132 2.23219 12.9154 4.31341 12.3946C4.45242 12.3593 4.93349 12.2387 5.03111 12.2387H7.05767C7.1873 10.2634 6.79761 8.01479 7.26306 6.09667C8.70391 0.146502 16.5907 -1.47634 20.3986 3.26609C22.5712 5.97214 21.941 8.99696 22.0214 12.2379H24.048C24.1628 12.2379 24.6852 12.3531 24.8281 12.393C26.2963 12.8074 25.959 14.9197 24.4869 14.8649C24.2362 14.8555 23.9519 14.749 23.677 14.7364C17.6668 14.4553 11.438 14.9526 5.40518 14.7404C4.16738 14.8508 3.25601 15.7437 3.07249 16.9663L3.06624 27.7153C3.23727 29.0029 4.16816 29.8997 5.46375 30.0007L21.2889 30.0133C22.6563 30.3649 22.6657 32.0622 21.335 32.5H4.99909ZM19.5278 7.39213C19.5278 6.93629 19.1639 5.96117 18.9367 5.54606C17.2444 2.45467 12.8351 2.1077 10.6133 4.83019C10.2033 5.33224 9.55123 6.62848 9.55123 7.26759V12.2395H19.5278V7.39213Z" fill="#29B473"/>
<path d="M26.3244 32.5H25.8254C24.0808 32.0457 24.8438 29.4634 26.5103 30.0931C27.7005 30.5427 27.5068 32.1616 26.3244 32.5Z" fill="#29B473"/>
<path d="M25.6263 16.8222C30.2214 16.3749 32.3549 22.4011 28.5017 24.9591C28.1925 25.1643 27.6848 25.3374 27.4826 25.6256C27.0406 26.2553 27.6622 27.3534 26.9812 28.0622C26.2307 28.8447 24.9461 28.3309 24.8274 27.2782C24.6595 25.7791 24.9781 24.2378 26.2674 23.3441C26.8 22.9744 27.3217 22.889 27.7083 22.2875C28.8711 20.479 26.5775 18.362 24.857 19.7405C23.9058 20.5025 24.3924 21.3993 23.8559 22.051C23.1288 22.9345 21.7184 22.4473 21.645 21.2764C21.5068 19.0598 23.4763 17.0305 25.6247 16.8214L25.6263 16.8222Z" fill="#29B473"/>
<path d="M7.35365 20.8848C8.75545 20.6944 9.36771 22.5953 8.11897 23.2156C6.32279 24.1077 5.53013 21.1323 7.35365 20.8848Z" fill="#29B473"/>
<path d="M12.0307 20.8848C13.4325 20.6944 14.0448 22.5953 12.7961 23.2156C10.9999 24.1077 10.2072 21.1323 12.0307 20.8848Z" fill="#29B473"/>
<path d="M16.7071 20.8848C18.1089 20.6944 18.7211 22.5953 17.4724 23.2156C15.6762 24.1077 14.8835 21.1323 16.7071 20.8848Z" fill="#29B473"/>
</svg>
