<svg width="49" height="48" viewBox="0 0 49 48" fill="none" xmlns="http://www.w3.org/2000/svg">
<path d="M34.5 41.5H22.5C22.1022 41.5 21.7206 41.342 21.4393 41.0607C21.158 40.7794 21 40.3978 21 40C21 39.6022 21.158 39.2206 21.4393 38.9393C21.7206 38.658 22.1022 38.5 22.5 38.5H34.5C34.6326 38.5 34.7598 38.4473 34.8536 38.3536C34.9473 38.2598 35 38.1326 35 38V34C35 33.6022 35.158 33.2206 35.4393 32.9393C35.7206 32.658 36.1022 32.5 36.5 32.5C36.8978 32.5 37.2794 32.658 37.5607 32.9393C37.842 33.2206 38 33.6022 38 34V38C37.9947 38.9266 37.6243 39.8138 36.9691 40.4691C36.3138 41.1243 35.4266 41.4948 34.5 41.5ZM36.5 15.5C36.1038 15.4948 35.7253 15.3351 35.4451 15.0549C35.1649 14.7747 35.0052 14.3962 35 14V10C35 9.86739 34.9473 9.74021 34.8536 9.64645C34.7598 9.55268 34.6326 9.5 34.5 9.5H22.5C22.1022 9.5 21.7206 9.34196 21.4393 9.06066C21.158 8.77936 21 8.39782 21 8C21 7.60218 21.158 7.22064 21.4393 6.93934C21.7206 6.65804 22.1022 6.5 22.5 6.5H34.5C35.4266 6.50525 36.3138 6.87568 36.9691 7.53093C37.6243 8.18617 37.9947 9.07336 38 10V14C37.9948 14.3962 37.8351 14.7747 37.5549 15.0549C37.2747 15.3351 36.8962 15.4948 36.5 15.5Z" fill="#FB3748"/>
<path d="M43.88 23.4202C43.8041 23.2417 43.6956 23.0789 43.56 22.9402L39.56 18.9402C39.2757 18.6752 38.8996 18.531 38.511 18.5378C38.1224 18.5447 37.7516 18.7021 37.4768 18.9769C37.2019 19.2518 37.0445 19.6225 37.0377 20.0111C37.0308 20.3997 37.175 20.7758 37.44 21.0602L38.88 22.5002H28.5C28.1022 22.5002 27.7206 22.6582 27.4393 22.9395C27.158 23.2208 27 23.6024 27 24.0002C27 24.398 27.158 24.7795 27.4393 25.0608C27.7206 25.3421 28.1022 25.5002 28.5 25.5002H38.88L37.44 26.9402C37.1591 27.2214 37.0013 27.6027 37.0013 28.0002C37.0013 28.3977 37.1591 28.7789 37.44 29.0602C37.7212 29.3411 38.1025 29.4989 38.5 29.4989C38.8975 29.4989 39.2788 29.3411 39.56 29.0602L43.56 25.0602C43.6956 24.9215 43.8041 24.7587 43.88 24.5802C43.9593 24.3971 44.0001 24.1997 44.0001 24.0002C44.0001 23.8007 43.9593 23.6033 43.88 23.4202Z" fill="#FB3748"/>
<path d="M22.66 5.80008C22.2414 5.47262 21.7536 5.2448 21.2338 5.13391C20.7141 5.02302 20.1758 5.03197 19.66 5.16008L7.66 8.16007C6.90036 8.34788 6.22556 8.78483 5.74339 9.40114C5.26122 10.0174 4.99949 10.7776 5 11.5601V36.4401C4.99949 37.2226 5.26122 37.9827 5.74339 38.599C6.22556 39.2153 6.90036 39.6523 7.66 39.8401L19.66 42.8401C19.9392 42.8696 20.2208 42.8696 20.5 42.8401C20.9604 42.8427 21.4167 42.754 21.8425 42.5791C22.2684 42.4041 22.6553 42.1464 22.9808 41.8209C23.3063 41.4953 23.564 41.1084 23.739 40.6826C23.9139 40.2568 24.0027 39.8004 24 39.3401V8.56008C23.998 8.02898 23.8765 7.50513 23.6445 7.02736C23.4126 6.54959 23.0761 6.13014 22.66 5.80008Z" fill="#D00416"/>
</svg>
