<svg width="24" height="24" viewBox="0 0 24 24" fill="none" xmlns="http://www.w3.org/2000/svg">
<path d="M8.62499 3.28387V3.27075C8.73863 3.20545 8.8331 3.11141 8.89892 2.99807C8.96474 2.88472 8.99959 2.75607 8.99999 2.625V1.125C8.99999 0.926088 8.92097 0.735322 8.78032 0.59467C8.63966 0.454018 8.4489 0.375 8.24999 0.375H5.24999C5.05107 0.375 4.86031 0.454018 4.71966 0.59467C4.579 0.735322 4.49999 0.926088 4.49999 1.125V2.625C4.50038 2.75607 4.53524 2.88472 4.60106 2.99807C4.66688 3.11141 4.76135 3.20545 4.87499 3.27075V3.28387C4.87626 3.73925 4.7872 4.19035 4.61295 4.61106C4.4387 5.03178 4.18273 5.41375 3.85986 5.73488C3.46711 6.12545 3.15573 6.59005 2.94376 7.10179C2.73179 7.61353 2.62344 8.16223 2.62499 8.71613V11.073C2.62579 11.7407 2.78122 12.3992 3.07911 12.9967C3.2737 13.3859 3.375 13.8149 3.375 14.25C3.375 14.6851 3.2737 15.1141 3.07911 15.5033C2.78122 16.1008 2.62579 16.7593 2.62499 17.427V22.5173C2.62494 22.755 2.7014 22.9865 2.84307 23.1775C2.98473 23.3684 3.18409 23.5088 3.41166 23.5777C3.63923 23.6466 3.88294 23.6405 4.10675 23.5602C4.33056 23.4799 4.52261 23.3297 4.65449 23.1319L4.97886 22.6444C5.01025 22.602 5.05113 22.5676 5.09821 22.5439C5.14529 22.5202 5.19727 22.5079 5.24999 22.5079C5.3027 22.5079 5.35468 22.5202 5.40176 22.5439C5.44884 22.5676 5.48972 22.602 5.52111 22.6444L5.85486 23.1454C5.95311 23.2927 6.08622 23.4135 6.24237 23.4971C6.39852 23.5807 6.57288 23.6244 6.74999 23.6244C6.92709 23.6244 7.10145 23.5807 7.2576 23.4971C7.41375 23.4135 7.54686 23.2927 7.64511 23.1454L7.97886 22.6444C8.01025 22.602 8.05113 22.5676 8.09821 22.5439C8.14529 22.5202 8.19727 22.5079 8.24999 22.5079C8.3027 22.5079 8.35468 22.5202 8.40176 22.5439C8.44884 22.5676 8.48972 22.602 8.52111 22.6444L8.84549 23.1319C8.97737 23.3297 9.16941 23.4799 9.39322 23.5602C9.61704 23.6405 9.86074 23.6466 10.0883 23.5777C10.3159 23.5088 10.5152 23.3684 10.6569 23.1775C10.7986 22.9865 10.875 22.755 10.875 22.5173V17.4274C10.8742 16.7594 10.7186 16.1006 10.4205 15.5029C10.2261 15.114 10.125 14.6851 10.125 14.2504C10.125 13.8156 10.2261 13.3868 10.4205 12.9979C10.7187 12.3996 10.8742 11.7404 10.875 11.0719V8.71613C10.8765 8.16223 10.7682 7.61353 10.5562 7.10179C10.3442 6.59005 10.0329 6.12545 9.64011 5.73488C9.31724 5.41375 9.06127 5.03178 8.88702 4.61106C8.71278 4.19035 8.62371 3.73925 8.62499 3.28387ZM5.24999 1.125H8.24999V2.625H7.87499V1.875H7.12499V2.625H6.37499V1.875H5.62499V2.625H5.24999V1.125ZM4.39011 6.26513C5.16003 5.49811 5.60129 4.46161 5.62049 3.375H7.87949C7.89868 4.46161 8.33994 5.49811 9.10986 6.26513C9.64663 6.8005 9.99127 7.49835 10.0901 8.25H3.40986C3.5087 7.49835 3.85334 6.8005 4.39011 6.26513ZM10.1145 11.25H3.38549C3.38249 11.1908 3.37499 11.1322 3.37499 11.073V9H10.125V11.0719C10.125 11.1315 10.1175 11.1908 10.1145 11.25ZM10.125 17.4274V22.5173C10.125 22.594 10.1003 22.6688 10.0545 22.7305C10.0088 22.7922 9.94437 22.8375 9.87086 22.8597C9.79735 22.882 9.71864 22.88 9.64636 22.854C9.57407 22.8281 9.51206 22.7795 9.46949 22.7156L9.14511 22.2281C9.04686 22.0808 8.91375 21.96 8.7576 21.8764C8.60145 21.7928 8.42709 21.7491 8.24999 21.7491C8.07288 21.7491 7.89852 21.7928 7.74237 21.8764C7.58622 21.96 7.45311 22.0808 7.35486 22.2281L7.02111 22.7291C6.98972 22.7715 6.94884 22.8059 6.90176 22.8296C6.85468 22.8533 6.8027 22.8656 6.74999 22.8656C6.69727 22.8656 6.64529 22.8533 6.59821 22.8296C6.55113 22.8059 6.51025 22.7715 6.47886 22.7291L6.14511 22.2281C6.04686 22.0808 5.91375 21.96 5.7576 21.8764C5.60145 21.7928 5.42709 21.7491 5.24999 21.7491C5.07288 21.7491 4.89852 21.7928 4.74237 21.8764C4.58622 21.96 4.45311 22.0808 4.35486 22.2281L4.03049 22.7156C3.98791 22.7795 3.9259 22.8281 3.85362 22.854C3.78133 22.88 3.70262 22.882 3.62911 22.8597C3.5556 22.8375 3.49121 22.7922 3.44544 22.7305C3.39968 22.6688 3.37497 22.594 3.37499 22.5173V17.427C3.37566 16.8756 3.50401 16.3319 3.74999 15.8385C3.99659 15.3453 4.12498 14.8014 4.12498 14.25C4.12498 13.6986 3.99659 13.1547 3.74999 12.6615C3.64604 12.4498 3.56351 12.2282 3.50361 12H9.99636C9.93629 12.2283 9.85377 12.4502 9.74999 12.6622C9.50361 13.1554 9.37536 13.6991 9.37536 14.2504C9.37536 14.8016 9.50361 15.3454 9.74999 15.8385C9.99612 16.332 10.1245 16.8759 10.125 17.4274ZM21.3 8.025L20.25 6.62512V6C20.25 5.70163 20.1315 5.41548 19.9205 5.2045C19.7095 4.99353 19.4234 4.875 19.125 4.875H14.625C14.3266 4.875 14.0405 4.99353 13.8295 5.2045C13.6185 5.41548 13.5 5.70163 13.5 6V6.62475L12.45 8.025L12.4552 8.02875C12.4049 8.09165 12.3766 8.16943 12.375 8.25V21.75C12.3766 21.8306 12.4049 21.9083 12.4552 21.9713L12.45 21.975L13.575 23.475C13.6099 23.5216 13.6552 23.5594 13.7073 23.5854C13.7594 23.6114 13.8168 23.625 13.875 23.625H19.875C19.9332 23.625 19.9906 23.6114 20.0427 23.5854C20.0948 23.5594 20.1401 23.5216 20.175 23.475L21.3 21.975L21.2947 21.9713C21.3451 21.9083 21.3733 21.8306 21.375 21.75V8.25C21.3733 8.16943 21.3451 8.09165 21.2947 8.02875L21.3 8.025ZM20.625 21.375H19.8904C20.068 17.0107 19.2406 12.6639 17.472 8.67L17.4521 8.625H20.625V21.375ZM13.125 8.625H15.1046C16.4728 12.6389 16.6249 16.9675 15.5419 21.0675L15.4609 21.375H13.125V8.625ZM16.2671 21.258C17.3656 17.0994 17.2363 12.7117 15.8947 8.625H16.6312L16.7869 8.9745C18.5128 12.8725 19.318 17.1157 19.14 21.375H16.2375L16.2671 21.258ZM13.5 7.875L14.0625 7.125H19.6875L20.25 7.875H13.5ZM14.3599 5.73488C14.3946 5.6999 14.4359 5.67217 14.4814 5.65331C14.5269 5.63445 14.5757 5.62483 14.625 5.625H19.125C19.2244 5.625 19.3198 5.66451 19.3902 5.73484C19.4605 5.80516 19.5 5.90054 19.5 6V6.375H14.25V6C14.2499 5.95071 14.2596 5.90189 14.2785 5.85638C14.2975 5.81087 14.3249 5.76957 14.3599 5.73488ZM19.6875 22.875H14.0625L13.5 22.125H20.25L19.6875 22.875Z" fill="#212121"/>
<path d="M4.125 9.75H9.375V10.5H4.125V9.75ZM19.875 3.375C20.1717 3.375 20.4617 3.28703 20.7084 3.12221C20.955 2.95738 21.1473 2.72311 21.2608 2.44903C21.3744 2.17494 21.4041 1.87334 21.3462 1.58237C21.2883 1.29139 21.1454 1.02412 20.9357 0.814341C20.7259 0.604562 20.4586 0.461701 20.1676 0.403823C19.8767 0.345945 19.5751 0.37565 19.301 0.489181C19.0269 0.602713 18.7926 0.794972 18.6278 1.04165C18.463 1.28832 18.375 1.57833 18.375 1.875C18.375 2.27283 18.533 2.65436 18.8143 2.93566C19.0956 3.21697 19.4772 3.375 19.875 3.375ZM19.875 1.125C20.0233 1.125 20.1683 1.16899 20.2917 1.2514C20.415 1.33381 20.5111 1.45094 20.5679 1.58799C20.6247 1.72503 20.6395 1.87583 20.6106 2.02132C20.5816 2.1668 20.5102 2.30044 20.4053 2.40533C20.3004 2.51022 20.1668 2.58165 20.0213 2.61059C19.8758 2.63953 19.725 2.62468 19.588 2.56791C19.4509 2.51114 19.3338 2.41502 19.2514 2.29168C19.169 2.16834 19.125 2.02334 19.125 1.875C19.125 1.67609 19.204 1.48532 19.3447 1.34467C19.4853 1.20402 19.6761 1.125 19.875 1.125ZM16.5 4.125C16.7225 4.125 16.94 4.05902 17.125 3.9354C17.31 3.81179 17.4542 3.63609 17.5394 3.43052C17.6245 3.22495 17.6468 2.99875 17.6034 2.78052C17.56 2.5623 17.4528 2.36184 17.2955 2.20451C17.1382 2.04717 16.9377 1.94003 16.7195 1.89662C16.5012 1.85321 16.275 1.87549 16.0695 1.96064C15.8639 2.04578 15.6882 2.18998 15.5646 2.37498C15.441 2.55999 15.375 2.7775 15.375 3C15.375 3.29837 15.4935 3.58452 15.7045 3.7955C15.9155 4.00647 16.2016 4.125 16.5 4.125ZM16.5 2.625C16.5742 2.625 16.6467 2.64699 16.7083 2.6882C16.77 2.72941 16.8181 2.78797 16.8465 2.85649C16.8748 2.92502 16.8823 3.00042 16.8678 3.07316C16.8533 3.1459 16.8176 3.21272 16.7652 3.26517C16.7127 3.31761 16.6459 3.35333 16.5732 3.3678C16.5004 3.38226 16.425 3.37484 16.3565 3.34646C16.288 3.31807 16.2294 3.27001 16.1882 3.20834C16.147 3.14667 16.125 3.07417 16.125 3C16.125 2.90054 16.1645 2.80516 16.2348 2.73484C16.3052 2.66451 16.4005 2.625 16.5 2.625ZM13.5 4.125C13.5 3.9025 13.434 3.68499 13.3104 3.49998C13.1868 3.31498 13.0111 3.17078 12.8055 3.08564C12.6 3.00049 12.3738 2.97821 12.1555 3.02162C11.9373 3.06503 11.7368 3.17217 11.5795 3.32951C11.4222 3.48684 11.315 3.6873 11.2716 3.90552C11.2282 4.12375 11.2505 4.34995 11.3356 4.55552C11.4208 4.76109 11.565 4.93679 11.75 5.0604C11.935 5.18402 12.1525 5.25 12.375 5.25C12.6734 5.25 12.9595 5.13147 13.1705 4.9205C13.3815 4.70952 13.5 4.42337 13.5 4.125ZM12 4.125C12 4.05083 12.022 3.97833 12.0632 3.91666C12.1044 3.85499 12.163 3.80693 12.2315 3.77855C12.3 3.75016 12.3754 3.74274 12.4482 3.75721C12.5209 3.77168 12.5877 3.80739 12.6402 3.85984C12.6926 3.91228 12.7283 3.9791 12.7428 4.05184C12.7573 4.12458 12.7498 4.19998 12.7215 4.26851C12.6931 4.33703 12.645 4.3956 12.5833 4.4368C12.5217 4.47801 12.4492 4.5 12.375 4.5C12.2755 4.5 12.1802 4.46049 12.1098 4.39017C12.0395 4.31984 12 4.22446 12 4.125Z" fill="#212121"/>
</svg>
