<svg width="20" height="24" viewBox="0 0 20 24" fill="none" xmlns="http://www.w3.org/2000/svg">
<path d="M6.62502 3.28387V3.27075C6.73866 3.20545 6.83313 3.11141 6.89895 2.99807C6.96477 2.88472 6.99962 2.75607 7.00002 2.625V1.125C7.00002 0.926088 6.921 0.735322 6.78035 0.59467C6.63969 0.454018 6.44893 0.375 6.25002 0.375H3.25002C3.0511 0.375 2.86034 0.454018 2.71969 0.59467C2.57903 0.735322 2.50002 0.926088 2.50002 1.125V2.625C2.50041 2.75607 2.53527 2.88472 2.60109 2.99807C2.66691 3.11141 2.76138 3.20545 2.87502 3.27075V3.28387C2.87629 3.73925 2.78723 4.19035 2.61298 4.61106C2.43873 5.03178 2.18276 5.41375 1.85989 5.73488C1.46714 6.12545 1.15576 6.59005 0.943793 7.10179C0.731825 7.61353 0.623475 8.16223 0.625016 8.71613V11.073C0.625819 11.7407 0.781255 12.3992 1.07914 12.9967C1.27373 13.3859 1.37503 13.8149 1.37503 14.25C1.37503 14.6851 1.27373 15.1141 1.07914 15.5033C0.781255 16.1008 0.625819 16.7593 0.625016 17.427V22.5173C0.624968 22.755 0.701429 22.9865 0.843097 23.1775C0.984765 23.3684 1.18412 23.5088 1.41169 23.5777C1.63926 23.6466 1.88297 23.6405 2.10678 23.5602C2.33059 23.4799 2.52264 23.3297 2.65452 23.1319L2.97889 22.6444C3.01028 22.602 3.05116 22.5676 3.09824 22.5439C3.14532 22.5202 3.1973 22.5079 3.25002 22.5079C3.30273 22.5079 3.35471 22.5202 3.40179 22.5439C3.44887 22.5676 3.48975 22.602 3.52114 22.6444L3.85489 23.1454C3.95314 23.2927 4.08625 23.4135 4.2424 23.4971C4.39855 23.5807 4.57291 23.6244 4.75002 23.6244C4.92712 23.6244 5.10148 23.5807 5.25763 23.4971C5.41378 23.4135 5.54689 23.2927 5.64514 23.1454L5.97889 22.6444C6.01028 22.602 6.05116 22.5676 6.09824 22.5439C6.14532 22.5202 6.1973 22.5079 6.25002 22.5079C6.30273 22.5079 6.35471 22.5202 6.40179 22.5439C6.44887 22.5676 6.48975 22.602 6.52114 22.6444L6.84552 23.1319C6.9774 23.3297 7.16944 23.4799 7.39325 23.5602C7.61707 23.6405 7.86077 23.6466 8.08834 23.5777C8.31591 23.5088 8.51527 23.3684 8.65693 23.1775C8.7986 22.9865 8.87506 22.755 8.87502 22.5173V17.4274C8.87423 16.7594 8.71866 16.1006 8.42052 15.5029C8.22617 15.114 8.125 14.6851 8.125 14.2504C8.125 13.8156 8.22617 13.3868 8.42052 12.9979C8.7187 12.3996 8.87427 11.7404 8.87502 11.0719V8.71613C8.87656 8.16223 8.76821 7.61353 8.55624 7.10179C8.34427 6.59005 8.0329 6.12545 7.64014 5.73488C7.31727 5.41375 7.0613 5.03178 6.88705 4.61106C6.71281 4.19035 6.62374 3.73925 6.62502 3.28387ZM3.25002 1.125H6.25002V2.625H5.87502V1.875H5.12502V2.625H4.37502V1.875H3.62502V2.625H3.25002V1.125ZM2.39014 6.26513C3.16006 5.49811 3.60132 4.46161 3.62052 3.375H5.87952C5.89871 4.46161 6.33997 5.49811 7.10989 6.26513C7.64666 6.8005 7.9913 7.49835 8.09014 8.25H1.40989C1.50873 7.49835 1.85338 6.8005 2.39014 6.26513ZM8.11452 11.25H1.38552C1.38252 11.1908 1.37502 11.1322 1.37502 11.073V9H8.12502V11.0719C8.12502 11.1315 8.11752 11.1908 8.11452 11.25ZM8.12502 17.4274V22.5173C8.12503 22.594 8.10033 22.6688 8.05456 22.7305C8.0088 22.7922 7.9444 22.8375 7.87089 22.8597C7.79738 22.882 7.71867 22.88 7.64639 22.854C7.5741 22.8281 7.51209 22.7795 7.46952 22.7156L7.14514 22.2281C7.04689 22.0808 6.91378 21.96 6.75763 21.8764C6.60148 21.7928 6.42712 21.7491 6.25002 21.7491C6.07291 21.7491 5.89855 21.7928 5.7424 21.8764C5.58625 21.96 5.45314 22.0808 5.35489 22.2281L5.02114 22.7291C4.98975 22.7715 4.94887 22.8059 4.90179 22.8296C4.85471 22.8533 4.80273 22.8656 4.75002 22.8656C4.6973 22.8656 4.64532 22.8533 4.59824 22.8296C4.55116 22.8059 4.51028 22.7715 4.47889 22.7291L4.14514 22.2281C4.04689 22.0808 3.91378 21.96 3.75763 21.8764C3.60148 21.7928 3.42712 21.7491 3.25002 21.7491C3.07291 21.7491 2.89855 21.7928 2.7424 21.8764C2.58625 21.96 2.45314 22.0808 2.35489 22.2281L2.03052 22.7156C1.98794 22.7795 1.92593 22.8281 1.85365 22.854C1.78136 22.88 1.70265 22.882 1.62914 22.8597C1.55563 22.8375 1.49124 22.7922 1.44547 22.7305C1.39971 22.6688 1.375 22.594 1.37502 22.5173V17.427C1.37569 16.8756 1.50404 16.3319 1.75002 15.8385C1.99662 15.3453 2.12501 14.8014 2.12501 14.25C2.12501 13.6986 1.99662 13.1547 1.75002 12.6615C1.64607 12.4498 1.56354 12.2282 1.50364 12H7.99639C7.93632 12.2283 7.8538 12.4502 7.75002 12.6622C7.50364 13.1554 7.37539 13.6991 7.37539 14.2504C7.37539 14.8016 7.50364 15.3454 7.75002 15.8385C7.99615 16.332 8.12451 16.8759 8.12502 17.4274ZM19.3 8.025L18.25 6.62512V6C18.25 5.70163 18.1315 5.41548 17.9205 5.2045C17.7095 4.99353 17.4234 4.875 17.125 4.875H12.625C12.3266 4.875 12.0405 4.99353 11.8295 5.2045C11.6185 5.41548 11.5 5.70163 11.5 6V6.62475L10.45 8.025L10.4553 8.02875C10.4049 8.09165 10.3767 8.16943 10.375 8.25V21.75C10.3767 21.8306 10.4049 21.9083 10.4553 21.9713L10.45 21.975L11.575 23.475C11.6099 23.5216 11.6552 23.5594 11.7073 23.5854C11.7594 23.6114 11.8168 23.625 11.875 23.625H17.875C17.9332 23.625 17.9907 23.6114 18.0427 23.5854C18.0948 23.5594 18.1401 23.5216 18.175 23.475L19.3 21.975L19.2948 21.9713C19.3451 21.9083 19.3734 21.8306 19.375 21.75V8.25C19.3734 8.16943 19.3451 8.09165 19.2948 8.02875L19.3 8.025ZM18.625 21.375H17.8904C18.0681 17.0107 17.2407 12.6639 15.472 8.67L15.4521 8.625H18.625V21.375ZM11.125 8.625H13.1046C14.4729 12.6389 14.625 16.9675 13.5419 21.0675L13.4609 21.375H11.125V8.625ZM14.2671 21.258C15.3656 17.0994 15.2363 12.7117 13.8948 8.625H14.6313L14.7869 8.9745C16.5128 12.8725 17.318 17.1157 17.14 21.375H14.2375L14.2671 21.258ZM11.5 7.875L12.0625 7.125H17.6875L18.25 7.875H11.5ZM12.3599 5.73488C12.3946 5.6999 12.4359 5.67217 12.4814 5.65331C12.5269 5.63445 12.5757 5.62483 12.625 5.625H17.125C17.2245 5.625 17.3199 5.66451 17.3902 5.73484C17.4605 5.80516 17.5 5.90054 17.5 6V6.375H12.25V6C12.2499 5.95071 12.2596 5.90189 12.2786 5.85638C12.2975 5.81087 12.3249 5.76957 12.3599 5.73488ZM17.6875 22.875H12.0625L11.5 22.125H18.25L17.6875 22.875Z" fill="white"/>
<path d="M2.125 9.75H7.375V10.5H2.125V9.75ZM17.875 3.375C18.1717 3.375 18.4617 3.28703 18.7084 3.12221C18.955 2.95738 19.1473 2.72311 19.2608 2.44903C19.3744 2.17494 19.4041 1.87334 19.3462 1.58237C19.2883 1.29139 19.1454 1.02412 18.9357 0.814341C18.7259 0.604562 18.4586 0.461701 18.1676 0.403823C17.8767 0.345945 17.5751 0.37565 17.301 0.489181C17.0269 0.602713 16.7926 0.794972 16.6278 1.04165C16.463 1.28832 16.375 1.57833 16.375 1.875C16.375 2.27283 16.533 2.65436 16.8143 2.93566C17.0956 3.21697 17.4772 3.375 17.875 3.375ZM17.875 1.125C18.0233 1.125 18.1683 1.16899 18.2917 1.2514C18.415 1.33381 18.5111 1.45094 18.5679 1.58799C18.6247 1.72503 18.6395 1.87583 18.6106 2.02132C18.5816 2.1668 18.5102 2.30044 18.4053 2.40533C18.3004 2.51022 18.1668 2.58165 18.0213 2.61059C17.8758 2.63953 17.725 2.62468 17.588 2.56791C17.4509 2.51114 17.3338 2.41502 17.2514 2.29168C17.169 2.16834 17.125 2.02334 17.125 1.875C17.125 1.67609 17.204 1.48532 17.3447 1.34467C17.4853 1.20402 17.6761 1.125 17.875 1.125ZM14.5 4.125C14.7225 4.125 14.94 4.05902 15.125 3.9354C15.31 3.81179 15.4542 3.63609 15.5394 3.43052C15.6245 3.22495 15.6468 2.99875 15.6034 2.78052C15.56 2.5623 15.4528 2.36184 15.2955 2.20451C15.1382 2.04717 14.9377 1.94003 14.7195 1.89662C14.5012 1.85321 14.275 1.87549 14.0695 1.96064C13.8639 2.04578 13.6882 2.18998 13.5646 2.37498C13.441 2.55999 13.375 2.7775 13.375 3C13.375 3.29837 13.4935 3.58452 13.7045 3.7955C13.9155 4.00647 14.2016 4.125 14.5 4.125ZM14.5 2.625C14.5742 2.625 14.6467 2.64699 14.7083 2.6882C14.77 2.72941 14.8181 2.78797 14.8465 2.85649C14.8748 2.92502 14.8823 3.00042 14.8678 3.07316C14.8533 3.1459 14.8176 3.21272 14.7652 3.26517C14.7127 3.31761 14.6459 3.35333 14.5732 3.3678C14.5004 3.38226 14.425 3.37484 14.3565 3.34646C14.288 3.31807 14.2294 3.27001 14.1882 3.20834C14.147 3.14667 14.125 3.07417 14.125 3C14.125 2.90054 14.1645 2.80516 14.2348 2.73484C14.3052 2.66451 14.4005 2.625 14.5 2.625ZM11.5 4.125C11.5 3.9025 11.434 3.68499 11.3104 3.49998C11.1868 3.31498 11.0111 3.17078 10.8055 3.08564C10.6 3.00049 10.3738 2.97821 10.1555 3.02162C9.93729 3.06503 9.73684 3.17217 9.5795 3.32951C9.42217 3.48684 9.31502 3.6873 9.27162 3.90552C9.22821 4.12375 9.25049 4.34995 9.33564 4.55552C9.42078 4.76109 9.56498 4.93679 9.74998 5.0604C9.93499 5.18402 10.1525 5.25 10.375 5.25C10.6734 5.25 10.9595 5.13147 11.1705 4.9205C11.3815 4.70952 11.5 4.42337 11.5 4.125ZM10 4.125C10 4.05083 10.022 3.97833 10.0632 3.91666C10.1044 3.85499 10.163 3.80693 10.2315 3.77855C10.3 3.75016 10.3754 3.74274 10.4482 3.75721C10.5209 3.77168 10.5877 3.80739 10.6402 3.85984C10.6926 3.91228 10.7283 3.9791 10.7428 4.05184C10.7573 4.12458 10.7498 4.19998 10.7215 4.26851C10.6931 4.33703 10.645 4.3956 10.5833 4.4368C10.5217 4.47801 10.4492 4.5 10.375 4.5C10.2755 4.5 10.1802 4.46049 10.1098 4.39017C10.0395 4.31984 10 4.22446 10 4.125Z" fill="white"/>
</svg>
