<svg width="24" height="24" viewBox="0 0 24 24" fill="none" xmlns="http://www.w3.org/2000/svg">
<path d="M9.1575 6.375H14.8425C14.9546 6.37274 15.0632 6.33533 15.1529 6.26804C15.2426 6.20076 15.3088 6.107 15.3424 6C15.3088 5.893 15.2426 5.79924 15.1529 5.73196C15.0632 5.66467 14.9546 5.62726 14.8425 5.625H9.1575C9.0454 5.62726 8.93683 5.66467 8.84714 5.73196C8.75745 5.79924 8.69115 5.893 8.65762 6C8.69115 6.107 8.75745 6.20076 8.84714 6.26804C8.93683 6.33533 9.0454 6.37274 9.1575 6.375ZM9.1575 5.25H14.8425C14.9546 5.24774 15.0632 5.21033 15.1529 5.14304C15.2426 5.07576 15.3088 4.982 15.3424 4.875C15.3088 4.768 15.2426 4.67424 15.1529 4.60696C15.0632 4.53967 14.9546 4.50226 14.8425 4.5H9.1575C9.0454 4.50226 8.93683 4.53967 8.84714 4.60696C8.75745 4.67424 8.69115 4.768 8.65762 4.875C8.69115 4.982 8.75745 5.07576 8.84714 5.14304C8.93683 5.21033 9.0454 5.24774 9.1575 5.25Z" fill="#A80132"/>
<path d="M8.37675 1.22625C8.40487 1.24537 8.4345 1.26375 8.46713 1.28325L8.50912 1.3065C8.54662 1.326 8.58413 1.344 8.62575 1.36462L8.66325 1.38225C8.96514 1.50829 9.27933 1.60255 9.60075 1.6635L9.61425 1.66612C9.71175 1.686 9.81337 1.70362 9.91987 1.72237C10.608 1.82929 11.3036 1.88033 12 1.875C14.07 1.875 15.375 1.5 15.75 1.125C15.75 1.125 15 0.375 12 0.375C9 0.375 8.25 1.125 8.25 1.125C8.27935 1.15344 8.31067 1.17975 8.34375 1.20375C8.35388 1.21125 8.36587 1.21875 8.37675 1.22625Z" fill="#DE8800"/>
<path d="M8.66249 1.38225C8.64979 1.37682 8.63728 1.37094 8.62499 1.36462L8.66249 1.38225ZM9.92024 1.72237L10.05 2.175C10.1793 2.62865 10.4529 3.02781 10.8294 3.31201C11.2059 3.59621 11.6648 3.74997 12.1365 3.75H13.7734C14.2331 3.7482 14.6775 3.58479 15.0289 3.28837L15.75 1.125C15.375 1.5 14.07 1.875 12 1.875C11.3038 1.88031 10.6082 1.82927 9.92024 1.72237ZM13.8975 6.75H11.628C10.109 7.60988 8.85249 8.86683 7.99319 10.3862C7.13389 11.9056 6.70414 13.6301 6.74999 15.375C6.74999 22.5 21.375 21.375 21.375 18C21.375 15.285 18.165 8.43 13.8975 6.75Z" fill="#FFC608"/>
<path d="M9.92025 1.72237C9.81375 1.70512 9.71213 1.68487 9.61463 1.66612C9.7125 1.6875 9.81375 1.70512 9.92025 1.72237Z" fill="#F09413"/>
<path d="M23.625 9.375L22.3762 10.0013L21.75 11.25L21.1238 10.0013L19.875 9.375L21.1238 8.74875L21.75 7.5L22.3762 8.74875L23.625 9.375ZM4.125 4.875L2.87625 5.50125L2.25 6.75L1.62375 5.50125L0.375 4.875L1.62375 4.24875L2.25 3L2.87625 4.24875L4.125 4.875Z" fill="#FF9C00"/>
<path d="M15.465 14.9062C15.4053 15.0553 15.3747 15.2144 15.375 15.375V20.6362C15.0037 20.6475 14.6287 20.6475 14.25 20.6287V16.5C14.25 15.8775 14.715 15.315 15.465 14.9062Z" fill="#F09413"/>
<path d="M15.3424 6C15.3088 5.893 15.2426 5.79924 15.1529 5.73196C15.0632 5.66467 14.9546 5.62726 14.8425 5.625C14.9876 5.62078 15.1252 5.55921 15.225 5.45377C15.3248 5.34834 15.3787 5.20764 15.375 5.0625C15.3744 4.99864 15.3634 4.9353 15.3424 4.875C15.3088 4.768 15.2426 4.67424 15.1529 4.60696C15.0632 4.53967 14.9546 4.50226 14.8425 4.5H9.1575C9.04539 4.50226 8.93683 4.53967 8.84714 4.60696C8.75744 4.67424 8.69115 4.768 8.65762 4.875C8.63657 4.9353 8.62555 4.99864 8.625 5.0625C8.62127 5.20764 8.67522 5.34834 8.77503 5.45377C8.87484 5.55921 9.01237 5.62078 9.1575 5.625C9.04539 5.62726 8.93683 5.66467 8.84714 5.73196C8.75744 5.79924 8.69115 5.893 8.65762 6C8.63657 6.0603 8.62555 6.12364 8.625 6.1875C8.62127 6.33264 8.67522 6.47334 8.77503 6.57877C8.87484 6.68421 9.01237 6.74578 9.1575 6.75H14.8425C14.9876 6.74578 15.1252 6.68421 15.225 6.57877C15.3248 6.47334 15.3787 6.33264 15.375 6.1875C15.3744 6.12364 15.3634 6.0603 15.3424 6Z" fill="#A80132"/>
<path d="M15.0124 1.50445C14.0348 1.21854 13.0179 1.09043 12 1.12495C10.9821 1.09043 9.96518 1.21854 8.98763 1.50445C9.96765 1.77753 10.983 1.90241 12 1.87495C13.017 1.90241 14.0324 1.77753 15.0124 1.50445Z" fill="#C97C10"/>
<path d="M14.31 5.625H14.8425C14.9876 5.62078 15.1252 5.55921 15.225 5.45377C15.3248 5.34834 15.3787 5.20764 15.375 5.0625C15.3744 4.99864 15.3634 4.9353 15.3424 4.875C15.3088 4.982 15.2426 5.07576 15.1529 5.14304C15.0632 5.21033 14.9546 5.24774 14.8425 5.25H9.1575C9.04539 5.24774 8.93683 5.21033 8.84714 5.14304C8.75744 5.07576 8.69115 4.982 8.65762 4.875C8.63657 4.9353 8.62555 4.99864 8.625 5.0625C8.62127 5.20764 8.67522 5.34834 8.77503 5.45377C8.87484 5.55921 9.01237 5.62078 9.1575 5.625H14.31ZM13.8975 6.75H14.8425C14.9876 6.74578 15.1252 6.68421 15.225 6.57877C15.3248 6.47334 15.3787 6.33264 15.375 6.1875C15.3744 6.12364 15.3634 6.0603 15.3424 6C15.3088 6.107 15.2426 6.20076 15.1529 6.26804C15.0632 6.33533 14.9546 6.37274 14.8425 6.375H9.1575C9.04539 6.37274 8.93683 6.33533 8.84714 6.26804C8.75744 6.20076 8.69115 6.107 8.65762 6C8.63657 6.0603 8.62555 6.12364 8.625 6.1875C8.62127 6.33264 8.67522 6.47334 8.77503 6.57877C8.87484 6.68421 9.01237 6.74578 9.1575 6.75H13.8975Z" fill="#7D0126"/>
<path d="M14.31 4.5H14.625L15.0289 3.28837C14.6775 3.58479 14.2331 3.7482 13.7734 3.75H12.1365C11.6648 3.74997 11.2059 3.59621 10.8294 3.31201C10.4529 3.02781 10.1793 2.62865 10.05 2.175L9.92025 1.72125C9.81375 1.704 9.71212 1.68375 9.61462 1.665L9.6 1.6635C9.27858 1.60255 8.96439 1.50829 8.6625 1.38225C8.6498 1.37682 8.63729 1.37094 8.625 1.36462C8.58528 1.34698 8.54637 1.32759 8.50837 1.3065L8.46637 1.28325C8.43375 1.2645 8.40413 1.24575 8.376 1.22625C8.36513 1.21875 8.35312 1.21125 8.343 1.20375C8.31018 1.17973 8.2791 1.15341 8.25 1.125L9.375 4.5H14.31Z" fill="#F09413"/>
<path d="M6.75 15.375C6.70415 13.6301 7.1339 11.9056 7.9932 10.3862C8.85249 8.86683 10.109 7.60988 11.628 6.75H10.1025C5.835 8.43 2.625 15.285 2.625 18C2.625 21.105 6.82125 23.625 12 23.625C17.1788 23.625 21.375 21.105 21.375 18C21.375 21.375 6.75 22.5 6.75 15.375Z" fill="#FF9C00"/>
<path d="M16.5 2.99997C16.4259 2.99995 16.3534 2.97795 16.2917 2.93675C16.2301 2.89554 16.182 2.83698 16.1536 2.76847C16.1253 2.69995 16.1178 2.62457 16.1323 2.55183C16.1468 2.4791 16.1825 2.41229 16.2349 2.35984L18.4849 0.109845C18.5556 0.0415353 18.6503 0.00373741 18.7487 0.00459181C18.847 0.00544622 18.941 0.0448846 19.0106 0.114413C19.0801 0.183941 19.1195 0.277995 19.1204 0.376319C19.1212 0.474643 19.0834 0.569369 19.0151 0.640095L16.7651 2.89009C16.6948 2.96043 16.5995 2.99995 16.5 2.99997ZM16.5 5.24997C16.4195 5.25007 16.3411 5.22425 16.2764 5.17632C16.2117 5.1284 16.1641 5.06093 16.1407 4.98387C16.1173 4.90682 16.1194 4.82429 16.1465 4.74849C16.1737 4.67269 16.2245 4.60764 16.2915 4.56297L20.7915 1.56297C20.8325 1.53564 20.8784 1.51664 20.9267 1.50707C20.9751 1.4975 21.0248 1.49754 21.0731 1.50719C21.1214 1.51683 21.1673 1.5359 21.2082 1.56329C21.2492 1.59068 21.2843 1.62587 21.3116 1.66684C21.339 1.70782 21.358 1.75377 21.3675 1.80208C21.3771 1.8504 21.3771 1.90012 21.3674 1.94842C21.3578 1.99672 21.3387 2.04264 21.3113 2.08357C21.2839 2.1245 21.2487 2.15964 21.2078 2.18697L16.7078 5.18697C16.6462 5.22799 16.574 5.24991 16.5 5.24997ZM7.50001 2.99997C7.40056 2.99995 7.30519 2.96043 7.23488 2.89009L4.98488 0.640095C4.91657 0.569369 4.87878 0.474643 4.87963 0.376319C4.88048 0.277995 4.91992 0.183941 4.98945 0.114413C5.05898 0.0448846 5.15303 0.00544622 5.25136 0.00459181C5.34968 0.00373741 5.44441 0.0415353 5.51513 0.109845L7.76513 2.35984C7.81756 2.41229 7.85326 2.4791 7.86773 2.55183C7.88219 2.62457 7.87476 2.69995 7.84639 2.76847C7.81801 2.83698 7.76996 2.89554 7.7083 2.93675C7.64665 2.97795 7.57416 2.99995 7.50001 2.99997ZM7.50001 5.24997C7.42606 5.24991 7.35378 5.22799 7.29226 5.18697L2.79226 2.18697C2.70951 2.13177 2.65208 2.04596 2.6326 1.94842C2.62295 1.90012 2.62291 1.8504 2.63249 1.80208C2.64206 1.75377 2.66105 1.70782 2.68838 1.66684C2.71571 1.62587 2.75085 1.59068 2.79178 1.56329C2.83271 1.5359 2.87863 1.51683 2.92693 1.50719C3.02447 1.48771 3.12576 1.50777 3.20851 1.56297L7.70851 4.56297C7.7755 4.60764 7.82634 4.67269 7.85349 4.74849C7.88065 4.82429 7.88269 4.90682 7.8593 4.98387C7.83592 5.06093 7.78836 5.1284 7.72365 5.17632C7.65894 5.22425 7.58053 5.25007 7.50001 5.24997Z" fill="#FFC608"/>
<path d="M13.521 15.3412L12.375 14.7682V11.625H13.125V12H13.875V11.25C13.875 11.1505 13.8355 11.0552 13.7652 10.9848C13.6948 10.9145 13.5995 10.875 13.5 10.875H12.375V10.125H11.625V10.875H11.3723C10.9223 10.8749 10.4855 11.0268 10.1326 11.306C9.77979 11.5853 9.53156 11.9754 9.42817 12.4134C9.32479 12.8513 9.37231 13.3113 9.56304 13.7188C9.75377 14.1264 10.0765 14.4576 10.479 14.6588L11.625 15.2318V18.375H10.125V18H9.37501V18.75C9.37501 18.8495 9.41451 18.9448 9.48484 19.0152C9.55517 19.0855 9.65055 19.125 9.75001 19.125H11.625V19.875H12.375V19.125H12.6278C13.0777 19.1251 13.5145 18.9732 13.8674 18.694C14.2202 18.4147 14.4685 18.0246 14.5718 17.5866C14.6752 17.1487 14.6277 16.6887 14.437 16.2812C14.2462 15.8736 13.9235 15.5424 13.521 15.3412ZM10.8143 13.9875C10.5631 13.8617 10.3618 13.6549 10.2428 13.4005C10.1239 13.146 10.0943 12.8589 10.1588 12.5855C10.2234 12.3122 10.3783 12.0686 10.5986 11.8943C10.8188 11.72 11.0914 11.6251 11.3723 11.625H11.625V14.3932L10.8143 13.9875ZM12.6278 18.375H12.375V15.6068L13.1858 16.0125C13.4369 16.1383 13.6382 16.3451 13.7572 16.5995C13.8761 16.854 13.9057 17.1411 13.8412 17.4145C13.7766 17.6878 13.6217 17.9314 13.4015 18.1057C13.1812 18.28 12.9086 18.3749 12.6278 18.375Z" fill="#FFDF75"/>
<path d="M12.375 19.125V19.4876C12.6599 19.4703 12.9376 19.3918 13.1894 19.2574C13.4411 19.123 13.6609 18.9358 13.8337 18.7087C13.4888 18.977 13.0647 19.1234 12.6277 19.125H12.375ZM11.625 19.125H9.75C9.65054 19.125 9.55516 19.0855 9.48483 19.0152C9.41451 18.9448 9.375 18.8495 9.375 18.75V18.375H9V19.125C9 19.2245 9.03951 19.3198 9.10983 19.3902C9.18016 19.4605 9.27554 19.5 9.375 19.5H11.25V20.25H12V19.875H11.625V19.125ZM13.125 11.625H12.375V12H12.75V12.375H13.5V12H13.125V11.625ZM11.625 10.875V10.5H11.25V10.8874C11.2912 10.8848 11.3302 10.875 11.3722 10.875H11.625ZM11.625 15.2318L10.479 14.6588C10.2155 14.5286 9.9843 14.3414 9.80205 14.1108C9.61981 13.8803 9.49112 13.6121 9.42529 13.3256C9.35947 13.0392 9.35815 12.7417 9.42145 12.4547C9.48474 12.1677 9.61105 11.8984 9.79125 11.6663C9.52062 11.8702 9.30664 12.14 9.16965 12.45C9.03265 12.7599 8.97719 13.0998 9.00853 13.4372C9.03987 13.7747 9.15697 14.0985 9.3487 14.3779C9.54044 14.6573 9.80044 14.8831 10.104 15.0338L11.25 15.6068V18.375H11.625V15.2318ZM10.3249 12.1999C10.525 12.0698 10.7585 12.0004 10.9972 12H11.25V14.2057L11.625 14.3932V11.625H11.3722C11.1635 11.6254 10.9582 11.6782 10.7751 11.7787C10.5921 11.8791 10.4373 12.024 10.3249 12.1999ZM13.875 17.1277C13.8757 16.896 13.8116 16.6687 13.6897 16.4716C13.5679 16.2745 13.3933 16.1155 13.1857 16.0125L12.375 15.6068V16.1693L12.8107 16.3871C12.9673 16.4652 13.1057 16.5755 13.2167 16.7107C13.3277 16.846 13.4089 17.0031 13.4549 17.172C13.5009 17.3408 13.5108 17.5174 13.4838 17.6903C13.4568 17.8632 13.3936 18.0284 13.2983 18.1751C13.4745 18.0629 13.6197 17.9082 13.7205 17.7252C13.8213 17.5421 13.8744 17.3367 13.875 17.1277Z" fill="#FFAA00"/>
<path d="M15.375 21.375V15.375C15.3747 15.2144 15.4053 15.0553 15.465 14.9062C14.715 15.315 14.25 15.8775 14.25 16.5V22.5C14.2574 22.832 14.3793 23.1512 14.595 23.4037C15.2478 23.296 15.8911 23.1367 16.5187 22.9275C15.81 22.5262 15.375 21.9787 15.375 21.375Z" fill="#FF9C00"/>
<path d="M14.325 16.074C14.2759 16.2107 14.2506 16.3547 14.25 16.5V18.2842C14.48 17.9647 14.61 17.584 14.6233 17.1905C14.6367 16.797 14.5328 16.4084 14.325 16.074Z" fill="#FFC052"/>
<path d="M23.625 19.875V21.375C23.625 22.6163 21.78 23.625 19.5 23.625C17.22 23.625 15.375 22.6163 15.375 21.375V19.875C15.375 21.1163 17.22 22.125 19.5 22.125C21.78 22.125 23.625 21.1163 23.625 19.875Z" fill="#FFCB52"/>
<path d="M23.625 16.875V18.375C23.625 19.6163 21.78 20.625 19.5 20.625C17.22 20.625 15.375 19.6163 15.375 18.375V16.875C15.375 18.1163 17.22 19.125 19.5 19.125C21.78 19.125 23.625 18.1163 23.625 16.875Z" fill="#FFCB52"/>
<path d="M23.625 18.375V19.875C23.625 21.1163 21.78 22.125 19.5 22.125C17.22 22.125 15.375 21.1163 15.375 19.875V18.375C15.375 19.6163 17.22 20.625 19.5 20.625C21.78 20.625 23.625 19.6163 23.625 18.375Z" fill="#F09413"/>
<path d="M23.625 15.375V16.875C23.625 18.1163 21.78 19.125 19.5 19.125C17.22 19.125 15.375 18.1163 15.375 16.875V15.375C15.375 16.6163 17.22 17.625 19.5 17.625C21.78 17.625 23.625 16.6163 23.625 15.375Z" fill="#F09413"/>
<path d="M23.625 15.375C23.625 16.6163 21.78 17.625 19.5 17.625C17.22 17.625 15.375 16.6163 15.375 15.375C15.375 14.1337 17.22 13.125 19.5 13.125C21.78 13.125 23.625 14.1337 23.625 15.375ZM22.125 15.375C22.125 14.7525 20.9513 14.25 19.5 14.25C18.0487 14.25 16.875 14.7525 16.875 15.375C16.875 15.9975 18.0487 16.5 19.5 16.5C20.9513 16.5 22.125 15.9975 22.125 15.375Z" fill="#FFC052"/>
<path d="M19.5 16.5C20.9497 16.5 22.125 15.9963 22.125 15.375C22.125 14.7537 20.9497 14.25 19.5 14.25C18.0503 14.25 16.875 14.7537 16.875 15.375C16.875 15.9963 18.0503 16.5 19.5 16.5Z" fill="#FFDF75"/>
<path d="M22.125 15.375C22.1256 15.4394 22.1128 15.5033 22.0875 15.5625C21.8813 15.03 20.8013 14.625 19.5 14.625C18.1988 14.625 17.1188 15.03 16.9125 15.5625C16.8872 15.5033 16.8744 15.4394 16.875 15.375C16.875 14.7525 18.0488 14.25 19.5 14.25C20.9513 14.25 22.125 14.7525 22.125 15.375Z" fill="#C97C10"/>
<path d="M23.625 16.125V16.875C23.625 18.1163 21.78 19.125 19.5 19.125C18.5988 19.1385 17.7047 18.9635 16.875 18.6113C15.96 18.1988 15.375 17.5725 15.375 16.875V15.375C15.375 16.0725 15.96 16.6988 16.875 17.1113C16.8738 17.3432 16.9488 17.5691 17.0883 17.7543C17.2278 17.9396 17.4243 18.074 17.6475 18.1369C18.2517 18.298 18.8747 18.3781 19.5 18.375C21.78 18.375 23.625 17.3663 23.625 16.125Z" fill="#DE8800"/>
<path d="M23.625 17.625V18.375C23.625 19.6163 21.78 20.625 19.5 20.625C18.5988 20.6385 17.7047 20.4635 16.875 20.1113C15.96 19.6988 15.375 19.0725 15.375 18.375V16.875C15.375 17.5725 15.96 18.1988 16.875 18.6113C16.8738 18.8432 16.9488 19.0691 17.0883 19.2543C17.2278 19.4396 17.4243 19.574 17.6475 19.6369C18.2517 19.798 18.8747 19.8781 19.5 19.875C21.78 19.875 23.625 18.8663 23.625 17.625Z" fill="#DE8800"/>
<path d="M23.625 19.125V19.875C23.625 21.1163 21.78 22.125 19.5 22.125C18.5988 22.1385 17.7047 21.9635 16.875 21.6113C15.96 21.1988 15.375 20.5725 15.375 19.875V18.375C15.375 19.0725 15.96 19.6988 16.875 20.1113C16.8738 20.3432 16.9488 20.5691 17.0883 20.7543C17.2278 20.9396 17.4243 21.074 17.6475 21.1369C18.2517 21.298 18.8747 21.3781 19.5 21.375C21.78 21.375 23.625 20.3663 23.625 19.125Z" fill="#DE8800"/>
<path d="M23.625 20.625V21.375C23.625 22.6163 21.78 23.625 19.5 23.625C18.5988 23.6385 17.7047 23.4635 16.875 23.1113C15.96 22.6988 15.375 22.0725 15.375 21.375V19.875C15.375 20.5725 15.96 21.1988 16.875 21.6113C16.8738 21.8432 16.9488 22.0691 17.0883 22.2543C17.2278 22.4396 17.4243 22.574 17.6475 22.6369C18.2517 22.798 18.8747 22.8781 19.5 22.875C21.78 22.875 23.625 21.8663 23.625 20.625Z" fill="#DE8800"/>
</svg>
