<svg width="120" height="122" viewBox="0 0 120 122" fill="none" xmlns="http://www.w3.org/2000/svg">
<path d="M103.015 113.822C102.52 113.823 102.031 113.716 101.581 113.509C101.131 113.302 100.732 113 100.412 112.622C100.091 112.245 99.8561 111.803 99.7238 111.326C99.5914 110.849 99.5645 110.349 99.6451 109.86C99.7257 109.372 99.9117 108.907 100.19 108.498C100.469 108.088 100.833 107.745 101.258 107.491C101.683 107.237 102.158 107.078 102.65 107.026C103.143 106.975 103.64 107.031 104.109 107.191C104.872 107.452 105.517 107.974 105.931 108.666C106.344 109.358 106.5 110.174 106.368 110.969C106.237 111.765 105.828 112.488 105.214 113.01C104.6 113.532 103.821 113.82 103.015 113.822ZM103.015 108.648C102.69 108.648 102.371 108.736 102.094 108.905C101.816 109.074 101.59 109.316 101.441 109.605C101.292 109.893 101.226 110.218 101.249 110.542C101.272 110.866 101.385 111.177 101.573 111.442C101.762 111.706 102.02 111.913 102.319 112.04C102.618 112.167 102.947 112.21 103.268 112.162C103.59 112.115 103.892 111.98 104.141 111.772C104.391 111.564 104.578 111.291 104.683 110.984C104.773 110.719 104.798 110.436 104.757 110.16C104.717 109.883 104.611 109.62 104.449 109.393C104.287 109.165 104.073 108.978 103.826 108.849C103.578 108.72 103.303 108.651 103.023 108.648H103.015ZM86.0237 119.162C85.8333 118.776 85.7411 118.349 85.7553 117.919C85.7695 117.488 85.8897 117.068 86.1051 116.695C86.3206 116.323 86.6247 116.009 86.9904 115.782C87.3562 115.555 87.7723 115.421 88.2019 115.394C88.6316 115.366 89.0614 115.444 89.4534 115.623C89.8453 115.801 90.1873 116.073 90.4489 116.415C90.7105 116.757 90.8837 117.158 90.9532 117.583C91.0227 118.007 90.9863 118.443 90.8471 118.85C90.679 119.339 90.3702 119.767 89.9595 120.08C89.5489 120.394 89.0547 120.579 88.5392 120.612C88.0237 120.645 87.5098 120.525 87.0622 120.267C86.6146 120.009 86.2533 119.625 86.0237 119.162ZM88.3725 117.032C88.1928 117.031 88.0164 117.08 87.8627 117.174C87.709 117.267 87.5841 117.401 87.5016 117.56C87.4191 117.72 87.3824 117.899 87.3953 118.079C87.4083 118.258 87.4705 118.43 87.5751 118.576C87.6796 118.722 87.8226 118.837 87.988 118.907C88.1535 118.977 88.3351 119 88.5129 118.974C88.6907 118.947 88.8577 118.872 88.9955 118.757C89.1333 118.641 89.2366 118.49 89.294 118.32C89.3434 118.173 89.3573 118.017 89.3345 117.864C89.3116 117.711 89.2528 117.566 89.1628 117.44C89.0729 117.314 88.9543 117.212 88.8169 117.141C88.6795 117.07 88.5272 117.033 88.3725 117.032Z" fill="#5E6175"/>
<path d="M4.75391 103.434H3.11328V101.793H4.75391V103.434ZM4.75391 99.0586H3.11328V97.418H4.75391V99.0586ZM4.75391 94.6836H3.11328V93.043H4.75391V94.6836ZM4.75391 90.3086H3.11328V88.668H4.75391V90.3086ZM4.75391 85.9336H3.11328V84.293H4.75391V85.9336ZM4.75391 81.5586H3.11328V79.918H4.75391V81.5586ZM4.75391 77.1836H3.11328V75.543H4.75391V77.1836ZM4.75391 72.8086H3.11328V71.168H4.75391V72.8086ZM4.75391 68.4336H3.11328V66.793H4.75391V68.4336ZM4.75391 64.0586H3.11328V62.418H4.75391V64.0586ZM4.75391 59.6836H3.11328V58.043H4.75391V59.6836ZM4.75391 55.3086H3.11328V53.668H4.75391V55.3086Z" fill="#A9AFC4"/>
<path d="M100.038 89.9406H17.0195C17.0195 89.9406 25.5727 85.7215 25.5727 75.6098V41.2523C25.5727 32.5115 29.0449 24.1286 35.2257 17.9479C41.4064 11.7672 49.7892 8.29492 58.5301 8.29492C67.2709 8.29492 75.6538 11.7672 81.8345 17.9479C88.0152 24.1286 91.4875 32.5115 91.4875 41.2523V75.6098C91.493 85.7215 100.038 89.9406 100.038 89.9406Z" fill="#F5F5F5"/>
<path d="M47.5398 15.9512C42.6096 18.0923 38.4127 21.628 35.4658 26.1232C32.5188 30.6185 30.9503 35.8772 30.9531 41.2523V75.6098C30.9746 78.6968 30.3213 81.7512 29.0391 84.5594H47.5316L47.5398 15.9512Z" fill="url(#paint0_linear_735_2297)"/>
<path d="M91.4902 41.248V49.8094C77.843 44.5156 72.273 28.3117 79.5137 15.832C83.2631 18.921 86.2818 22.8022 88.3526 27.1968C90.4234 31.5913 91.4949 36.39 91.4902 41.248Z" fill="url(#paint1_linear_735_2297)"/>
<path d="M105.348 95.2555C105.348 96.6641 104.788 98.0147 103.791 99.0105C102.795 100.006 101.444 100.566 100.036 100.566H17.0172C15.6088 100.566 14.2582 100.006 13.2623 99.0103C12.2665 98.0145 11.707 96.6638 11.707 95.2555C11.707 93.8471 12.2665 92.4965 13.2623 91.5006C14.2582 90.5048 15.6088 89.9453 17.0172 89.9453H100.036C100.733 89.945 101.424 90.082 102.068 90.3487C102.713 90.6154 103.299 91.0065 103.792 91.4997C104.286 91.9928 104.677 92.5783 104.944 93.2227C105.211 93.8672 105.348 94.5579 105.348 95.2555Z" fill="#F5F5F5"/>
<path d="M105.348 95.252C105.348 96.6605 104.788 98.0112 103.791 99.007C102.795 100.003 101.444 100.562 100.036 100.562H17.0172C15.6088 100.562 14.2582 100.003 13.2623 99.0068C12.2665 98.011 11.707 96.6603 11.707 95.252H105.348Z" fill="url(#paint2_linear_735_2297)"/>
<path d="M73.5736 100.562V103.089C73.5721 105.464 72.6279 107.742 70.9483 109.421C69.2687 111.101 66.9911 112.045 64.6157 112.047H52.4423C50.067 112.045 47.7894 111.101 46.1098 109.421C44.4302 107.742 43.4859 105.464 43.4845 103.089V100.562H73.5736Z" fill="#5E6175"/>
<path d="M64.0766 6.40156V8.7668C60.4041 8.14336 56.6529 8.14336 52.9805 8.7668V6.40156C52.9805 4.93013 53.565 3.51896 54.6055 2.4785C55.6459 1.43804 57.0571 0.853516 58.5285 0.853516C59.9999 0.853516 61.4111 1.43804 62.4516 2.4785C63.492 3.51896 64.0766 4.93013 64.0766 6.40156Z" fill="#F5F5F5"/>
<path d="M13.5039 90.7637L16.6594 89.2078C16.9875 89.0438 24.7531 85.0707 24.7531 75.6125V41.2523C24.7531 32.2939 28.3118 23.7024 34.6464 17.3679C40.9809 11.0333 49.5724 7.47461 58.5309 7.47461C67.4893 7.47461 76.0808 11.0333 82.4153 17.3679C88.7499 23.7024 92.3086 32.2939 92.3086 41.2523V75.6125C92.3086 85.0707 100.074 89.0438 100.405 89.2078L103.525 90.7637H13.5039ZM19.7602 89.1231H97.3016C94.6273 87.0258 90.6734 82.7191 90.6734 75.6125V41.2523C90.6734 32.7291 87.2876 24.5549 81.2607 18.528C75.2338 12.5011 67.0596 9.11523 58.5363 9.11523C50.013 9.11523 41.8388 12.5011 35.812 18.528C29.7851 24.5549 26.3992 32.7291 26.3992 41.2523V75.6125C26.3937 82.7191 22.4316 87.0258 19.7602 89.1231Z" fill="#5E6175"/>
<path d="M64.8961 9.73555L63.9363 9.57422C60.3552 8.96717 56.6975 8.96717 53.1164 9.57422L52.1594 9.73555V6.39961C52.1594 4.71062 52.8303 3.0908 54.0246 1.8965C55.2189 0.7022 56.8387 0.03125 58.5277 0.03125C60.2167 0.03125 61.8365 0.7022 63.0308 1.8965C64.2251 3.0908 64.8961 4.71062 64.8961 6.39961V9.73555ZM63.2555 7.82149V6.39961C63.2555 5.14574 62.7574 3.94322 61.8707 3.0566C60.9841 2.16997 59.7816 1.67188 58.5277 1.67188C57.2739 1.67188 56.0713 2.16997 55.1847 3.0566C54.2981 3.94322 53.8 5.14574 53.8 6.39961V7.80781C56.9364 7.36618 60.1191 7.36618 63.2555 7.80781V7.82149ZM100.036 101.384H17.0172C15.3913 101.384 13.832 100.738 12.6823 99.588C11.5326 98.4383 10.8867 96.879 10.8867 95.2531C10.8867 93.6272 11.5326 92.0679 12.6823 90.9182C13.832 89.7685 15.3913 89.1227 17.0172 89.1227H100.036C101.661 89.1227 103.221 89.7685 104.37 90.9182C105.52 92.0679 106.166 93.6272 106.166 95.2531C106.166 96.879 105.52 98.4383 104.37 99.588C103.221 100.738 101.661 101.384 100.036 101.384ZM17.0172 90.7633C15.8264 90.7633 14.6844 91.2363 13.8424 92.0783C13.0004 92.9203 12.5273 94.0623 12.5273 95.2531C12.5273 96.4439 13.0004 97.5859 13.8424 98.4279C14.6844 99.2699 15.8264 99.743 17.0172 99.743H100.036C101.226 99.743 102.368 99.2699 103.21 98.4279C104.052 97.5859 104.525 96.4439 104.525 95.2531C104.525 94.0623 104.052 92.9203 103.21 92.0783C102.368 91.2363 101.226 90.7633 100.036 90.7633H17.0172Z" fill="#5E6175"/>
<path d="M73.5739 100.562V103.089C73.5754 104.189 73.3724 105.279 72.975 106.305H44.0836C43.359 104.445 43.4848 103.16 43.4848 100.562H73.5739Z" fill="url(#paint3_linear_735_2297)"/>
<path d="M100.036 46.6219C110.49 46.6219 118.966 38.1466 118.966 27.6918C118.966 17.237 110.49 8.76172 100.036 8.76172C89.5808 8.76172 81.1055 17.237 81.1055 27.6918C81.1055 38.1466 89.5808 46.6219 100.036 46.6219Z" fill="#F5F5F5"/>
<path d="M100.036 47.4402C96.1292 47.4402 92.3105 46.2818 89.0625 44.1115C85.8146 41.9412 83.2831 38.8564 81.7883 35.2474C80.2935 31.6383 79.9026 27.667 80.6649 23.8357C81.4272 20.0045 83.3085 16.4853 86.0709 13.7232C88.8333 10.9612 92.3527 9.08039 96.1841 8.31863C100.016 7.55686 103.987 7.94838 107.596 9.44366C111.204 10.9389 114.289 13.4708 116.459 16.7191C118.629 19.9674 119.786 23.7862 119.786 27.6926C119.78 32.9287 117.697 37.9486 113.995 41.6509C110.292 45.3531 105.272 47.4352 100.036 47.4402ZM100.036 9.58282C96.4538 9.58282 92.9524 10.6449 89.9743 12.6349C86.9962 14.6248 84.675 17.4532 83.3043 20.7623C81.9336 24.0714 81.575 27.7127 82.2738 31.2256C82.9725 34.7386 84.6973 37.9654 87.23 40.4981C89.7627 43.0308 92.9896 44.7556 96.5025 45.4544C100.015 46.1531 103.657 45.7945 106.966 44.4238C110.275 43.0531 113.103 40.732 115.093 37.7538C117.083 34.7757 118.145 31.2744 118.145 27.6926C118.14 22.8911 116.231 18.2878 112.836 14.8926C109.44 11.4975 104.837 9.58789 100.036 9.58282Z" fill="#5E6175"/>
<path d="M100.032 37.512C101.148 37.512 102.053 36.6073 102.053 35.4913C102.053 34.3753 101.148 33.4706 100.032 33.4706C98.9164 33.4706 98.0117 34.3753 98.0117 35.4913C98.0117 36.6073 98.9164 37.512 100.032 37.512Z" fill="#29B473"/>
<path d="M86.8887 24.0928L88.6797 22.0858C90.8672 24.0409 93.4512 24.0819 95.6906 22.0858L97.4816 24.0928C94.2523 26.9639 90.1371 26.9803 86.8887 24.0928ZM102.092 24.0928L103.883 22.0858C106.07 24.0409 108.657 24.0819 110.894 22.0858L112.685 24.0928C109.455 26.9639 105.34 26.9803 102.092 24.0928ZM12.016 109.908L3.75273 118.172H11.841V121.163H0.121484V117.576L8.22891 109.463H0.03125V106.474H12.016V109.908ZM15.2016 121.046V118.492L19.593 114.098H15.1469V111.724H22.8633V114.188L18.3789 118.672H22.7594V121.046H15.2016ZM26.3332 121.046V118.492L30.7246 114.098H26.2812V111.724H33.9949V114.188L29.5105 118.672H33.891V121.046H26.3332Z" fill="#29B473"/>
<path d="M38.7633 121.046C39.5063 121.046 40.1086 120.444 40.1086 119.701C40.1086 118.958 39.5063 118.355 38.7633 118.355C38.0203 118.355 37.418 118.958 37.418 119.701C37.418 120.444 38.0203 121.046 38.7633 121.046Z" fill="#29B473"/>
<path d="M44.5758 121.046C45.3188 121.046 45.9211 120.444 45.9211 119.701C45.9211 118.958 45.3188 118.355 44.5758 118.355C43.8328 118.355 43.2305 118.958 43.2305 119.701C43.2305 120.444 43.8328 121.046 44.5758 121.046Z" fill="#29B473"/>
<path d="M18.8759 14.4616L20.0358 13.3017L23.8172 17.083L22.6572 18.243L18.8759 14.4616ZM15.0898 21.2563H20.4383V22.8969H15.0898V21.2563ZM26.5086 9.36719H28.1492V14.7156H26.5086V9.36719Z" fill="#5E6175"/>
<path d="M22.5859 55.3828H20.9453V53.7422H22.5859V55.3828ZM18.2109 55.3828H16.5703V53.7422H18.2109V55.3828ZM13.8359 55.3828H12.1953V53.7422H13.8359V55.3828ZM9.46094 55.3828H7.82031V53.7422H9.46094V55.3828ZM56.7164 55.3828H55.0758V53.7422H56.7164V55.3828ZM52.3414 55.3828H50.7008V53.7422H52.3414V55.3828ZM47.9664 55.3828H46.3258V53.7422H47.9664V55.3828ZM43.5914 55.3828H41.9508V53.7422H43.5914V55.3828ZM39.2164 55.3828H37.5758V53.7422H39.2164V55.3828ZM34.8414 55.3828H33.2008V53.7422H34.8414V55.3828ZM30.4664 55.3828H28.8258V53.7422H30.4664V55.3828Z" fill="#A9AFC4"/>
<defs>
<linearGradient id="paint0_linear_735_2297" x1="29.0473" y1="50.2539" x2="57.2059" y2="50.2539" gradientUnits="userSpaceOnUse">
<stop stop-color="#CACFDD"/>
<stop offset="1" stop-color="#EEF0F1"/>
</linearGradient>
<linearGradient id="paint1_linear_735_2297" x1="29.048" y1="50.2496" x2="57.2066" y2="50.2496" gradientUnits="userSpaceOnUse">
<stop stop-color="#CACFDD"/>
<stop offset="1" stop-color="#EEF0F1"/>
</linearGradient>
<linearGradient id="paint2_linear_735_2297" x1="29.0484" y1="50.2523" x2="57.207" y2="50.2523" gradientUnits="userSpaceOnUse">
<stop stop-color="#CACFDD"/>
<stop offset="1" stop-color="#EEF0F1"/>
</linearGradient>
<linearGradient id="paint3_linear_735_2297" x1="29.05" y1="50.2526" x2="57.2086" y2="50.2526" gradientUnits="userSpaceOnUse">
<stop stop-color="#CACFDD"/>
<stop offset="1" stop-color="#EEF0F1"/>
</linearGradient>
</defs>
</svg>
