<svg width="111" height="130" viewBox="0 0 111 130" fill="none" xmlns="http://www.w3.org/2000/svg">
<path fill-rule="evenodd" clip-rule="evenodd" d="M99.25 72.9121H11.75V113.407C11.7498 114.348 12.0529 115.264 12.6145 116.019C13.176 116.774 13.966 117.328 14.8672 117.598L54.2422 129.411C55.0628 129.656 55.9372 129.656 56.7578 129.411L96.1328 117.598C97.034 117.328 97.824 116.774 98.3855 116.019C98.9471 115.264 99.2502 114.348 99.25 113.407V72.9121Z" fill="url(#paint0_linear_1200_9178)"/>
<path fill-rule="evenodd" clip-rule="evenodd" d="M99.2499 72.9121H55.4999C55.4999 72.9121 55.0755 129.595 55.4999 129.595C55.9243 129.595 56.3465 129.533 56.7577 129.411L96.1327 117.598C97.0339 117.328 97.8239 116.774 98.3854 116.019C98.9469 115.264 99.2501 114.348 99.2499 113.407V72.9121Z" fill="url(#paint1_linear_1200_9178)"/>
<path fill-rule="evenodd" clip-rule="evenodd" d="M55.4999 87.1068L11.7499 72.9121L0.648336 89.3709C0.458572 89.6517 0.336682 89.9729 0.292283 90.3089C0.247884 90.645 0.282191 90.9868 0.392498 91.3073C0.502805 91.6278 0.686093 91.9183 0.927897 92.1559C1.1697 92.3934 1.46341 92.5716 1.78584 92.6762L41.1499 105.464C41.6009 105.611 42.0874 105.607 42.536 105.453C42.9846 105.299 43.371 105.004 43.6371 104.611L55.4999 87.1068ZM99.2499 72.9121L55.4999 87.1068L67.3627 104.611C67.6288 105.004 68.0152 105.299 68.4638 105.453C68.9124 105.607 69.3989 105.611 69.8499 105.464L109.214 92.6762C109.536 92.5716 109.83 92.3934 110.072 92.1559C110.314 91.9183 110.497 91.6278 110.607 91.3073C110.718 90.9868 110.752 90.645 110.708 90.3089C110.663 89.9729 110.541 89.6517 110.351 89.3709L99.2499 72.9121Z" fill="#F5F5F5"/>
<path fill-rule="evenodd" clip-rule="evenodd" d="M44.9101 43.0943C44.6436 42.703 44.2572 42.4086 43.8091 42.2556C43.361 42.1026 42.8754 42.099 42.4251 42.2456L3.05886 55.0359C2.7362 55.1398 2.44218 55.3175 2.2001 55.5548C1.95801 55.7921 1.77451 56.0825 1.66413 56.403C1.55376 56.7235 1.51954 57.0653 1.56418 57.4014C1.60883 57.7374 1.73112 58.0584 1.92136 58.339L11.7498 72.9121L55.4998 58.6693L44.9101 43.0943Z" fill="url(#paint2_linear_1200_9178)"/>
<path fill-rule="evenodd" clip-rule="evenodd" d="M109.078 58.339C109.268 58.0582 109.389 57.7372 109.433 57.4014C109.478 57.0656 109.443 56.7242 109.333 56.404C109.223 56.0837 109.04 55.7935 108.798 55.5561C108.556 55.3187 108.263 55.1406 107.941 55.0359L68.5747 42.2456C68.1244 42.099 67.6388 42.1026 67.1907 42.2556C66.7426 42.4086 66.3562 42.703 66.0897 43.0943L55.5 58.6693L99.25 72.9121L109.078 58.339Z" fill="#F5F5F5"/>
<path fill-rule="evenodd" clip-rule="evenodd" d="M99.25 72.9122L55.5 58.6694L11.75 72.9122L55.5 87.1069L99.25 72.9122Z" fill="url(#paint3_linear_1200_9178)"/>
<path fill-rule="evenodd" clip-rule="evenodd" d="M55.5 87.1069V58.6694L11.75 72.9122L55.5 87.1069Z" fill="url(#paint4_linear_1200_9178)"/>
<path fill-rule="evenodd" clip-rule="evenodd" d="M46.7106 64.952C45.841 64.3866 45.0187 63.7516 44.2519 63.0532C43.822 62.6775 43.2622 62.4847 42.6921 62.5161C42.1221 62.5475 41.5868 62.8005 41.2008 63.2211C40.8147 63.6417 40.6084 64.1966 40.6258 64.7673C40.6433 65.338 40.8833 65.8792 41.2944 66.2754C42.1891 67.0979 43.1975 67.881 44.3175 68.6138C44.803 68.9209 45.3899 69.0247 45.9513 68.9027C46.5127 68.7806 47.0036 68.4427 47.3179 67.9618C47.6322 67.4808 47.7447 66.8956 47.6311 66.3324C47.5174 65.7692 47.1868 65.2734 46.7106 64.952ZM39.8944 58.2319C39.2727 57.3942 38.721 56.5068 38.245 55.5785C37.9819 55.0613 37.5241 54.6698 36.9723 54.4901C36.4206 54.3104 35.82 54.3573 35.3028 54.6204C34.7856 54.8835 34.3941 55.3413 34.2144 55.893C34.0347 56.4448 34.0816 57.0454 34.3447 57.5626C34.9003 58.652 35.5741 59.7435 36.3725 60.8263C36.7208 61.2817 37.234 61.5821 37.8016 61.663C38.3692 61.7438 38.9458 61.5986 39.4074 61.2586C39.869 60.9185 40.1787 60.4109 40.2697 59.8448C40.3608 59.2788 40.226 58.6996 39.8944 58.2319ZM36.6962 49.3048C36.7181 48.4232 36.8472 47.5679 37.0834 46.7476C37.1626 46.4714 37.1865 46.1823 37.154 45.8968C37.1214 45.6113 37.0329 45.3351 36.8935 45.0838C36.7542 44.8325 36.5667 44.6112 36.3418 44.4324C36.1169 44.2536 35.859 44.1208 35.5828 44.0416C35.3066 43.9625 35.0175 43.9385 34.732 43.9711C34.4466 44.0037 34.1703 44.0922 33.919 44.2315C33.6678 44.3709 33.4464 44.5583 33.2676 44.7832C33.0888 45.0081 32.956 45.2661 32.8769 45.5423C32.5385 46.7317 32.3518 47.9591 32.3212 49.1954C32.3067 49.7755 32.5233 50.3377 32.9233 50.7582C33.3233 51.1787 33.8739 51.4231 34.4541 51.4376C35.0342 51.4521 35.5964 51.2355 36.0169 50.8355C36.4374 50.4356 36.6817 49.8849 36.6962 49.3048ZM40.0606 41.9985C40.6228 41.4779 41.2528 40.9966 41.9419 40.5613C42.1849 40.4081 42.3954 40.2084 42.5612 39.9739C42.7271 39.7393 42.8452 39.4743 42.9086 39.1941C42.9721 38.9139 42.9798 38.6239 42.9312 38.3407C42.8826 38.0575 42.7787 37.7867 42.6255 37.5437C42.4722 37.3006 42.2726 37.0902 42.038 36.9243C41.8034 36.7584 41.5384 36.6404 41.2582 36.5769C40.978 36.5134 40.688 36.5058 40.4048 36.5543C40.1217 36.6029 39.8508 36.7068 39.6078 36.8601C38.7101 37.4241 37.8665 38.07 37.0878 38.7894C36.673 39.1863 36.4308 39.7303 36.4135 40.3041C36.3961 40.8779 36.6051 41.4356 36.9952 41.8567C37.3854 42.2779 37.9254 42.5288 38.4989 42.5553C39.0724 42.5818 39.6333 42.3818 40.0606 41.9985ZM48.1959 38.2251C49.3506 38.0142 50.5187 37.8855 51.6916 37.8401C52.2575 37.7964 52.7844 37.5346 53.1611 37.11C53.5378 36.6853 53.7349 36.131 53.7108 35.5639C53.6866 34.9967 53.4432 34.4611 53.0318 34.07C52.6205 33.6788 52.0732 33.4627 51.5056 33.4673C50.0619 33.5285 48.6925 33.6838 47.3997 33.9223C46.8291 34.0279 46.3238 34.3558 45.995 34.8339C45.6662 35.312 45.5408 35.9012 45.6464 36.4718C45.752 37.0424 46.0799 37.5477 46.558 37.8765C47.0362 38.2053 47.6253 38.3307 48.1959 38.2251ZM59.5972 38.096C61.4631 38.1179 63.2 38.0523 64.8122 37.9101C65.3847 37.8521 65.9114 37.5708 66.278 37.1272C66.6446 36.6836 66.8216 36.1133 66.7707 35.5401C66.7197 34.9669 66.4449 34.4368 66.0059 34.0648C65.5668 33.6927 64.9988 33.5087 64.425 33.5526C62.9484 33.6816 61.3581 33.7429 59.6475 33.721C59.0673 33.7143 58.5083 33.9384 58.0933 34.3439C57.6784 34.7494 57.4415 35.3032 57.4348 35.8834C57.4282 36.4635 57.6522 37.0226 58.0578 37.4375C58.4633 37.8525 59.017 38.0893 59.5972 38.096ZM72.0025 36.5691C74.1681 35.9063 75.9969 35.0576 77.5281 34.0841C77.7704 33.9297 77.9799 33.7291 78.1447 33.4937C78.3095 33.2584 78.4263 32.9928 78.4885 32.7123C78.5506 32.4318 78.5569 32.1418 78.507 31.8588C78.4571 31.5759 78.3519 31.3055 78.1975 31.0632C78.0431 30.8209 77.8425 30.6114 77.6071 30.4466C77.3717 30.2818 77.1062 30.165 76.8257 30.1029C76.5451 30.0407 76.2551 30.0344 75.9722 30.0843C75.6892 30.1343 75.4189 30.2394 75.1766 30.3938C73.7883 31.2547 72.2902 31.9242 70.7228 32.3845C70.1679 32.5541 69.7031 32.9373 69.4307 33.4497C69.1583 33.9621 69.1006 34.5617 69.2703 35.1166C69.44 35.6716 69.8232 36.1363 70.3356 36.4087C70.848 36.6811 71.4476 36.7388 72.0025 36.5691ZM83.1369 27.9613C84.1211 25.9169 84.5776 23.6585 84.4647 21.3923C84.4513 21.1053 84.3816 20.8237 84.2594 20.5637C84.1372 20.3037 83.9651 20.0703 83.7527 19.8768C83.5403 19.6833 83.2919 19.5336 83.0217 19.4361C82.7514 19.3386 82.4646 19.2953 82.1776 19.3087C81.8907 19.322 81.6091 19.3918 81.3491 19.5139C81.0891 19.6361 80.8557 19.8083 80.6622 20.0207C80.4687 20.233 80.319 20.4814 80.2215 20.7517C80.124 21.0219 80.0807 21.3087 80.0941 21.5957C80.1727 23.1348 79.8644 24.669 79.1972 26.0582C78.9739 26.5765 78.9594 27.161 79.1566 27.6897C79.3539 28.2185 79.7476 28.6507 80.2558 28.8961C80.7639 29.1416 81.3472 29.1814 81.884 29.0072C82.4208 28.8331 82.8696 28.4584 83.1369 27.9613ZM81.7434 13.6573C80.1487 11.5026 77.9853 10.002 75.6272 9.51851C75.0675 9.42378 74.4929 9.55007 74.0246 9.87077C73.5563 10.1915 73.2307 10.6815 73.1167 11.2375C73.0026 11.7936 73.109 12.3722 73.4133 12.8514C73.7176 13.3305 74.196 13.6728 74.7478 13.806C76.1084 14.0838 77.3072 15.0179 78.2281 16.2626C78.3992 16.4934 78.614 16.6883 78.8604 16.836C79.1068 16.9838 79.3799 17.0816 79.664 17.1239C79.9482 17.1661 80.2379 17.152 80.5166 17.0823C80.7954 17.0126 81.0576 16.8886 81.2884 16.7176C81.5193 16.5465 81.7141 16.3317 81.8619 16.0853C82.0097 15.8389 82.1075 15.5658 82.1497 15.2817C82.192 14.9975 82.1779 14.7078 82.1081 14.429C82.0384 14.1503 81.9145 13.8881 81.7434 13.6573Z" fill="#29B473"/>
<path fill-rule="evenodd" clip-rule="evenodd" d="M53.1658 9.94287C55.5326 -3.45995 76.0448 -2.5937 64.1033 9.94287H53.1658ZM53.1658 13.3379C55.5326 26.7385 76.0448 25.8744 64.1033 13.3379H53.1658Z" fill="url(#paint5_linear_1200_9178)"/>
<path fill-rule="evenodd" clip-rule="evenodd" d="M52.969 13.8496H67.6165C68.1967 13.8496 68.7531 13.6191 69.1633 13.2089C69.5736 12.7987 69.804 12.2423 69.804 11.6621C69.804 11.0819 69.5736 10.5255 69.1633 10.1153C68.7531 9.70508 68.1967 9.47461 67.6165 9.47461H52.969C52.4058 9.4998 51.874 9.74128 51.4843 10.1488C51.0947 10.5562 50.8772 11.0983 50.8772 11.6621C50.8772 12.2259 51.0947 12.768 51.4843 13.1755C51.874 13.5829 52.4058 13.8244 52.969 13.8496Z" fill="#29B473"/>
<defs>
<linearGradient id="paint0_linear_1200_9178" x1="55.5" y1="72.9121" x2="55.5" y2="129.595" gradientUnits="userSpaceOnUse">
<stop stop-color="#CACFDD"/>
<stop offset="1" stop-color="#EEF0F1"/>
</linearGradient>
<linearGradient id="paint1_linear_1200_9178" x1="77.2806" y1="72.9121" x2="77.2806" y2="129.595" gradientUnits="userSpaceOnUse">
<stop stop-color="#CACFDD"/>
<stop offset="1" stop-color="#EEF0F1"/>
</linearGradient>
<linearGradient id="paint2_linear_1200_9178" x1="28.5225" y1="42.1382" x2="28.5225" y2="72.9121" gradientUnits="userSpaceOnUse">
<stop stop-color="#CACFDD"/>
<stop offset="1" stop-color="#EEF0F1"/>
</linearGradient>
<linearGradient id="paint3_linear_1200_9178" x1="55.5" y1="58.6694" x2="55.5" y2="87.1069" gradientUnits="userSpaceOnUse">
<stop stop-color="#CACFDD"/>
<stop offset="1" stop-color="#EEF0F1"/>
</linearGradient>
<linearGradient id="paint4_linear_1200_9178" x1="33.625" y1="58.6694" x2="33.625" y2="87.1069" gradientUnits="userSpaceOnUse">
<stop stop-color="#CACFDD"/>
<stop offset="1" stop-color="#EEF0F1"/>
</linearGradient>
<linearGradient id="paint5_linear_1200_9178" x1="60.4887" y1="0.212891" x2="60.4887" y2="23.067" gradientUnits="userSpaceOnUse">
<stop stop-color="#CACFDD"/>
<stop offset="1" stop-color="#EEF0F1"/>
</linearGradient>
</defs>
</svg>
