<svg width="24" height="24" viewBox="0 0 24 24" fill="none" xmlns="http://www.w3.org/2000/svg">
<g clip-path="url(#clip0_1290_6932)">
<path d="M3.52643 7.40758L3.03284 6.43727L4.27127 2.63665L8.68081 0.394146C8.87299 0.296177 9.10831 0.373052 9.20627 0.56524L10.771 3.64165" stroke="white" stroke-width="0.8" stroke-miterlimit="10" stroke-linecap="round" stroke-linejoin="round"/>
<path d="M5.07852 6.51761L9.48828 4.27497M6.5938 3.88516L8.79871 2.76382M9.81336 7.40768L11.5093 0.7383C11.5791 0.463613 11.8585 0.297675 12.1327 0.367519L18.4215 1.96689M20.0063 2.37002L21.5251 2.75627C21.7993 2.82611 21.9652 3.10502 21.8954 3.37971L20.8712 7.40768M12.0853 2.9373L20.2999 5.02643M11.7478 4.26414L15.3221 5.17314M16.3882 5.44432L19.9624 6.35332M11.4091 5.59614L14.9833 6.50514M6.46368 7.36268H2.53742C2.27774 7.36268 2.07242 7.58252 2.08977 7.84127L2.9593 20.7141C3.01274 21.511 3.67508 22.1297 4.47336 22.1297H10.2207M5.37533 4.80789L4.27114 2.63678L3.03303 6.43741L5.20386 5.33341C5.39642 5.23544 5.47307 5.00018 5.37533 4.80789Z" stroke="white" stroke-width="0.8" stroke-miterlimit="10" stroke-linecap="round" stroke-linejoin="round"/>
<path d="M8.10334 7.36279H21.1018C21.3615 7.36279 21.5668 7.58264 21.5494 7.84139L20.6799 20.7142C20.626 21.5111 19.9641 22.1298 19.1654 22.1298H11.8613M6.39601 23.6486H5.31802C5.02135 23.6486 4.78088 23.4081 4.78088 23.1114V22.1299H6.9331V23.1114C6.9331 23.4081 6.69263 23.6486 6.39601 23.6486ZM18.3211 23.6486H17.2431C16.9464 23.6486 16.7059 23.4081 16.7059 23.1114V22.1299H18.8581V23.1114C18.8582 23.4081 18.6177 23.6486 18.3211 23.6486Z" stroke="white" stroke-width="0.8" stroke-miterlimit="10" stroke-linecap="round" stroke-linejoin="round"/>
<path d="M7.59464 20.739L8.75255 17.6988C8.77622 17.6409 8.85811 17.6408 8.88188 17.6986L10.0293 20.739M7.95577 19.9819H9.67402M15.1866 17.6835H13.8991V20.739H15.1866M15.0917 19.2113H13.8991M16.7457 19.2673L18.041 20.739M16.3748 19.2617V20.739M16.3748 19.2617C16.3748 19.2617 16.9667 19.2582 17.1942 19.2582C17.6529 19.2582 18.041 18.8994 18.041 18.4568C18.041 18.0142 17.6529 17.6554 17.1942 17.6554H16.3748V19.2617ZM5.59814 19.3996V20.739M5.59814 19.3996C5.59814 19.3996 6.2168 19.3958 6.45516 19.3958C6.93577 19.3958 7.34241 19.0062 7.34241 18.5256C7.34241 18.0449 6.93577 17.6554 6.45516 17.6553H5.59814V19.3996ZM11.1102 19.3996V20.739M11.1102 19.3996C11.1102 19.3996 11.7289 19.3958 11.9672 19.3958C12.4478 19.3958 12.8545 19.0062 12.8545 18.5256C12.8545 18.0449 12.4478 17.6554 11.9672 17.6553H11.1102V19.3996ZM12.5683 15.0538L11.008 14.1529C10.7829 14.0229 10.5014 14.1854 10.5014 14.4453V14.6012H9.35025C9.35302 14.3409 9.2191 14.0867 8.97764 13.9473C8.62125 13.7416 8.16563 13.8637 7.95989 14.22C7.73438 14.6106 7.73438 15.077 7.95989 15.4675C8.18541 15.8581 8.58924 16.0913 9.04027 16.0913H10.5015V16.2472C10.5015 16.5073 10.7829 16.6697 11.0081 16.5397L12.5683 15.6387C12.7934 15.5087 12.7934 15.1837 12.5683 15.0538ZM15.6786 13.8001L14.9467 12.5354L15.0817 12.4574C15.3067 12.3271 15.3063 12.0021 15.0811 11.8724L13.5197 10.9733C13.2944 10.8436 13.0132 11.0064 13.0134 11.2664L13.0152 13.068C13.0155 13.328 13.2971 13.4902 13.5221 13.36L13.657 13.2819L14.2337 14.2783C14.007 14.4062 13.8541 14.6495 13.8544 14.9283C13.8548 15.3395 14.1883 15.6726 14.5994 15.6726H14.6002C15.0512 15.6721 15.4548 15.4385 15.6799 15.0477C15.905 14.6568 15.9045 14.1905 15.6786 13.8001ZM9.61257 12.7721L11.1724 11.8706C11.3975 11.7405 11.3974 11.4155 11.1721 11.2856L11.0371 11.2078L11.6122 10.2105C11.8364 10.343 12.1234 10.3539 12.3647 10.2144C12.721 10.0085 12.8429 9.55274 12.637 9.19649C12.4114 8.80621 12.0077 8.57324 11.5569 8.57324H11.5563C11.1053 8.57343 10.7016 8.80682 10.4762 9.19752L9.7463 10.4634L9.61121 10.3855C9.38597 10.2556 9.10463 10.4182 9.10477 10.6783L9.10585 12.4799C9.10599 12.7399 9.38747 12.9022 9.61257 12.7721Z" stroke="white" stroke-width="0.8" stroke-miterlimit="10" stroke-linecap="round" stroke-linejoin="round"/>
</g>
<defs>
<clipPath id="clip0_1290_6932">
<rect width="24" height="24" fill="white"/>
</clipPath>
</defs>
</svg>
