<svg width="20" height="24" viewBox="0 0 20 24" fill="none" xmlns="http://www.w3.org/2000/svg">
<path d="M18.4652 8.35856L17.5 7.00505V5.25C17.5 5.15054 17.4605 5.05516 17.3902 4.98484C17.3198 4.91451 17.2245 4.875 17.125 4.875H14.875C14.7756 4.875 14.6802 4.91451 14.6098 4.98484C14.5395 5.05516 14.5 5.15054 14.5 5.25V7.00505L13.5352 8.35805C13.4296 8.50555 13.3323 8.65884 13.2438 8.81719L13.8986 9.18281C13.9735 9.04863 14.0559 8.91874 14.1454 8.79375L15.1803 7.3425C15.2256 7.27901 15.25 7.20298 15.25 7.125V5.625H16.75V7.125C16.75 7.20307 16.7744 7.27919 16.8198 7.34273L17.8557 8.79548C18.0665 9.08959 18.237 9.41062 18.3625 9.75H15.625V10.5H18.5594C18.6005 10.729 18.6224 10.9611 18.625 11.1938V11.25H15.625V12H18.625V12.75H15.625V13.5H18.4794L18.3892 13.7752C18.2038 14.326 18.2036 14.9223 18.3886 15.4732L18.5243 15.8872C18.5906 16.0847 18.6246 16.2916 18.625 16.5H15.625V17.25H18.625V18H15.625V18.75H18.625V19.5H15.625V20.25H18.625V21.75C18.6248 21.9489 18.5457 22.1395 18.4051 22.2801C18.2645 22.4207 18.0739 22.4998 17.875 22.5H17.0613C17.0116 22.5 16.9624 22.4902 16.9166 22.4711C16.8707 22.452 16.8291 22.424 16.7941 22.3887C16.5809 22.1831 16.2963 22.0682 16.0002 22.0682C15.704 22.0682 15.4194 22.1831 15.2062 22.3887L15.7365 22.919C15.8068 22.8498 15.9015 22.811 16.0002 22.811C16.0988 22.811 16.1935 22.8498 16.2638 22.919C16.3683 23.0241 16.4925 23.1075 16.6294 23.1643C16.7663 23.2212 16.9131 23.2503 17.0613 23.25H17.875C18.2727 23.2496 18.654 23.0914 18.9352 22.8102C19.2164 22.529 19.3746 22.1477 19.375 21.75V16.5C19.3747 16.2117 19.3279 15.9253 19.2364 15.6518L19.1007 15.2378C18.9663 14.8397 18.9665 14.4085 19.1013 14.0105L19.2372 13.596C19.2805 13.4601 19.3151 13.3216 19.3408 13.1814C19.363 13.0387 19.3744 12.8944 19.375 12.75V11.1938C19.3744 10.8039 19.3281 10.4154 19.237 10.0363C19.0908 9.43236 18.8286 8.86256 18.4652 8.35856ZM0.62501 9V20.3438C0.625866 21.1143 0.932334 21.853 1.47718 22.3978C2.02202 22.9427 2.76074 23.2491 3.53126 23.25C4.16068 23.2519 4.77341 23.0476 5.27571 22.6683C5.4487 22.5387 5.65904 22.4686 5.8752 22.4686C6.09136 22.4686 6.3017 22.5387 6.47468 22.6683C6.94782 23.0247 7.51909 23.2271 8.11109 23.248L8.13893 22.4984C7.70008 22.4832 7.27654 22.3333 6.92585 22.069C6.62261 21.842 6.254 21.7193 5.8752 21.7193C5.49639 21.7193 5.12778 21.842 4.82454 22.069C4.45213 22.3501 3.99787 22.5015 3.53126 22.5C2.95959 22.4993 2.41153 22.2719 2.0073 21.8677C1.60307 21.4635 1.37568 20.9154 1.37501 20.3438V18.375H8.12501V17.625H1.37501V10.125H9.62501V9.375H1.37501V9C1.37331 8.04814 1.67419 7.12037 2.2342 6.35067C2.79421 5.58097 3.58436 5.00918 4.49056 4.71788C4.56597 4.6935 4.63171 4.64585 4.67833 4.58176C4.72495 4.51767 4.75004 4.44045 4.75001 4.3612V3.375H7.00001V4.3612C6.99998 4.44045 7.02507 4.51767 7.07169 4.58176C7.11831 4.64585 7.18405 4.6935 7.25946 4.71788C8.10973 4.99033 8.85926 5.5105 9.41199 6.21169C9.96472 6.91289 10.2955 7.76316 10.3618 8.65355L11.1096 8.59645C11.0359 7.60435 10.6807 6.65387 10.0856 5.85666C9.49046 5.05945 8.68022 4.44861 7.75001 4.09589V3.375H8.50001V2.625H7.75001V1.125C7.75001 1.02554 7.7105 0.930161 7.64017 0.859835C7.56985 0.789509 7.47447 0.75 7.37501 0.75H4.37501C4.27555 0.75 4.18017 0.789509 4.10984 0.859835C4.03952 0.930161 4.00001 1.02554 4.00001 1.125V2.625H3.25001V3.375H4.00001V4.09589C3.00598 4.47386 2.15061 5.14556 1.54771 6.02161C0.944813 6.89767 0.622972 7.93654 0.62501 9ZM4.75001 1.5H7.00001V2.625H4.75001V1.5Z" fill="white"/>
<path d="M3.79234 5.881L4.20766 6.50537C4.43809 6.35243 4.6884 6.2318 4.95161 6.14687L4.72089 5.43311C4.39234 5.53922 4.07991 5.68992 3.79234 5.881ZM2.89333 8.66621C2.96654 8.01152 3.25289 7.39904 3.7083 6.92303L3.16741 6.40314C2.59783 6.99862 2.23957 7.76468 2.14769 8.58357L2.89333 8.66621ZM2.125 10.875H2.875V11.625H2.125V10.875ZM2.125 12.375H2.875V15.75H2.125V12.375ZM10.375 13.125H11.125V14.25H10.375V13.125Z" fill="white"/>
<path d="M11.875 9C11.0338 9 10.375 9.4942 10.375 10.125V11.3935L9.49844 11.8334C9.31086 11.9262 9.15303 12.0697 9.04284 12.2476C8.93265 12.4256 8.87451 12.6308 8.875 12.8401V14.625C8.87499 14.6832 8.88854 14.7406 8.91457 14.7927L9.20571 15.375L8.91457 15.9573C8.88854 16.0094 8.87499 16.0668 8.875 16.125V16.875C8.87499 16.9332 8.88854 16.9906 8.91457 17.0427L9.20571 17.625L8.91457 18.2073C8.88854 18.2594 8.87499 18.3168 8.875 18.375V19.125C8.87499 19.1832 8.88854 19.2406 8.91457 19.2927L9.20571 19.875L8.91457 20.4573C8.88854 20.5094 8.87499 20.5668 8.875 20.625V22.125C8.87546 22.4232 8.99414 22.7091 9.20501 22.92C9.41589 23.1309 9.70178 23.2495 10 23.25H13.75C13.8358 23.2496 13.9212 23.24 14.0049 23.2213C14.2526 23.1639 14.4735 23.0243 14.6315 22.8252C14.7896 22.6261 14.8754 22.3792 14.875 22.125V20.625C14.875 20.5668 14.8615 20.5094 14.8354 20.4573L14.5443 19.875L14.8354 19.2927C14.8615 19.2406 14.875 19.1832 14.875 19.125V18.375C14.875 18.3168 14.8615 18.2594 14.8354 18.2073L14.5443 17.625L14.8354 17.0427C14.8615 16.9906 14.875 16.9332 14.875 16.875V16.125C14.875 16.0668 14.8615 16.0094 14.8354 15.9573L14.5443 15.375L14.8354 14.7927C14.8615 14.7406 14.875 14.6832 14.875 14.625V12.8401C14.8755 12.6309 14.8175 12.4257 14.7073 12.2478C14.5972 12.07 14.4394 11.9265 14.2519 11.8337L13.375 11.3935V10.125C13.375 9.4942 12.7162 9 11.875 9ZM11.875 9.75C12.3328 9.75 12.625 9.97209 12.625 10.125C12.625 10.2779 12.3328 10.5 11.875 10.5C11.4172 10.5 11.125 10.2779 11.125 10.125C11.125 9.97209 11.4172 9.75 11.875 9.75ZM13.9161 12.5043C13.9788 12.5351 14.0316 12.5829 14.0686 12.6423C14.1055 12.7017 14.1251 12.7702 14.125 12.8401V14.5365L13.8932 15H10.75V15.75H13.8932L14.125 16.2135V16.7865L13.8932 17.25H10.75V18H13.8932L14.125 18.4635V19.0365L13.8932 19.5H10.75V20.25H13.8932L14.125 20.7135V22.125C14.1245 22.2086 14.0963 22.2897 14.0449 22.3556C13.9935 22.4215 13.9218 22.4686 13.8408 22.4895C13.811 22.4962 13.7806 22.4997 13.75 22.5H10C9.94213 22.4998 9.88508 22.4862 9.83332 22.4603C9.78155 22.4344 9.73646 22.3969 9.70155 22.3507C9.65174 22.2861 9.62482 22.2066 9.625 22.125V20.7135L9.96044 20.0427C9.98645 19.9906 9.99999 19.9332 9.99999 19.875C9.99999 19.8168 9.98645 19.7594 9.96044 19.7073L9.625 19.0365V18.4635L9.96044 17.7927C9.98645 17.7406 9.99999 17.6832 9.99999 17.625C9.99999 17.5668 9.98645 17.5094 9.96044 17.4573L9.625 16.7865V16.2135L9.96044 15.5427C9.98645 15.4906 9.99999 15.4332 9.99999 15.375C9.99999 15.3168 9.98645 15.2594 9.96044 15.2073L9.625 14.5365V12.8401C9.62499 12.7701 9.6446 12.7015 9.68159 12.6421C9.71858 12.5827 9.77149 12.5348 9.8343 12.5039L10.9181 11.9602C10.9803 11.929 11.0326 11.8812 11.0692 11.822C11.1057 11.7628 11.125 11.6946 11.125 11.625V11.0983C11.3624 11.1984 11.6174 11.25 11.875 11.25C12.1326 11.25 12.3876 11.1984 12.625 11.0983V11.625C12.625 11.6946 12.6443 11.7627 12.6809 11.8219C12.7174 11.8811 12.7697 11.9289 12.8319 11.9601L13.9161 12.5043Z" fill="white"/>
</svg>
