<svg width="22" height="24" viewBox="0 0 22 24" fill="none" xmlns="http://www.w3.org/2000/svg">
<path d="M2.52642 7.40758L2.03282 6.43727L3.27126 2.63665L7.68079 0.394146C7.87298 0.296177 8.10829 0.373052 8.20626 0.56524L9.77095 3.64165" stroke="#212121" stroke-width="0.8" stroke-miterlimit="10" stroke-linecap="round" stroke-linejoin="round"/>
<path d="M4.07849 6.51761L8.48825 4.27497M5.59377 3.88516L7.79868 2.76382M8.81333 7.40768L10.5093 0.7383C10.5791 0.463613 10.8585 0.297675 11.1327 0.367519L17.4215 1.96689M19.0063 2.37002L20.525 2.75627C20.7993 2.82611 20.9652 3.10502 20.8954 3.37971L19.8711 7.40768M11.0853 2.9373L19.2998 5.02643M10.7478 4.26414L14.322 5.17314M15.3882 5.44432L18.9624 6.35332M10.4091 5.59614L13.9833 6.50514M5.46364 7.36268H1.53739C1.27771 7.36268 1.07239 7.58252 1.08974 7.84127L1.95927 20.7141C2.01271 21.511 2.67505 22.1297 3.47333 22.1297H9.22068M4.3753 4.80789L3.27111 2.63678L2.033 6.43741L4.20383 5.33341C4.39639 5.23544 4.47303 5.00018 4.3753 4.80789Z" stroke="#212121" stroke-width="0.8" stroke-miterlimit="10" stroke-linecap="round" stroke-linejoin="round"/>
<path d="M7.10334 7.36279H20.1018C20.3615 7.36279 20.5668 7.58264 20.5494 7.84139L19.6799 20.7142C19.626 21.5111 18.9641 22.1298 18.1654 22.1298H10.8613M5.39601 23.6486H4.31802C4.02135 23.6486 3.78088 23.4081 3.78088 23.1114V22.1299H5.9331V23.1114C5.9331 23.4081 5.69263 23.6486 5.39601 23.6486ZM17.3211 23.6486H16.2431C15.9464 23.6486 15.7059 23.4081 15.7059 23.1114V22.1299H17.8581V23.1114C17.8582 23.4081 17.6177 23.6486 17.3211 23.6486Z" stroke="#212121" stroke-width="0.8" stroke-miterlimit="10" stroke-linecap="round" stroke-linejoin="round"/>
<path d="M6.5946 20.739L7.7525 17.6988C7.77618 17.6409 7.85807 17.6408 7.88183 17.6986L9.02924 20.739M6.95572 19.9819H8.67397M14.1866 17.6835H12.8991V20.739H14.1866M14.0916 19.2113H12.8991M15.7456 19.2673L17.041 20.739M15.3748 19.2617V20.739M15.3748 19.2617C15.3748 19.2617 15.9667 19.2582 16.1942 19.2582C16.6528 19.2582 17.0409 18.8994 17.0409 18.4568C17.0409 18.0142 16.6528 17.6554 16.1942 17.6554H15.3748V19.2617ZM4.5981 19.3996V20.739M4.5981 19.3996C4.5981 19.3996 5.21675 19.3958 5.45511 19.3958C5.93572 19.3958 6.34236 19.0062 6.34236 18.5256C6.34236 18.0449 5.93572 17.6554 5.45511 17.6553H4.5981V19.3996ZM10.1102 19.3996V20.739M10.1102 19.3996C10.1102 19.3996 10.7288 19.3958 10.9672 19.3958C11.4478 19.3958 11.8544 19.0062 11.8544 18.5256C11.8544 18.0449 11.4478 17.6554 10.9672 17.6553H10.1102V19.3996ZM11.5682 15.0538L10.008 14.1529C9.78285 14.0229 9.50136 14.1854 9.50136 14.4453V14.6012H8.35021C8.35297 14.3409 8.21905 14.0867 7.9776 13.9473C7.62121 13.7416 7.16558 13.8637 6.95985 14.22C6.73433 14.6106 6.73433 15.077 6.95985 15.4675C7.18536 15.8581 7.58919 16.0913 8.04022 16.0913H9.50141V16.2472C9.50141 16.5073 9.7829 16.6697 10.008 16.5397L11.5683 15.6387C11.7934 15.5087 11.7934 15.1837 11.5682 15.0538ZM14.6786 13.8001L13.9467 12.5354L14.0816 12.4574C14.3067 12.3271 14.3063 12.0021 14.081 11.8724L12.5196 10.9733C12.2944 10.8436 12.0131 11.0064 12.0134 11.2664L12.0152 13.068C12.0155 13.328 12.297 13.4902 12.5221 13.36L12.657 13.2819L13.2336 14.2783C13.0069 14.4062 12.8541 14.6495 12.8543 14.9283C12.8548 15.3395 13.1882 15.6726 13.5994 15.6726H13.6002C14.0511 15.6721 14.4548 15.4385 14.6799 15.0477C14.9049 14.6568 14.9045 14.1905 14.6786 13.8001ZM8.61252 12.7721L10.1724 11.8706C10.3975 11.7405 10.3973 11.4155 10.1721 11.2856L10.0371 11.2078L10.6122 10.2105C10.8363 10.343 11.1234 10.3539 11.3647 10.2144C11.7209 10.0085 11.8429 9.55274 11.6369 9.19649C11.4113 8.80621 11.0076 8.57324 10.5569 8.57324H10.5563C10.1053 8.57343 9.70152 8.80682 9.47615 9.19752L8.74625 10.4634L8.61116 10.3855C8.38593 10.2556 8.10458 10.4182 8.10472 10.6783L8.1058 12.4799C8.10594 12.7399 8.38743 12.9022 8.61252 12.7721Z" stroke="#212121" stroke-width="0.8" stroke-miterlimit="10" stroke-linecap="round" stroke-linejoin="round"/>
</svg>
