<svg width="42" height="12" viewBox="0 0 42 12" fill="none" xmlns="http://www.w3.org/2000/svg">
<path d="M4.50468 11.7352L2.11286 10.1577L5.03365 6.70984L0.824951 5.4704L1.72187 2.90139L5.72363 4.54646L5.51664 0.264771H8.48346L8.27647 4.54646L12.2782 2.90139L13.1751 5.4704L8.96639 6.70984L11.8642 10.1577L9.47237 11.7127L6.98855 8.06195L4.50468 11.7352Z" fill="#29B473"/>
<path d="M18.5047 11.7352L16.1128 10.1578L19.0336 6.70987L14.8249 5.47043L15.7218 2.90142L19.7236 4.54649L19.5166 0.2648H22.4834L22.2764 4.54649L26.2781 2.90142L27.1751 5.47043L22.9664 6.70987L25.8642 10.1578L23.4723 11.7127L20.9885 8.06198L18.5047 11.7352Z" fill="#29B473"/>
<path d="M32.5047 11.7352L30.1128 10.1578L33.0336 6.70987L28.8249 5.47044L29.7218 2.90142L33.7236 4.54649L33.5166 0.2648H36.4834L36.2764 4.54649L40.2781 2.90142L41.1751 5.47044L36.9664 6.70987L39.8642 10.1578L37.4723 11.7127L34.9885 8.06198L32.5047 11.7352Z" fill="#29B473"/>
</svg>
