<svg width="24" height="24" viewBox="0 0 24 24" fill="none" xmlns="http://www.w3.org/2000/svg">
<path d="M20.4652 8.35856L19.5 7.00505V5.25C19.5 5.15054 19.4605 5.05516 19.3902 4.98484C19.3198 4.91451 19.2245 4.875 19.125 4.875H16.875C16.7755 4.875 16.6802 4.91451 16.6098 4.98484C16.5395 5.05516 16.5 5.15054 16.5 5.25V7.00505L15.5352 8.35805C15.4296 8.50555 15.3323 8.65884 15.2437 8.81719L15.8985 9.18281C15.9735 9.04863 16.0559 8.91874 16.1454 8.79375L17.1803 7.3425C17.2256 7.27901 17.2499 7.20298 17.25 7.125V5.625H18.75V7.125C18.75 7.20307 18.7744 7.27919 18.8197 7.34273L19.8557 8.79548C20.0665 9.08959 20.2369 9.41062 20.3625 9.75H17.625V10.5H20.5594C20.6005 10.729 20.6224 10.9611 20.625 11.1938V11.25H17.625V12H20.625V12.75H17.625V13.5H20.4794L20.3892 13.7752C20.2038 14.326 20.2036 14.9223 20.3886 15.4732L20.5243 15.8872C20.5906 16.0847 20.6246 16.2916 20.625 16.5H17.625V17.25H20.625V18H17.625V18.75H20.625V19.5H17.625V20.25H20.625V21.75C20.6248 21.9489 20.5457 22.1395 20.4051 22.2801C20.2645 22.4207 20.0738 22.4998 19.875 22.5H19.0613C19.0116 22.5 18.9624 22.4902 18.9166 22.4711C18.8707 22.452 18.8291 22.424 18.7941 22.3887C18.5809 22.1831 18.2963 22.0682 18.0001 22.0682C17.704 22.0682 17.4193 22.1831 17.2062 22.3887L17.7365 22.919C17.8068 22.8498 17.9015 22.811 18.0001 22.811C18.0988 22.811 18.1935 22.8498 18.2638 22.919C18.3683 23.0241 18.4925 23.1075 18.6294 23.1643C18.7663 23.2212 18.9131 23.2503 19.0613 23.25H19.875C20.2727 23.2496 20.654 23.0914 20.9352 22.8102C21.2164 22.529 21.3745 22.1477 21.375 21.75V16.5C21.3747 16.2117 21.3279 15.9253 21.2364 15.6518L21.1007 15.2378C20.9662 14.8397 20.9664 14.4085 21.1012 14.0105L21.2372 13.596C21.2805 13.4601 21.3151 13.3216 21.3408 13.1814C21.363 13.0387 21.3744 12.8944 21.375 12.75V11.1938C21.3744 10.8039 21.3281 10.4154 21.2369 10.0363C21.0907 9.43236 20.8286 8.86256 20.4652 8.35856ZM2.62499 9V20.3438C2.62585 21.1143 2.93232 21.853 3.47716 22.3978C4.022 22.9427 4.76072 23.2491 5.53124 23.25C6.16067 23.2519 6.77339 23.0476 7.2757 22.6683C7.44868 22.5387 7.65902 22.4686 7.87518 22.4686C8.09134 22.4686 8.30168 22.5387 8.47467 22.6683C8.94781 23.0247 9.51907 23.2271 10.1111 23.248L10.1389 22.4984C9.70007 22.4832 9.27653 22.3333 8.92584 22.069C8.6226 21.842 8.25398 21.7193 7.87518 21.7193C7.49638 21.7193 7.12777 21.842 6.82453 22.069C6.45212 22.3501 5.99786 22.5015 5.53124 22.5C4.95958 22.4993 4.41152 22.2719 4.00729 21.8677C3.60306 21.4635 3.37566 20.9154 3.37499 20.3438V18.375H10.125V17.625H3.37499V10.125H11.625V9.375H3.37499V9C3.37329 8.04814 3.67417 7.12037 4.23418 6.35067C4.79419 5.58097 5.58435 5.00918 6.49054 4.71788C6.56595 4.6935 6.63169 4.64585 6.67831 4.58176C6.72493 4.51767 6.75003 4.44045 6.74999 4.3612V3.375H8.99999V4.3612C8.99996 4.44045 9.02506 4.51767 9.07168 4.58176C9.1183 4.64585 9.18404 4.6935 9.25945 4.71788C10.1097 4.99033 10.8592 5.5105 11.412 6.21169C11.9647 6.91289 12.2955 7.76316 12.3618 8.65355L13.1096 8.59645C13.0359 7.60435 12.6807 6.65387 12.0856 5.85666C11.4904 5.05945 10.6802 4.44861 9.74999 4.09589V3.375H10.5V2.625H9.74999V1.125C9.74999 1.02554 9.71049 0.930161 9.64016 0.859835C9.56983 0.789509 9.47445 0.75 9.37499 0.75H6.37499C6.27554 0.75 6.18016 0.789509 6.10983 0.859835C6.0395 0.930161 5.99999 1.02554 5.99999 1.125V2.625H5.24999V3.375H5.99999V4.09589C5.00596 4.47386 4.1506 5.14556 3.5477 6.02161C2.9448 6.89767 2.62296 7.93654 2.62499 9ZM6.74999 1.5H8.99999V2.625H6.74999V1.5Z" fill="#212121"/>
<path d="M5.79234 5.881L6.20766 6.50537C6.43809 6.35243 6.6884 6.2318 6.95161 6.14687L6.72089 5.43311C6.39234 5.53922 6.07991 5.68992 5.79234 5.881ZM4.89333 8.66621C4.96654 8.01152 5.25289 7.39904 5.7083 6.92303L5.16741 6.40314C4.59783 6.99862 4.23957 7.76468 4.14769 8.58357L4.89333 8.66621ZM4.125 10.875H4.875V11.625H4.125V10.875ZM4.125 12.375H4.875V15.75H4.125V12.375ZM12.375 13.125H13.125V14.25H12.375V13.125Z" fill="#212121"/>
<path d="M13.875 9C13.0338 9 12.375 9.4942 12.375 10.125V11.3935L11.4984 11.8334C11.3108 11.9262 11.153 12.0697 11.0428 12.2476C10.9326 12.4256 10.8745 12.6308 10.875 12.8401V14.625C10.875 14.6832 10.8885 14.7406 10.9146 14.7927L11.2057 15.375L10.9146 15.9573C10.8885 16.0094 10.875 16.0668 10.875 16.125V16.875C10.875 16.9332 10.8885 16.9906 10.9146 17.0427L11.2057 17.625L10.9146 18.2073C10.8885 18.2594 10.875 18.3168 10.875 18.375V19.125C10.875 19.1832 10.8885 19.2406 10.9146 19.2927L11.2057 19.875L10.9146 20.4573C10.8885 20.5094 10.875 20.5668 10.875 20.625V22.125C10.8754 22.4232 10.9941 22.7091 11.205 22.92C11.4159 23.1309 11.7018 23.2495 12 23.25H15.75C15.8357 23.2496 15.9212 23.24 16.0049 23.2213C16.2526 23.1639 16.4735 23.0243 16.6315 22.8252C16.7896 22.6261 16.8754 22.3792 16.875 22.125V20.625C16.875 20.5668 16.8615 20.5094 16.8354 20.4573L16.5443 19.875L16.8354 19.2927C16.8615 19.2406 16.875 19.1832 16.875 19.125V18.375C16.875 18.3168 16.8615 18.2594 16.8354 18.2073L16.5443 17.625L16.8354 17.0427C16.8615 16.9906 16.875 16.9332 16.875 16.875V16.125C16.875 16.0668 16.8615 16.0094 16.8354 15.9573L16.5443 15.375L16.8354 14.7927C16.8615 14.7406 16.875 14.6832 16.875 14.625V12.8401C16.8755 12.6309 16.8174 12.4257 16.7073 12.2478C16.5972 12.07 16.4394 11.9265 16.2519 11.8337L15.375 11.3935V10.125C15.375 9.4942 14.7162 9 13.875 9ZM13.875 9.75C14.3328 9.75 14.625 9.97209 14.625 10.125C14.625 10.2779 14.3328 10.5 13.875 10.5C13.4172 10.5 13.125 10.2779 13.125 10.125C13.125 9.97209 13.4172 9.75 13.875 9.75ZM15.9161 12.5043C15.9788 12.5351 16.0316 12.5829 16.0686 12.6423C16.1055 12.7017 16.125 12.7702 16.125 12.8401V14.5365L15.8932 15H12.75V15.75H15.8932L16.125 16.2135V16.7865L15.8932 17.25H12.75V18H15.8932L16.125 18.4635V19.0365L15.8932 19.5H12.75V20.25H15.8932L16.125 20.7135V22.125C16.1245 22.2086 16.0963 22.2897 16.0449 22.3556C15.9935 22.4215 15.9218 22.4686 15.8408 22.4895C15.811 22.4962 15.7806 22.4997 15.75 22.5H12C11.9421 22.4998 11.8851 22.4862 11.8333 22.4603C11.7815 22.4344 11.7364 22.3969 11.7015 22.3507C11.6517 22.2861 11.6248 22.2066 11.625 22.125V20.7135L11.9604 20.0427C11.9864 19.9906 12 19.9332 12 19.875C12 19.8168 11.9864 19.7594 11.9604 19.7073L11.625 19.0365V18.4635L11.9604 17.7927C11.9864 17.7406 12 17.6832 12 17.625C12 17.5668 11.9864 17.5094 11.9604 17.4573L11.625 16.7865V16.2135L11.9604 15.5427C11.9864 15.4906 12 15.4332 12 15.375C12 15.3168 11.9864 15.2594 11.9604 15.2073L11.625 14.5365V12.8401C11.625 12.7701 11.6446 12.7015 11.6816 12.6421C11.7186 12.5827 11.7715 12.5348 11.8343 12.5039L12.9181 11.9602C12.9803 11.929 13.0326 11.8812 13.0691 11.822C13.1057 11.7628 13.125 11.6946 13.125 11.625V11.0983C13.3624 11.1984 13.6174 11.25 13.875 11.25C14.1326 11.25 14.3876 11.1984 14.625 11.0983V11.625C14.625 11.6946 14.6443 11.7627 14.6809 11.8219C14.7174 11.8811 14.7697 11.9289 14.8319 11.9601L15.9161 12.5043Z" fill="#212121"/>
</svg>
