<svg width="120" height="113" viewBox="0 0 120 113" fill="none" xmlns="http://www.w3.org/2000/svg">
<g opacity="0.2">
<path d="M37.3563 52.8759L29.1612 34.2789C29.0053 33.9254 28.6916 33.6975 28.3454 33.6928L10.2 33.3649C9.25863 33.3486 8.89423 34.765 9.6939 35.3395L12.1131 37.0745C12.2629 37.1838 12.3702 37.3559 12.4087 37.5536C12.4472 37.7536 12.4148 37.963 12.3196 38.1327L2.05758 56.4971C-0.560065 61.3045 -0.68963 67.3748 1.72354 72.3357L11.8925 94.3679C11.8459 91.4002 12.5484 88.3255 13.9615 85.7555L17.7392 78.8944L32.4267 52.5619C32.6211 52.2107 33.028 52.106 33.3357 52.327L36.0303 54.262C36.8299 54.8365 37.7794 53.8387 37.3543 52.8735L37.3563 52.8759ZM31.0825 88.7325V80.0689H18.6643L15.081 86.5741C12.9209 90.507 12.601 95.7215 14.2814 99.5543L14.4899 100.01C15.4009 101.852 16.401 103.28 17.5509 104.383C19.6806 106.413 22.3691 107.532 25.1244 107.532H31.0825V98.8636H29.8941V88.7371H31.0825V88.7325Z" fill="white"/>
<path fill-rule="evenodd" clip-rule="evenodd" d="M35.874 100.862L52.8614 99.5967C53.1347 98.4687 53.327 97.3081 53.4363 96.1359L35.874 96.7964V100.862ZM56.6289 93.4217V93.3822C56.5884 90.3703 56.0863 87.4351 55.1409 84.6582L51.8714 84.2907L35.0197 82.3463V81.002L32.7887 80.6206V90.6936H31.6003V96.8988H32.7887V106.969L35.0197 106.593V105.248L51.8714 103.304L55.1409 102.934C55.6126 101.55 55.977 100.111 56.222 98.657C56.471 97.1941 56.6046 95.701 56.6289 94.2102V94.1753C56.6289 94.0497 56.633 93.9241 56.633 93.7962C56.633 93.6682 56.6289 93.545 56.6289 93.4194V93.4217ZM35.874 86.7328L52.8614 87.998C53.1347 89.126 53.329 90.2866 53.4383 91.4564L35.874 90.7982V86.7328Z" fill="white"/>
<path d="M108.213 80.1232L101.143 80.179H101.137L73.9222 80.2069C73.5578 80.2069 73.2643 79.872 73.2582 79.4534L73.2218 75.8019C73.2096 74.7204 71.9666 74.339 71.4888 75.2739L62.2937 93.2453C62.1175 93.5872 62.1236 94.0128 62.3058 94.35L71.8674 112.066C72.3654 112.987 73.5983 112.573 73.5882 111.491L73.5538 108.214C73.5538 108.012 73.6206 107.814 73.7461 107.67C73.8716 107.523 74.0417 107.444 74.2178 107.444H93.2155C98.1511 107.374 102.668 104.221 104.994 99.2086L115.641 77.4765C113.491 79.1254 110.861 80.1046 108.215 80.1255L108.213 80.1232Z" fill="white"/>
<path d="M119.911 66.5943C119.726 68.2991 119.22 70.0411 118.364 71.9134L118.145 72.3599C116.244 76.0602 112.252 78.5651 108.205 78.6023L101.502 78.6535L85.2173 49.5114C85.691 49.8045 86.1344 50.1068 86.5717 50.4254C87.0656 50.779 87.5373 51.1348 87.9787 51.493C88.4079 51.8465 88.8492 52.2233 89.3229 52.6535C89.7562 53.0466 90.1793 53.4583 90.5882 53.8816C90.9729 54.2816 91.3697 54.7165 91.7968 55.2096C92.1936 55.6654 92.5722 56.1352 92.9326 56.605C93.0378 56.7469 93.1451 56.8911 93.2504 57.033L94.3396 58.5308L95.6494 57.2842L96.0624 56.8888C96.6758 56.305 97.2265 55.7747 97.7386 55.2747L97.7528 55.2631L97.769 55.2468L102.676 50.2208L103.964 48.9044L103.138 47.8648L104.11 46.453L105.146 44.9505L104.32 44.1621L105.126 42.4457L105.849 40.9083L105.077 40.292L105.715 38.4849L106.278 36.894L105.247 36.2196L105.46 34.9148C110.661 44.2133 118.093 57.5214 118.125 57.5726C119.617 60.2379 120.251 63.4452 119.911 66.5966V66.5943Z" fill="white"/>
<path d="M95.2518 48.1088C95.8167 47.1017 95.2296 45.5132 93.94 44.5596C92.6524 43.6084 91.1502 43.6526 90.5854 44.6619C90.0206 45.669 90.6097 47.2575 91.8973 48.2111C93.1848 49.1623 94.687 49.1158 95.2518 48.1088Z" fill="white"/>
<path d="M102.986 40.9982L104.136 37.7444L103.348 37.2304L103.925 33.7022L103.963 33.3533C103.168 33.2347 102.372 33.1487 101.579 33.0952C101.182 33.0673 100.783 33.044 100.388 33.037C100.115 33.03 99.8417 33.0254 99.5724 33.0254C99.4469 33.0254 99.3194 33.03 99.1938 33.03C98.4023 33.037 97.6067 33.0766 96.8191 33.144C96.4244 33.1789 96.0316 33.2138 95.6348 33.2696C95.2421 33.3161 94.8493 33.3789 94.4606 33.4417C93.6751 33.5743 92.8977 33.7348 92.1264 33.9231C91.5676 34.0673 91.015 34.2255 90.4603 34.3976C90.4056 34.4139 90.355 34.4325 90.3003 34.4488C89.9217 34.6953 89.5594 34.9628 89.2112 35.2442C89.2658 35.2279 89.3205 35.2139 89.3751 35.2C89.5634 35.1488 89.7476 35.1023 89.9319 35.0558C90.6931 34.8674 91.4604 34.7069 92.2317 34.5767C92.9969 34.4348 93.7703 34.3255 94.5416 34.2464C94.9263 34.2022 95.317 34.172 95.7016 34.1441C96.0863 34.1208 96.477 34.0929 96.8617 34.0766C97.2807 34.0604 97.7018 34.0534 98.1209 34.0534C98.4752 34.0534 98.8315 34.0604 99.1817 34.0697C99.5704 34.0859 99.9591 34.1045 100.346 34.1325C100.73 34.1604 101.121 34.1883 101.506 34.2255C102.042 34.2813 102.575 34.3441 103.109 34.4255C103.083 34.6418 103.05 34.8558 103.024 35.0721C102.976 35.4837 102.929 35.8908 102.88 36.3024C102.866 36.4234 102.854 36.542 102.84 36.6629C102.516 36.5606 102.188 36.4629 101.86 36.3722C101.471 36.2699 101.085 36.1652 100.694 36.0791C100.305 35.9884 99.9125 35.907 99.5238 35.8326C98.7383 35.6838 97.9549 35.5628 97.1653 35.4721C96.7726 35.4279 96.3778 35.3861 95.981 35.3582C95.5842 35.3302 95.1935 35.3116 94.7967 35.3C94.6165 35.293 94.4323 35.2884 94.2501 35.2837C94.0699 35.2837 93.8877 35.2791 93.7075 35.2791C93.4929 35.2791 93.2804 35.2837 93.0658 35.2861C92.8512 35.2907 92.6386 35.2977 92.424 35.3047C91.6365 35.3442 90.8469 35.4116 90.0635 35.5093C89.6646 35.5535 89.1727 35.6 88.7455 35.6582C88.6646 35.6698 88.5816 35.6861 88.5066 35.6977C88.367 35.8233 88.2273 35.9535 88.0896 36.0861C88.12 36.0815 88.1483 36.0791 88.1746 36.0791C88.782 36.028 89.4986 36.0094 90.0898 35.9815C90.5574 35.9629 91.021 35.9536 91.4826 35.9536C91.7964 35.9536 92.1143 35.9582 92.428 35.9652C93.2095 35.9838 93.9808 36.0326 94.7562 36.1071C95.1449 36.1419 95.5275 36.1884 95.9122 36.2396C96.2968 36.2908 96.6835 36.342 97.0661 36.4048C97.8334 36.5303 98.5987 36.6838 99.3558 36.8629C99.7344 36.9536 100.113 37.0513 100.49 37.149C100.864 37.2583 101.241 37.3606 101.615 37.4793C101.984 37.5932 102.348 37.7095 102.714 37.8328C102.864 37.8886 103.014 37.9421 103.168 37.9979C103.107 38.2026 103.044 38.4096 102.988 38.6166C102.878 39.0096 102.769 39.405 102.656 39.8004C102.625 39.919 102.595 40.0306 102.565 40.1446C102.257 39.9795 101.951 39.819 101.643 39.6655C101.275 39.4841 100.913 39.305 100.538 39.1399C100.17 38.9747 99.7971 38.8143 99.4226 38.6654C98.6715 38.3607 97.9184 38.0816 97.1572 37.8374C96.7746 37.7118 96.392 37.5932 96.0073 37.4886C95.6227 37.3839 95.236 37.2839 94.8514 37.1955C94.076 37.0118 93.2986 36.8536 92.5171 36.728C91.7316 36.6094 90.9482 36.521 90.1586 36.4582C89.4723 36.4001 88.5856 36.3164 87.8689 36.3047H87.7333C87.6483 36.3861 87.5653 36.4745 87.4883 36.5606C87.5025 36.5606 87.5126 36.5606 87.5228 36.5652H87.5572C88.3386 36.635 89.3448 36.8118 90.1202 36.9304C90.8915 37.056 91.6588 37.2095 92.42 37.3839C93.1852 37.556 93.9424 37.7514 94.6934 37.984C95.068 38.0979 95.4405 38.2142 95.813 38.3398C96.1814 38.4724 96.5539 38.598 96.9224 38.7398C97.6593 39.0143 98.3901 39.312 99.1068 39.6422C99.4692 39.8074 99.8275 39.9795 100.182 40.1562C100.536 40.3376 100.892 40.5167 101.243 40.7005C101.587 40.8842 101.929 41.0772 102.269 41.2726C102.299 41.2912 102.338 41.3122 102.372 41.3308C102.478 41.3936 102.583 41.4564 102.69 41.5191C102.601 41.7122 102.51 41.9029 102.421 42.0913C102.372 42.1983 102.326 42.2983 102.277 42.4053C102.172 42.6379 102.065 42.8681 101.959 43.103C101.945 43.1332 101.933 43.1611 101.915 43.196C101.866 43.303 101.82 43.4077 101.771 43.517C101.567 43.3472 101.362 43.1867 101.154 43.0263C101.083 42.9704 101.01 42.9123 100.935 42.8565C100.601 42.6053 100.269 42.3541 99.9287 42.1192C99.5866 41.8796 99.2424 41.6517 98.8983 41.4284C98.2059 40.9772 97.5054 40.5539 96.7888 40.1632C96.4345 39.9679 96.0761 39.7702 95.7138 39.5911C95.3514 39.412 94.9829 39.2376 94.6185 39.0701C93.8857 38.7375 93.1366 38.4235 92.3896 38.1491C91.6345 37.87 90.8733 37.6281 90.106 37.4072C89.3407 37.1839 88.3386 36.9397 87.5632 36.7838C87.5126 36.7722 87.4033 36.7443 87.3041 36.7211C87.2393 36.7048 87.1786 36.6931 87.1442 36.6862C87.0895 36.749 87.0308 36.8164 86.9741 36.8792C86.9944 36.8862 87.0247 36.8955 87.0551 36.9071C87.2029 36.9513 87.4175 37.0141 87.5126 37.0397C88.2738 37.2676 89.2496 37.5932 89.9926 37.8677C90.7356 38.1421 91.4705 38.4445 92.1932 38.7701C92.916 39.0957 93.6326 39.4445 94.3371 39.8167C94.6914 40.0004 95.0396 40.1958 95.3838 40.3935C95.732 40.5935 96.0762 40.7982 96.4183 41.0052C97.1046 41.4238 97.7767 41.8634 98.4347 42.3332C98.7282 42.5402 99.0177 42.7518 99.3052 42.9728C99.3437 42.996 99.3801 43.0239 99.4145 43.0518C99.7344 43.2984 100.06 43.5449 100.376 43.8007C100.52 43.9147 100.664 44.0333 100.803 44.1496C100.971 44.2868 101.135 44.4287 101.301 44.5659C101.332 44.5962 101.366 44.6217 101.394 44.6473C101.49 44.7287 101.585 44.8171 101.682 44.8939C101.562 45.066 101.447 45.2357 101.328 45.4079C101.263 45.5009 101.202 45.5962 101.137 45.6893C101.002 45.8963 100.86 46.1009 100.72 46.3079C100.704 46.3358 100.686 46.3637 100.666 46.3893C100.601 46.4824 100.54 46.5824 100.475 46.6754C100.297 46.4707 100.121 46.2707 99.9429 46.0754C99.8781 46.0056 99.8133 45.9312 99.7526 45.8637C99.4631 45.5451 99.1695 45.2358 98.872 44.9334C98.5723 44.6357 98.2687 44.338 97.965 44.0473C97.3516 43.4705 96.7199 42.9146 96.0782 42.382C95.7583 42.1145 95.4364 41.8517 95.1024 41.6052C94.7744 41.354 94.4404 41.1121 94.1063 40.8726C93.4302 40.3935 92.7439 39.9423 92.0495 39.5166C91.349 39.098 90.6364 38.7003 89.9157 38.3375C89.195 37.9654 88.2293 37.5653 87.4904 37.2583C87.3669 37.2071 87.0814 37.1048 86.8891 37.035C86.8385 37.0164 86.7939 37.0002 86.7636 36.9839C86.715 37.042 86.6745 37.0932 86.6279 37.149C86.6441 37.1606 86.6664 37.1676 86.6887 37.1792C86.883 37.2699 87.2515 37.4188 87.4013 37.4979C88.1179 37.8746 89.0431 38.3491 89.7314 38.7631C90.4238 39.1817 91.1 39.626 91.762 40.0911C92.4301 40.5539 93.082 41.04 93.7217 41.5494C94.0395 41.8006 94.3533 42.0634 94.6631 42.3285C94.9728 42.5913 95.2846 42.8588 95.5882 43.1332C96.1996 43.6821 96.7928 44.2496 97.3759 44.8427C97.6289 45.1055 97.884 45.3753 98.133 45.6474C98.1674 45.6823 98.1978 45.7149 98.2282 45.7497C98.5075 46.0567 98.7869 46.3614 99.0643 46.6801C99.1878 46.8219 99.3092 46.9615 99.4287 47.108C99.5724 47.2778 99.7162 47.4452 99.8558 47.622C99.8822 47.6522 99.9105 47.6894 99.9368 47.7197C100.018 47.8174 100.101 47.915 100.18 48.0174C100.036 48.1616 99.8963 48.3081 99.7526 48.4477C99.6777 48.5291 99.6028 48.6081 99.5238 48.6872C99.3558 48.8686 99.1898 49.0407 99.0197 49.2175C98.9995 49.2407 98.9752 49.264 98.9509 49.2873C98.7667 49.4826 98.5824 49.6803 98.3982 49.8757C98.3375 49.9385 98.2727 50.0083 98.2099 50.0757C97.9306 50.3781 97.6512 50.6827 97.3637 50.9804C97.1653 51.1991 96.9669 51.4153 96.7665 51.6363C96.5175 51.9061 96.2644 52.1852 96.0154 52.4596C95.9446 52.5387 95.8697 52.6201 95.7968 52.7015C95.4 53.1364 95.0093 53.5807 94.6185 54.0179C94.3209 53.669 94.0173 53.3272 93.7116 52.9992C93.2682 52.5131 92.8046 52.0549 92.3329 51.6154C91.8592 51.1735 91.3733 50.7525 90.8793 50.3501C90.3874 49.9385 89.8752 49.5617 89.3569 49.2012C88.8387 48.8407 88.3123 48.4988 87.7738 48.1779C87.2353 47.8639 86.6846 47.5662 86.1319 47.2917C85.5752 47.0173 85.0084 46.7754 84.4395 46.5428C84.0953 46.4056 83.6985 46.2637 83.3483 46.1475H83.3442C83.3442 46.1475 83.3483 46.1475 83.3483 46.1521C83.3523 46.1568 83.3584 46.1684 83.3645 46.18C83.3685 46.187 83.3706 46.1963 83.3787 46.2033C83.3847 46.2196 83.3928 46.2312 83.3949 46.2382C83.3989 46.2451 83.4009 46.2544 83.4009 46.2544H83.407C83.7309 46.4196 84.0305 46.6149 84.3524 46.787C84.895 47.0847 85.4234 47.3987 85.9457 47.7243C86.472 48.0546 86.9822 48.3942 87.4883 48.7593C87.9904 49.1151 88.4844 49.4919 88.9702 49.885C89.4521 50.278 89.9217 50.6851 90.3874 51.1037C90.849 51.527 91.2984 51.9619 91.7357 52.4131C92.175 52.8666 92.5981 53.3388 93.0152 53.8202C93.4322 54.2993 93.8351 54.797 94.2238 55.311C94.3392 55.4599 94.4566 55.6134 94.5659 55.7669C94.7056 55.6366 94.8432 55.5041 94.9829 55.3738C95.5356 54.8436 96.0923 54.3109 96.641 53.7737L101.548 48.7477L100.911 47.9406L102.783 45.2288L102.166 44.6404L103.634 41.5075L102.996 40.9935L102.986 40.9982Z" fill="white"/>
<path d="M54.3703 -7.86378C52.3316 -11.9641 48.4123 -14.7737 44.6144 -14.8621H44.1609C42.2882 -14.8016 40.699 -14.4457 39.294 -13.7875C36.6946 -12.5595 34.5446 -10.3221 33.2328 -7.48003C33.2186 -7.44514 29.9187 -0.293359 26.3718 7.39568L32.8522 5.10944L34.5527 4.50938L35.1884 6.4142L36.8323 11.3402L44.0273 9.84938L43.9584 9.43307L43.2499 5.242L46.6247 7.03519L52.4531 10.1308L52.5017 10.1564L52.5483 10.1773L57.741 -1.0818L54.3662 -7.86611L54.3703 -7.86378ZM96.9308 10.9402L94.4225 12.6054C94.2666 12.7101 94.0803 12.7357 93.9082 12.6845C93.7341 12.6287 93.5843 12.4961 93.4973 12.317L84.0389 -6.99161C81.5306 -11.9758 76.8521 -14.99 71.8334 -14.8644H49.799C52.1393 -13.5015 54.2043 -11.3152 55.5364 -8.63594L59.0974 -1.47951L72.6735 26.1764C72.8517 26.5438 72.7424 27.0113 72.4225 27.2253L69.6308 29.079C68.8048 29.6302 69.1287 31.0861 70.0883 31.1024L88.5029 31.5047C88.8531 31.514 89.1791 31.2954 89.3471 30.9419L98.2285 12.4031C98.6921 11.4425 97.7568 10.389 96.9308 10.9379V10.9402Z" fill="white"/>
<path d="M51.6549 12.1151L51.5638 12.3175L47.6019 17.1435L47.4157 17.3667L47.2638 17.5551L47.0897 16.5225L46.8853 15.3038L46.6383 15.3619L46.3873 15.4224L46.1362 15.4805L45.8852 15.541L45.6341 15.5992L45.3831 15.6596L45.1321 15.7178L44.877 15.7782L44.626 15.8341L44.3749 15.8945L44.1239 15.9527L43.8729 16.0131L43.6218 16.069L43.3667 16.1294L43.1157 16.1853L42.8647 16.2457L42.6136 16.3015L42.3626 16.362L42.1116 16.4178L41.8605 16.4783L41.6054 16.5341L41.3544 16.5946L41.1034 16.6504L40.8523 16.7109L40.6013 16.7667C40.6013 16.7667 40.3543 16.8272 40.3503 16.8272L40.0992 16.883C40.0992 16.883 39.8482 16.9435 39.8442 16.9435L39.5972 16.9993L39.3461 17.0597L39.0951 17.1156C39.0951 17.1156 38.8441 17.1714 38.84 17.1714L38.589 17.2319L38.3379 17.2923L38.0869 17.3481L37.8359 17.4086L37.3338 17.5226L37.0828 17.583L36.8277 17.6435L36.5766 17.6993L36.3256 17.7552L36.0746 17.8156L35.8235 17.8714L35.5725 17.9319L35.3174 17.9924L34.8154 18.1063L34.5643 18.1668L34.3133 18.2226L34.1534 18.2622L33.5906 16.3643C33.5906 16.3643 33.5865 16.3504 33.5825 16.3434L32.6917 13.3524L32.6876 13.3385L31.7969 10.3522L31.7928 10.3336L31.5985 9.68702L31.5418 9.69167L31.2746 9.70795L31.0053 9.72655L30.7381 9.74051L30.4708 9.75912L30.2016 9.77772L29.9323 9.794L29.6651 9.81261L29.1327 9.8475L28.8634 9.8661L28.5942 9.88471L28.3269 9.89866C28.3269 9.89866 28.0597 9.91727 28.0577 9.91727L27.7904 9.93355L27.5232 9.95215L27.256 9.97076L26.9867 9.98937L26.7175 10.008L26.4502 10.0266C26.4502 10.0266 26.183 10.0405 26.181 10.0405L25.6485 10.0754L25.3793 10.094L25.1121 10.1126L25.3509 10.0289L25.5939 9.94053C25.5939 9.94053 25.8328 9.85679 25.8368 9.85679L26.0757 9.76842L26.3146 9.68469L26.5575 9.59631L26.7964 9.51258L27.0394 9.4242C27.0394 9.4242 27.2782 9.34047 27.2823 9.34047L27.5192 9.2521L27.7621 9.16836L28.001 9.07998L28.2439 8.99626L28.4828 8.90788L28.7257 8.82415L28.9687 8.73577L29.2076 8.65204L29.4465 8.56366L29.6894 8.47993L29.9283 8.39155L30.1712 8.30783L30.4101 8.21945L30.649 8.13572L30.8919 8.05199L31.1308 7.96361L31.3738 7.87523L31.6126 7.79151C31.6126 7.79151 31.8515 7.70312 31.8556 7.70312L32.3354 7.53799L32.5783 7.44961L32.8213 7.36123C32.8739 7.36123 32.9508 7.31704 32.9994 7.30076C33.0642 7.27518 33.133 7.24727 33.2019 7.22633C33.4914 7.13795 33.7869 7.16121 34.0805 7.16121H34.1108L36.603 13.5687L37.1131 13.4641L37.3682 13.4106L37.6233 13.3571L37.8784 13.3036L38.1294 13.2524L38.3845 13.1989L39.1498 13.0408L39.4008 12.9873L39.6559 12.9338C39.6559 12.9338 39.9069 12.8803 39.911 12.8803L40.166 12.8291L40.4211 12.7757L40.6722 12.7222L40.9272 12.6687C40.9272 12.6687 41.1783 12.6128 41.1823 12.6128L41.4334 12.5594L41.6884 12.5059L42.1986 12.4012L42.4537 12.3477L42.7047 12.2965L42.9598 12.243L43.2109 12.1896L43.47 12.1361L43.7251 12.0826L43.9761 12.0314L44.2312 11.9779C44.2312 11.9779 44.4822 11.9244 44.4863 11.9244L44.7373 11.8709L45.5026 11.7128L46.2516 11.5546L45.8143 8.96602L51.6428 12.0616L51.6549 12.1151Z" fill="white"/>
</g>
</svg>
