<svg width="120" height="85" viewBox="0 0 120 85" fill="none" xmlns="http://www.w3.org/2000/svg">
<g opacity="0.2">
<path d="M67.96 23.7434C67.4062 23.7487 66.8707 23.6778 66.3535 23.536C66.3457 23.536 66.3378 23.5308 66.3299 23.5308L68.0598 24.4889L67.9626 23.746L67.96 23.7434ZM74.1654 17.0681L72.5248 16.1336C73.294 18.6956 73.7691 21.6329 74.0998 24.7514C74.5093 22.066 74.5198 19.5067 74.1654 17.0681ZM70.522 19.3466C70.0442 19.0001 69.3197 18.7691 68.3459 18.6536L68.0414 16.299C68.6451 16.3462 69.241 16.5379 69.8316 16.8739L70.375 15.6191C69.9944 15.4091 69.6085 15.249 69.2095 15.1388C68.8131 15.0311 68.3853 14.9786 67.9233 14.9786L67.8261 14.2358L66.7473 14.3749L66.8392 15.0941C66.4533 15.1781 66.112 15.3015 65.8102 15.4669C65.5083 15.6323 65.2537 15.8318 65.0489 16.068C64.8442 16.3069 64.6998 16.572 64.6106 16.8686C64.5239 17.1652 64.5003 17.4776 64.5423 17.8084C64.5869 18.1575 64.6814 18.4567 64.8232 18.7113C64.9649 18.966 65.1592 19.1812 65.4033 19.3545C65.6474 19.5277 65.9467 19.6668 66.2958 19.7745C66.6449 19.8795 67.0544 19.9635 67.5243 20.0186L67.8366 22.4467C67.4245 22.4336 67.0334 22.36 66.6607 22.2288C66.2905 22.0949 65.9099 21.9059 65.5188 21.6644L64.9387 22.7617L66.3194 23.5282L68.0493 24.4863L68.7895 24.8958L69.1938 24.8433L69.0336 23.6148C69.4274 23.5308 69.7739 23.4022 70.081 23.2315C70.3855 23.0635 70.6401 22.8588 70.8449 22.6225C71.0496 22.3863 71.1966 22.1186 71.2911 21.8219C71.383 21.5227 71.4066 21.2051 71.362 20.8664C71.2753 20.1971 70.9919 19.6878 70.5141 19.344L70.522 19.3466ZM59.8016 18.6378L59.4551 18.3596L52.6276 12.8419L48.7426 15.0731L45.548 16.908L43.3168 18.189L38.3766 21.0239L40.18 22.5385L40.6105 22.9008C43.3168 23.8195 45.8762 25.0008 48.2859 26.4498L52.7536 23.9062L55.0084 22.6225L59.7806 19.9031L60.0195 20.037L62.6261 21.4781C62.4633 19.9608 62.2061 18.4488 61.8281 16.9395L59.799 18.6352L59.8016 18.6378ZM62.1641 33.818C62.2402 33.3219 62.3085 32.8232 62.3741 32.3244L62.1352 32.4635C62.151 32.9124 62.1588 33.3639 62.1641 33.818ZM43.9258 27.673L36.2032 31.1406L49.6299 38.8212L58.3238 35.0623C53.6434 31.7417 48.8424 29.3005 43.9284 27.673H43.9258Z" fill="white"/>
<path d="M70.0205 39.4722L60.526 36.2173V51.1639L73.2388 43.9583V37.6453L70.0205 39.4722Z" fill="white"/>
<path d="M59.1191 36.2488L49.5406 40.3936L45.6661 38.1781V43.8166L59.1191 51.072V36.2488Z" fill="white"/>
<path fill-rule="evenodd" clip-rule="evenodd" d="M98.0842 34.9363C102.09 60.8211 87.1748 80.3062 61.269 81.1436C93.1151 88.1444 117.404 62.4827 116.606 34.0805L120 33.9256L113.01 26.0009L106.009 18.0761L99.7773 26.6125L93.5456 35.1489L98.0868 34.9363H98.0842Z" fill="white"/>
<path fill-rule="evenodd" clip-rule="evenodd" d="M40.4897 -6.17597C60.8988 -22.5899 85.2375 -19.4111 98.9189 2.60455C89.0595 -28.4829 54.6855 -36.6807 30.4938 -21.7919L28.6563 -24.6505L25.2911 -14.6257L21.9259 -4.61149L32.4363 -3.47488L42.9467 -2.34615L40.4871 -6.1786L40.4897 -6.17597Z" fill="white"/>
<path fill-rule="evenodd" clip-rule="evenodd" d="M33.7225 65.021C9.31559 55.5607 -0.105419 32.8941 12.1164 10.0332C-9.8703 34.1199 0.204325 67.9768 25.2045 81.4927L23.6479 84.5167L34.0034 82.4167L44.3694 80.3167L40.0907 70.6516L35.812 60.9865L33.7225 65.021Z" fill="white"/>
<path fill-rule="evenodd" clip-rule="evenodd" d="M86.6471 14.9918C85.5394 -2.23847 73.1705 -12.6727 56.3681 -9.52276C75.8743 -18.5658 95.1651 -5.49606 98.6957 12.9102L100.903 12.5217L97.5197 18.6195L94.1467 24.7173L88.9151 20.1079L83.6835 15.4984L86.6497 14.9918H86.6471Z" fill="white"/>
<path fill-rule="evenodd" clip-rule="evenodd" d="M56.2894 64.5459C71.4381 72.8198 86.8703 67.94 93.1912 52.0616C90.4009 73.3763 69.0467 82.6923 51.6117 75.8359L50.7455 77.907L47.4013 71.8013L44.0571 65.6852L50.7481 63.7296L57.4391 61.774L56.292 64.5459H56.2894Z" fill="white"/>
<path fill-rule="evenodd" clip-rule="evenodd" d="M30.5122 14.5954C15.5289 23.1817 11.6177 38.8843 21.8472 52.5866C5.1419 39.0523 8.3706 15.9762 23.3355 4.70716L22.0231 2.88806L28.9845 3.23719L35.9459 3.57843L34.1084 10.3062L32.2814 17.0261L30.5122 14.5954Z" fill="white"/>
<path fill-rule="evenodd" clip-rule="evenodd" d="M83.7991 30.0302L69.8789 37.934L59.7229 34.4533L58.3552 35.0465C57.0375 33.5004 55.6463 32.0829 54.1894 30.7888L59.7229 33.8758L59.9565 33.7393L60.0982 33.6553L62.1352 32.4636C62.1509 32.9124 62.1588 33.3639 62.1641 33.818C62.2402 33.3219 62.3084 32.8232 62.3741 32.3244L72.0182 26.6808L68.7974 24.8958L69.2016 24.8433L69.0415 23.6148C69.4352 23.5308 69.7817 23.4022 70.0889 23.2315C70.3933 23.0635 70.648 22.8588 70.8527 22.6226C71.0575 22.3863 71.2045 22.1186 71.299 21.8219C71.3908 21.5227 71.4145 21.2051 71.3698 20.8664C71.2832 20.1971 70.9997 19.6878 70.522 19.344C70.0442 18.9975 69.3197 18.7665 68.3459 18.651L68.0414 16.2964C68.6451 16.3436 69.241 16.5353 69.8316 16.8713L70.375 15.6165C69.9944 15.4065 69.6085 15.2464 69.2095 15.1361C68.8131 15.0285 68.3852 14.976 67.9233 14.976L67.8261 14.2332L66.7473 14.3723L66.8391 15.0915C66.4533 15.1755 66.112 15.2989 65.8102 15.4643C65.5083 15.6296 65.2537 15.8291 65.0489 16.0654C64.8442 16.3043 64.6998 16.5694 64.6105 16.866C64.5239 17.1626 64.5003 17.475 64.5423 17.8057C64.5869 18.1549 64.6814 18.4541 64.8232 18.7087C64.9649 18.9634 65.1592 19.1786 65.4033 19.3518C65.6474 19.5251 65.9466 19.6642 66.2958 19.7718C66.6449 19.8768 67.0544 19.9608 67.5243 20.016L67.8366 22.4441C67.4245 22.4309 67.0334 22.3574 66.6606 22.2262C66.2905 22.0923 65.9099 21.9033 65.5188 21.6618L64.9387 22.7591L62.6234 21.4754C62.4607 19.9582 62.2035 18.4462 61.8255 16.9369L66.7341 12.8367L72.5196 16.131C73.2887 18.693 73.7638 21.6303 74.0946 24.7488C74.504 22.0634 74.5145 19.5041 74.1602 17.0655L80.5178 20.6853L73.9003 26.203L83.7938 30.0302H83.7991Z" fill="white"/>
<path fill-rule="evenodd" clip-rule="evenodd" d="M74.1654 17.0681C73.6588 13.5533 72.3883 10.2826 70.4537 7.23499C64.5948 6.8675 58.7385 6.49738 52.8796 6.12988C55.7303 10.0122 57.9221 14.0914 59.4577 18.3596C59.6599 18.9161 59.8462 19.4752 60.0247 20.0396C61.2847 24.019 61.9882 28.1612 62.1378 32.4636C62.1536 32.9124 62.1615 33.3639 62.1667 33.8181C62.2428 33.3219 62.3111 32.8232 62.3767 32.3244C62.8466 28.6994 63.0146 25.0822 62.6313 21.4781C62.4686 19.9608 62.2113 18.4489 61.8333 16.9395C61.2532 14.598 60.3922 12.2644 59.1821 9.94133C62.5893 9.95971 65.9965 9.97809 69.4064 9.99646C70.8002 11.5977 71.7951 13.695 72.5301 16.1336C73.2992 18.6956 73.7743 21.6329 74.1051 24.7514C74.5145 22.0661 74.525 19.5067 74.1707 17.0681H74.1654Z" fill="white"/>
<path fill-rule="evenodd" clip-rule="evenodd" d="M48.7426 15.0705C48.4618 14.8106 48.173 14.556 47.8816 14.3066L53.7406 11.3798L51.9162 8.78107C48.0103 10.2379 44.1043 11.6922 40.201 13.149C42.0726 14.2804 43.8523 15.5377 45.5507 16.908C48.1363 18.9922 50.5276 21.3389 52.7562 23.9061C55.3628 26.9065 57.7463 30.2061 59.9565 33.7393L60.0982 33.6553C58.7831 29.7572 57.1583 26.0376 55.0084 22.6225C53.2891 19.8899 51.2364 17.3516 48.7426 15.0731V15.0705Z" fill="white"/>
<path fill-rule="evenodd" clip-rule="evenodd" d="M54.1868 30.7888C52.3336 29.1404 50.3675 27.694 48.2885 26.4472C45.8788 24.9982 43.3194 23.8169 40.6131 22.8982C40.4215 22.8299 40.2272 22.767 40.033 22.704L40.1852 22.5359L43.7919 18.5066L43.3221 18.1864L40.8625 16.5169L32.0767 25.3027C36.0955 25.6072 40.0461 26.3842 43.9284 27.673C48.8424 29.2979 53.6434 31.7391 58.3238 35.0623L58.3553 35.0466C57.0375 33.5005 55.6463 32.083 54.1894 30.7888H54.1868Z" fill="white"/>
</g>
</svg>
