<svg width="24" height="24" viewBox="0 0 24 24" fill="none" xmlns="http://www.w3.org/2000/svg">
<g clip-path="url(#clip0_1012_1497)">
<path d="M12.0206 0C5.39297 0 0.0206299 5.37281 0.0206299 12C0.0206299 18.6272 5.39297 24 12.0206 24C18.6483 24 24.0206 18.6272 24.0206 12C24.0206 5.37281 18.6478 0 12.0206 0Z" fill="#57B236"/>
<path d="M0.0206434 11.9999C0.0176615 13.9839 0.50885 15.9373 1.44986 17.6839C2.6484 18.0358 3.8912 18.2141 5.14033 18.2132C12.3544 18.2132 18.2025 12.365 18.2025 5.15098C18.2032 3.88281 18.0192 2.6213 17.6564 1.40613C15.9222 0.480797 13.9863 -0.00223441 12.0206 -0.000115127C5.39299 -0.000115127 0.0206434 5.3727 0.0206434 11.9999Z" fill="#6FBA47"/>
<path d="M18.8644 10.0135L11.6513 17.588C11.4548 17.7942 11.2188 17.9587 10.9572 18.0714C10.6957 18.1842 10.4141 18.243 10.1293 18.2443H10.1194C9.83619 18.2443 9.55584 18.1875 9.29502 18.0771C9.0342 17.9667 8.79823 17.805 8.60113 17.6016L4.77378 13.6585C4.57603 13.46 4.41967 13.2242 4.31378 12.9648C4.20789 12.7053 4.15457 12.4275 4.15694 12.1473C4.1593 11.8671 4.21728 11.5902 4.32753 11.3326C4.43777 11.075 4.59808 10.8419 4.79916 10.6467C5.00023 10.4516 5.23805 10.2983 5.49883 10.1958C5.75961 10.0933 6.03815 10.0436 6.31828 10.0497C6.59842 10.0557 6.87456 10.1173 7.1307 10.2309C7.38683 10.3445 7.61785 10.5078 7.81034 10.7115L10.1044 13.0749L15.7993 7.09505C15.9909 6.89379 16.2203 6.73224 16.4743 6.61963C16.7284 6.50702 17.0021 6.44556 17.28 6.43875C17.5578 6.43193 17.8342 6.47991 18.0935 6.57993C18.3528 6.67995 18.5898 6.83006 18.791 7.02169C18.9923 7.21332 19.1539 7.44271 19.2665 7.69677C19.3791 7.95083 19.4405 8.22458 19.4473 8.50239C19.4542 8.78021 19.4062 9.05664 19.3062 9.31592C19.2061 9.57519 19.056 9.81222 18.8644 10.0135Z" fill="white"/>
</g>
<defs>
<clipPath id="clip0_1012_1497">
<rect width="24" height="24" fill="white"/>
</clipPath>
</defs>
</svg>
