<svg width="24" height="24" viewBox="0 0 24 24" fill="none" xmlns="http://www.w3.org/2000/svg">
<path d="M23.1383 11.4425L20.625 10.5001L18.03 4.9865C17.9089 4.72907 17.717 4.5114 17.4769 4.35888C17.2367 4.20636 16.9581 4.12529 16.6736 4.12512H1.125C0.926088 4.12512 0.735322 4.20414 0.59467 4.34479C0.454018 4.48544 0.375 4.67621 0.375 4.87512V17.2501C0.375 17.449 0.454018 17.6398 0.59467 17.7805C0.735322 17.9211 0.926088 18.0001 1.125 18.0001H22.875C23.0739 18.0001 23.2647 17.9211 23.4053 17.7805C23.546 17.6398 23.625 17.449 23.625 17.2501V12.1449C23.625 11.9922 23.5784 11.8431 23.4914 11.7176C23.4045 11.5921 23.2812 11.4961 23.1383 11.4425Z" fill="#E6F0FF"/>
<path d="M0.375 15.7501H3.375V18.0001H1.125C0.926088 18.0001 0.735322 17.9211 0.59467 17.7805C0.454018 17.6398 0.375 17.449 0.375 17.2501V15.7501ZM20.625 15.7501H23.625V17.2501C23.625 17.449 23.546 17.6398 23.4053 17.7805C23.2647 17.9211 23.0739 18.0001 22.875 18.0001H20.625V15.7501Z" fill="#536170"/>
<path d="M4.875 19.8751C6.32475 19.8751 7.5 18.6999 7.5 17.2501C7.5 15.8004 6.32475 14.6251 4.875 14.6251C3.42525 14.6251 2.25 15.8004 2.25 17.2501C2.25 18.6999 3.42525 19.8751 4.875 19.8751Z" fill="#748793"/>
<path d="M4.875 18.3751C5.49632 18.3751 6 17.8714 6 17.2501C6 16.6288 5.49632 16.1251 4.875 16.1251C4.25368 16.1251 3.75 16.6288 3.75 17.2501C3.75 17.8714 4.25368 18.3751 4.875 18.3751Z" fill="#657482"/>
<path d="M18.75 19.8751C20.1997 19.8751 21.375 18.6999 21.375 17.2501C21.375 15.8004 20.1997 14.6251 18.75 14.6251C17.3003 14.6251 16.125 15.8004 16.125 17.2501C16.125 18.6999 17.3003 19.8751 18.75 19.8751Z" fill="#748793"/>
<path d="M18.75 18.3751C19.3713 18.3751 19.875 17.8714 19.875 17.2501C19.875 16.6288 19.3713 16.1251 18.75 16.1251C18.1287 16.1251 17.625 16.6288 17.625 17.2501C17.625 17.8714 18.1287 18.3751 18.75 18.3751Z" fill="#657482"/>
<path d="M18.3307 5.62512H12.75C12.6505 5.62512 12.5552 5.66463 12.4848 5.73496C12.4145 5.80528 12.375 5.90067 12.375 6.00012V10.1251C12.375 10.2246 12.4145 10.32 12.4848 10.3903C12.5552 10.4606 12.6505 10.5001 12.75 10.5001H20.625L18.3307 5.62512ZM22.125 12.3751H23.625V14.2501H22.125V12.3751ZM0.375 10.8751H2.625V13.8751H0.375V10.8751Z" fill="#7DC1FF"/>
<path d="M0.375 10.8751H2.625V12.3751H0.375V10.8751Z" fill="#66A8FF"/>
<path d="M23.2687 11.09L20.8995 10.2024L18.3694 4.82862C18.2176 4.50668 17.9776 4.23443 17.6772 4.04351C17.3768 3.85259 17.0284 3.75086 16.6725 3.75012H1.125C0.50475 3.75012 0 4.25487 0 4.87512V17.2501C0 17.8704 0.50475 18.3751 1.125 18.3751H2.09588C2.54213 19.4731 3.61875 20.2501 4.875 20.2501C6.13125 20.2501 7.20787 19.4731 7.65412 18.3751H15.9709C16.4171 19.4731 17.4937 20.2501 18.75 20.2501C20.0063 20.2501 21.0829 19.4731 21.5291 18.3751H22.875C23.4953 18.3751 24 17.8704 24 17.2501V12.1464C24 11.6757 23.7143 11.2614 23.2687 11.09ZM23.25 13.8751H22.5V12.7501H23.25V13.8751ZM20.034 10.1251H12.75V6.00012H18.0922L19.443 8.86887L20.034 10.1251ZM0.75 12.7501H2.25V13.5001H0.75V12.7501ZM2.25 12.0001H0.75V11.2501H2.25V12.0001ZM1.125 17.6251C0.918375 17.6251 0.75 17.4567 0.75 17.2501V16.1251H2.09588C1.95016 16.4823 1.87515 16.8644 1.875 17.2501C1.875 17.3776 1.8855 17.5021 1.90125 17.6251H1.125ZM4.875 19.5001C3.63412 19.5001 2.625 18.491 2.625 17.2501C2.625 16.0092 3.63412 15.0001 4.875 15.0001C6.11588 15.0001 7.125 16.0092 7.125 17.2501C7.125 18.491 6.11588 19.5001 4.875 19.5001ZM7.84875 17.6251C7.8645 17.5021 7.875 17.3776 7.875 17.2501C7.875 15.596 6.52912 14.2501 4.875 14.2501C4.42585 14.2503 3.98249 14.3515 3.57775 14.5462C3.17302 14.741 2.81728 15.0243 2.53688 15.3751H0.75V14.2501H2.625C2.72446 14.2501 2.81984 14.2106 2.89016 14.1403C2.96049 14.07 3 13.9746 3 13.8751V10.8751C3 10.7757 2.96049 10.6803 2.89016 10.61C2.81984 10.5396 2.72446 10.5001 2.625 10.5001H0.75V4.87512C0.75 4.6685 0.918375 4.50012 1.125 4.50012H16.6725C16.8861 4.50058 17.0952 4.56164 17.2755 4.67621C17.4558 4.79078 17.5999 4.95417 17.691 5.14737L17.7394 5.25012H12.375C12.2755 5.25012 12.1802 5.28963 12.1098 5.35996C12.0395 5.43028 12 5.52567 12 5.62512V10.5001C12 10.5996 12.0395 10.695 12.1098 10.7653C12.1802 10.8356 12.2755 10.8751 12.375 10.8751H20.5571L23.0029 11.7912C23.1034 11.8299 23.1769 11.9071 23.2166 12.0001H22.125C22.0255 12.0001 21.9302 12.0396 21.8598 12.11C21.7895 12.1803 21.75 12.2757 21.75 12.3751V14.2501C21.75 14.3496 21.7895 14.445 21.8598 14.5153C21.9302 14.5856 22.0255 14.6251 22.125 14.6251H23.25V15.3751H21.0881C20.8077 15.0243 20.452 14.741 20.0472 14.5462C19.6425 14.3515 19.1992 14.2503 18.75 14.2501C17.0959 14.2501 15.75 15.596 15.75 17.2501C15.75 17.3776 15.7605 17.5021 15.7762 17.6251H7.84875ZM18.75 19.5001C17.5091 19.5001 16.5 18.491 16.5 17.2501C16.5 16.0092 17.5091 15.0001 18.75 15.0001C19.9909 15.0001 21 16.0092 21 17.2501C21 18.491 19.9909 19.5001 18.75 19.5001ZM22.875 17.6251H21.7238C21.7395 17.5021 21.75 17.3776 21.75 17.2501C21.7499 16.8644 21.6748 16.4823 21.5291 16.1251H23.25V17.2501C23.25 17.4567 23.082 17.6251 22.875 17.6251Z" fill="#292930"/>
<path d="M4.875 15.7501C4.04775 15.7501 3.375 16.4229 3.375 17.2501C3.375 18.0774 4.04775 18.7501 4.875 18.7501C5.70225 18.7501 6.375 18.0774 6.375 17.2501C6.375 16.4229 5.70225 15.7501 4.875 15.7501ZM4.875 18.0001C4.46137 18.0001 4.125 17.6637 4.125 17.2501C4.125 16.8365 4.46137 16.5001 4.875 16.5001C5.28863 16.5001 5.625 16.8365 5.625 17.2501C5.625 17.6637 5.28863 18.0001 4.875 18.0001ZM18.75 15.7501C17.9227 15.7501 17.25 16.4229 17.25 17.2501C17.25 18.0774 17.9227 18.7501 18.75 18.7501C19.5772 18.7501 20.25 18.0774 20.25 17.2501C20.25 16.4229 19.5772 15.7501 18.75 15.7501ZM18.75 18.0001C18.3364 18.0001 18 17.6637 18 17.2501C18 16.8365 18.3364 16.5001 18.75 16.5001C19.1636 16.5001 19.5 16.8365 19.5 17.2501C19.5 17.6637 19.1636 18.0001 18.75 18.0001Z" fill="#292930"/>
</svg>
