<svg width="24" height="24" viewBox="0 0 24 24" fill="none" xmlns="http://www.w3.org/2000/svg">
<g clip-path="url(#clip0_1114_2043)">
<path d="M5.70941 17.7235C6.89802 18.2114 7.83849 18.9984 8.41487 19.8904C8.53557 20.0771 8.35355 20.5205 8.13642 20.5687C7.09957 20.7984 5.87745 20.6976 4.68884 20.2097C3.50023 19.7217 2.55976 18.9348 1.98338 18.0428C1.86268 17.8561 2.0447 17.4126 2.26183 17.3645C3.29863 17.1348 4.5208 17.2356 5.70941 17.7235Z" fill="url(#paint0_linear_1114_2043)"/>
<path d="M5.70941 17.7235C6.89802 18.2114 7.83849 18.9984 8.41487 19.8904C8.53557 20.0771 8.35355 20.5205 8.13642 20.5687C7.09957 20.7984 5.87745 20.6976 4.68884 20.2097C3.50023 19.7217 2.55976 18.9348 1.98338 18.0428C1.86268 17.8561 2.0447 17.4126 2.26183 17.3645C3.29863 17.1348 4.5208 17.2356 5.70941 17.7235Z" fill="url(#paint1_linear_1114_2043)"/>
<path d="M6.31385 16.0383C7.4779 16.9609 8.27056 18.1362 8.62524 19.3115C8.6995 19.5577 8.35536 19.9919 8.09875 19.9758C6.87348 19.899 5.54821 19.3957 4.38416 18.4731C3.22011 17.5505 2.42745 16.3752 2.07277 15.1999C1.99851 14.9537 2.34265 14.5195 2.59926 14.5356C3.82454 14.6125 5.14981 15.1157 6.31385 16.0383Z" fill="url(#paint2_linear_1114_2043)"/>
<path d="M6.31385 16.0383C7.4779 16.9609 8.27056 18.1362 8.62524 19.3115C8.6995 19.5577 8.35536 19.9919 8.09875 19.9758C6.87348 19.899 5.54821 19.3957 4.38416 18.4731C3.22011 17.5505 2.42745 16.3752 2.07277 15.1999C1.99851 14.9537 2.34265 14.5195 2.59926 14.5356C3.82454 14.6125 5.14981 15.1157 6.31385 16.0383Z" fill="url(#paint3_linear_1114_2043)"/>
<path d="M7.48887 13.4415C8.50882 15.0071 8.98477 16.7258 8.93828 18.2695C8.92854 18.5928 8.34449 18.9733 8.04487 18.8516C6.614 18.2703 5.23418 17.1405 4.21423 15.5749C3.19428 14.0093 2.71833 12.2906 2.76482 10.7469C2.77456 10.4236 3.35861 10.0431 3.65823 10.1648C5.0891 10.7461 6.46891 11.8759 7.48887 13.4415Z" fill="url(#paint4_linear_1114_2043)"/>
<path d="M2.93896 12.5616C3.15807 13.5727 3.58132 14.6033 4.21435 15.5749C5.23431 17.1405 6.61407 18.2704 8.04499 18.8516C8.34466 18.9733 8.92866 18.5928 8.9384 18.2695C8.98494 16.7258 8.50899 15.0071 7.48899 13.4415C6.88838 12.5196 6.16296 11.749 5.37586 11.1523L2.93896 12.5616Z" fill="url(#paint5_linear_1114_2043)"/>
<path d="M18.2906 17.7235C17.102 18.2114 16.1616 18.9984 15.5852 19.8904C15.4645 20.0771 15.6465 20.5205 15.8636 20.5687C16.9005 20.7984 18.1226 20.6976 19.3112 20.2097C20.4998 19.7217 21.4403 18.9348 22.0167 18.0428C22.1374 17.8561 21.9554 17.4126 21.7382 17.3645C20.7014 17.1348 19.4793 17.2356 18.2906 17.7235Z" fill="url(#paint6_linear_1114_2043)"/>
<path d="M18.2906 17.7235C17.102 18.2114 16.1616 18.9984 15.5852 19.8904C15.4645 20.0771 15.6465 20.5205 15.8636 20.5687C16.9005 20.7984 18.1226 20.6976 19.3112 20.2097C20.4998 19.7217 21.4403 18.9348 22.0167 18.0428C22.1374 17.8561 21.9554 17.4126 21.7382 17.3645C20.7014 17.1348 19.4793 17.2356 18.2906 17.7235Z" fill="url(#paint7_linear_1114_2043)"/>
<path d="M17.6862 16.0383C16.5221 16.9609 15.7295 18.1362 15.3748 19.3115C15.3005 19.5577 15.6447 19.9919 15.9013 19.9758C17.1265 19.899 18.4518 19.3957 19.6159 18.4731C20.7799 17.5505 21.5726 16.3752 21.9272 15.1999C22.0015 14.9537 21.6574 14.5195 21.4007 14.5356C20.1755 14.6125 18.8502 15.1157 17.6862 16.0383Z" fill="url(#paint8_linear_1114_2043)"/>
<path d="M17.6862 16.0383C16.5221 16.9609 15.7295 18.1362 15.3748 19.3115C15.3005 19.5577 15.6447 19.9919 15.9013 19.9758C17.1265 19.899 18.4518 19.3957 19.6159 18.4731C20.7799 17.5505 21.5726 16.3752 21.9272 15.1999C22.0015 14.9537 21.6574 14.5195 21.4007 14.5356C20.1755 14.6125 18.8502 15.1157 17.6862 16.0383Z" fill="url(#paint9_linear_1114_2043)"/>
<path d="M16.5111 13.4415C15.4912 15.0071 15.0152 16.7258 15.0617 18.2695C15.0714 18.5928 15.6555 18.9733 15.9551 18.8516C17.386 18.2703 18.7658 17.1405 19.7857 15.5749C20.8057 14.0093 21.2816 12.2906 21.2352 10.7469C21.2254 10.4236 20.6414 10.0431 20.3417 10.1648C18.9109 10.7461 17.5311 11.8759 16.5111 13.4415Z" fill="url(#paint10_linear_1114_2043)"/>
<path d="M21.0611 12.5616C20.842 13.5727 20.4188 14.6033 19.7857 15.5749C18.7658 17.1405 17.386 18.2704 15.9551 18.8516C15.6554 18.9733 15.0714 18.5928 15.0617 18.2695C15.0152 16.7258 15.4911 15.0071 16.5111 13.4415C17.1117 12.5196 17.8371 11.749 18.6242 11.1523L21.0611 12.5616Z" fill="url(#paint11_linear_1114_2043)"/>
<path d="M11.9999 24.0004C16.133 24.0004 19.4835 20.6498 19.4835 16.5168C19.4835 12.3837 16.133 9.0332 11.9999 9.0332C7.86687 9.0332 4.51636 12.3837 4.51636 16.5168C4.51636 20.6498 7.86687 24.0004 11.9999 24.0004Z" fill="url(#paint12_linear_1114_2043)"/>
<path d="M12.0001 22.4816C15.2944 22.4816 17.965 19.811 17.965 16.5167C17.965 13.2224 15.2944 10.5518 12.0001 10.5518C8.70575 10.5518 6.03516 13.2224 6.03516 16.5167C6.03516 19.811 8.70575 22.4816 12.0001 22.4816Z" fill="url(#paint13_linear_1114_2043)"/>
<path d="M12.0001 21.6374C14.8283 21.6374 17.121 19.3447 17.121 16.5164C17.121 13.6882 14.8283 11.3955 12.0001 11.3955C9.17187 11.3955 6.87915 13.6882 6.87915 16.5164C6.87915 19.3447 9.17187 21.6374 12.0001 21.6374Z" fill="url(#paint14_linear_1114_2043)"/>
<path d="M4.51636 16.5166C4.51636 20.6496 7.86685 24.0001 11.9999 24.0001C16.133 24.0001 19.4835 20.6496 19.4835 16.5166C19.4835 16.4875 19.4828 16.4587 19.4824 16.4297H4.51744C4.51711 16.4587 4.51636 16.4875 4.51636 16.5166Z" fill="url(#paint15_linear_1114_2043)"/>
<path d="M14.0989 23.7009C16.4569 23.0132 18.3334 21.1965 19.1039 18.8749L15.459 15.2301L14.6373 15.2704L12.4196 13.0527L9.7168 19.3189L14.0989 23.7009Z" fill="url(#paint16_linear_1114_2043)"/>
<path d="M15.0685 14.8904L13.6009 14.5358C13.4643 14.5028 13.345 14.42 13.2663 14.3037L12.4203 13.0531C12.318 12.9019 12.1612 12.8207 11.9999 12.8076C11.8386 12.8207 11.6818 12.9019 11.5795 13.0531L10.7334 14.3037C10.6547 14.4201 10.5354 14.5028 10.3989 14.5358L8.93127 14.8904C8.53315 14.9866 8.36727 15.4617 8.61894 15.7848L9.54689 16.9759C9.63321 17.0867 9.67507 17.2257 9.66426 17.3658L9.54798 18.8711C9.51645 19.2795 9.91706 19.5841 10.3021 19.4446L11.7217 18.9301C11.8107 18.898 11.9064 18.8889 11.9999 18.9036C12.0934 18.889 12.189 18.8981 12.2781 18.9301L13.6976 19.4446C14.0827 19.5841 14.4833 19.2795 14.4518 18.8711L14.3355 17.3658C14.3247 17.2257 14.3666 17.0867 14.4529 16.9759L15.3808 15.7848C15.6325 15.4617 15.4666 14.9866 15.0685 14.8904Z" fill="url(#paint17_linear_1114_2043)"/>
<path d="M12.2782 18.9301L13.6977 19.4446C14.0828 19.5841 14.4834 19.2795 14.4519 18.8711L14.3356 17.3658C14.3248 17.2257 14.3667 17.0867 14.453 16.9759L15.3809 15.7848C15.6327 15.4618 15.4667 14.9866 15.0686 14.8904L13.601 14.5358C13.4645 14.5028 13.3452 14.42 13.2664 14.3037L12.4204 13.0531C12.3181 12.9019 12.1613 12.8207 12 12.8076V18.9036C12.0935 18.8889 12.1892 18.898 12.2782 18.9301Z" fill="url(#paint18_linear_1114_2043)"/>
<path d="M15.0685 14.8898L13.6009 14.5353C13.5512 14.5232 13.5034 14.5045 13.4588 14.4795L9.71753 19.3187C9.86431 19.4605 10.0857 19.5225 10.3022 19.4441L11.7217 18.9296C11.8108 18.8975 11.9064 18.8884 11.9999 18.9031C12.0934 18.8885 12.1891 18.8976 12.2781 18.9296L13.6977 19.4441C14.0827 19.5836 14.4834 19.279 14.4518 18.8706L14.3356 17.3653C14.3247 17.2252 14.3666 17.0862 14.4529 16.9754L15.3809 15.7843C15.6325 15.4612 15.4667 14.986 15.0685 14.8898Z" fill="url(#paint19_linear_1114_2043)"/>
<path d="M8.93127 14.8898L10.3989 14.5353C10.4486 14.5232 10.4964 14.5045 10.541 14.4795L14.2823 19.3187C14.1355 19.4605 13.9141 19.5225 13.6976 19.4441L12.2781 18.9296C12.1891 18.8975 12.0934 18.8884 11.9999 18.9031C11.9064 18.8885 11.8107 18.8976 11.7217 18.9296L10.3021 19.4441C9.91711 19.5836 9.51645 19.279 9.54798 18.8706L9.66426 17.3653C9.67508 17.2252 9.6332 17.0862 9.54689 16.9754L8.61894 15.7843C8.36727 15.4612 8.53315 14.986 8.93127 14.8898Z" fill="url(#paint20_linear_1114_2043)"/>
<path d="M8.54077 15.2305C8.47099 15.4065 8.48774 15.6162 8.61908 15.7848L9.54703 16.9759C9.63335 17.0867 9.67521 17.2257 9.6644 17.3658L9.54812 18.8711C9.51659 19.2795 9.9172 19.5841 10.3023 19.4445L11.7218 18.9301C11.8108 18.898 11.9065 18.8889 12 18.9036C12.0935 18.8889 12.1892 18.898 12.2782 18.9301L13.6978 19.4445C14.0828 19.5841 14.4835 19.2795 14.4519 18.8711L14.3356 17.3658C14.3299 17.2887 14.34 17.2114 14.3654 17.1384L8.54077 15.2305Z" fill="url(#paint21_linear_1114_2043)"/>
<path d="M15.4598 15.2305C15.5296 15.4065 15.5129 15.6162 15.3815 15.7848L14.4535 16.9759C14.3672 17.0867 14.3253 17.2257 14.3362 17.3658L14.4524 18.8711C14.484 19.2795 14.0833 19.5841 13.6983 19.4445L12.2787 18.9301C12.1897 18.898 12.094 18.8889 12.0005 18.9036C11.907 18.8889 11.8114 18.898 11.7223 18.9301L10.3028 19.4445C9.91775 19.5841 9.51709 19.2795 9.54862 18.8711L9.66491 17.3658C9.67069 17.2887 9.66055 17.2114 9.63512 17.1384L15.4598 15.2305Z" fill="url(#paint22_linear_1114_2043)"/>
<path d="M12 9.0332C11.9689 9.0332 11.9381 9.034 11.9071 9.03438L10.7522 10.1893L19.1833 18.6204C19.3829 17.937 19.484 17.2287 19.4835 16.5167C19.4835 12.3837 16.133 9.0332 12 9.0332Z" fill="url(#paint23_linear_1114_2043)"/>
<path d="M7.48242 0.157227V4.11017L12.0001 8.62782L16.5177 4.11017V0.157227H7.48242Z" fill="url(#paint24_linear_1114_2043)"/>
<path d="M7.48242 0.157227V1.38744L11.985 5.88998C11.989 5.89399 11.9944 5.89624 12.0001 5.89624C12.0057 5.89624 12.0112 5.89399 12.0152 5.88998L16.5177 1.38744V0.157227H7.48242Z" fill="url(#paint25_linear_1114_2043)"/>
<path d="M7.48242 0.157227V1.38744L11.985 5.88998C11.989 5.89399 11.9944 5.89624 12.0001 5.89624C12.0057 5.89624 12.0112 5.89399 12.0152 5.88998L16.5177 1.38744V0.157227H7.48242Z" fill="url(#paint26_linear_1114_2043)"/>
<path d="M12.0001 6.60184C11.9046 6.60201 11.81 6.58332 11.7217 6.54682C11.6335 6.51033 11.5533 6.45675 11.4859 6.38918L7.48242 2.38574V4.11026L12.0001 8.62791L16.5177 4.11026V2.38574L12.5143 6.38918C12.4468 6.45674 12.3666 6.51031 12.2784 6.54681C12.1901 6.5833 12.0956 6.602 12.0001 6.60184Z" fill="url(#paint27_linear_1114_2043)"/>
<path d="M12.0001 6.60184C11.9046 6.60201 11.81 6.58332 11.7217 6.54682C11.6335 6.51033 11.5533 6.45675 11.4859 6.38918L7.48242 2.38574V4.11026L12.0001 8.62791L16.5177 4.11026V2.38574L12.5143 6.38918C12.4468 6.45674 12.3666 6.51031 12.2784 6.54681C12.1901 6.5833 12.0956 6.602 12.0001 6.60184Z" fill="url(#paint28_linear_1114_2043)"/>
<path d="M12.0001 6.60184C12.1863 6.60184 12.3725 6.53097 12.5143 6.38918L16.5177 2.38574V4.11026L12.0001 8.62791L7.48242 4.11026V2.38574L11.4859 6.38918C11.5533 6.45674 11.6335 6.51031 11.7218 6.5468C11.81 6.5833 11.9046 6.602 12.0001 6.60184Z" fill="url(#paint29_linear_1114_2043)"/>
<path d="M11.5045 7.60165L7.66011 3.75723C7.37183 3.46895 6.9044 3.46895 6.61611 3.75723C6.32783 4.04551 6.32783 4.51294 6.61611 4.80123L11.9999 10.1851L17.3838 4.80127C17.6721 4.51299 17.6721 4.04556 17.3838 3.75727C17.0955 3.46899 16.6281 3.46899 16.3398 3.75727L12.4954 7.6017C12.2217 7.8753 11.7781 7.8753 11.5045 7.60165Z" fill="url(#paint30_linear_1114_2043)"/>
<path d="M6.61621 3.76598L11.4332 8.58297C11.7463 8.89605 12.2539 8.89605 12.567 8.58297L17.3839 3.76598C17.3853 3.76457 17.3865 3.76302 17.3879 3.7616C17.3865 3.76019 17.3853 3.75864 17.3839 3.75723C17.0956 3.46895 16.6282 3.46895 16.3399 3.75723L12.4955 7.60165C12.2219 7.87525 11.7783 7.87525 11.5047 7.60165L7.66026 3.75723C7.37198 3.46895 6.90454 3.46895 6.61626 3.75723C6.61485 3.75864 6.61372 3.76019 6.6123 3.7616C6.61367 3.76302 6.6148 3.76457 6.61621 3.76598Z" fill="url(#paint31_linear_1114_2043)"/>
<path d="M11.9999 10.1852L15.8004 6.38477H13.7123L12.4953 7.60175C12.2217 7.87535 11.7781 7.87535 11.5045 7.60175L10.2875 6.38477H8.19946L11.9999 10.1852Z" fill="url(#paint32_linear_1114_2043)"/>
<path d="M11.5293 9.71372L11.9999 10.1843L16.8199 5.36426H14.7319L12.4953 7.60082C12.2297 7.86647 11.8043 7.87339 11.5293 7.62327V9.71372Z" fill="url(#paint33_linear_1114_2043)"/>
<path d="M12 10.706C12.9745 10.706 13.7646 9.91594 13.7646 8.94137C13.7646 7.9668 12.9745 7.17676 12 7.17676C11.0254 7.17676 10.2354 7.9668 10.2354 8.94137C10.2354 9.91594 11.0254 10.706 12 10.706Z" fill="url(#paint34_linear_1114_2043)"/>
<path d="M12 9.95303C12.5587 9.95303 13.0116 9.50009 13.0116 8.94136C13.0116 8.38263 12.5587 7.92969 12 7.92969C11.4412 7.92969 10.9883 8.38263 10.9883 8.94136C10.9883 9.50009 11.4412 9.95303 12 9.95303Z" fill="url(#paint35_linear_1114_2043)"/>
<path d="M17.2001 1.75685H6.79987C6.50105 1.75685 6.25879 1.51459 6.25879 1.21576V0.541082C6.25879 0.242259 6.50105 0 6.79987 0H17.2001C17.4989 0 17.7411 0.242259 17.7411 0.541082V1.21581C17.7411 1.51464 17.4989 1.75685 17.2001 1.75685Z" fill="url(#paint36_linear_1114_2043)"/>
</g>
<defs>
<linearGradient id="paint0_linear_1114_2043" x1="4.34103" y1="16.7243" x2="5.19121" y2="18.9423" gradientUnits="userSpaceOnUse">
<stop stop-color="#E6E6E6"/>
<stop offset="1" stop-color="#999999"/>
</linearGradient>
<linearGradient id="paint1_linear_1114_2043" x1="3.89958" y1="17.8828" x2="5.76028" y2="19.4306" gradientUnits="userSpaceOnUse">
<stop stop-color="#766E6E" stop-opacity="0"/>
<stop offset="0.281" stop-color="#716B6B" stop-opacity="0.281"/>
<stop offset="0.571" stop-color="#656060" stop-opacity="0.571"/>
<stop offset="0.864" stop-color="#514F4F" stop-opacity="0.864"/>
<stop offset="1" stop-color="#444444"/>
</linearGradient>
<linearGradient id="paint2_linear_1114_2043" x1="3.38274" y1="14.7715" x2="5.16527" y2="17.0202" gradientUnits="userSpaceOnUse">
<stop stop-color="#E6E6E6"/>
<stop offset="1" stop-color="#999999"/>
</linearGradient>
<linearGradient id="paint3_linear_1114_2043" x1="3.82063" y1="16.8704" x2="5.51533" y2="17.2947" gradientUnits="userSpaceOnUse">
<stop stop-color="#766E6E" stop-opacity="0"/>
<stop offset="0.281" stop-color="#716B6B" stop-opacity="0.281"/>
<stop offset="0.571" stop-color="#656060" stop-opacity="0.571"/>
<stop offset="0.864" stop-color="#514F4F" stop-opacity="0.864"/>
<stop offset="1" stop-color="#444444"/>
</linearGradient>
<linearGradient id="paint4_linear_1114_2043" x1="5.72964" y1="11.9284" x2="5.91288" y2="15.7397" gradientUnits="userSpaceOnUse">
<stop stop-color="#E6E6E6"/>
<stop offset="1" stop-color="#999999"/>
</linearGradient>
<linearGradient id="paint5_linear_1114_2043" x1="5.44447" y1="13.9007" x2="6.55196" y2="15.5387" gradientUnits="userSpaceOnUse">
<stop stop-color="#766E6E" stop-opacity="0"/>
<stop offset="0.281" stop-color="#716B6B" stop-opacity="0.281"/>
<stop offset="0.571" stop-color="#656060" stop-opacity="0.571"/>
<stop offset="0.864" stop-color="#514F4F" stop-opacity="0.864"/>
<stop offset="1" stop-color="#444444"/>
</linearGradient>
<linearGradient id="paint6_linear_1114_2043" x1="19.6605" y1="16.7228" x2="18.8094" y2="18.9401" gradientUnits="userSpaceOnUse">
<stop stop-color="#E6E6E6"/>
<stop offset="1" stop-color="#999999"/>
</linearGradient>
<linearGradient id="paint7_linear_1114_2043" x1="20.1014" y1="17.8813" x2="18.2402" y2="19.4281" gradientUnits="userSpaceOnUse">
<stop stop-color="#766E6E" stop-opacity="0"/>
<stop offset="0.281" stop-color="#716B6B" stop-opacity="0.281"/>
<stop offset="0.571" stop-color="#656060" stop-opacity="0.571"/>
<stop offset="0.864" stop-color="#514F4F" stop-opacity="0.864"/>
<stop offset="1" stop-color="#444444"/>
</linearGradient>
<linearGradient id="paint8_linear_1114_2043" x1="20.6195" y1="14.7707" x2="18.8362" y2="17.0183" gradientUnits="userSpaceOnUse">
<stop stop-color="#E6E6E6"/>
<stop offset="1" stop-color="#999999"/>
</linearGradient>
<linearGradient id="paint9_linear_1114_2043" x1="20.1807" y1="16.8692" x2="18.486" y2="17.2926" gradientUnits="userSpaceOnUse">
<stop stop-color="#766E6E" stop-opacity="0"/>
<stop offset="0.281" stop-color="#716B6B" stop-opacity="0.281"/>
<stop offset="0.571" stop-color="#656060" stop-opacity="0.571"/>
<stop offset="0.864" stop-color="#514F4F" stop-opacity="0.864"/>
<stop offset="1" stop-color="#444444"/>
</linearGradient>
<linearGradient id="paint10_linear_1114_2043" x1="18.2742" y1="11.927" x2="18.0892" y2="15.7377" gradientUnits="userSpaceOnUse">
<stop stop-color="#E6E6E6"/>
<stop offset="1" stop-color="#999999"/>
</linearGradient>
<linearGradient id="paint11_linear_1114_2043" x1="18.5585" y1="13.8991" x2="17.4505" y2="15.5363" gradientUnits="userSpaceOnUse">
<stop stop-color="#766E6E" stop-opacity="0"/>
<stop offset="0.281" stop-color="#716B6B" stop-opacity="0.281"/>
<stop offset="0.571" stop-color="#656060" stop-opacity="0.571"/>
<stop offset="0.864" stop-color="#514F4F" stop-opacity="0.864"/>
<stop offset="1" stop-color="#444444"/>
</linearGradient>
<linearGradient id="paint12_linear_1114_2043" x1="7.386" y1="11.9029" x2="15.2785" y2="19.7954" gradientUnits="userSpaceOnUse">
<stop stop-color="#E6E6E6"/>
<stop offset="1" stop-color="#999999"/>
</linearGradient>
<linearGradient id="paint13_linear_1114_2043" x1="15.8743" y1="20.3909" x2="8.0129" y2="12.5295" gradientUnits="userSpaceOnUse">
<stop stop-color="#E6E6E6"/>
<stop offset="1" stop-color="#999999"/>
</linearGradient>
<linearGradient id="paint14_linear_1114_2043" x1="8.27732" y1="12.7937" x2="14.4052" y2="18.9215" gradientUnits="userSpaceOnUse">
<stop stop-color="#E6E6E6"/>
<stop offset="1" stop-color="#999999"/>
</linearGradient>
<linearGradient id="paint15_linear_1114_2043" x1="11.9999" y1="18.7061" x2="11.9999" y2="23.6181" gradientUnits="userSpaceOnUse">
<stop stop-color="#766E6E" stop-opacity="0"/>
<stop offset="0.281" stop-color="#716B6B" stop-opacity="0.281"/>
<stop offset="0.571" stop-color="#656060" stop-opacity="0.571"/>
<stop offset="0.864" stop-color="#514F4F" stop-opacity="0.864"/>
<stop offset="1" stop-color="#444444"/>
</linearGradient>
<linearGradient id="paint16_linear_1114_2043" x1="16.482" y1="20.4054" x2="10.3016" y2="16.5152" gradientUnits="userSpaceOnUse">
<stop stop-color="#766E6E" stop-opacity="0"/>
<stop offset="0.281" stop-color="#716B6B" stop-opacity="0.281"/>
<stop offset="0.571" stop-color="#656060" stop-opacity="0.571"/>
<stop offset="0.864" stop-color="#514F4F" stop-opacity="0.864"/>
<stop offset="1" stop-color="#444444"/>
</linearGradient>
<linearGradient id="paint17_linear_1114_2043" x1="10.441" y1="15.0941" x2="13.2521" y2="17.9051" gradientUnits="userSpaceOnUse">
<stop stop-color="#F9F5F3"/>
<stop offset="1" stop-color="#D8E8F0"/>
</linearGradient>
<linearGradient id="paint18_linear_1114_2043" x1="13.6844" y1="15.8605" x2="9.79906" y2="17.4667" gradientUnits="userSpaceOnUse">
<stop stop-color="#678D98" stop-opacity="0"/>
<stop offset="0.996" stop-color="#678D98" stop-opacity="0.996"/>
<stop offset="1" stop-color="#678D98"/>
</linearGradient>
<linearGradient id="paint19_linear_1114_2043" x1="12.6699" y1="17.2388" x2="10.5427" y2="16.3271" gradientUnits="userSpaceOnUse">
<stop stop-color="#678D98" stop-opacity="0"/>
<stop offset="0.996" stop-color="#678D98" stop-opacity="0.996"/>
<stop offset="1" stop-color="#678D98"/>
</linearGradient>
<linearGradient id="paint20_linear_1114_2043" x1="11.33" y1="17.2388" x2="13.4571" y2="16.3271" gradientUnits="userSpaceOnUse">
<stop stop-color="#678D98" stop-opacity="0"/>
<stop offset="0.996" stop-color="#678D98" stop-opacity="0.996"/>
<stop offset="1" stop-color="#678D98"/>
</linearGradient>
<linearGradient id="paint21_linear_1114_2043" x1="11.3774" y1="17.346" x2="12.7448" y2="15.1483" gradientUnits="userSpaceOnUse">
<stop stop-color="#678D98" stop-opacity="0"/>
<stop offset="0.996" stop-color="#678D98" stop-opacity="0.996"/>
<stop offset="1" stop-color="#678D98"/>
</linearGradient>
<linearGradient id="paint22_linear_1114_2043" x1="12.5178" y1="17.0684" x2="12.4038" y2="14.9196" gradientUnits="userSpaceOnUse">
<stop stop-color="#678D98" stop-opacity="0"/>
<stop offset="0.996" stop-color="#678D98" stop-opacity="0.996"/>
<stop offset="1" stop-color="#678D98"/>
</linearGradient>
<linearGradient id="paint23_linear_1114_2043" x1="15.6877" y1="13.3553" x2="12.8014" y2="8.30431" gradientUnits="userSpaceOnUse">
<stop stop-color="#766E6E" stop-opacity="0"/>
<stop offset="0.281" stop-color="#716B6B" stop-opacity="0.281"/>
<stop offset="0.571" stop-color="#656060" stop-opacity="0.571"/>
<stop offset="0.864" stop-color="#514F4F" stop-opacity="0.864"/>
<stop offset="1" stop-color="#444444"/>
</linearGradient>
<linearGradient id="paint24_linear_1114_2043" x1="12.3348" y1="2.66749" x2="14.1936" y2="5.63219" gradientUnits="userSpaceOnUse">
<stop stop-color="#F9F5F3"/>
<stop offset="1" stop-color="#D8E8F0"/>
</linearGradient>
<linearGradient id="paint25_linear_1114_2043" x1="10.4807" y1="-0.969973" x2="16.2532" y2="5.6496" gradientUnits="userSpaceOnUse">
<stop stop-color="#B3DAFE"/>
<stop offset="1" stop-color="#0182FC"/>
</linearGradient>
<linearGradient id="paint26_linear_1114_2043" x1="12.0001" y1="3.12979" x2="12.0001" y2="1.57525" gradientUnits="userSpaceOnUse">
<stop stop-color="#0182FC" stop-opacity="0"/>
<stop offset="0.126" stop-color="#017FF3" stop-opacity="0.126"/>
<stop offset="0.331" stop-color="#0176DB" stop-opacity="0.331"/>
<stop offset="0.588" stop-color="#0268B4" stop-opacity="0.588"/>
<stop offset="0.886" stop-color="#02547E" stop-opacity="0.886"/>
<stop offset="1" stop-color="#024C67"/>
</linearGradient>
<linearGradient id="paint27_linear_1114_2043" x1="9.25442" y1="0.0994362" x2="15.0269" y2="6.71901" gradientUnits="userSpaceOnUse">
<stop stop-color="#B3DAFE"/>
<stop offset="1" stop-color="#0182FC"/>
</linearGradient>
<linearGradient id="paint28_linear_1114_2043" x1="13.7881" y1="5.03595" x2="14.5914" y2="5.83925" gradientUnits="userSpaceOnUse">
<stop stop-color="#0182FC" stop-opacity="0"/>
<stop offset="0.126" stop-color="#017FF3" stop-opacity="0.126"/>
<stop offset="0.331" stop-color="#0176DB" stop-opacity="0.331"/>
<stop offset="0.588" stop-color="#0268B4" stop-opacity="0.588"/>
<stop offset="0.886" stop-color="#02547E" stop-opacity="0.886"/>
<stop offset="1" stop-color="#024C67"/>
</linearGradient>
<linearGradient id="paint29_linear_1114_2043" x1="10.2121" y1="5.03595" x2="9.40878" y2="5.83925" gradientUnits="userSpaceOnUse">
<stop stop-color="#0182FC" stop-opacity="0"/>
<stop offset="0.126" stop-color="#017FF3" stop-opacity="0.126"/>
<stop offset="0.331" stop-color="#0176DB" stop-opacity="0.331"/>
<stop offset="0.588" stop-color="#0268B4" stop-opacity="0.588"/>
<stop offset="0.886" stop-color="#02547E" stop-opacity="0.886"/>
<stop offset="1" stop-color="#024C67"/>
</linearGradient>
<linearGradient id="paint30_linear_1114_2043" x1="16.0793" y1="8.35859" x2="6.42938" y2="-1.29129" gradientUnits="userSpaceOnUse">
<stop stop-color="#E6E6E6"/>
<stop offset="1" stop-color="#999999"/>
</linearGradient>
<linearGradient id="paint31_linear_1114_2043" x1="12.0001" y1="3.84353" x2="12.0001" y2="10.4336" gradientUnits="userSpaceOnUse">
<stop stop-color="#E6E6E6"/>
<stop offset="1" stop-color="#999999"/>
</linearGradient>
<linearGradient id="paint32_linear_1114_2043" x1="11.9999" y1="7.67102" x2="11.9999" y2="9.8378" gradientUnits="userSpaceOnUse">
<stop stop-color="#766E6E" stop-opacity="0"/>
<stop offset="0.281" stop-color="#716B6B" stop-opacity="0.281"/>
<stop offset="0.571" stop-color="#656060" stop-opacity="0.571"/>
<stop offset="0.864" stop-color="#514F4F" stop-opacity="0.864"/>
<stop offset="1" stop-color="#444444"/>
</linearGradient>
<linearGradient id="paint33_linear_1114_2043" x1="14.2242" y1="6.44327" x2="12.9066" y2="7.78445" gradientUnits="userSpaceOnUse">
<stop stop-color="#766E6E" stop-opacity="0"/>
<stop offset="0.281" stop-color="#716B6B" stop-opacity="0.281"/>
<stop offset="0.571" stop-color="#656060" stop-opacity="0.571"/>
<stop offset="0.864" stop-color="#514F4F" stop-opacity="0.864"/>
<stop offset="1" stop-color="#444444"/>
</linearGradient>
<linearGradient id="paint34_linear_1114_2043" x1="10.9882" y1="7.9296" x2="13.4837" y2="10.4251" gradientUnits="userSpaceOnUse">
<stop stop-color="#F9F5F3"/>
<stop offset="1" stop-color="#D8E8F0"/>
</linearGradient>
<linearGradient id="paint35_linear_1114_2043" x1="12.7176" y1="9.65901" x2="11.4823" y2="8.42366" gradientUnits="userSpaceOnUse">
<stop stop-color="#F9F5F3"/>
<stop offset="1" stop-color="#D8E8F0"/>
</linearGradient>
<linearGradient id="paint36_linear_1114_2043" x1="12" y1="0.533318" x2="12" y2="1.51393" gradientUnits="userSpaceOnUse">
<stop stop-color="#E6E6E6"/>
<stop offset="1" stop-color="#999999"/>
</linearGradient>
<clipPath id="clip0_1114_2043">
<rect width="24" height="24" fill="white"/>
</clipPath>
</defs>
</svg>
