<svg width="23" height="23" viewBox="0 0 23 23" fill="none" xmlns="http://www.w3.org/2000/svg">
<path d="M0.625 12.125H7.375V13.625H0.625V12.125Z" fill="#2D85CC"/>
<path d="M8.125 12.125H14.875V13.625H8.125V12.125Z" fill="#8F9E46"/>
<path d="M15.625 12.125H22.375V13.625H15.625V12.125Z" fill="#F7B030"/>
<path d="M7 7.625H1L0.625 12.125H7.375L7 7.625ZM1.375 21.875H6.625L7 13.625H1L1.375 21.875Z" fill="#3397E8"/>
<path d="M8.875 21.875H14.125L14.5 13.625H8.5L8.875 21.875Z" fill="#B1BD70"/>
<path d="M16.375 21.875H21.625L22 13.625H16L16.375 21.875Z" fill="#FFB632"/>
<path d="M5.5 9.125H2.5L2.125 12.125H5.875L5.5 9.125Z" fill="#2978B8"/>
<path d="M14.5 7.625H8.5L8.125 12.125H14.875L14.5 7.625Z" fill="#B1BD70"/>
<path d="M13 9.125H10L9.625 12.125H13.375L13 9.125Z" fill="#828C52"/>
<path d="M22 7.625H16L15.625 12.125H22.375L22 7.625Z" fill="#FFB632"/>
<path d="M20.5 9.125H17.5L17.125 12.125H20.875L20.5 9.125Z" fill="#E09F2C"/>
<path d="M19 18.875C19.6213 18.875 20.125 18.3713 20.125 17.75C20.125 17.1287 19.6213 16.625 19 16.625C18.3787 16.625 17.875 17.1287 17.875 17.75C17.875 18.3713 18.3787 18.875 19 18.875Z" fill="#E9EEF2"/>
<path d="M11.5 18.875C12.1213 18.875 12.625 18.3713 12.625 17.75C12.625 17.1287 12.1213 16.625 11.5 16.625C10.8787 16.625 10.375 17.1287 10.375 17.75C10.375 18.3713 10.8787 18.875 11.5 18.875Z" fill="#E9EEF2"/>
<path d="M4 18.875C4.62132 18.875 5.125 18.3713 5.125 17.75C5.125 17.1287 4.62132 16.625 4 16.625C3.37868 16.625 2.875 17.1287 2.875 17.75C2.875 18.3713 3.37868 18.875 4 18.875Z" fill="#E9EEF2"/>
<path d="M18.25 0.875H19.75V2.375H18.25V0.875Z" fill="#2978B8"/>
<path d="M19.4146 7.45728L19 7.25L18.5854 7.45728C18.471 7.51445 18.344 7.54144 18.2163 7.53569C18.0886 7.52994 17.9644 7.49164 17.8557 7.42443C17.7469 7.35722 17.6572 7.26333 17.5949 7.15167C17.5327 7.04001 17.5 6.91429 17.5 6.78645V3.125C17.5 2.92609 17.579 2.73532 17.7197 2.59467C17.8603 2.45402 18.0511 2.375 18.25 2.375H19.75C19.9489 2.375 20.1397 2.45402 20.2803 2.59467C20.421 2.73532 20.5 2.92609 20.5 3.125V6.78645C20.5 6.91429 20.4673 7.04001 20.4051 7.15167C20.3428 7.26333 20.2531 7.35722 20.1443 7.42443C20.0356 7.49164 19.9114 7.52994 19.7837 7.53569C19.656 7.54144 19.529 7.51445 19.4146 7.45728Z" fill="#DADCDE"/>
<path d="M17.5 3.875H20.5V5.75H17.5V3.875Z" fill="#2978B8"/>
<path d="M11.5 7.625C11.1022 7.625 10.7206 7.46696 10.4393 7.18566C10.158 6.90436 10 6.52282 10 6.125H13C13 6.52282 12.842 6.90436 12.5607 7.18566C12.2794 7.46696 11.8978 7.625 11.5 7.625ZM11.5 3.125C11.8978 3.125 12.2794 3.28304 12.5607 3.56434C12.842 3.84564 13 4.22718 13 4.625H10C10 4.22718 10.158 3.84564 10.4393 3.56434C10.7206 3.28304 11.1022 3.125 11.5 3.125Z" fill="#EB423F"/>
<path d="M10.375 6.125L10.75 5.375V4.625H12.25V5.375L12.625 6.125H10.375Z" fill="#DADCDE"/>
<path d="M1.75 3.875H6.25V7.625H1.75V3.875Z" fill="#E09F2C"/>
<path d="M3.25 3.875H4.75V5.375H3.25V3.875Z" fill="#DADCDE"/>
<path d="M22.7485 12.0939H22.7487L22.3737 7.59387C22.3659 7.50013 22.3232 7.41274 22.2539 7.34904C22.1847 7.28534 22.0941 7.24999 22 7.25H20.7756C20.8412 7.10428 20.8751 6.94627 20.875 6.78645V3.125C20.8747 2.89245 20.8025 2.66568 20.6682 2.47581C20.5339 2.28594 20.3442 2.14227 20.125 2.0645V0.875C20.125 0.775544 20.0855 0.680161 20.0152 0.609835C19.9448 0.539509 19.8495 0.5 19.75 0.5H18.25C18.1505 0.5 18.0552 0.539509 17.9848 0.609835C17.9145 0.680161 17.875 0.775544 17.875 0.875V2.0645C17.6558 2.14227 17.4661 2.28594 17.3318 2.47581C17.1975 2.66568 17.1253 2.89245 17.125 3.125V6.78645C17.1249 6.94627 17.1588 7.10428 17.2244 7.25H16C15.9059 7.24999 15.8153 7.28534 15.7461 7.34904C15.6768 7.41274 15.6341 7.50013 15.6263 7.59387L15.2513 12.0939H15.2515C15.2507 12.1042 15.25 12.1145 15.25 12.125C15.25 12.1145 15.2493 12.1042 15.2485 12.0939H15.2487L14.8737 7.59387C14.8659 7.50013 14.8232 7.41274 14.7539 7.34904C14.6847 7.28534 14.5941 7.24999 14.5 7.25H12.999C13.2434 6.92591 13.3754 6.53093 13.375 6.125C13.375 6.02554 13.3355 5.93016 13.2652 5.85983C13.1948 5.78951 13.0995 5.75 13 5.75H12.8568L12.625 5.28645V5H13C13.0995 5 13.1948 4.96049 13.2652 4.89016C13.3355 4.81984 13.375 4.72446 13.375 4.625C13.3744 4.19295 13.2249 3.77431 12.9517 3.43964C12.6785 3.10497 12.2982 2.87473 11.875 2.78773V2.375C11.875 2.27554 11.8355 2.18016 11.7652 2.10984C11.6948 2.03951 11.5995 2 11.5 2C11.4005 2 11.3052 2.03951 11.2348 2.10984C11.1645 2.18016 11.125 2.27554 11.125 2.375V2.78773C10.7018 2.87473 10.3215 3.10497 10.0483 3.43964C9.77506 3.77431 9.62556 4.19295 9.625 4.625C9.625 4.72446 9.66451 4.81984 9.73483 4.89016C9.80516 4.96049 9.90054 5 10 5H10.375V5.28645L10.1432 5.75H10C9.90054 5.75 9.80516 5.78951 9.73483 5.85983C9.66451 5.93016 9.625 6.02554 9.625 6.125C9.62458 6.53093 9.7566 6.92591 10.001 7.25H8.5C8.40593 7.24999 8.31529 7.28534 8.24606 7.34904C8.17683 7.41274 8.13407 7.50013 8.12627 7.59387L7.75127 12.0939H7.75155C7.7507 12.1042 7.75 12.1145 7.75 12.125C7.75 12.1145 7.7493 12.1042 7.74841 12.0939H7.74873L7.37373 7.59387C7.36593 7.50013 7.32317 7.41274 7.25394 7.34904C7.18471 7.28534 7.09407 7.24999 7 7.25H6.625V3.875C6.6251 3.80095 6.60315 3.72855 6.56195 3.66702L6.56134 3.66608L6.5605 3.66486L5.062 1.41697C5.00658 1.3348 4.92088 1.27792 4.82365 1.25875C4.72641 1.23958 4.62554 1.25968 4.54308 1.31466C4.46061 1.36964 4.40327 1.45503 4.38358 1.55217C4.36389 1.6493 4.38346 1.75028 4.438 1.83303L5.54931 3.5H2.81903L3.85938 2.66783C3.93704 2.60567 3.98683 2.5152 3.99779 2.41633C4.00875 2.31746 3.97999 2.21829 3.91783 2.14062C3.85567 2.06296 3.7652 2.01317 3.66633 2.00221C3.56746 1.99125 3.46829 2.02001 3.39062 2.08217L1.51562 3.58217C1.47168 3.61727 1.43622 3.66183 1.41188 3.71253C1.38753 3.76323 1.37493 3.81876 1.375 3.875V7.25H1C0.905927 7.24999 0.815287 7.28534 0.74606 7.34904C0.676832 7.41274 0.634074 7.50013 0.626266 7.59387L0.251266 12.0939H0.251594C0.250703 12.1042 0.25 12.1145 0.25 12.125V13.625C0.25 13.7245 0.289509 13.8198 0.359835 13.8902C0.430161 13.9605 0.525544 14 0.625 14H0.641641L1.00037 21.892C1.00475 21.9884 1.04614 22.0794 1.11591 22.1461C1.18569 22.2128 1.27849 22.25 1.375 22.25H6.625C6.72151 22.25 6.81431 22.2128 6.88409 22.1461C6.95386 22.0794 6.99525 21.9884 6.99963 21.892L7.35836 14H7.375C7.47446 14 7.56984 13.9605 7.64017 13.8902C7.71049 13.8198 7.75 13.7245 7.75 13.625C7.75 13.7245 7.78951 13.8198 7.85983 13.8902C7.93016 13.9605 8.02554 14 8.125 14H8.14164L8.50037 21.892C8.50475 21.9884 8.54614 22.0794 8.61591 22.1461C8.68569 22.2128 8.77849 22.25 8.875 22.25H14.125C14.2215 22.25 14.3143 22.2128 14.3841 22.1461C14.4539 22.0794 14.4952 21.9884 14.4996 21.892L14.8584 14H14.875C14.9745 14 15.0698 13.9605 15.1402 13.8902C15.2105 13.8198 15.25 13.7245 15.25 13.625C15.25 13.7245 15.2895 13.8198 15.3598 13.8902C15.4302 13.9605 15.5255 14 15.625 14H15.6416L16.0004 21.892C16.0048 21.9884 16.0461 22.0794 16.1159 22.1461C16.1857 22.2128 16.2785 22.25 16.375 22.25H21.625C21.7215 22.25 21.8143 22.2128 21.8841 22.1461C21.9539 22.0794 21.9952 21.9884 21.9996 21.892L22.3584 14H22.375C22.4745 14 22.5698 13.9605 22.6402 13.8902C22.7105 13.8198 22.75 13.7245 22.75 13.625V12.125C22.75 12.1145 22.7493 12.1042 22.7485 12.0939ZM18.625 1.25H19.375V2H18.625V1.25ZM17.875 3.125C17.8751 3.02558 17.9147 2.93026 17.985 2.85996C18.0553 2.78966 18.1506 2.75011 18.25 2.75H19.75C19.8494 2.75011 19.9447 2.78966 20.015 2.85996C20.0853 2.93026 20.1249 3.02558 20.125 3.125V3.5H17.875V3.125ZM17.875 4.25H20.125V5.375H17.875V4.25ZM17.875 6.125H20.125V6.78645C20.125 6.85037 20.1087 6.91323 20.0775 6.96906C20.0464 7.02489 20.0015 7.07184 19.9472 7.10545C19.8928 7.13905 19.8307 7.15821 19.7669 7.16108C19.703 7.16396 19.6395 7.15047 19.5823 7.12189L19.1677 6.91461C19.1157 6.88856 19.0583 6.875 19 6.875C18.9418 6.875 18.8844 6.88856 18.8324 6.91461L18.4177 7.12189C18.3605 7.15048 18.297 7.16398 18.2331 7.16111C18.1693 7.15824 18.1072 7.13909 18.0528 7.10548C17.9985 7.07187 17.9536 7.02492 17.9225 6.96908C17.8913 6.91324 17.875 6.85038 17.875 6.78645V6.125ZM3.625 4.25H4.375V5H3.625V4.25ZM2.125 4.25H2.875V5.375C2.875 5.47446 2.91451 5.56984 2.98484 5.64017C3.05516 5.71049 3.15054 5.75 3.25 5.75H4.75C4.84946 5.75 4.94484 5.71049 5.01516 5.64017C5.08549 5.56984 5.125 5.47446 5.125 5.375V4.25H5.875V7.25H2.125V4.25ZM1.34505 8H6.65495L6.96742 11.75H6.20603L5.87209 9.0785C5.86076 8.9878 5.81669 8.90437 5.74817 8.84388C5.67965 8.78339 5.5914 8.75 5.5 8.75H2.5C2.40859 8.74999 2.32033 8.78337 2.2518 8.84386C2.18327 8.90436 2.13919 8.9878 2.12786 9.0785L1.79397 11.75H1.03281L1.34505 8ZM5.45022 11.75H2.54978L2.83103 9.5H5.16897L5.45022 11.75ZM6.26664 21.5H1.73331L1.39244 14H6.60756L6.26664 21.5ZM7 13.25H1V12.5H7V13.25ZM11.5 3.5C11.7326 3.50027 11.9594 3.5725 12.1493 3.70678C12.3392 3.84106 12.4829 4.03081 12.5607 4.25H10.4393C10.5171 4.03081 10.6608 3.84106 10.8507 3.70678C11.0406 3.5725 11.2674 3.50027 11.5 3.5ZM11.9146 5.54272L12.0182 5.75H10.9818L11.0854 5.54272C11.1114 5.49065 11.125 5.43322 11.125 5.375V5H11.875V5.375C11.875 5.43322 11.8886 5.49065 11.9146 5.54272ZM10.4393 6.5H12.5607C12.4832 6.71939 12.3396 6.90935 12.1496 7.0437C11.9596 7.17806 11.7327 7.25021 11.5 7.25021C11.2673 7.25021 11.0404 7.17806 10.8504 7.0437C10.6604 6.90935 10.5168 6.71939 10.4393 6.5ZM8.84505 8H14.155L14.4674 11.75H13.706L13.3721 9.0785C13.3608 8.9878 13.3167 8.90437 13.2482 8.84388C13.1797 8.78339 13.0914 8.75 13 8.75H10C9.90859 8.74999 9.82033 8.78337 9.7518 8.84386C9.68327 8.90436 9.63919 8.9878 9.62786 9.0785L9.29397 11.75H8.53281L8.84505 8ZM12.9502 11.75H10.0498L10.331 9.5H12.669L12.9502 11.75ZM13.7666 21.5H9.23331L8.89244 14H14.1076L13.7666 21.5ZM14.5 13.25H8.5V12.5H14.5V13.25ZM16.345 8H21.655L21.9674 11.75H21.206L20.8721 9.0785C20.8608 8.9878 20.8167 8.90437 20.7482 8.84388C20.6797 8.78339 20.5914 8.75 20.5 8.75H17.5C17.4086 8.75 17.3203 8.78339 17.2518 8.84388C17.1833 8.90437 17.1392 8.9878 17.1279 9.0785L16.794 11.75H16.0328L16.345 8ZM20.4502 11.75H17.5498L17.831 9.5H20.169L20.4502 11.75ZM21.2666 21.5H16.7334L16.3924 14H21.6076L21.2666 21.5ZM22 13.25H16V12.5H22V13.25Z" fill="black"/>
<path d="M19 19.25C19.2967 19.25 19.5867 19.162 19.8334 18.9972C20.08 18.8324 20.2723 18.5981 20.3858 18.324C20.4994 18.0499 20.5291 17.7483 20.4712 17.4574C20.4133 17.1664 20.2704 16.8991 20.0607 16.6893C19.8509 16.4796 19.5836 16.3367 19.2926 16.2788C19.0017 16.2209 18.7001 16.2506 18.426 16.3642C18.1519 16.4777 17.9176 16.67 17.7528 16.9166C17.588 17.1633 17.5 17.4533 17.5 17.75C17.5004 18.1477 17.6586 18.529 17.9398 18.8102C18.221 19.0914 18.6023 19.2496 19 19.25ZM19 17C19.1483 17 19.2933 17.044 19.4167 17.1264C19.54 17.2088 19.6361 17.3259 19.6929 17.463C19.7497 17.6 19.7645 17.7508 19.7356 17.8963C19.7066 18.0418 19.6352 18.1754 19.5303 18.2803C19.4254 18.3852 19.2918 18.4567 19.1463 18.4856C19.0008 18.5145 18.85 18.4997 18.713 18.4429C18.5759 18.3861 18.4588 18.29 18.3764 18.1667C18.294 18.0433 18.25 17.8983 18.25 17.75C18.2502 17.5512 18.3293 17.3605 18.4699 17.2199C18.6105 17.0793 18.8012 17.0002 19 17ZM11.5 19.25C11.7967 19.25 12.0867 19.162 12.3334 18.9972C12.58 18.8324 12.7723 18.5981 12.8858 18.324C12.9994 18.0499 13.0291 17.7483 12.9712 17.4574C12.9133 17.1664 12.7704 16.8991 12.5607 16.6893C12.3509 16.4796 12.0836 16.3367 11.7926 16.2788C11.5017 16.2209 11.2001 16.2506 10.926 16.3642C10.6519 16.4777 10.4176 16.67 10.2528 16.9166C10.088 17.1633 10 17.4533 10 17.75C10.0004 18.1477 10.1586 18.529 10.4398 18.8102C10.721 19.0914 11.1023 19.2496 11.5 19.25ZM11.5 17C11.6483 17 11.7933 17.044 11.9167 17.1264C12.04 17.2088 12.1361 17.3259 12.1929 17.463C12.2497 17.6 12.2645 17.7508 12.2356 17.8963C12.2066 18.0418 12.1352 18.1754 12.0303 18.2803C11.9254 18.3852 11.7918 18.4567 11.6463 18.4856C11.5008 18.5145 11.35 18.4997 11.213 18.4429C11.0759 18.3861 10.9588 18.29 10.8764 18.1667C10.794 18.0433 10.75 17.8983 10.75 17.75C10.7502 17.5512 10.8293 17.3605 10.9699 17.2199C11.1105 17.0793 11.3012 17.0002 11.5 17ZM4 19.25C4.29667 19.25 4.58668 19.162 4.83336 18.9972C5.08003 18.8324 5.27229 18.5981 5.38582 18.324C5.49935 18.0499 5.52906 17.7483 5.47118 17.4574C5.4133 17.1664 5.27044 16.8991 5.06066 16.6893C4.85088 16.4796 4.58361 16.3367 4.29264 16.2788C4.00166 16.2209 3.70006 16.2506 3.42597 16.3642C3.15189 16.4777 2.91762 16.67 2.7528 16.9166C2.58797 17.1633 2.5 17.4533 2.5 17.75C2.50045 18.1477 2.65863 18.529 2.93983 18.8102C3.22104 19.0914 3.60231 19.2496 4 19.25ZM4 17C4.14834 17 4.29334 17.044 4.41668 17.1264C4.54001 17.2088 4.63614 17.3259 4.69291 17.463C4.74968 17.6 4.76453 17.7508 4.73559 17.8963C4.70665 18.0418 4.63522 18.1754 4.53033 18.2803C4.42544 18.3852 4.2918 18.4567 4.14632 18.4856C4.00083 18.5145 3.85003 18.4997 3.71299 18.4429C3.57594 18.3861 3.45881 18.29 3.3764 18.1667C3.29399 18.0433 3.25 17.8983 3.25 17.75C3.25024 17.5512 3.32933 17.3605 3.46993 17.2199C3.61053 17.0793 3.80116 17.0002 4 17Z" fill="black"/>
</svg>
