<svg width="375" height="812" viewBox="0 0 375 812" fill="none" xmlns="http://www.w3.org/2000/svg">
<path d="M414.204 -453.347L469.224 -491.505C689.985 143.624 164.642 509.962 1024.82 703.707L971.225 740.88C491.55 632.833 421.296 440.478 470.09 160.234C504.047 -26.7499 491.795 -230.144 414.208 -453.354L414.204 -453.347Z" fill="#208B59"/>
<path d="M304.73 -377.432L359.367 -415.319C429.205 -214.44 479.866 -13.0378 426.457 190.212C351.907 479.774 486.121 680.676 917.827 777.912L864.6 814.817C480.864 728.372 282.69 518.923 383.016 220.045C455.879 0.560143 366.805 -198.861 304.73 -377.432Z" fill="#208B59"/>
<path d="M195.986 -302.019L250.278 -339.664C304.588 -183.412 432.074 14.028 339.776 249.768C213.675 557.963 475.796 775.963 811.574 851.594L758.717 888.251C470.907 823.43 144.828 596.864 296.692 279.356C408.437 27.3766 242.539 -168.101 195.99 -302.026L195.986 -302.019Z" fill="#208B59"/>
<path d="M87.8583 -227.044L141.856 -264.486C180.655 -152.873 384.967 40.6057 253.756 308.842C76.1275 635.663 466.167 870.777 705.998 924.802L653.423 961.259C461.557 918.033 7.56584 674.376 210.966 338.226C361.624 53.7509 118.896 -137.758 87.8583 -227.044Z" fill="#208B59"/>
<path d="M-30.1172 -145.229L30.4777 -187.246C53.7544 -120.287 334.895 69.2413 164.806 369.965C-64.3729 715.419 453.577 967.642 597.492 1000.06L538.304 1041.1C442.377 1019.5 -139.531 758.706 115.411 403.938C304.966 86.9769 -14.5983 -100.586 -30.1098 -145.225L-30.1172 -145.229Z" fill="#208B59"/>
<path d="M-152.937 -60.0561L-91.3446 -102.763C-83.5793 -80.4431 274.383 105.131 65.3849 438.343C-215.314 802.428 430.542 1071.77 478.504 1082.57L418.33 1124.3C418.33 1124.3 -291.489 846.405 14.9927 473.008C243.45 123.534 -152.944 -60.0604 -152.944 -60.0604L-152.937 -60.0561Z" fill="#208B59"/>
<path d="M-251.952 8.60574L-203.009 -25.3343C-203.009 -25.3343 38.7067 89.1978 37.3605 302.509C36.9767 361.521 20.3763 428.78 -21.4404 502.263C-107.569 622.098 -93.976 730.447 -33.7996 815.097C90.6424 990.184 397.935 1138.44 397.935 1138.44L378.638 1151.83C378.638 1151.83 88.3187 982.207 -44.6802 830.186C-110.161 755.353 -129.859 649.604 -56.7639 530.736C-21.7172 458.115 -8.80522 390.444 -9.96036 331.565C-14.0678 123.959 -251.956 8.61314 -251.956 8.61314L-251.952 8.60574Z" fill="#208B59"/>
<path d="M-347.164 74.624L-299.973 41.9004C-299.973 41.9004 -65.7565 158.081 -56.3504 359.961C-53.6194 418.728 -62.8913 486.793 -91.1566 558.548C-151.241 676.456 -125.786 779.492 -54.6386 844.629C86.1679 973.505 360.283 1164.54 360.283 1164.54L342.754 1176.7C342.754 1176.7 84.0597 964.473 -63.7507 858.491C-140.959 803.136 -171.783 702.753 -124.716 585.801C-103.228 514.904 -97.5697 446.451 -101.914 387.792C-116.447 191.681 -347.164 74.624 -347.164 74.624Z" fill="#208B59"/>
<path d="M-439.32 138.529L-393.588 106.818C-393.588 106.818 -166.226 224.774 -146.712 415.095C-140.704 473.644 -142.805 542.482 -157.513 612.532C-191.558 728.521 -155.713 826.482 -72.1078 871.827C82.039 955.444 325.992 1188.32 325.992 1188.32L309.921 1199.46C309.921 1199.46 80.2924 946.67 -79.7846 884.681C-169.991 849.75 -210.64 753.786 -189.621 638.768C-181.686 569.568 -183.105 500.367 -190.824 441.909C-215.14 257.387 -439.328 138.525 -439.328 138.525L-439.32 138.529Z" fill="#208B59"/>
<path d="M-537.223 206.419L-484.433 169.812C-484.433 169.812 -263.277 289.574 -234.307 468.312C-224.849 526.683 -219.957 596.261 -221.106 664.588C-229.115 778.646 -183.686 873.079 -86.8312 897.124C79.1196 938.297 294.466 1210.18 294.466 1210.18L271.338 1226.22C271.338 1226.22 70.4957 935.978 -101.554 914.873C-204.93 902.191 -255.264 808.823 -260.269 695.732C-265.881 628.253 -274.198 558.299 -285.463 500.032C-318.919 327.058 -537.216 206.424 -537.216 206.424L-537.223 206.419Z" fill="#208B59"/>
<path d="M-656.2 288.932L-596.336 247.416C-596.336 247.416 -380.745 368.894 -342.961 536.141C-329.814 594.276 -318.152 664.64 -305.755 731.266C-287.724 843.386 -232.284 936.07 -122.6 937.011C55.9673 938.565 241.887 1246.64 241.887 1246.64L211.684 1267.59C211.684 1267.59 41.1758 941.982 -144.379 959.669C-260.105 970.69 -320.934 878.467 -351.983 767.304C-371.15 701.54 -386.111 630.754 -401.186 572.761C-443.165 411.182 -656.2 288.932 -656.2 288.932Z" fill="#208B59"/>
</svg>
