<svg width="24" height="24" viewBox="0 0 24 24" fill="none" xmlns="http://www.w3.org/2000/svg">
<g clip-path="url(#clip0_1114_2099)">
<path d="M7.70123 16.2987C6.32906 14.9265 4.1017 14.9265 2.72939 16.2987C1.53609 17.492 0.338203 22.1503 0.188906 22.9956L0 23.9999L1.00434 23.8109C1.84955 23.6619 6.50812 22.4637 7.70123 21.2705C9.07341 19.8983 9.07341 17.6708 7.70123 16.2987Z" fill="#FFD400"/>
<path d="M7.70123 21.2707C6.50812 22.4638 1.84955 23.6619 1.00434 23.8112L0 24.0001L7.70123 16.2988C9.07341 17.671 9.07341 19.8985 7.70123 21.2707Z" fill="#FF9F00"/>
<path d="M9.19279 19.7789L7.20412 17.7902V16.7958H6.20967L4.22095 14.8071L8.19834 12.8184L11.1815 15.8015L9.19279 19.7789Z" fill="#FF6C6C"/>
<path d="M11.1815 15.8021L9.19277 19.7795L7.2041 17.7908V16.7963L9.68988 14.3105L11.1815 15.8021ZM16.1533 14.8077L16.6507 15.3048C17.4743 16.1285 17.4743 17.4642 16.6507 18.2879L12.1759 22.7627L11.6788 22.2653C10.855 21.4417 10.855 20.1062 11.6788 19.2824L12.1759 18.785V16.7964L14.1647 14.8077H16.1533Z" fill="#FF193D"/>
<path d="M9.19281 7.84644L8.6957 7.34928C7.87192 6.5255 6.53631 6.5255 5.71257 7.34928L1.23779 11.8238L1.73514 12.321C2.55892 13.1448 3.89429 13.1448 4.71807 12.321L5.21542 11.8238H7.20409L9.19281 9.83511V7.84644Z" fill="#FF6C6C"/>
<path d="M21.0159 9.945L12.1759 18.785L5.21533 11.8244L14.0553 2.98444C15.0098 2.02992 16.1234 1.29403 17.3366 0.796875L23.2034 6.66356C22.7063 7.87683 21.9704 8.99048 21.0159 9.945Z" fill="#DEECF1"/>
<path d="M21.0161 9.94427L12.1761 18.7842L8.6958 15.304L20.2703 3.72949L23.2036 6.66284C22.7065 7.8761 21.9706 8.98976 21.0161 9.94427Z" fill="#A8D3D8"/>
<path d="M16.6504 7.34957C15.8252 6.5241 14.4927 6.5241 13.6673 7.34957C12.842 8.1748 12.842 9.50723 13.6673 10.3327C14.4927 11.1579 15.8252 11.1579 16.6504 10.3327C17.4759 9.50723 17.4759 8.1748 16.6504 7.34957Z" fill="#73BCFF"/>
<path d="M6.20972 16.7963L12.1758 10.8301L13.17 11.8243L7.20398 17.7905L6.20972 16.7963Z" fill="#6E6E6E"/>
<path d="M13.6675 10.3326L16.6506 7.34961C17.4759 8.17489 17.4759 9.50731 16.6506 10.3326C15.8252 11.1578 14.4928 11.1581 13.6675 10.3326Z" fill="#0095FF"/>
<path d="M6.70679 17.2933L12.6729 11.3271L13.1701 11.8243L7.20394 17.7904L6.70679 17.2933Z" fill="#444444"/>
<path d="M23.2034 6.66318C21.6124 7.02117 19.8722 6.59362 18.6394 5.36057C17.4063 4.12776 16.9788 2.38753 17.3367 0.796496C19.1763 0.0309332 21.2246 -0.207848 23.2531 0.189886L23.7107 0.289261L23.8101 0.746902C24.2078 2.77532 23.969 4.82371 23.2035 6.66318H23.2034Z" fill="#FF6C6C"/>
<path d="M18.6394 5.36042L23.7108 0.289062L23.8102 0.746656C24.2079 2.77508 23.9691 4.82347 23.2036 6.66313C21.6125 7.02111 19.8723 6.59338 18.6395 5.36033L18.6394 5.36042Z" fill="#FF193D"/>
</g>
<defs>
<clipPath id="clip0_1114_2099">
<rect width="24" height="24" fill="white"/>
</clipPath>
</defs>
</svg>
