<svg width="23" height="24" viewBox="0 0 23 24" fill="none" xmlns="http://www.w3.org/2000/svg">
<path d="M6.25689 22.2675C6.59142 21.9973 6.87513 21.6697 7.09469 21.3C8.03731 19.7061 6.53092 16.2135 6.53092 16.2135L6.16163 11.7404C5.68595 11.3357 4.87095 11.4231 4.53699 11.9146L1.26433 16.3197C1.12292 16.51 1.04655 16.7409 1.04655 16.978V22.7846" fill="#EFCDB1"/>
<path d="M1.04656 23.0603C0.973429 23.0603 0.903296 23.0313 0.851587 22.9796C0.799878 22.9278 0.770828 22.8577 0.770828 22.7846V16.978C0.771504 16.6818 0.866878 16.3936 1.04302 16.1554L4.31242 11.7547C4.50942 11.4683 4.84167 11.2744 5.22498 11.2225C5.42208 11.1929 5.62322 11.205 5.81535 11.258C6.00748 11.311 6.18633 11.4039 6.3403 11.5304C6.39585 11.5777 6.4304 11.6451 6.43639 11.7177L6.80205 16.1467C6.98192 16.5761 8.28745 19.8247 7.332 21.4404C7.09402 21.8414 6.78581 22.1963 6.4221 22.4881C6.3636 22.532 6.29006 22.5508 6.21767 22.5405C6.14528 22.5302 6.07996 22.4915 6.03608 22.433C5.99221 22.3745 5.97337 22.301 5.98371 22.2286C5.99405 22.1562 6.03273 22.0908 6.09123 22.047C6.39626 21.798 6.65551 21.4977 6.85729 21.1595C7.57198 19.9509 6.68119 17.2583 6.27762 16.3227C6.26578 16.2952 6.25849 16.266 6.25602 16.2362L5.89702 11.8878C5.71722 11.7806 5.50599 11.7385 5.29883 11.7688C5.06823 11.8 4.87361 11.9096 4.76498 12.0695L4.75822 12.079L1.4857 16.4839C1.37994 16.6269 1.32268 16.8 1.32228 16.9778V22.7846C1.32228 22.8577 1.29323 22.9278 1.24153 22.9796C1.18982 23.0313 1.11968 23.0603 1.04656 23.0603Z" fill="black"/>
<path d="M0.76297 22.2675H6.88987V23.7243H0.76297V22.2675Z" fill="#5ABDE0"/>
<path d="M6.88983 24H0.762972C0.689844 24 0.619711 23.9709 0.568002 23.9192C0.516293 23.8675 0.487244 23.7974 0.487244 23.7243V22.2675C0.487244 22.1944 0.516293 22.1242 0.568002 22.0725C0.619711 22.0208 0.689844 21.9918 0.762972 21.9918H6.88983C6.96296 21.9918 7.03309 22.0208 7.0848 22.0725C7.13651 22.1242 7.16556 22.1944 7.16556 22.2675V23.7243C7.16556 23.7974 7.13651 23.8675 7.0848 23.9192C7.03309 23.9709 6.96296 24 6.88983 24ZM1.0387 23.4485H6.6141V22.5432H1.0387V23.4485Z" fill="black"/>
<path d="M21.9535 16.9781V22.7843L16.743 22.2673C16.4086 21.9972 16.125 21.6696 15.9055 21.3C15.883 21.2619 15.8621 21.2228 15.8428 21.183C15.0338 19.5417 16.4689 16.2136 16.4689 16.2136L16.8215 11.9427L17.7467 11.497C18.0357 11.5378 18.304 11.6803 18.4632 11.9144L20.632 14.8342L21.7356 16.3197C21.8772 16.51 21.9536 16.7409 21.9535 16.9781Z" fill="#EFCDB1"/>
<path d="M21.9535 23.0603C21.9444 23.0603 21.9353 23.0598 21.9263 23.0589L16.7158 22.5419C16.6658 22.5369 16.6181 22.5184 16.5779 22.4882C16.2143 22.1964 15.9062 21.8415 15.6684 21.4405C15.642 21.3957 15.6174 21.3498 15.5948 21.303C14.7817 19.6532 16.0235 16.5636 16.1981 16.1469L16.547 11.9202C16.551 11.8723 16.5673 11.8263 16.5945 11.7867C16.6217 11.7471 16.6588 11.7153 16.7021 11.6945L17.6273 11.2487C17.6764 11.225 17.7315 11.2165 17.7855 11.2241C18.1643 11.2775 18.4929 11.4707 18.688 11.7545L21.9572 16.1556C22.1347 16.393 22.2303 16.6817 22.2295 16.9782V22.7845C22.2295 22.8577 22.2005 22.9278 22.1488 22.9795C22.0971 23.0312 22.0269 23.0603 21.9538 23.0603H21.9535ZM16.8521 22.0013L21.6778 22.4801V16.9781C21.6783 16.8002 21.6209 16.6269 21.5144 16.4845L18.2419 12.0788L18.2351 12.0696C18.1265 11.9215 17.9661 11.8198 17.7858 11.7847L17.0833 12.1228L16.7437 16.2364C16.7413 16.2662 16.734 16.2954 16.7221 16.3229C16.7084 16.3551 15.3469 19.5535 16.0901 21.0613C16.1064 21.095 16.124 21.1278 16.1433 21.1606C16.3327 21.4772 16.572 21.7611 16.8521 22.0013Z" fill="black"/>
<path d="M22.2371 23.7243H16.1102V22.2675H22.2371V23.7243Z" fill="#5ABDE0"/>
<path d="M22.237 24H16.1102C16.037 24 15.9669 23.9709 15.9152 23.9192C15.8635 23.8675 15.8344 23.7974 15.8344 23.7243V22.2675C15.8344 22.1944 15.8635 22.1242 15.9152 22.0725C15.9669 22.0208 16.037 21.9918 16.1102 21.9918H22.237C22.3102 21.9918 22.3803 22.0208 22.432 22.0725C22.4837 22.1242 22.5128 22.1944 22.5128 22.2675V23.7243C22.5128 23.7974 22.4837 23.8675 22.432 23.9192C22.3803 23.9709 22.3102 24 22.237 24ZM16.3859 23.4485H21.9613V22.5432H16.3859V23.4485Z" fill="black"/>
<path d="M13.5668 1.73249C13.9013 2.00265 14.185 2.33027 14.4046 2.69997C15.3473 4.29382 13.8408 7.78642 13.8408 7.78642L13.4715 12.2596C12.9959 12.6642 12.1809 12.5769 11.8469 12.0853L8.5743 7.68031C8.43286 7.48996 8.35648 7.25911 8.35648 7.02196V1.21541" fill="#EFCDB1"/>
<path d="M12.7428 12.7917C12.6732 12.7916 12.6038 12.7869 12.5349 12.7776C12.1516 12.7257 11.8194 12.5319 11.6224 12.2455L8.35294 7.84474C8.17683 7.60657 8.08145 7.31835 8.08075 7.02215V1.21541C8.08075 1.14228 8.1098 1.07215 8.16151 1.02044C8.21322 0.968732 8.28335 0.939682 8.35648 0.939682C8.42961 0.939682 8.49974 0.968732 8.55145 1.02044C8.60316 1.07215 8.63221 1.14228 8.63221 1.21541V7.02187C8.63265 7.19978 8.69 7.37289 8.79585 7.51588L12.0685 11.9209C12.0708 11.924 12.0731 11.9272 12.0752 11.9304C12.1839 12.0903 12.3785 12.2 12.6091 12.2311C12.8162 12.2614 13.0275 12.2194 13.2073 12.1121L13.5663 7.76372C13.5687 7.73392 13.576 7.70472 13.5879 7.67728C13.6024 7.64364 15.0277 4.29479 14.1675 2.84032C13.9657 2.50221 13.7063 2.20195 13.4011 1.95307C13.3426 1.9092 13.304 1.84388 13.2936 1.77149C13.2833 1.69909 13.3021 1.62556 13.346 1.56705C13.3899 1.50855 13.4552 1.46988 13.5276 1.45953C13.6 1.44919 13.6735 1.46803 13.732 1.51191C14.0958 1.80371 14.404 2.15863 14.6419 2.55968C15.5974 4.17521 14.2918 7.42388 14.112 7.85333L13.7463 12.2823C13.7403 12.355 13.7058 12.4223 13.6502 12.4696C13.3955 12.6811 13.0739 12.7953 12.7428 12.7917Z" fill="black"/>
<path d="M8.07289 0.275726H14.1998V1.73249H8.07289V0.275726Z" fill="#5ABDE0"/>
<path d="M14.1998 2.00822H8.07285C7.99972 2.00822 7.92959 1.97917 7.87788 1.92746C7.82617 1.87575 7.79712 1.80562 7.79712 1.73249V0.275728C7.79712 0.2026 7.82617 0.132468 7.87788 0.0807588C7.92959 0.0290498 7.99972 0 8.07285 0L14.1998 0C14.2729 0 14.3431 0.0290498 14.3948 0.0807588C14.4465 0.132468 14.4755 0.2026 14.4755 0.275728V1.73249C14.4755 1.80562 14.4465 1.87575 14.3948 1.92746C14.3431 1.97917 14.2729 2.00822 14.1998 2.00822ZM8.34857 1.45676H13.9241V0.551456H8.34857V1.45676Z" fill="black"/>
<path d="M19.3792 9.40398L12.2551 12.8385L4.92747 9.86247C5.50392 8.44459 6.47935 7.2244 7.73548 6.34985C8.99161 5.47531 10.4745 4.98399 12.0043 4.93545C13.5341 4.88692 15.0451 5.28326 16.3542 6.07642C17.6632 6.86958 18.714 8.02549 19.3792 9.40398Z" fill="#BE1E2D"/>
<path d="M12.2551 13.1143C12.2195 13.1143 12.1843 13.1074 12.1513 13.094L4.82371 10.1179C4.79016 10.1043 4.75962 10.0842 4.73384 10.0588C4.70807 10.0333 4.68755 10.0031 4.67347 9.9697C4.65938 9.93634 4.65201 9.90053 4.65177 9.86432C4.65153 9.8281 4.65842 9.7922 4.67206 9.75865C5.2685 8.29128 6.27788 7.02848 7.57777 6.12338C8.87767 5.21829 10.4123 4.70979 11.9954 4.65955C13.5786 4.6093 15.1423 5.01948 16.497 5.84032C17.8517 6.66117 18.9391 7.85743 19.6274 9.28403C19.6431 9.31666 19.6523 9.35208 19.6543 9.38825C19.6564 9.42443 19.6513 9.46066 19.6394 9.49487C19.6274 9.52907 19.6088 9.56059 19.5847 9.58761C19.5606 9.61464 19.5313 9.63664 19.4987 9.65236L12.3748 13.0869C12.3375 13.1049 12.2966 13.1143 12.2551 13.1143ZM5.2913 9.71265L12.2455 12.537L19.0063 9.27764C17.693 6.79609 15.0731 5.20726 12.2551 5.20726C10.7827 5.20316 9.34082 5.62674 8.1046 6.42654C6.86838 7.22634 5.89103 8.36794 5.2913 9.71265Z" fill="black"/>
<path d="M20.6881 13.8907C20.6889 14.9293 20.485 15.9578 20.088 16.9175C19.6909 17.8772 19.1085 18.7493 18.3742 19.4837C17.6398 20.2181 16.7678 20.8005 15.8081 21.1976C14.8485 21.5947 13.8199 21.7987 12.7813 21.7979V13.8907L16.8215 11.9429L17.7467 11.4972L19.9054 10.4567C20.4223 11.5275 20.6899 12.7016 20.6881 13.8907Z" fill="#FDC00F"/>
<path d="M12.7813 22.0736C12.7081 22.0736 12.638 22.0446 12.5863 21.9929C12.5346 21.9412 12.5055 21.871 12.5055 21.7979V13.8907C12.5056 13.8388 12.5203 13.788 12.5479 13.7441C12.5756 13.7002 12.615 13.665 12.6618 13.6426L19.7859 10.2083C19.8517 10.1766 19.9275 10.1723 19.9965 10.1965C20.0655 10.2206 20.1221 10.2711 20.1539 10.337C20.6903 11.4448 20.9674 12.6603 20.964 13.8912C20.9648 14.966 20.7537 16.0304 20.3428 17.0235C19.9318 18.0166 19.3291 18.9189 18.5691 19.6789C17.8091 20.4389 16.9067 21.0416 15.9136 21.4525C14.9205 21.8634 13.8561 22.0745 12.7813 22.0736ZM13.057 14.0637V21.5173C14.3008 21.4715 15.5146 21.1224 16.5927 20.5004C17.6707 19.8783 18.5804 19.0022 19.2424 17.9482C19.9045 16.8942 20.2989 15.6944 20.3913 14.4532C20.4837 13.212 20.2713 11.967 19.7725 10.8266L13.057 14.0637Z" fill="black"/>
<path d="M11.7289 13.8909V21.7979C10.4333 21.7972 9.15776 21.4783 8.01426 20.8693C6.87076 20.2603 5.89432 19.3798 5.17074 18.3051C4.44716 17.2305 3.99859 15.9945 3.86442 14.7059C3.73026 13.4173 3.91461 12.1155 4.40129 10.9148L11.7289 13.8909Z" fill="#3D5CA9"/>
<path d="M11.7289 22.0736C7.21689 22.0736 3.54612 18.4029 3.54612 13.8908C3.54434 12.835 3.74805 11.789 4.14588 10.811C4.17341 10.7432 4.22671 10.6892 4.29407 10.6608C4.36142 10.6323 4.43732 10.6318 4.50506 10.6593L11.8327 13.6354C11.8835 13.656 11.927 13.6914 11.9576 13.7369C11.9883 13.7824 12.0046 13.836 12.0046 13.8908V21.7979C12.0046 21.871 11.9756 21.9412 11.9239 21.9929C11.8722 22.0446 11.802 22.0736 11.7289 22.0736ZM4.55749 11.2759C4.25183 12.1137 4.09615 12.9989 4.09758 13.8907C4.09758 18.0065 7.37231 21.3716 11.4532 21.5172V14.0765L4.55749 11.2759Z" fill="black"/>
<path d="M2.72279 17.261C3.0215 16.9999 3.8632 16.9466 3.8632 16.9466L5.27939 14.8412C5.39179 14.6816 5.56246 14.5726 5.75453 14.5379C5.94661 14.5031 6.14465 14.5453 6.30588 14.6553L6.43423 14.7431C6.5769 14.8365 6.67762 14.9818 6.71509 15.1482C6.75256 15.3146 6.72384 15.489 6.635 15.6346L4.41636 19.2577C4.41636 19.2577 4.10346 20.265 3.61836 20.7966L3.13326 21.3282" fill="#EFCDB1"/>
<path d="M3.13318 21.6039C3.07973 21.6039 3.02743 21.5883 2.98265 21.5591C2.93788 21.5299 2.90255 21.4884 2.88097 21.4394C2.8594 21.3905 2.8525 21.3364 2.86113 21.2837C2.86975 21.2309 2.89353 21.1818 2.92956 21.1423L3.41456 20.6107C3.85173 20.1316 4.14983 19.1852 4.15301 19.1757C4.1598 19.1539 4.16924 19.1331 4.18113 19.1136L6.39978 15.4905C6.45131 15.4052 6.46747 15.303 6.44483 15.2059C6.42219 15.1088 6.36252 15.0243 6.27855 14.9706L6.15024 14.8828C6.04583 14.8127 5.91792 14.7868 5.79446 14.8108C5.7369 14.8209 5.68193 14.8425 5.63278 14.8741C5.58362 14.9057 5.54126 14.9468 5.50816 14.995L4.09198 17.1005C4.0684 17.1355 4.03707 17.1647 4.00042 17.1858C3.96376 17.2068 3.92276 17.2191 3.88059 17.2218C3.56947 17.2418 3.0608 17.3316 2.90437 17.4686C2.87722 17.493 2.84547 17.5119 2.81098 17.5239C2.77648 17.536 2.73993 17.5411 2.70345 17.539C2.66696 17.5368 2.63127 17.5274 2.59845 17.5113C2.56563 17.4952 2.53634 17.4728 2.51227 17.4453C2.48821 17.4177 2.46985 17.3857 2.45828 17.3511C2.4467 17.3164 2.44213 17.2798 2.44483 17.2433C2.44754 17.2069 2.45746 17.1713 2.47403 17.1387C2.49059 17.1062 2.51347 17.0772 2.54133 17.0535C2.83029 16.8008 3.42099 16.7119 3.70858 16.6829L5.05055 14.6871C5.12407 14.5784 5.21854 14.4854 5.32843 14.4136C5.43833 14.3418 5.56143 14.2926 5.69056 14.2689C5.95838 14.2178 6.23554 14.2749 6.46135 14.4277L6.58966 14.5154C6.79182 14.6479 6.93426 14.8541 6.98662 15.0901C7.03899 15.326 6.99713 15.5731 6.86998 15.7787L4.66875 19.3734C4.60704 19.5623 4.29625 20.4626 3.82195 20.9825L3.33699 21.514C3.31116 21.5424 3.27969 21.565 3.24459 21.5805C3.20949 21.596 3.17154 21.6039 3.13318 21.6039Z" fill="black"/>
<path d="M20.2772 17.261C19.9785 16.9999 19.1368 16.9466 19.1368 16.9466L17.7206 14.8412C17.6082 14.6816 17.4375 14.5726 17.2455 14.5379C17.0534 14.5031 16.8553 14.5453 16.6941 14.6553L16.5658 14.7431C16.4231 14.8365 16.3224 14.9818 16.2849 15.1482C16.2474 15.3146 16.2761 15.489 16.365 15.6346L18.5837 19.2577C18.5837 19.2577 18.8966 20.265 19.3817 20.7965L19.8667 21.3281" fill="#EFCDB1"/>
<path d="M19.8668 21.6039C19.8285 21.6039 19.7905 21.596 19.7554 21.5805C19.7203 21.565 19.6889 21.5424 19.6631 21.514L19.178 20.9824C18.7038 20.4628 18.393 19.5624 18.3313 19.3734L16.13 15.7787C16.0029 15.5731 15.961 15.326 16.0134 15.0901C16.0657 14.8541 16.2082 14.6479 16.4104 14.5154L16.5387 14.4277C16.7646 14.275 17.0418 14.218 17.3096 14.2693C17.4387 14.293 17.5618 14.3421 17.6717 14.4139C17.7816 14.4857 17.8761 14.5787 17.9496 14.6875L19.2919 16.6829C19.5793 16.7119 20.17 16.8007 20.4591 17.0535C20.487 17.0772 20.5099 17.1062 20.5264 17.1387C20.543 17.1713 20.5529 17.2069 20.5556 17.2433C20.5583 17.2798 20.5538 17.3164 20.5422 17.3511C20.5306 17.3857 20.5123 17.4178 20.4882 17.4453C20.4641 17.4728 20.4348 17.4952 20.402 17.5113C20.3692 17.5274 20.3335 17.5368 20.297 17.539C20.2605 17.5411 20.224 17.536 20.1895 17.5239C20.155 17.5119 20.1233 17.493 20.0961 17.4686C19.9396 17.3316 19.4309 17.2418 19.1197 17.2218C19.0775 17.2191 19.0365 17.2068 18.9999 17.1857C18.9632 17.1647 18.9319 17.1355 18.9083 17.1005L17.4918 14.995C17.4587 14.9468 17.4163 14.9057 17.3672 14.8741C17.318 14.8425 17.2631 14.8209 17.2055 14.8108C17.0821 14.7868 16.9542 14.8127 16.8498 14.8828L16.7214 14.9706C16.6374 15.0244 16.5778 15.1088 16.5551 15.2059C16.5325 15.303 16.5486 15.4052 16.6001 15.4905L18.8188 19.1136C18.8307 19.1331 18.8402 19.154 18.847 19.1758C18.8499 19.185 19.1482 20.1316 19.5853 20.6107L20.0704 21.1422C20.1064 21.1817 20.1302 21.2308 20.1388 21.2836C20.1475 21.3363 20.1406 21.3904 20.119 21.4393C20.0974 21.4882 20.0621 21.5298 20.0173 21.559C19.9726 21.5882 19.9203 21.6038 19.8668 21.6038V21.6039Z" fill="black"/>
<path d="M8.45256 5.76308C9.44909 7.00385 11.1731 7.05344 11.1731 7.05344L12.5894 9.15876C12.7017 9.31834 12.8724 9.4273 13.0645 9.46208C13.2565 9.49686 13.4546 9.45468 13.6158 9.34464L13.7441 9.25687C13.8868 9.16343 13.9876 9.01814 14.025 8.85176C14.0625 8.68537 14.0338 8.51093 13.9449 8.36535L11.7262 4.74229C11.7262 4.74229 11.4133 3.73491 10.9281 3.2034L10.4432 2.67184" fill="#EFCDB1"/>
<path d="M13.1939 9.749C13.1291 9.749 13.0643 9.74284 13.0006 9.73062C12.8715 9.70697 12.7484 9.6578 12.6385 9.58599C12.5286 9.51419 12.4341 9.42119 12.3605 9.31243L11.0197 7.31906C10.561 7.27706 9.1393 7.05808 8.23754 5.9355C8.19174 5.87849 8.17047 5.80561 8.1784 5.73292C8.18633 5.66022 8.22282 5.59365 8.27984 5.54785C8.33685 5.50206 8.40972 5.48078 8.48242 5.48872C8.55512 5.49665 8.62169 5.53314 8.66749 5.59015C9.57381 6.71843 11.1651 6.77711 11.1812 6.77757C11.225 6.77884 11.268 6.79054 11.3064 6.81171C11.3448 6.83288 11.3776 6.86291 11.4021 6.89931L12.8182 9.00468C12.8513 9.05286 12.8937 9.09396 12.9429 9.12559C12.992 9.15721 13.047 9.17872 13.1046 9.18886C13.228 9.21286 13.3559 9.18698 13.4603 9.1169L13.589 9.02908C13.6729 8.97528 13.7326 8.89082 13.7552 8.7937C13.7778 8.69658 13.7616 8.59447 13.7101 8.5091L11.4914 4.88604C11.4795 4.86656 11.4701 4.84568 11.4633 4.82386C11.4603 4.81467 11.162 3.868 10.725 3.38902L10.2396 2.85769C10.2143 2.8311 10.1945 2.79973 10.1815 2.76542C10.1685 2.73111 10.1625 2.69455 10.1638 2.65789C10.1651 2.62122 10.1737 2.58518 10.1891 2.55188C10.2045 2.51858 10.2264 2.48869 10.2535 2.46397C10.2807 2.43924 10.3124 2.42017 10.347 2.40788C10.3816 2.39559 10.4182 2.39032 10.4549 2.39239C10.4915 2.39446 10.5274 2.40381 10.5603 2.41991C10.5933 2.43601 10.6227 2.45853 10.6469 2.48615L11.1319 3.0177C11.6061 3.5374 11.917 4.4377 11.9787 4.62671L14.1799 8.22152C14.3071 8.42707 14.3489 8.67415 14.2965 8.9101C14.2442 9.14605 14.1018 9.35224 13.8996 9.48472L13.7709 9.57254C13.6006 9.68786 13.3996 9.74934 13.1939 9.749Z" fill="black"/>
</svg>
