<svg width="32" height="32" viewBox="0 0 32 32" fill="none" xmlns="http://www.w3.org/2000/svg">
<path d="M18.1227 14.8685C17.975 14.87 17.8322 14.85 17.6943 14.8101C17.6922 14.8101 17.6901 14.8086 17.688 14.8086L18.1493 15.0787L18.1234 14.8692L18.1227 14.8685ZM19.7775 12.9868L19.34 12.7233C19.5451 13.4455 19.6718 14.2736 19.76 15.1527C19.8692 14.3957 19.872 13.6742 19.7775 12.9868ZM18.8059 13.6291C18.6785 13.5314 18.4853 13.4663 18.2256 13.4337L18.1444 12.7699C18.3054 12.7833 18.4643 12.8373 18.6218 12.932L18.7667 12.5783C18.6652 12.5191 18.5623 12.474 18.4559 12.4429C18.3502 12.4125 18.2361 12.3977 18.1129 12.3977L18.087 12.1883L17.7993 12.2276L17.8238 12.4303C17.7209 12.454 17.6299 12.4888 17.5494 12.5354C17.4689 12.582 17.401 12.6382 17.3464 12.7048C17.2918 12.7722 17.2533 12.8469 17.2295 12.9305C17.2064 13.0141 17.2001 13.1022 17.2113 13.1954C17.2232 13.2938 17.2484 13.3782 17.2862 13.45C17.324 13.5218 17.3758 13.5824 17.4409 13.6313C17.506 13.6801 17.5858 13.7193 17.6789 13.7497C17.772 13.7793 17.8812 13.8029 18.0065 13.8185L18.0898 14.503C17.9799 14.4993 17.8756 14.4785 17.7762 14.4415C17.6775 14.4038 17.576 14.3505 17.4717 14.2825L17.317 14.5918L17.6852 14.8078L18.1465 15.0779L18.3439 15.1934L18.4517 15.1786L18.409 14.8322C18.514 14.8086 18.6064 14.7723 18.6883 14.7242C18.7695 14.6769 18.8374 14.6191 18.892 14.5525C18.9466 14.4859 18.9858 14.4105 19.011 14.3268C19.0355 14.2425 19.0418 14.153 19.0299 14.0575C19.0068 13.8688 18.9312 13.7253 18.8038 13.6283L18.8059 13.6291ZM15.9471 13.4293L15.8547 13.3508L14.034 11.7954L12.998 12.4244L12.1461 12.9416L11.5512 13.3027L10.2338 14.1019L10.7147 14.5289L10.8295 14.631C11.5512 14.89 12.2336 15.223 12.8762 15.6314L14.0676 14.9144L14.6689 14.5525L15.9415 13.7859L16.0052 13.8237L16.7003 14.2299C16.6569 13.8022 16.5883 13.376 16.4875 12.9505L15.9464 13.4285L15.9471 13.4293ZM16.5771 17.7085C16.5974 17.5687 16.6156 17.4281 16.6331 17.2875L16.5694 17.3267C16.5736 17.4532 16.5757 17.5805 16.5771 17.7085ZM11.7135 15.9762L9.65417 16.9537L13.2346 19.1189L15.553 18.0593C14.3049 17.1232 13.0246 16.435 11.7142 15.9762H11.7135Z" fill="#29B473"/>
<path d="M18.6722 19.3018L16.1404 18.3843V22.5977L19.5304 20.5664V18.7868L18.6722 19.3018Z" fill="#29B473"/>
<path d="M15.7651 18.3936L13.2108 19.562L12.1776 18.9374V20.5269L15.7651 22.5722V18.3936Z" fill="#29B473"/>
<path fill-rule="evenodd" clip-rule="evenodd" d="M26.1558 18.0233C27.2239 25.3202 23.2466 30.813 16.3384 31.049C24.8307 33.0225 31.3077 25.7886 31.0949 17.7821L32 17.7384L30.1359 15.5045L28.269 13.2705L26.6073 15.6769L24.9455 18.0833L26.1565 18.0233H26.1558Z" fill="#F9AA38"/>
<path fill-rule="evenodd" clip-rule="evenodd" d="M10.7971 6.43402C16.2396 1.80699 22.7299 2.70309 26.3782 8.90922C23.7491 0.145756 14.5827 -2.16517 8.13158 2.03194L7.64158 1.22611L6.74419 4.05206L5.8468 6.87504L8.64957 7.19545L11.4523 7.51364L10.7964 6.43328L10.7971 6.43402Z" fill="#F9AA38"/>
<path fill-rule="evenodd" clip-rule="evenodd" d="M8.99268 26.5043C2.48416 23.8375 -0.0281117 17.4478 3.23105 11.0034C-2.63208 17.7934 0.0544866 27.3375 6.72121 31.1476L6.30611 32.0001L9.06758 31.4081L11.8318 30.8161L10.6909 28.0916L9.54987 25.367L8.99268 26.5043Z" fill="#F9AA38"/>
<path fill-rule="evenodd" clip-rule="evenodd" d="M23.106 12.4011C22.8106 7.54392 19.5123 4.60253 15.0316 5.4905C20.2333 2.9413 25.3775 6.62561 26.319 11.8143L26.9077 11.7048L26.0054 13.4237L25.1059 15.1427L23.7108 13.8433L22.3157 12.5439L23.1067 12.4011H23.106Z" fill="#0073BF"/>
<path fill-rule="evenodd" clip-rule="evenodd" d="M15.0105 26.3704C19.0501 28.7028 23.1654 27.3272 24.851 22.8511C24.1069 28.8596 18.4125 31.4858 13.7631 29.553L13.5321 30.1368L12.6403 28.4157L11.7485 26.6915L13.5328 26.1402L15.3171 25.589L15.0112 26.3704H15.0105Z" fill="#0073BF"/>
<path fill-rule="evenodd" clip-rule="evenodd" d="M8.13654 12.2895C4.14099 14.71 3.09801 19.1365 5.82587 22.9991C1.37113 19.1838 2.23212 12.6787 6.22277 9.50206L5.87277 8.98926L7.72915 9.08768L9.58553 9.18387L9.09553 11.0804L8.60834 12.9747L8.13654 12.2895Z" fill="#0073BF"/>
<path fill-rule="evenodd" clip-rule="evenodd" d="M22.3465 16.6403L18.6344 18.8683L15.9261 17.8871L15.5614 18.0543C15.2101 17.6185 14.8391 17.2189 14.4506 16.8541L15.9261 17.7243L15.9884 17.6858L16.0262 17.6622L16.5694 17.3262C16.5736 17.4527 16.5757 17.58 16.5771 17.708C16.5974 17.5682 16.6156 17.4276 16.6331 17.287L19.2049 15.6961L18.346 15.1929L18.4538 15.1781L18.4111 14.8318C18.5161 14.8081 18.6085 14.7718 18.6904 14.7237C18.7716 14.6764 18.8395 14.6187 18.8941 14.5521C18.9487 14.4855 18.9879 14.41 19.0131 14.3264C19.0376 14.242 19.0439 14.1525 19.032 14.057C19.0089 13.8683 18.9333 13.7248 18.8059 13.6278C18.6785 13.5302 18.4853 13.4651 18.2256 13.4325L18.1444 12.7687C18.3054 12.7821 18.4643 12.8361 18.6218 12.9308L18.7667 12.5771C18.6652 12.5179 18.5623 12.4728 18.4559 12.4417C18.3502 12.4113 18.2361 12.3965 18.1129 12.3965L18.087 12.1871L17.7993 12.2263L17.8238 12.4291C17.7209 12.4528 17.6299 12.4875 17.5494 12.5342C17.4689 12.5808 17.401 12.637 17.3464 12.7036C17.2918 12.771 17.2533 12.8457 17.2295 12.9293C17.2064 13.0129 17.2001 13.101 17.2113 13.1942C17.2232 13.2926 17.2484 13.377 17.2862 13.4488C17.324 13.5205 17.3758 13.5812 17.4409 13.6301C17.506 13.6789 17.5858 13.7181 17.6789 13.7485C17.772 13.7781 17.8812 13.8017 18.0065 13.8173L18.0898 14.5017C17.9799 14.498 17.8756 14.4773 17.7762 14.4403C17.6775 14.4026 17.576 14.3493 17.4717 14.2812L17.317 14.5905L16.6996 14.2287C16.6562 13.801 16.5876 13.3748 16.4868 12.9493L17.7958 11.7935L19.3386 12.7221C19.5437 13.4443 19.6704 14.2724 19.7586 15.1514C19.8678 14.3945 19.8706 13.673 19.7761 12.9856L21.4715 14.006L19.7068 15.5614L22.3451 16.6403H22.3465Z" fill="#29B473"/>
</svg>
