<svg width="32" height="32" viewBox="0 0 32 32" fill="none" xmlns="http://www.w3.org/2000/svg">
<path d="M9.96168 17.0105L7.77633 12.3409C7.73476 12.2521 7.65108 12.1949 7.55876 12.1937L2.72 12.1114C2.46897 12.1073 2.37179 12.4629 2.58504 12.6072L3.23017 13.0428C3.27012 13.0703 3.29873 13.1135 3.30899 13.1631C3.31925 13.2134 3.31061 13.2659 3.28524 13.3085L0.548688 17.9198C-0.149351 19.1269 -0.183901 20.6511 0.459611 21.8968L3.17133 27.4289C3.15891 26.6838 3.34624 25.9117 3.72306 25.2664L4.73044 23.5436L8.64712 16.9316C8.69895 16.8435 8.80746 16.8172 8.88952 16.8727L9.60807 17.3585C9.82132 17.5028 10.0745 17.2523 9.96114 17.0099L9.96168 17.0105ZM8.28865 26.0139V23.8385H4.97716L4.0216 25.472C3.44557 26.4595 3.36028 27.7688 3.80836 28.7312L3.86397 28.8457C4.1069 29.3082 4.37359 29.6668 4.68023 29.9436C5.24817 30.4534 5.9651 30.7343 6.69985 30.7343H8.28865V28.5578H7.97176V26.0151H8.28865V26.0139Z" fill="#F9AA38"/>
<path fill-rule="evenodd" clip-rule="evenodd" d="M9.5664 29.0591L14.0964 28.7414C14.1692 28.4581 14.2205 28.1667 14.2497 27.8724L9.5664 28.0382V29.0591ZM15.101 27.1909V27.1809C15.0902 26.4247 14.9564 25.6877 14.7042 24.9904L13.8324 24.8981L9.33858 24.4099V24.0723L8.74366 23.9766V26.5058H8.42676V28.0639H8.74366V30.5926L9.33858 30.498V30.1605L13.8324 29.6722L14.7042 29.5794C14.83 29.2319 14.9272 28.8704 14.9925 28.5054C15.0589 28.1381 15.0946 27.7632 15.101 27.3888V27.3801C15.101 27.3485 15.1021 27.317 15.1021 27.2849C15.1021 27.2528 15.101 27.2218 15.101 27.1903V27.1909ZM9.5664 25.5113L14.0964 25.829C14.1692 26.1122 14.2211 26.4036 14.2502 26.6974L9.5664 26.5321V25.5113Z" fill="#F9AA38"/>
<path d="M28.8567 23.8516L26.9715 23.8657H26.9699L19.7126 23.8727C19.6154 23.8727 19.5371 23.7886 19.5355 23.6834L19.5258 22.7666C19.5226 22.495 19.1911 22.3992 19.0637 22.634L16.6116 27.1465C16.5647 27.2324 16.5663 27.3392 16.6149 27.4239L19.1646 31.8722C19.2974 32.1035 19.6262 31.9995 19.6235 31.728L19.6143 30.9051C19.6143 30.8543 19.6321 30.8047 19.6656 30.7685C19.6991 30.7317 19.7444 30.7118 19.7914 30.7118H24.8574C26.1736 30.6943 27.378 29.9024 27.9983 28.6439L30.8375 23.1871C30.2641 23.6011 29.5629 23.847 28.8573 23.8522L28.8567 23.8516Z" fill="#0073BF"/>
<path d="M31.9762 20.4546C31.9271 20.8826 31.7921 21.3201 31.5637 21.7902L31.5054 21.9023C30.9985 22.8314 29.9339 23.4604 28.8547 23.4697L27.0672 23.4826L22.7246 16.1651C22.8509 16.2387 22.9692 16.3146 23.0858 16.3947C23.2175 16.4834 23.3433 16.5728 23.461 16.6627C23.5754 16.7515 23.6931 16.8461 23.8194 16.9541C23.935 17.0528 24.0478 17.1562 24.1569 17.2625C24.2594 17.3629 24.3652 17.4721 24.4792 17.5959C24.585 17.7104 24.6859 17.8284 24.782 17.9463C24.8101 17.9819 24.8387 18.0182 24.8668 18.0538L25.1572 18.4299L25.5065 18.1168L25.6166 18.0176C25.7802 17.871 25.9271 17.7378 26.0636 17.6123L26.0674 17.6094L26.0717 17.6053L27.3804 16.3433L27.7237 16.0127L27.5034 15.7517L27.7626 15.3972L28.039 15.0199L27.8187 14.822L28.0336 14.391L28.2263 14.005L28.0206 13.8502L28.1907 13.3964L28.3408 12.997L28.066 12.8276L28.1227 12.5C29.5096 14.8348 31.4914 18.1764 31.5 18.1893C31.8979 18.8585 32.0669 19.6638 31.9762 20.4552V20.4546Z" fill="#0073BF"/>
<path d="M25.4005 15.8132C25.5511 15.5603 25.3945 15.1615 25.0506 14.922C24.7073 14.6832 24.3067 14.6943 24.1561 14.9477C24.0055 15.2006 24.1626 15.5995 24.5059 15.8389C24.8493 16.0777 25.2498 16.0661 25.4005 15.8132Z" fill="#0073BF"/>
<path d="M27.4628 14.0278L27.7695 13.2108L27.5594 13.0817L27.7133 12.1958L27.7236 12.1082C27.5114 12.0784 27.2992 12.0568 27.0876 12.0434C26.9818 12.0364 26.8754 12.0306 26.7702 12.0288C26.6973 12.027 26.6244 12.0259 26.5526 12.0259C26.5191 12.0259 26.4851 12.027 26.4517 12.027C26.2406 12.0288 26.0284 12.0387 25.8184 12.0557C25.7131 12.0644 25.6084 12.0732 25.5026 12.0872C25.3979 12.0989 25.2931 12.1146 25.1895 12.1304C24.98 12.1637 24.7727 12.204 24.567 12.2513C24.418 12.2875 24.2706 12.3272 24.1227 12.3704C24.1081 12.3745 24.0946 12.3792 24.0801 12.3833C23.9791 12.4452 23.8825 12.5123 23.7896 12.583C23.8042 12.5789 23.8188 12.5754 23.8333 12.5719C23.8835 12.5591 23.9327 12.5474 23.9818 12.5357C24.1848 12.4884 24.3894 12.4481 24.5951 12.4154C24.7991 12.3798 25.0054 12.3523 25.2111 12.3325C25.3136 12.3214 25.4178 12.3138 25.5204 12.3068C25.623 12.3009 25.7272 12.2939 25.8297 12.2898C25.9415 12.2858 26.0538 12.284 26.1655 12.284C26.26 12.284 26.355 12.2858 26.4484 12.2881C26.5521 12.2922 26.6557 12.2969 26.7588 12.3039C26.8614 12.3109 26.9656 12.3179 27.0682 12.3272C27.2112 12.3412 27.3532 12.357 27.4957 12.3774C27.4887 12.4318 27.4801 12.4855 27.4731 12.5398C27.4601 12.6432 27.4477 12.7454 27.4347 12.8487C27.431 12.8791 27.4277 12.9089 27.4239 12.9392C27.3376 12.9135 27.2501 12.889 27.1627 12.8662C27.059 12.8405 26.9559 12.8143 26.8517 12.7927C26.748 12.7699 26.6433 12.7494 26.5397 12.7308C26.3302 12.6934 26.1213 12.663 25.9107 12.6402C25.806 12.6291 25.7007 12.6186 25.5949 12.6116C25.4891 12.6046 25.3849 12.5999 25.2791 12.597C25.231 12.5953 25.1819 12.5941 25.1333 12.5929C25.0853 12.5929 25.0367 12.5918 24.9886 12.5918C24.9314 12.5918 24.8747 12.5929 24.8175 12.5935C24.7603 12.5947 24.7036 12.5964 24.6464 12.5982C24.4364 12.6081 24.2258 12.6251 24.0169 12.6496C23.9105 12.6607 23.7794 12.6724 23.6654 12.687C23.6438 12.6899 23.6217 12.694 23.6017 12.6969C23.5645 12.7284 23.5272 12.7611 23.4905 12.7944C23.4986 12.7932 23.5062 12.7927 23.5132 12.7927C23.6752 12.7798 23.8663 12.7751 24.0239 12.7681C24.1486 12.7635 24.2722 12.7611 24.3953 12.7611C24.479 12.7611 24.5638 12.7623 24.6474 12.764C24.8558 12.7687 25.0615 12.781 25.2683 12.7997C25.3719 12.8084 25.474 12.8201 25.5765 12.833C25.6791 12.8458 25.7822 12.8587 25.8843 12.8744C26.0889 12.906 26.2929 12.9445 26.4948 12.9895C26.5958 13.0122 26.6968 13.0368 26.7972 13.0613C26.897 13.0887 26.9975 13.1144 27.0973 13.1442C27.1956 13.1728 27.2928 13.202 27.3905 13.233C27.4304 13.247 27.4704 13.2604 27.5114 13.2745C27.4952 13.3258 27.4785 13.3778 27.4634 13.4298C27.4342 13.5285 27.4051 13.6278 27.3748 13.7271C27.3667 13.7568 27.3586 13.7849 27.3505 13.8135C27.2685 13.772 27.1869 13.7317 27.1049 13.6932C27.0066 13.6476 26.91 13.6027 26.8101 13.5612C26.7119 13.5197 26.6125 13.4794 26.5127 13.4421C26.3124 13.3656 26.1115 13.2955 25.9086 13.2342C25.8065 13.2026 25.7045 13.1728 25.6019 13.1466C25.4993 13.1203 25.3962 13.0952 25.2937 13.073C25.0869 13.0268 24.8796 12.9871 24.6712 12.9556C24.4617 12.9258 24.2528 12.9036 24.0423 12.8879C23.8593 12.8733 23.6228 12.8522 23.4317 12.8493H23.3955C23.3728 12.8697 23.3507 12.8919 23.3302 12.9135C23.334 12.9135 23.3367 12.9135 23.3394 12.9147H23.3485C23.5569 12.9322 23.8252 12.9766 24.032 13.0064C24.2377 13.0379 24.4423 13.0765 24.6453 13.1203C24.8494 13.1635 25.0513 13.2126 25.2515 13.271C25.3514 13.2996 25.4508 13.3288 25.5501 13.3603C25.6483 13.3936 25.7477 13.4251 25.8459 13.4607C26.0424 13.5297 26.2373 13.6044 26.4284 13.6873C26.5251 13.7288 26.6206 13.772 26.7151 13.8164C26.8096 13.862 26.9046 13.9069 26.998 13.9531C27.0898 13.9992 27.181 14.0477 27.2717 14.0967C27.2798 14.1014 27.2901 14.1066 27.2992 14.1113C27.3273 14.1271 27.3554 14.1429 27.384 14.1586C27.3602 14.2071 27.3359 14.255 27.3122 14.3023C27.2992 14.3291 27.2868 14.3543 27.2739 14.3811C27.2458 14.4395 27.2172 14.4973 27.1891 14.5563C27.1853 14.5639 27.1821 14.5709 27.1772 14.5797C27.1643 14.6065 27.1519 14.6328 27.1389 14.6603C27.0844 14.6176 27.0298 14.5773 26.9742 14.5371C26.9553 14.523 26.9359 14.5084 26.9159 14.4944C26.8269 14.4313 26.7383 14.3683 26.6476 14.3093C26.5564 14.2491 26.4646 14.1919 26.3728 14.1358C26.1882 14.0226 26.0014 13.9163 25.8103 13.8182C25.7158 13.7691 25.6203 13.7195 25.5236 13.6745C25.427 13.6295 25.3288 13.5857 25.2316 13.5437C25.0361 13.4602 24.8364 13.3813 24.6372 13.3124C24.4358 13.2423 24.2328 13.1816 24.0282 13.1261C23.8242 13.0701 23.5569 13.0087 23.3502 12.9696C23.3367 12.9667 23.3075 12.9597 23.2811 12.9538C23.2638 12.9498 23.2476 12.9468 23.2384 12.9451C23.2238 12.9609 23.2082 12.9778 23.1931 12.9936C23.1985 12.9953 23.2066 12.9976 23.2147 13.0006C23.2541 13.0117 23.3113 13.0274 23.3367 13.0339C23.5397 13.0911 23.7999 13.1728 23.998 13.2418C24.1961 13.3107 24.3921 13.3866 24.5848 13.4683C24.7776 13.5501 24.9687 13.6377 25.1565 13.7311C25.251 13.7773 25.3439 13.8263 25.4356 13.876C25.5285 13.9262 25.6203 13.9776 25.7115 14.0296C25.8945 14.1347 26.0738 14.2451 26.2492 14.363C26.3275 14.415 26.4047 14.4681 26.4814 14.5236C26.4916 14.5295 26.5013 14.5365 26.5105 14.5435C26.5958 14.6054 26.6827 14.6673 26.7669 14.7315C26.8053 14.7601 26.8436 14.7899 26.8808 14.8191C26.9257 14.8536 26.9694 14.8892 27.0137 14.9237C27.0218 14.9312 27.0309 14.9377 27.0385 14.9441C27.0639 14.9645 27.0892 14.9867 27.1151 15.006C27.0833 15.0492 27.0525 15.0918 27.0207 15.1351C27.0034 15.1584 26.9872 15.1824 26.9699 15.2057C26.9338 15.2577 26.896 15.3091 26.8587 15.3611C26.8544 15.3681 26.8495 15.3751 26.8441 15.3815C26.8269 15.4049 26.8107 15.43 26.7934 15.4533C26.7459 15.4019 26.6989 15.3517 26.6514 15.3027C26.6341 15.2851 26.6169 15.2665 26.6007 15.2495C26.5235 15.1695 26.4452 15.0918 26.3658 15.0159C26.2859 14.9412 26.2049 14.8664 26.124 14.7934C25.9604 14.6486 25.792 14.509 25.6208 14.3753C25.5355 14.3081 25.4497 14.2421 25.3606 14.1802C25.2731 14.1172 25.1841 14.0564 25.095 13.9963C24.9147 13.876 24.7317 13.7627 24.5465 13.6558C24.3597 13.5507 24.1697 13.4508 23.9775 13.3597C23.7853 13.2663 23.5278 13.1658 23.3307 13.0887C23.2978 13.0759 23.2217 13.0502 23.1704 13.0327C23.1569 13.028 23.145 13.0239 23.1369 13.0198C23.124 13.0344 23.1132 13.0473 23.1008 13.0613C23.1051 13.0642 23.111 13.066 23.1169 13.0689C23.1688 13.0917 23.267 13.129 23.307 13.1489C23.4981 13.2435 23.7448 13.3626 23.9284 13.4666C24.113 13.5717 24.2933 13.6833 24.4698 13.8C24.648 13.9163 24.8218 14.0383 24.9924 14.1662C25.0772 14.2293 25.1609 14.2953 25.2435 14.3619C25.326 14.4278 25.4092 14.495 25.4902 14.5639C25.6532 14.7017 25.8114 14.8442 25.9669 14.9931C26.0343 15.0591 26.1024 15.1269 26.1688 15.1952C26.1779 15.204 26.186 15.2121 26.1941 15.2209C26.2686 15.298 26.3431 15.3745 26.4171 15.4545C26.45 15.4901 26.4824 15.5252 26.5143 15.562C26.5526 15.6046 26.5909 15.6466 26.6282 15.691C26.6352 15.6986 26.6428 15.708 26.6498 15.7155C26.6714 15.7401 26.6935 15.7646 26.7146 15.7903C26.6762 15.8265 26.639 15.8633 26.6007 15.8983C26.5807 15.9188 26.5607 15.9386 26.5397 15.9585C26.4948 16.004 26.4506 16.0473 26.4052 16.0916C26.3998 16.0975 26.3934 16.1033 26.3869 16.1092C26.3377 16.1582 26.2886 16.2079 26.2395 16.2569C26.2233 16.2727 26.206 16.2902 26.1893 16.3071C26.1148 16.3831 26.0403 16.4596 25.9636 16.5343C25.9107 16.5892 25.8578 16.6435 25.8044 16.699C25.738 16.7667 25.6705 16.8368 25.6041 16.9057C25.5852 16.9256 25.5652 16.946 25.5458 16.9665C25.44 17.0757 25.3358 17.1872 25.2316 17.297C25.1522 17.2094 25.0712 17.1236 24.9897 17.0412C24.8715 16.9192 24.7479 16.8041 24.6221 16.6937C24.4957 16.5828 24.3662 16.4771 24.2345 16.376C24.1033 16.2727 23.9667 16.1781 23.8285 16.0876C23.6903 15.997 23.5499 15.9112 23.4063 15.8306C23.2627 15.7518 23.1159 15.677 22.9685 15.6081C22.82 15.5392 22.6689 15.4784 22.5172 15.42C22.4254 15.3856 22.3196 15.35 22.2262 15.3208H22.2251C22.2251 15.3208 22.2262 15.3208 22.2262 15.3219C22.2273 15.3231 22.2289 15.326 22.2305 15.3289C22.2316 15.3307 22.2321 15.333 22.2343 15.3348C22.2359 15.3389 22.2381 15.3418 22.2386 15.3435C22.2397 15.3453 22.2402 15.3476 22.2402 15.3476H22.2418C22.3282 15.3891 22.4081 15.4382 22.4939 15.4814C22.6386 15.5561 22.7795 15.635 22.9188 15.7167C23.0592 15.7996 23.1952 15.8849 23.3302 15.9766C23.4641 16.0659 23.5958 16.1606 23.7254 16.2592C23.8539 16.3579 23.9791 16.4601 24.1033 16.5653C24.2264 16.6715 24.3462 16.7808 24.4628 16.894C24.58 17.0079 24.6928 17.1265 24.804 17.2474C24.9152 17.3677 25.0226 17.4926 25.1263 17.6217C25.1571 17.6591 25.1884 17.6976 25.2175 17.7362C25.2548 17.7035 25.2915 17.6702 25.3287 17.6375C25.4761 17.5043 25.6246 17.3706 25.7709 17.2357L27.0795 15.9737L26.9095 15.771L27.4088 15.0901L27.2442 14.9423L27.6356 14.1557L27.4655 14.0266L27.4628 14.0278Z" fill="#0073BF"/>
<path d="M14.4987 1.75877C13.9551 0.729189 12.9099 0.023723 11.8971 0.00153121H11.7762C11.2768 0.016715 10.8531 0.106068 10.4784 0.271338C9.78521 0.579686 9.21188 1.14149 8.86205 1.85513C8.85827 1.86389 7.9783 3.65967 7.03247 5.59035L8.76056 5.01628L9.21404 4.86561L9.38356 5.3439L9.82192 6.5808L11.7406 6.20646L11.7222 6.10193L11.5333 5.04957L12.4332 5.49983L13.9875 6.27713L14.0004 6.28355L14.0129 6.2888L15.3976 3.46169L14.4976 1.75818L14.4987 1.75877ZM25.8482 6.48035L25.1793 6.89849C25.1377 6.92477 25.0881 6.9312 25.0422 6.91835C24.9958 6.90433 24.9558 6.87105 24.9326 6.82608L22.4104 1.97777C21.7415 0.726268 20.4939 -0.0305872 19.1556 0.000948432H13.2797C13.9038 0.343169 14.4545 0.892122 14.8097 1.56488L15.7593 3.36183L19.3796 10.3061C19.4271 10.3984 19.398 10.5157 19.3127 10.5695L18.5682 11.0349C18.3479 11.1733 18.4343 11.5389 18.6902 11.543L23.6008 11.644C23.6942 11.6464 23.7811 11.5915 23.8259 11.5027L26.1942 6.84769C26.3179 6.6065 26.0685 6.34195 25.8482 6.47977V6.48035Z" fill="#29B473"/>
<path d="M13.7746 6.77536L13.7503 6.82617L12.6938 8.03796L12.6442 8.09402L12.6037 8.14132L12.5572 7.88203L12.5027 7.57602L12.4369 7.59062L12.3699 7.6058L12.303 7.6204L12.236 7.63558L12.1691 7.65018L12.1021 7.66537L12.0352 7.67997L11.9672 7.69515L11.9002 7.70917L11.8333 7.72435L11.7664 7.73895L11.6994 7.75413L11.6325 7.76815L11.5644 7.78333L11.4975 7.79735L11.4306 7.81253L11.3636 7.82655L11.2967 7.84173L11.2297 7.85575L11.1628 7.87093L11.0948 7.88495L11.0278 7.90013L10.9609 7.91415L10.8939 7.92933L10.827 7.94335C10.827 7.94335 10.7611 7.95853 10.7601 7.95853L10.6931 7.97255C10.6931 7.97255 10.6262 7.98773 10.6251 7.98773L10.5592 8.00175L10.4923 8.01693L10.4253 8.03095C10.4253 8.03095 10.3584 8.04496 10.3573 8.04496L10.2904 8.06015L10.2234 8.07533L10.1565 8.08935L10.0895 8.10453L9.95567 8.13315L9.88872 8.14833L9.8207 8.16351L9.75376 8.17753L9.68681 8.19155L9.61987 8.20673L9.55293 8.22075L9.48599 8.23593L9.41796 8.25111L9.28408 8.27973L9.21714 8.29491L9.15019 8.30893L9.10754 8.31886L8.95746 7.84232C8.95746 7.84232 8.95639 7.83881 8.95531 7.83706L8.71777 7.08605L8.71669 7.08254L8.47915 6.3327L8.47807 6.32802L8.42624 6.16567L8.41113 6.16684L8.33986 6.17093L8.26806 6.1756L8.1968 6.1791L8.12554 6.18378L8.05374 6.18845L7.98194 6.19254L7.91068 6.19721L7.76869 6.20597L7.69689 6.21064L7.62509 6.21531L7.55383 6.21882C7.55383 6.21882 7.48257 6.22349 7.48203 6.22349L7.41077 6.22758L7.3395 6.23225L7.26824 6.23692L7.19644 6.24159L7.12464 6.24627L7.05338 6.25094C7.05338 6.25094 6.98212 6.25444 6.98158 6.25444L6.8396 6.2632L6.76779 6.26787L6.69653 6.27254L6.76024 6.25152L6.82502 6.22933C6.82502 6.22933 6.88872 6.2083 6.8898 6.2083L6.95351 6.18611L7.01721 6.16509L7.08199 6.1429L7.1457 6.12187L7.21048 6.09968C7.21048 6.09968 7.27418 6.07866 7.27526 6.07866L7.33843 6.05647L7.40321 6.03544L7.46691 6.01325L7.5317 5.99223L7.5954 5.97004L7.66018 5.94901L7.72496 5.92682L7.78867 5.9058L7.85237 5.8836L7.91715 5.86258L7.98086 5.84039L8.04564 5.81937L8.10934 5.79717L8.17305 5.77615L8.23783 5.75513L8.30153 5.73293L8.36632 5.71074L8.43002 5.68972C8.43002 5.68972 8.49373 5.66753 8.49481 5.66753L8.62275 5.62606L8.68753 5.60387L8.75232 5.58168C8.76635 5.58168 8.78687 5.57058 8.79983 5.5665C8.8171 5.56007 8.83546 5.55306 8.85381 5.54781C8.93101 5.52562 9.00983 5.53146 9.08811 5.53146H9.09621L9.76078 7.14036L9.89682 7.11408L9.96484 7.10065L10.0329 7.08722L10.1009 7.07378L10.1678 7.06093L10.2359 7.0475L10.4399 7.00779L10.5069 6.99436L10.5749 6.98093C10.5749 6.98093 10.6418 6.9675 10.6429 6.9675L10.7109 6.95465L10.779 6.94122L10.8459 6.92778L10.9139 6.91435C10.9139 6.91435 10.9809 6.90034 10.9819 6.90034L11.0489 6.88691L11.1169 6.87347L11.2529 6.84719L11.321 6.83376L11.3879 6.82091L11.4559 6.80748L11.5229 6.79405L11.592 6.78062L11.66 6.76719L11.7269 6.75434L11.795 6.74091C11.795 6.74091 11.8619 6.72748 11.863 6.72748L11.9299 6.71404L12.134 6.67433L12.3337 6.63462L12.2171 5.98464L13.7714 6.76193L13.7746 6.77536Z" fill="#29B473"/>
</svg>
