<svg width="21" height="20" viewBox="0 0 21 20" fill="none" xmlns="http://www.w3.org/2000/svg">
<path fill-rule="evenodd" clip-rule="evenodd" d="M19.8887 13.0592H15.8407C13.9437 13.0592 12.3997 11.5162 12.3987 9.62025C12.3987 7.72225 13.9427 6.17825 15.8407 6.17725H19.8887C20.3027 6.17725 20.6387 6.51325 20.6387 6.92725C20.6387 7.34125 20.3027 7.67725 19.8887 7.67725H15.8407C14.7697 7.67825 13.8987 8.54925 13.8987 9.61925C13.8987 10.6882 14.7707 11.5592 15.8407 11.5592H19.8887C20.3027 11.5592 20.6387 11.8952 20.6387 12.3092C20.6387 12.7232 20.3027 13.0592 19.8887 13.0592Z" fill="#212121"/>
<path fill-rule="evenodd" clip-rule="evenodd" d="M16.2983 10.3071H15.9863C15.5723 10.3071 15.2363 9.97113 15.2363 9.55713C15.2363 9.14313 15.5723 8.80713 15.9863 8.80713H16.2983C16.7123 8.80713 17.0483 9.14313 17.0483 9.55713C17.0483 9.97113 16.7123 10.3071 16.2983 10.3071Z" fill="#212121"/>
<mask id="mask0_1323_1125" style="mask-type:luminance" maskUnits="userSpaceOnUse" x="0" y="0" width="21" height="20">
<path fill-rule="evenodd" clip-rule="evenodd" d="M0 0.163574H20.6386V19.3365H0V0.163574Z" fill="white"/>
</mask>
<g mask="url(#mask0_1323_1125)">
<path fill-rule="evenodd" clip-rule="evenodd" d="M5.99751 1.66357C3.51751 1.66357 1.49951 3.68157 1.49951 6.16157V13.3386C1.49951 15.8186 3.51751 17.8366 5.99751 17.8366H14.6415C17.1215 17.8366 19.1385 15.8186 19.1385 13.3386V6.16157C19.1385 3.68157 17.1215 1.66357 14.6415 1.66357H5.99751ZM14.6415 19.3366H5.99751C2.69051 19.3366 -0.000488281 16.6456 -0.000488281 13.3386V6.16157C-0.000488281 2.85357 2.69051 0.163574 5.99751 0.163574H14.6415C17.9485 0.163574 20.6385 2.85357 20.6385 6.16157V13.3386C20.6385 16.6456 17.9485 19.3366 14.6415 19.3366Z" fill="#212121"/>
</g>
<path fill-rule="evenodd" clip-rule="evenodd" d="M10.6846 6.20166H5.28564C4.87164 6.20166 4.53564 5.86566 4.53564 5.45166C4.53564 5.03766 4.87164 4.70166 5.28564 4.70166H10.6846C11.0986 4.70166 11.4346 5.03766 11.4346 5.45166C11.4346 5.86566 11.0986 6.20166 10.6846 6.20166Z" fill="#212121"/>
</svg>
