<svg width="25" height="24" viewBox="0 0 25 24" fill="none" xmlns="http://www.w3.org/2000/svg">
<path d="M9.20113 18.1551L14.6145 3.28196C14.6713 3.1259 14.7878 2.9988 14.9383 2.92862C15.0888 2.85843 15.261 2.85091 15.4171 2.90771L23.5326 5.86154C23.6887 5.91834 23.8158 6.03481 23.886 6.18531C23.9562 6.33581 23.9637 6.50803 23.9069 6.66408L18.4935 21.5372C18.4654 21.6145 18.4223 21.6855 18.3668 21.7461C18.3112 21.8067 18.2443 21.8558 18.1697 21.8906C18.0952 21.9253 18.0146 21.9451 17.9324 21.9487C17.8503 21.9522 17.7682 21.9396 17.6909 21.9115L9.57538 18.9577C9.49811 18.9295 9.42713 18.8865 9.3665 18.8309C9.30587 18.7754 9.25678 18.7084 9.22203 18.6339C9.18727 18.5594 9.16754 18.4787 9.16396 18.3966C9.16037 18.3144 9.173 18.2324 9.20113 18.1551Z" fill="#94E671"/>
<path d="M14.1561 4.54135L14.6443 3.20026C14.6685 3.13372 14.7056 3.07261 14.7534 3.02041C14.8012 2.96821 14.8589 2.92595 14.9231 2.89604C14.9872 2.86612 15.0567 2.84915 15.1274 2.84607C15.1982 2.843 15.2688 2.85389 15.3353 2.87813L23.6143 5.89126C23.6809 5.91546 23.742 5.95254 23.7943 6.00037C23.8465 6.04821 23.8887 6.10587 23.9187 6.17005C23.9486 6.23423 23.9656 6.30368 23.9687 6.37443C23.9717 6.44518 23.9609 6.51584 23.9366 6.58238L23.4485 7.92352C23.4727 7.85698 23.4836 7.78632 23.4806 7.71557C23.4775 7.64482 23.4605 7.57537 23.4306 7.51119C23.4006 7.44701 23.3584 7.38935 23.3061 7.34152C23.2539 7.29368 23.1928 7.2566 23.1262 7.2324L14.8472 4.21909C14.7807 4.19484 14.71 4.18395 14.6393 4.18703C14.5685 4.19011 14.4991 4.2071 14.4349 4.23702C14.3707 4.26695 14.3131 4.30923 14.2652 4.36145C14.2174 4.41367 14.1803 4.4748 14.1561 4.54135Z" fill="#52CC7B"/>
<path d="M10.924 16.7276L15.0225 5.4669C15.2009 5.55386 15.3957 5.60236 15.5941 5.60925C15.7924 5.61615 15.9901 5.58128 16.1741 5.50692C16.3582 5.43256 16.5245 5.32035 16.6625 5.17758C16.8004 5.0348 16.9067 4.86465 16.9747 4.67813L21.3404 6.26719C21.2119 6.62029 21.229 7.00998 21.3878 7.35053C21.5466 7.69109 21.8342 7.95461 22.1872 8.08313L18.0881 19.3453C17.9133 19.2817 17.7276 19.2531 17.5417 19.2612C17.3559 19.2693 17.1734 19.314 17.0048 19.3926C16.8361 19.4712 16.6847 19.5823 16.559 19.7195C16.4333 19.8567 16.3358 20.0173 16.2722 20.1921L11.7763 18.5558C11.8404 18.3798 11.8692 18.1928 11.861 18.0057C11.8529 17.8186 11.808 17.6349 11.7288 17.4651C11.6497 17.2954 11.5379 17.1428 11.3998 17.0163C11.2617 16.8898 11.1 16.7916 10.924 16.7276Z" fill="#3D997A"/>
<path d="M13.7861 12.3784C13.7861 11.829 13.949 11.2918 14.2543 10.835C14.5596 10.3781 14.9934 10.022 15.5011 9.81174C16.0087 9.60147 16.5673 9.54647 17.1063 9.65367C17.6452 9.76088 18.1402 10.0255 18.5287 10.414C18.9172 10.8026 19.1818 11.2976 19.289 11.8365C19.3962 12.3754 19.3411 12.934 19.1308 13.4417C18.9205 13.9493 18.5644 14.3832 18.1076 14.6884C17.6507 14.9937 17.1135 15.1566 16.5641 15.1566C15.8275 15.1557 15.1214 14.8627 14.6006 14.3419C14.0798 13.8211 13.7869 13.115 13.7861 12.3784Z" fill="#FFDF40"/>
<path d="M7.4006 17.6384V1.8107C7.4006 1.72847 7.41679 1.64704 7.44826 1.57107C7.47972 1.4951 7.52584 1.42607 7.58399 1.36792C7.64213 1.30978 7.71116 1.26366 7.78713 1.23219C7.8631 1.20073 7.94453 1.18453 8.02676 1.18454H16.6632C16.7454 1.18453 16.8268 1.20073 16.9028 1.23219C16.9788 1.26366 17.0478 1.30978 17.1059 1.36792C17.1641 1.42607 17.2102 1.4951 17.2417 1.57107C17.2731 1.64704 17.2893 1.72847 17.2893 1.8107V17.6384C17.2893 17.7206 17.2731 17.802 17.2417 17.878C17.2102 17.954 17.1641 18.023 17.1059 18.0811C17.0478 18.1393 16.9788 18.1854 16.9028 18.2169C16.8268 18.2483 16.7454 18.2645 16.6632 18.2645H8.02676C7.94453 18.2645 7.8631 18.2483 7.78713 18.2169C7.71116 18.1854 7.64213 18.1393 7.58399 18.0811C7.52584 18.023 7.47972 17.954 7.44826 17.878C7.41679 17.802 7.4006 17.7206 7.4006 17.6384Z" fill="#94E671"/>
<path d="M7.4006 3.15094V1.72374C7.4006 1.58077 7.4574 1.44366 7.55849 1.34256C7.65959 1.24147 7.7967 1.18468 7.93967 1.18468H16.7501C16.8931 1.18468 17.0302 1.24147 17.1313 1.34256C17.2324 1.44366 17.2892 1.58077 17.2892 1.72374V3.15094C17.2892 3.00797 17.2324 2.87086 17.1313 2.76977C17.0302 2.66867 16.8931 2.61188 16.7501 2.61188H7.93981C7.86901 2.61186 7.79889 2.62579 7.73347 2.65287C7.66806 2.67996 7.60861 2.71966 7.55854 2.76972C7.50847 2.81978 7.46875 2.87921 7.44165 2.94462C7.41455 3.01003 7.4006 3.08014 7.4006 3.15094Z" fill="#52CC7B"/>
<path d="M8.53128 15.7078V3.72431C8.72871 3.74496 8.92829 3.7239 9.11706 3.6625C9.30584 3.6011 9.47961 3.50072 9.62712 3.36788C9.77463 3.23503 9.89258 3.07268 9.97334 2.89134C10.0541 2.71 10.0959 2.51371 10.0959 2.3152H14.7418C14.7418 2.69096 14.8911 3.05133 15.1568 3.31703C15.4225 3.58273 15.7829 3.732 16.1586 3.732V15.7172C15.7829 15.7172 15.4225 15.8665 15.1568 16.1322C14.8911 16.3979 14.7418 16.7582 14.7418 17.134H9.95745C9.95745 16.7557 9.8072 16.393 9.53974 16.1255C9.27228 15.8581 8.90952 15.7078 8.53128 15.7078Z" fill="#3D997A"/>
<path d="M9.56683 9.72451C9.56683 9.17504 9.72977 8.63791 10.035 8.18105C10.3403 7.72419 10.7742 7.36811 11.2818 7.15784C11.7895 6.94757 12.3481 6.89255 12.887 6.99975C13.4259 7.10695 13.9209 7.37155 14.3094 7.76008C14.698 8.14862 14.9625 8.64364 15.0697 9.18255C15.1769 9.72146 15.1219 10.2801 14.9116 10.7877C14.7013 11.2953 14.3453 11.7292 13.8884 12.0345C13.4315 12.3397 12.8944 12.5027 12.3449 12.5026C11.6084 12.5018 10.9022 12.2089 10.3814 11.688C9.86059 11.1672 9.56764 10.4611 9.56683 9.72451Z" fill="#FFDF40"/>
<path d="M6.50652 21.5184L1.09312 6.6452C1.06499 6.56793 1.05237 6.48588 1.05596 6.40373C1.05954 6.32158 1.07928 6.24094 1.11403 6.16641C1.14878 6.09189 1.19787 6.02494 1.2585 5.96939C1.31912 5.91384 1.3901 5.87077 1.46737 5.84265L9.58293 2.88882C9.6602 2.86069 9.74225 2.84806 9.82441 2.85164C9.90656 2.85522 9.9872 2.87495 10.0617 2.9097C10.1363 2.94444 10.2032 2.99353 10.2588 3.05416C10.3143 3.11478 10.3574 3.18575 10.3855 3.26303L15.7989 18.1362C15.827 18.2135 15.8396 18.2955 15.8361 18.3777C15.8325 18.4598 15.8127 18.5405 15.778 18.615C15.7432 18.6895 15.6941 18.7565 15.6335 18.812C15.5729 18.8676 15.5019 18.9107 15.4246 18.9388L7.30907 21.8926C7.15302 21.9494 6.9808 21.9419 6.8303 21.8717C6.67979 21.8015 6.56333 21.6744 6.50652 21.5184Z" fill="#94E671"/>
<path d="M1.5515 7.90464L1.06339 6.56349C1.03915 6.49696 1.02825 6.42629 1.03133 6.35554C1.03441 6.28479 1.0514 6.21534 1.08133 6.15116C1.11125 6.08698 1.15353 6.02932 1.20575 5.98149C1.25797 5.93365 1.3191 5.89657 1.38565 5.87237L9.66467 2.85906C9.7312 2.83482 9.80186 2.82394 9.87261 2.82702C9.94335 2.8301 10.0128 2.84709 10.077 2.87702C10.1411 2.90694 10.1988 2.94922 10.2466 3.00144C10.2945 3.05365 10.3315 3.11478 10.3557 3.18132L10.8439 4.52246C10.8197 4.45589 10.7827 4.39474 10.7348 4.34251C10.687 4.29027 10.6293 4.24797 10.5652 4.21802C10.501 4.18808 10.4315 4.17107 10.3608 4.16798C10.29 4.16489 10.2193 4.17577 10.1528 4.20001L1.87376 7.21351C1.80721 7.23771 1.74608 7.27479 1.69386 7.32263C1.64164 7.37046 1.59936 7.42812 1.56944 7.4923C1.53951 7.55648 1.52252 7.62593 1.51944 7.69668C1.51636 7.76743 1.52726 7.8381 1.5515 7.90464Z" fill="#52CC7B"/>
<path d="M6.90871 19.3172L2.81015 8.0567C3.00275 8.00859 3.18309 7.92056 3.33949 7.7983C3.49589 7.67604 3.62485 7.52228 3.71803 7.34699C3.81121 7.1717 3.86652 6.97879 3.88037 6.78076C3.89423 6.58273 3.86632 6.384 3.79846 6.19745L8.16421 4.60838C8.29274 4.96148 8.55626 5.24906 8.89681 5.40786C9.23736 5.56667 9.62705 5.58369 9.98015 5.45518L14.0793 16.7174C13.9044 16.781 13.7438 16.8785 13.6067 17.0042C13.4695 17.1299 13.3584 17.2814 13.2798 17.45C13.2011 17.6186 13.1565 17.8011 13.1484 17.987C13.1403 18.1729 13.1688 18.3585 13.2325 18.5334L8.7366 20.1697C8.67256 19.9937 8.57449 19.832 8.44797 19.6939C8.32145 19.5559 8.16897 19.444 7.99923 19.3649C7.82949 19.2857 7.64582 19.2407 7.45871 19.2326C7.2716 19.2244 7.08471 19.2531 6.90871 19.3172Z" fill="#3D997A"/>
<path d="M5.83543 13.3409C5.64749 12.8245 5.61689 12.2641 5.74749 11.7304C5.87809 11.1966 6.16402 10.7136 6.56913 10.3424C6.97423 9.97121 7.48032 9.72846 8.02339 9.64487C8.56646 9.56128 9.12212 9.64061 9.62011 9.87282C10.1181 10.105 10.536 10.4797 10.8211 10.9495C11.1061 11.4192 11.2455 11.9629 11.2215 12.5119C11.1975 13.0608 11.0113 13.5903 10.6864 14.0334C10.3615 14.4765 9.91252 14.8134 9.39619 15.0013C8.70378 15.2524 7.94002 15.2186 7.27248 14.9074C6.60494 14.5961 6.08813 14.0327 5.83543 13.3409Z" fill="#FFDF40"/>
<path d="M18.4103 19.3068V20.34C18.4103 20.4473 18.3677 20.5503 18.2918 20.6262C18.2159 20.7021 18.1129 20.7447 18.0056 20.7447C18.0587 20.7447 18.1114 20.7552 18.1605 20.7755C18.2096 20.7959 18.2542 20.8257 18.2918 20.8633C18.3294 20.9009 18.3592 20.9455 18.3795 20.9946C18.3999 21.0437 18.4103 21.0964 18.4103 21.1495V22.1826C18.4103 22.2358 18.3999 22.2884 18.3795 22.3375C18.3592 22.3866 18.3294 22.4313 18.2918 22.4689C18.2542 22.5065 18.2096 22.5363 18.1605 22.5566C18.1114 22.577 18.0587 22.5874 18.0056 22.5874H9.00149C8.89413 22.5874 8.79116 22.5448 8.71525 22.4689C8.63933 22.3929 8.59668 22.29 8.59668 22.1826V21.1495C8.59668 21.0422 8.63933 20.9392 8.71525 20.8633C8.79116 20.7874 8.89413 20.7447 9.00149 20.7447C8.89414 20.7447 8.79118 20.7021 8.71526 20.6262C8.63935 20.5503 8.59669 20.4473 8.59668 20.34V19.3068C8.59669 19.1995 8.63935 19.0965 8.71526 19.0206C8.79117 18.9447 8.89413 18.902 9.00149 18.902H18.0056C18.1129 18.902 18.2159 18.9447 18.2918 19.0206C18.3677 19.0965 18.4103 19.1995 18.4103 19.3068ZM18.0056 17.0594H9.00149C8.89414 17.0594 8.79118 17.102 8.71526 17.1779C8.63935 17.2538 8.59669 17.3568 8.59668 17.4641V18.4973C8.59669 18.6046 8.63935 18.7076 8.71526 18.7835C8.79118 18.8594 8.89414 18.902 9.00149 18.902H18.0056C18.1129 18.902 18.2159 18.8594 18.2918 18.7835C18.3677 18.7076 18.4103 18.6046 18.4103 18.4973V17.4641C18.4103 17.3568 18.3677 17.2538 18.2918 17.1779C18.2159 17.102 18.1129 17.0594 18.0056 17.0594ZM18.4103 14.8119V13.7787C18.4103 13.6714 18.3677 13.5684 18.2918 13.4925C18.2159 13.4166 18.1129 13.374 18.0056 13.374H9.00149C8.89414 13.374 8.79118 13.4166 8.71526 13.4925C8.63935 13.5684 8.59669 13.6714 8.59668 13.7787V14.8119C8.59669 14.9192 8.63935 15.0222 8.71526 15.0981C8.79117 15.174 8.89413 15.2167 9.00149 15.2167C8.89414 15.2167 8.79118 15.2593 8.71526 15.3352C8.63935 15.4111 8.59669 15.5141 8.59668 15.6214V16.6547C8.59669 16.7621 8.63935 16.865 8.71526 16.9409C8.79118 17.0168 8.89414 17.0595 9.00149 17.0595H18.0056C18.1129 17.0595 18.2159 17.0168 18.2918 16.9409C18.3677 16.865 18.4103 16.762 18.4103 16.6547V15.6216C18.4103 15.5142 18.3677 15.4113 18.2918 15.3354C18.2159 15.2595 18.1129 15.2168 18.0056 15.2168C18.0587 15.2168 18.1114 15.2063 18.1605 15.186C18.2096 15.1656 18.2542 15.1358 18.2918 15.0982C18.3294 15.0606 18.3592 15.0159 18.3796 14.9668C18.3999 14.9177 18.4104 14.865 18.4103 14.8119Z" fill="#FFDF40"/>
<path d="M18.4103 21.5203V22.1828C18.4103 22.236 18.3999 22.2886 18.3795 22.3377C18.3592 22.3868 18.3294 22.4315 18.2918 22.469C18.2542 22.5066 18.2096 22.5365 18.1605 22.5568C18.1114 22.5771 18.0587 22.5876 18.0056 22.5876H9.00149C8.94833 22.5876 8.89569 22.5771 8.84658 22.5568C8.79746 22.5365 8.75284 22.5066 8.71525 22.4691C8.67766 22.4315 8.64784 22.3868 8.62749 22.3377C8.60715 22.2886 8.59668 22.236 8.59668 22.1828V21.5203C8.59668 21.6277 8.63933 21.7306 8.71525 21.8066C8.79116 21.8825 8.89413 21.9251 9.00149 21.9251H18.0056C18.0587 21.9251 18.1114 21.9147 18.1605 21.8943C18.2096 21.874 18.2542 21.8442 18.2918 21.8066C18.3294 21.769 18.3592 21.7243 18.3795 21.6752C18.3999 21.6261 18.4103 21.5735 18.4103 21.5203ZM18.4103 19.6777V20.3401C18.4103 20.4475 18.3677 20.5505 18.2918 20.6264C18.2159 20.7023 18.1129 20.7449 18.0056 20.7449H9.00149C8.89414 20.7449 8.79118 20.7023 8.71526 20.6264C8.63935 20.5505 8.59669 20.4475 8.59668 20.3401V19.6775C8.59669 19.7848 8.63935 19.8878 8.71526 19.9637C8.79118 20.0396 8.89414 20.0822 9.00149 20.0822H18.0056C18.1129 20.0822 18.2159 20.0396 18.2918 19.9637C18.3677 19.8878 18.4103 19.7848 18.4103 19.6775V19.6777ZM18.4103 17.835V18.4974C18.4103 18.6048 18.3677 18.7078 18.2918 18.7837C18.2159 18.8596 18.1129 18.9022 18.0056 18.9022H9.00149C8.89414 18.9022 8.79118 18.8596 8.71526 18.7837C8.63935 18.7078 8.59669 18.6048 8.59668 18.4974V17.8348C8.59669 17.9421 8.63935 18.0451 8.71526 18.121C8.79118 18.1969 8.89414 18.2395 9.00149 18.2395H18.0056C18.1129 18.2395 18.2159 18.1969 18.2918 18.121C18.3677 18.0451 18.4103 17.9421 18.4103 17.8348V17.835ZM18.4103 15.9923V16.6547C18.4103 16.7621 18.3677 16.865 18.2918 16.9409C18.2159 17.0168 18.1129 17.0595 18.0056 17.0595H9.00149C8.89413 17.0595 8.79117 17.0168 8.71526 16.9409C8.63935 16.865 8.59669 16.7621 8.59668 16.6547V15.9921C8.59669 16.0994 8.63935 16.2024 8.71526 16.2783C8.79118 16.3542 8.89414 16.3968 9.00149 16.3968H18.0056C18.1129 16.3968 18.2159 16.3542 18.2918 16.2783C18.3677 16.2024 18.4103 16.0994 18.4103 15.9921V15.9923ZM18.4103 14.1496V14.812C18.4103 14.9194 18.3677 15.0224 18.2918 15.0983C18.2159 15.1742 18.1129 15.2168 18.0056 15.2169H9.00149C8.89413 15.2168 8.79117 15.1742 8.71526 15.0983C8.63935 15.0224 8.59669 14.9194 8.59668 14.812V14.1494C8.59669 14.2567 8.63935 14.3597 8.71526 14.4356C8.79118 14.5115 8.89414 14.5541 9.00149 14.5541H18.0056C18.1129 14.5541 18.2159 14.5115 18.2918 14.4356C18.3677 14.3597 18.4103 14.2567 18.4103 14.1494V14.1496Z" fill="#FFBE40"/>
<path d="M22.9901 17.9552C22.9901 18.9165 22.7051 19.8562 22.171 20.6554C21.637 21.4547 20.8779 22.0777 19.9898 22.4455C19.1017 22.8134 18.1244 22.9097 17.1816 22.7221C16.2388 22.5346 15.3728 22.0717 14.6931 21.392C14.0133 20.7123 13.5504 19.8463 13.3629 18.9035C13.1753 17.9606 13.2716 16.9834 13.6394 16.0953C14.0073 15.2072 14.6302 14.4481 15.4295 13.914C16.2287 13.38 17.1684 13.0949 18.1297 13.0949C18.768 13.0948 19.4 13.2205 19.9897 13.4648C20.5794 13.709 21.1152 14.067 21.5666 14.5184C22.0179 14.9697 22.3759 15.5055 22.6202 16.0952C22.8644 16.6849 22.9901 17.3169 22.9901 17.9552Z" fill="#FDBF00"/>
<path d="M18.1297 22.8155C16.8433 22.8115 15.6109 22.2976 14.7027 21.3866C13.7945 20.4755 13.2845 19.2416 13.2845 17.9552C13.2845 16.6687 13.7945 15.4348 14.7027 14.5237C15.6109 13.6127 16.8433 13.0989 18.1297 13.0949V22.8155Z" fill="#FF9100"/>
<path d="M18.1297 21.4683C17.4349 21.4683 16.7557 21.2622 16.1779 20.8762C15.6002 20.4902 15.1499 19.9415 14.884 19.2996C14.6181 18.6577 14.5486 17.9513 14.6841 17.2698C14.8197 16.5883 15.1543 15.9624 15.6456 15.4711C16.1369 14.9797 16.7629 14.6452 17.4443 14.5096C18.1258 14.374 18.8322 14.4436 19.4741 14.7095C20.116 14.9754 20.6647 15.4257 21.0507 16.0034C21.4368 16.5811 21.6428 17.2604 21.6428 17.9552C21.6418 18.8866 21.2713 19.7796 20.6127 20.4382C19.9541 21.0968 19.0611 21.4672 18.1297 21.4683Z" fill="#FFDF40"/>
<path d="M18.1297 21.4683C17.198 21.4683 16.3044 21.0982 15.6456 20.4393C14.9867 19.7805 14.6166 18.8869 14.6166 17.9552C14.6166 17.0235 14.9867 16.1299 15.6456 15.4711C16.3044 14.8122 17.198 14.4421 18.1297 14.4421V21.4683Z" fill="#FFBE40"/>
<path d="M19.2718 18.5103C19.3098 18.7325 19.2764 18.9611 19.1764 19.1631C19.0763 19.3651 18.9146 19.5301 18.7148 19.6343C18.6181 19.686 18.5157 19.7261 18.4096 19.7536V20.0766C18.4096 20.1636 18.3751 20.2471 18.3135 20.3086C18.252 20.3701 18.1685 20.4047 18.0815 20.4047C17.9945 20.4047 17.911 20.3701 17.8495 20.3086C17.788 20.2471 17.7534 20.1636 17.7534 20.0766V19.7694C17.6691 19.7515 17.5867 19.7257 17.5073 19.6923C17.1963 19.5611 16.9704 19.3197 16.8877 19.0305C16.8638 18.9468 16.8741 18.8571 16.9164 18.781C16.9586 18.7049 17.0294 18.6487 17.113 18.6248C17.1967 18.6009 17.2865 18.6112 17.3625 18.6535C17.4386 18.6957 17.4948 18.7665 17.5187 18.8501C17.5465 18.9474 17.6355 19.0341 17.7628 19.0879C17.8655 19.1297 17.9762 19.1485 18.087 19.1431C18.1979 19.1376 18.3062 19.108 18.4043 19.0562C18.4814 19.0167 18.5442 18.954 18.5839 18.877C18.6236 18.8001 18.6383 18.7126 18.626 18.6269C18.5846 18.3972 18.3202 18.2276 17.9189 18.1727C17.4596 18.1098 17.1208 17.8556 16.9897 17.4753C16.9318 17.3041 16.922 17.1202 16.9615 16.9437C17.001 16.7673 17.0882 16.6051 17.2137 16.4749C17.3627 16.3253 17.5491 16.2183 17.7534 16.1649V15.8422C17.7534 15.7551 17.788 15.6717 17.8495 15.6101C17.911 15.5486 17.9945 15.514 18.0815 15.514C18.1685 15.514 18.252 15.5486 18.3135 15.6101C18.3751 15.6717 18.4096 15.7551 18.4096 15.8422V16.1562C18.6827 16.2234 18.9261 16.3787 19.1019 16.5981C19.1565 16.6657 19.182 16.7522 19.1729 16.8385C19.1638 16.9249 19.1208 17.0041 19.0534 17.0589C18.9859 17.1136 18.8996 17.1394 18.8132 17.1306C18.7268 17.1217 18.6474 17.079 18.5924 17.0117C18.5367 16.941 18.4662 16.8832 18.3859 16.8423C18.3056 16.8015 18.2174 16.7787 18.1273 16.7754C18.0468 16.7702 17.9659 16.7814 17.8898 16.8083C17.8137 16.8353 17.7438 16.8774 17.6845 16.9322C17.6431 16.9751 17.6143 17.0284 17.6012 17.0865C17.5881 17.1446 17.5912 17.2052 17.6102 17.2617C17.6584 17.4015 17.7996 17.4942 18.0079 17.5227C18.7049 17.6178 19.1774 17.9872 19.2718 18.5103ZM21.7109 17.9593C21.7109 18.6772 21.498 19.3789 21.0992 19.9758C20.7004 20.5726 20.1335 21.0378 19.4703 21.3125C18.8071 21.5872 18.0773 21.6591 17.3733 21.519C16.6692 21.3789 16.0225 21.0332 15.5149 20.5256C15.0073 20.018 14.6616 19.3713 14.5216 18.6672C14.3816 17.9632 14.4535 17.2334 14.7282 16.5702C15.0029 15.907 15.4681 15.3402 16.065 14.9414C16.6619 14.5425 17.3636 14.3297 18.0815 14.3297C19.0437 14.3308 19.9663 14.7135 20.6467 15.394C21.3272 16.0745 21.7099 16.997 21.7109 17.9593ZM21.0547 17.9593C21.0547 17.3713 20.8803 16.7964 20.5536 16.3074C20.2269 15.8185 19.7626 15.4374 19.2193 15.2123C18.676 14.9873 18.0782 14.9284 17.5014 15.0431C16.9246 15.1578 16.3948 15.441 15.979 15.8568C15.5632 16.2726 15.28 16.8024 15.1653 17.3792C15.0505 17.9559 15.1094 18.5538 15.3344 19.0971C15.5595 19.6404 15.9406 20.1047 16.4295 20.4314C16.9185 20.7582 17.4933 20.9325 18.0814 20.9326C18.8697 20.9317 19.6254 20.6182 20.1828 20.0608C20.7403 19.5034 21.0538 18.7476 21.0547 17.9593ZM9.24336 11.7041C9.26507 11.7712 9.2719 11.8422 9.26337 11.9122C9.25485 11.9822 9.23118 12.0495 9.19401 12.1094C9.15021 12.184 9.13766 12.2729 9.15907 12.3567C9.18048 12.4405 9.23413 12.5125 9.30835 12.557C9.38256 12.6014 9.47133 12.6148 9.55534 12.5941C9.63935 12.5735 9.7118 12.5205 9.75693 12.4467C9.88067 12.2428 9.93756 12.0054 9.91963 11.7676L10.1382 11.6879C10.179 11.6734 10.2165 11.651 10.2486 11.6219C10.2807 11.5928 10.3067 11.5577 10.3252 11.5185C10.3436 11.4793 10.3541 11.4369 10.3561 11.3937C10.3581 11.3504 10.3515 11.3072 10.3367 11.2665C10.3218 11.2258 10.2991 11.1884 10.2698 11.1566C10.2405 11.1247 10.2052 11.099 10.1658 11.0808C10.1265 11.0627 10.084 11.0525 10.0407 11.0508C9.99747 11.0492 9.9543 11.0561 9.91372 11.0713L9.68751 11.1538C9.58216 11.0114 9.44265 10.8979 9.28185 10.8236C9.13232 10.7573 8.96743 10.7333 8.8052 10.7543C8.64298 10.7754 8.48965 10.8406 8.36197 10.9428C8.08415 11.1678 7.96996 11.5414 8.05654 11.9416C8.1254 12.2598 8.07449 12.5033 7.9206 12.5932C7.86383 12.6234 7.79905 12.6351 7.73529 12.6267C7.67154 12.6183 7.61201 12.5902 7.56501 12.5463C7.49981 12.4871 7.44833 12.4145 7.41416 12.3333C7.38 12.2522 7.36399 12.1646 7.36724 12.0766C7.36619 12.0332 7.37464 11.9901 7.392 11.9503C7.40936 11.9105 7.43521 11.875 7.46774 11.8463C7.53746 11.7949 7.58404 11.718 7.59734 11.6325C7.61063 11.5469 7.58957 11.4596 7.53873 11.3895C7.48789 11.3194 7.4114 11.2722 7.32593 11.2582C7.24047 11.2443 7.15296 11.2647 7.08247 11.315C6.97012 11.4009 6.87849 11.511 6.81434 11.637C6.7502 11.7631 6.71519 11.902 6.71188 12.0434C6.70775 12.1285 6.71256 12.2138 6.72622 12.2978L6.53516 12.3674C6.49467 12.3822 6.45748 12.4047 6.42571 12.4338C6.39394 12.463 6.36821 12.498 6.35001 12.5371C6.3318 12.5761 6.32146 12.6184 6.31958 12.6615C6.3177 12.7045 6.32432 12.7475 6.33906 12.788C6.3538 12.8285 6.37637 12.8657 6.40548 12.8975C6.4346 12.9292 6.46968 12.9549 6.50874 12.9732C6.54779 12.9914 6.59005 13.0017 6.6331 13.0036C6.67615 13.0055 6.71915 12.9988 6.75965 12.9841L6.99637 12.8979C7.03658 12.9473 7.08057 12.9934 7.12794 13.0358C7.3068 13.197 7.53877 13.2866 7.77951 13.2874C7.94514 13.2876 8.10784 13.2437 8.25097 13.1604C8.66296 12.9204 8.83012 12.4129 8.69821 11.803C8.66404 11.6452 8.69151 11.5208 8.77541 11.4528C8.80851 11.4264 8.84823 11.4097 8.89023 11.4043C8.93223 11.399 8.97488 11.4053 9.01354 11.4226C9.06897 11.4514 9.11794 11.4913 9.15745 11.5397C9.19697 11.5881 9.2262 11.644 9.24336 11.7041ZM24.2152 6.70857L21.5471 14.0394C22.4543 14.8413 23.0553 15.933 23.2479 17.1285C23.4404 18.3239 23.2124 19.5491 22.6029 20.5953C21.9933 21.6415 21.0399 22.444 19.905 22.866C18.7701 23.288 17.524 23.3035 16.379 22.9098H8.99966C8.80535 22.9096 8.61905 22.8323 8.48165 22.6949C8.34424 22.5575 8.26695 22.3712 8.26672 22.1769V21.8452L7.3371 22.1835C7.12163 22.2619 6.88384 22.2515 6.67604 22.1546C6.46824 22.0577 6.30744 21.8822 6.22902 21.6668L0.784677 6.70857C0.706549 6.49308 0.717093 6.25539 0.813996 6.04767C0.9109 5.83994 1.08625 5.67914 1.30157 5.60054L7.10001 3.49008V1.6703C7.10025 1.44114 7.19138 1.22144 7.35339 1.05937C7.5154 0.897304 7.73508 0.806109 7.96424 0.805786H16.7286C16.9579 0.806034 17.1776 0.897197 17.3397 1.05927C17.5018 1.22135 17.5929 1.44109 17.5932 1.6703V3.37833L23.6984 5.60054C23.9138 5.67914 24.0891 5.83994 24.186 6.04767C24.2829 6.25539 24.2935 6.49308 24.2153 6.70857H24.2152ZM20.9326 6.48915L17.5931 5.27368V9.43861C18.2574 9.71123 18.8064 10.2063 19.1458 10.8391C19.4853 11.4719 19.5943 12.2031 19.454 12.9074C19.6386 12.9573 19.8202 13.0175 19.9981 13.0875L21.7566 8.25601C21.4586 8.07736 21.2208 7.81358 21.074 7.49863C20.9271 7.18368 20.8779 6.83198 20.9327 6.48882L20.9326 6.48915ZM17.5932 12.7473C17.754 12.7324 17.9168 12.7244 18.0815 12.7244C18.3256 12.7244 18.5693 12.7415 18.811 12.7754C18.9112 12.2672 18.8473 11.7402 18.6284 11.2708C18.4095 10.8013 18.0469 10.4136 17.5932 10.1637V12.7473ZM7.75597 3.25126L9.53722 2.60293C9.60255 2.57943 9.67045 2.56386 9.73949 2.55657C9.76715 2.45969 9.78112 2.35942 9.78097 2.25868C9.78097 2.17165 9.81554 2.08819 9.87708 2.02666C9.93861 1.96512 10.0221 1.93055 10.1091 1.93055H14.731C14.818 1.93055 14.9015 1.96512 14.963 2.02666C15.0245 2.08819 15.0591 2.17165 15.0591 2.25868C15.0594 2.54536 15.1734 2.8202 15.3761 3.02292C15.5788 3.22564 15.8537 3.33967 16.1404 3.33999C16.2274 3.33999 16.3108 3.37456 16.3724 3.43609C16.4339 3.49763 16.4685 3.58109 16.4685 3.66811V12.979C16.6216 12.9293 16.7779 12.8865 16.9372 12.8507V1.6703C16.9372 1.61509 16.9152 1.56215 16.8762 1.5231C16.8371 1.48406 16.7842 1.4621 16.729 1.46204H7.96424C7.90902 1.4621 7.85609 1.48406 7.81704 1.5231C7.778 1.56215 7.75604 1.61509 7.75597 1.6703V3.25126ZM4.06419 7.44844C3.8968 7.81008 3.60934 8.10259 3.25068 8.27626L7.11454 18.8923C7.52102 18.8272 7.93745 18.9075 8.29054 19.1191C8.3107 19.0399 8.34407 18.9645 8.38926 18.8963C8.30928 18.7765 8.26664 18.6356 8.26672 18.4915V17.4584C8.26664 17.3143 8.30926 17.1734 8.38921 17.0536C8.30926 16.9337 8.26664 16.7929 8.26672 16.6488V15.6157C8.26659 15.4717 8.30916 15.3308 8.38907 15.2109C8.36391 15.1733 8.3423 15.1334 8.32452 15.0917C7.68967 15.0916 7.07017 14.8964 6.54996 14.5325C6.02974 14.1686 5.63394 13.6537 5.41616 13.0573C5.24593 12.5909 5.19052 12.0904 5.25462 11.598C5.31873 11.1057 5.50046 10.636 5.78445 10.2288C6.06844 9.82152 6.44633 9.48865 6.88617 9.25831C7.326 9.02797 7.81484 8.90694 8.31133 8.90547C8.80782 8.90399 9.29737 9.02211 9.73857 9.24982C10.1798 9.47754 10.5596 9.80816 10.846 10.2137C11.1324 10.6193 11.317 11.0879 11.384 11.5798C11.451 12.0718 11.3986 12.5726 11.2311 13.04H12.3605L9.75651 5.88549C9.41334 5.94025 9.06164 5.89103 8.74669 5.74417C8.43174 5.59732 8.16796 5.35955 7.98932 5.06147L4.20552 6.43885C4.26117 6.78193 4.21191 7.13383 4.06419 7.44844ZM12.8466 17.9593C12.8466 17.7663 12.8573 17.5735 12.8786 17.3817H8.99966C8.97933 17.3817 8.95984 17.3898 8.94546 17.4042C8.93109 17.4185 8.923 17.438 8.92297 17.4584V18.4915C8.923 18.5118 8.93109 18.5313 8.94546 18.5457C8.95984 18.5601 8.97933 18.5682 8.99966 18.5682H12.8821C12.8585 18.3661 12.8466 18.1628 12.8466 17.9593ZM8.99966 13.0401H10.5216C10.6925 12.6777 10.7714 12.2788 10.7511 11.8786C10.7309 11.4785 10.6122 11.0895 10.4055 10.7463C10.1989 10.403 9.91067 10.1161 9.56651 9.91096C9.22235 9.70583 8.83287 9.58883 8.43264 9.57036C8.03241 9.55189 7.63381 9.63252 7.27221 9.80508C6.91062 9.97764 6.59723 10.2368 6.35984 10.5596C6.12245 10.8823 5.96842 11.2587 5.91141 11.6553C5.8544 12.0518 5.89618 12.4564 6.03304 12.8329C6.20326 13.2921 6.50689 13.6899 6.90491 13.9753C7.30294 14.2606 7.77719 14.4204 8.26672 14.4341V13.7732C8.2669 13.5788 8.34417 13.3925 8.48158 13.2551C8.61899 13.1176 8.80531 13.0403 8.99966 13.0401ZM8.99966 20.4108H13.4575C13.2576 20.0355 13.1045 19.637 13.0016 19.2244H8.99966C8.97933 19.2244 8.95983 19.2325 8.94545 19.2469C8.93107 19.2613 8.92299 19.2808 8.92297 19.3011V20.3344C8.92305 20.3547 8.93116 20.3741 8.94553 20.3884C8.9599 20.4028 8.97937 20.4108 8.99966 20.4108ZM13.4407 15.5391H8.99966C8.97933 15.5391 8.95983 15.5472 8.94545 15.5615C8.93107 15.5759 8.92299 15.5954 8.92297 15.6158V16.6489C8.92301 16.6692 8.93111 16.6887 8.94548 16.703C8.95986 16.7174 8.97934 16.7255 8.99966 16.7255H12.9938C13.0938 16.3133 13.2439 15.9148 13.4407 15.5391ZM15.0464 13.6964H8.99952C8.97919 13.6964 8.9597 13.7045 8.94532 13.7189C8.93095 13.7332 8.92286 13.7527 8.92283 13.7731V14.8061C8.92286 14.8265 8.93095 14.846 8.94532 14.8603C8.9597 14.8747 8.97919 14.8828 8.99952 14.8828H13.8487C14.1818 14.4257 14.5862 14.0251 15.0464 13.6963V13.6964ZM13.7412 11.6255C14.166 11.3288 14.4851 10.9043 14.652 10.4138C14.819 9.92324 14.8252 9.39225 14.6696 8.89799C14.514 8.40373 14.2049 7.97198 13.7871 7.6655C13.3693 7.35902 12.8646 7.1938 12.3464 7.19386C12.2747 7.19386 12.2032 7.19808 12.132 7.20432L13.7412 11.6255ZM14.2561 13.0401H15.8121V3.96516C15.4712 3.8989 15.1579 3.73231 14.9124 3.48676C14.6668 3.24122 14.5002 2.92791 14.434 2.58704H10.4065C10.3965 2.63804 10.3841 2.68856 10.3695 2.73844C10.4952 2.83738 10.5907 2.96949 10.6453 3.11986L11.9011 6.5701C12.3402 6.50618 12.7878 6.5375 13.2137 6.66194C13.6395 6.78637 14.0336 7.00099 14.3691 7.29123C14.7047 7.58148 14.9738 7.94054 15.1583 8.34402C15.3428 8.74751 15.4382 9.18597 15.4382 9.62963C15.4399 10.1568 15.3059 10.6756 15.0491 11.1361C14.7923 11.5965 14.4213 11.9831 13.9719 12.2588L14.2561 13.0401ZM8.26672 21.1467V21.1438C8.26664 20.9997 8.30926 20.8588 8.38921 20.739C8.30926 20.6191 8.26663 20.4783 8.26672 20.3342V19.9645C8.12658 19.7767 7.92963 19.639 7.70508 19.572C7.48053 19.5049 7.24034 19.512 7.02013 19.5922C6.97964 19.6069 6.93663 19.6135 6.89358 19.6117C6.85052 19.6098 6.80826 19.5994 6.7692 19.5812C6.73014 19.563 6.69505 19.5373 6.66594 19.5055C6.63683 19.4737 6.61426 19.4365 6.59952 19.396L2.52233 8.19399C2.50662 8.15081 2.50015 8.10481 2.50334 8.05897C2.50654 8.01313 2.51933 7.96847 2.54088 7.92789C2.56243 7.8873 2.59226 7.8517 2.62845 7.82338C2.66464 7.79506 2.70637 7.77466 2.75094 7.76349C2.78762 7.75432 2.82379 7.74324 2.85932 7.7303C2.99275 7.68175 3.11531 7.60738 3.22 7.51145C3.32469 7.41552 3.40946 7.29991 3.46947 7.17122C3.52947 7.04253 3.56354 6.90327 3.56972 6.76141C3.5759 6.61955 3.55407 6.47787 3.50549 6.34444C3.49075 6.30395 3.48414 6.26095 3.48602 6.2179C3.4879 6.17485 3.49824 6.1326 3.51645 6.09354C3.53466 6.05449 3.56039 6.01941 3.59216 5.99029C3.62393 5.96118 3.66112 5.93862 3.70162 5.92388L8.04458 4.34316C8.08508 4.32842 8.12808 4.32179 8.17114 4.32367C8.21419 4.32555 8.25645 4.33589 8.29551 4.3541C8.33457 4.37231 8.36966 4.39804 8.39877 4.42981C8.42789 4.46159 8.45046 4.49879 8.46519 4.53929C8.56327 4.80876 8.76438 5.02824 9.02428 5.14944C9.28418 5.27064 9.58158 5.28363 9.85105 5.18555C9.89154 5.17081 9.93454 5.16418 9.9776 5.16605C10.0206 5.16793 10.0629 5.17826 10.102 5.19647C10.141 5.21468 10.1761 5.2404 10.2052 5.27217C10.2343 5.30394 10.2569 5.34114 10.2717 5.38163L13.0591 13.0401H13.5576L10.0286 3.34407C10.0097 3.29217 9.971 3.24989 9.92094 3.22654C9.87089 3.2032 9.81361 3.20069 9.76171 3.21957L1.52577 6.21718C1.47391 6.23614 1.43169 6.27488 1.40835 6.32492C1.38501 6.37496 1.38247 6.43222 1.40127 6.48413L6.84571 21.4423C6.86467 21.4941 6.90341 21.5364 6.95345 21.5597C7.00349 21.5831 7.06074 21.5856 7.11266 21.5668L8.26672 21.1467ZM15.0911 22.2535C14.6231 21.9266 14.2113 21.5259 13.8716 21.0671H8.99966C8.97933 21.0671 8.95984 21.0752 8.94546 21.0896C8.93109 21.104 8.923 21.1234 8.92297 21.1438V22.1769C8.923 22.1972 8.93109 22.2167 8.94547 22.2311C8.95984 22.2454 8.97933 22.2535 8.99966 22.2535H15.0911ZM18.0817 13.3806C17.1762 13.3806 16.2909 13.6492 15.5379 14.1523C14.785 14.6554 14.1981 15.3705 13.8516 16.2071C13.505 17.0438 13.4143 17.9644 13.591 18.8526C13.7677 19.7408 14.2038 20.5566 14.8441 21.197C15.4845 21.8373 16.3003 22.2734 17.1885 22.45C18.0767 22.6267 18.9973 22.536 19.8339 22.1895C20.6706 21.8429 21.3857 21.2561 21.8888 20.5031C22.3919 19.7501 22.6604 18.8649 22.6604 17.9593C22.6591 16.7453 22.1762 15.5815 21.3178 14.7231C20.4594 13.8647 19.2955 13.3819 18.0815 13.3806H18.0817ZM23.4744 6.21718L17.5932 4.07668V4.57529L21.4366 5.97418C21.4771 5.98891 21.5143 6.01148 21.546 6.04059C21.5778 6.0697 21.6035 6.10479 21.6217 6.14384C21.64 6.18289 21.6503 6.22515 21.6522 6.2682C21.6541 6.31125 21.6474 6.35425 21.6327 6.39474C21.5346 6.66421 21.5476 6.9616 21.6688 7.2215C21.79 7.4814 22.0094 7.68253 22.2789 7.78065C22.3194 7.79538 22.3566 7.81794 22.3884 7.84705C22.4201 7.87616 22.4459 7.91124 22.4641 7.9503C22.4823 7.98935 22.4926 8.03161 22.4945 8.07466C22.4964 8.11771 22.4898 8.16071 22.4751 8.20121L20.5945 13.3681C20.7344 13.4451 20.8703 13.528 21.0023 13.617L23.5985 6.48413C23.6173 6.43223 23.6148 6.375 23.5915 6.32496C23.5682 6.27492 23.526 6.23616 23.4741 6.21718H23.4744Z" fill="black"/>
</svg>
